<svg version="1.1" viewBox="0.0 0.0 362.06299212598424 100.0" fill="none" stroke="none" stroke-linecap="square" stroke-miterlimit="10" xmlns:xlink="http://www.w3.org/1999/xlink" xmlns="http://www.w3.org/2000/svg"><clipPath id="p.0"><path d="m0 0l362.063 0l0 100.0l-362.063 0l0 -100.0z" clip-rule="nonzero"/></clipPath><g clip-path="url(#p.0)"><path fill="#ffffff" d="m0 0l362.063 0l0 100.0l-362.063 0z" fill-rule="evenodd"/><path fill="#cccccc" d="m8.84252 50.0l0 0c0 -10.436878 8.46076 -18.897638 18.897638 -18.897638l0 0c5.011963 0 9.818653 1.9909954 13.362648 5.5349903c3.543995 3.543995 5.5349884 8.350681 5.5349884 13.362648l0 0c0 10.436878 -8.460758 18.897636 -18.897636 18.897636l0 0c-10.436878 0 -18.897638 -8.460758 -18.897638 -18.897636z" fill-rule="evenodd"/><path stroke="#000000" stroke-width="2.0" stroke-linejoin="round" stroke-linecap="butt" d="m8.84252 50.0l0 0c0 -10.436878 8.46076 -18.897638 18.897638 -18.897638l0 0c5.011963 0 9.818653 1.9909954 13.362648 5.5349903c3.543995 3.543995 5.5349884 8.350681 5.5349884 13.362648l0 0c0 10.436878 -8.460758 18.897636 -18.897636 18.897636l0 0c-10.436878 0 -18.897638 -8.460758 -18.897638 -18.897636z" fill-rule="evenodd"/><path fill="#000000" d="m29.34626 55.86l-1.40625 0l0 -8.96875q-0.515625 0.484375 -1.34375 0.96875q-0.8125 0.484375 -1.46875 0.734375l0 -1.359375q1.171875 -0.5625 2.046875 -1.34375q0.890625 -0.796875 1.265625 -1.53125l0.90625 0l0 11.5z" fill-rule="nonzero"/><path fill="#cccccc" d="m86.343834 50.0l0 0c0 -10.436878 8.460762 -18.897638 18.897636 -18.897638l0 0c5.011963 0 9.818649 1.9909954 13.362648 5.5349903c3.543991 3.543995 5.5349884 8.350681 5.5349884 13.362648l0 0c0 10.436878 -8.460762 18.897636 -18.897636 18.897636l0 0c-10.436874 0 -18.897636 -8.460758 -18.897636 -18.897636z" fill-rule="evenodd"/><path stroke="#000000" stroke-width="2.0" stroke-linejoin="round" stroke-linecap="butt" d="m86.343834 50.0l0 0c0 -10.436878 8.460762 -18.897638 18.897636 -18.897638l0 0c5.011963 0 9.818649 1.9909954 13.362648 5.5349903c3.543991 3.543995 5.5349884 8.350681 5.5349884 13.362648l0 0c0 10.436878 -8.460762 18.897636 -18.897636 18.897636l0 0c-10.436874 0 -18.897636 -8.460758 -18.897636 -18.897636z" fill-rule="evenodd"/><path fill="#000000" d="m108.94132 54.500626l0 1.359375l-7.578125 0q-0.015625 -0.515625 0.171875 -0.984375q0.28125 -0.765625 0.921875 -1.515625q0.640625 -0.75 1.84375 -1.734375q1.859375 -1.53125 2.515625 -2.421875q0.65625 -0.90625 0.65625 -1.703125q0 -0.828125 -0.59375 -1.40625q-0.59375 -0.578125 -1.5625 -0.578125q-1.015625 0 -1.625 0.609375q-0.609375 0.609375 -0.609375 1.6875l-1.453125 -0.140625q0.15625 -1.625 1.125 -2.46875q0.96875 -0.84375 2.59375 -0.84375q1.65625 0 2.609375 0.921875q0.96875 0.90625 0.96875 2.25q0 0.6875 -0.28125 1.359375q-0.28125 0.65625 -0.9375 1.390625q-0.65625 0.734375 -2.171875 2.015625q-1.265625 1.0625 -1.625 1.453125q-0.359375 0.375 -0.59375 0.75l5.625 0z" fill-rule="nonzero"/><path fill="#000000" fill-opacity="0.0" d="m46.637794 50.0l39.716537 0" fill-rule="evenodd"/><path stroke="#000000" stroke-width="2.0" stroke-linejoin="round" stroke-linecap="butt" d="m46.637794 50.0l27.716537 0" fill-rule="evenodd"/><path fill="#000000" stroke="#000000" stroke-width="2.0" stroke-linecap="butt" d="m74.35433 53.303463l9.076195 -3.303463l-9.076195 -3.303463z" fill-rule="evenodd"/><path fill="#cccccc" d="m163.84514 50.0l0 0c0 -10.436878 8.46077 -18.897638 18.897644 -18.897638l0 0c5.011963 0 9.818649 1.9909954 13.36264 5.5349903c3.5440063 3.543995 5.5350037 8.350681 5.5350037 13.362648l0 0c0 10.436878 -8.46077 18.897636 -18.897644 18.897636l0 0c-10.436874 0 -18.897644 -8.460758 -18.897644 -18.897636z" fill-rule="evenodd"/><path stroke="#000000" stroke-width="2.0" stroke-linejoin="round" stroke-linecap="butt" d="m163.84514 50.0l0 0c0 -10.436878 8.46077 -18.897638 18.897644 -18.897638l0 0c5.011963 0 9.818649 1.9909954 13.36264 5.5349903c3.5440063 3.543995 5.5350037 8.350681 5.5350037 13.362648l0 0c0 10.436878 -8.46077 18.897636 -18.897644 18.897636l0 0c-10.436874 0 -18.897644 -8.460758 -18.897644 -18.897636z" fill-rule="evenodd"/><path fill="#000000" d="m179.052 52.82875l1.40625 -0.1875q0.25 1.203125 0.828125 1.734375q0.578125 0.515625 1.421875 0.515625q0.984375 0 1.671875 -0.6875q0.6875 -0.6875 0.6875 -1.703125q0 -0.96875 -0.640625 -1.59375q-0.625 -0.625 -1.609375 -0.625q-0.390625 0 -0.984375 0.15625l0.15625 -1.234375q0.140625 0.015625 0.21875 0.015625q0.90625 0 1.625 -0.46875q0.71875 -0.46875 0.71875 -1.453125q0 -0.765625 -0.53125 -1.265625q-0.515625 -0.515625 -1.34375 -0.515625q-0.828125 0 -1.375 0.515625q-0.546875 0.515625 -0.703125 1.546875l-1.40625 -0.25q0.265625 -1.421875 1.171875 -2.1875q0.921875 -0.78125 2.28125 -0.78125q0.9375 0 1.71875 0.40625q0.796875 0.390625 1.203125 1.09375q0.421875 0.6875 0.421875 1.46875q0 0.75 -0.40625 1.359375q-0.390625 0.609375 -1.171875 0.96875q1.015625 0.234375 1.578125 0.96875q0.5625 0.734375 0.5625 1.84375q0 1.5 -1.09375 2.546875q-1.09375 1.046875 -2.765625 1.046875q-1.5 0 -2.5 -0.890625q-1.0 -0.90625 -1.140625 -2.34375z" fill-rule="nonzero"/><path fill="#000000" fill-opacity="0.0" d="m124.13911 50.0l39.71653 0" fill-rule="evenodd"/><path stroke="#000000" stroke-width="2.0" stroke-linejoin="round" stroke-linecap="butt" d="m124.13911 50.0l27.71653 0" fill-rule="evenodd"/><path fill="#000000" stroke="#000000" stroke-width="2.0" stroke-linecap="butt" d="m151.85564 53.303463l9.076202 -3.303463l-9.076202 -3.303463z" fill-rule="evenodd"/><path fill="#cccccc" d="m241.35695 50.0l0 0c0 -10.436878 8.46077 -18.897638 18.89766 -18.897638l0 0c5.011963 0 9.818634 1.9909954 13.36264 5.5349903c3.5439758 3.543995 5.534973 8.350681 5.534973 13.362648l0 0c0 10.436878 -8.460754 18.897636 -18.897614 18.897636l0 0c-10.43689 0 -18.89766 -8.460758 -18.89766 -18.897636z" fill-rule="evenodd"/><path stroke="#000000" stroke-width="2.0" stroke-linejoin="round" stroke-linecap="butt" d="m241.35695 50.0l0 0c0 -10.436878 8.46077 -18.897638 18.89766 -18.897638l0 0c5.011963 0 9.818634 1.9909954 13.36264 5.5349903c3.5439758 3.543995 5.534973 8.350681 5.534973 13.362648l0 0c0 10.436878 -8.460754 18.897636 -18.897614 18.897636l0 0c-10.43689 0 -18.89766 -8.460758 -18.89766 -18.897636z" fill-rule="evenodd"/><path fill="#000000" d="m261.0638 55.86l0 -2.75l-4.96875 0l0 -1.28125l5.234375 -7.421875l1.140625 0l0 7.421875l1.546875 0l0 1.28125l-1.546875 0l0 2.75l-1.40625 0zm0 -4.03125l0 -5.171875l-3.578125 5.171875l3.578125 0z" fill-rule="nonzero"/><path fill="#000000" fill-opacity="0.0" d="m201.64043 50.0l39.716522 0" fill-rule="evenodd"/><path stroke="#000000" stroke-width="2.0" stroke-linejoin="round" stroke-linecap="butt" d="m201.64043 50.0l27.716522 0" fill-rule="evenodd"/><path fill="#000000" stroke="#000000" stroke-width="2.0" stroke-linecap="butt" d="m229.35695 53.303463l9.076202 -3.303463l-9.076202 -3.303463z" fill-rule="evenodd"/><path fill="#cccccc" d="m318.85828 50.0l0 0c0 -10.436878 8.460754 -18.897638 18.897644 -18.897638l0 0c5.011963 0 9.818634 1.9909954 13.36264 5.5349903c3.5439758 3.543995 5.534973 8.350681 5.534973 13.362648l0 0c0 10.436878 -8.460754 18.897636 -18.897614 18.897636l0 0c-10.43689 0 -18.897644 -8.460758 -18.897644 -18.897636z" fill-rule="evenodd"/><path stroke="#000000" stroke-width="2.0" stroke-linejoin="round" stroke-linecap="butt" d="m318.85828 50.0l0 0c0 -10.436878 8.460754 -18.897638 18.897644 -18.897638l0 0c5.011963 0 9.818634 1.9909954 13.36264 5.5349903c3.5439758 3.543995 5.534973 8.350681 5.534973 13.362648l0 0c0 10.436878 -8.460754 18.897636 -18.897614 18.897636l0 0c-10.43689 0 -18.897644 -8.460758 -18.897644 -18.897636z" fill-rule="evenodd"/><path fill="#000000" d="m334.06512 52.86l1.46875 -0.125q0.171875 1.078125 0.765625 1.625q0.59375 0.53125 1.4375 0.53125q1.015625 0 1.71875 -0.765625q0.703125 -0.765625 0.703125 -2.03125q0 -1.203125 -0.671875 -1.890625q-0.671875 -0.703125 -1.765625 -0.703125q-0.6875 0 -1.234375 0.3125q-0.546875 0.3125 -0.859375 0.796875l-1.3125 -0.171875l1.109375 -5.875l5.6875 0l0 1.34375l-4.5625 0l-0.625 3.078125q1.03125 -0.71875 2.171875 -0.71875q1.5 0 2.53125 1.046875q1.03125 1.03125 1.03125 2.65625q0 1.5625 -0.90625 2.6875q-1.109375 1.40625 -3.015625 1.40625q-1.5625 0 -2.546875 -0.875q-0.984375 -0.890625 -1.125 -2.328125z" fill-rule="nonzero"/><path fill="#000000" fill-opacity="0.0" d="m279.15222 50.0l39.716553 0" fill-rule="evenodd"/><path stroke="#000000" stroke-width="2.0" stroke-linejoin="round" stroke-linecap="butt" d="m279.15222 50.0l27.716553 0" fill-rule="evenodd"/><path fill="#000000" stroke="#000000" stroke-width="2.0" stroke-linecap="butt" d="m306.86877 53.303463l9.076202 -3.303463l-9.076202 -3.303463z" fill-rule="evenodd"/></g></svg>