<svg version="1.1" viewBox="0.0 0.0 892.3569553805775 100.0" fill="none" stroke="none" stroke-linecap="square" stroke-miterlimit="10" xmlns:xlink="http://www.w3.org/1999/xlink" xmlns="http://www.w3.org/2000/svg"><clipPath id="p.0"><path d="m0 0l892.35693 0l0 100.0l-892.35693 0l0 -100.0z" clip-rule="nonzero"/></clipPath><g clip-path="url(#p.0)"><path fill="#000000" fill-opacity="0.0" d="m0 0l892.35693 0l0 100.0l-892.35693 0z" fill-rule="evenodd"/><path fill="#000000" fill-opacity="0.0" d="m0 0.85564303l53.480316 0l0 42.015747l-53.480316 0z" fill-rule="evenodd"/><path fill="#000000" d="m16.866882 29.39139l0 -12.140625l-2.125 0l0 -1.125l3.9375 -0.32812405l0 13.593749l-1.8125 0zm12.828049 0.34375q-1.515625 0 -2.609375 -0.96875q-1.078125 -0.984375 -1.59375 -2.625q-0.515625 -1.65625 -0.515625 -3.484375q0 -1.828125 0.515625 -3.484375q0.515625 -1.65625 1.609375 -2.625q1.09375 -0.96874905 2.59375 -0.96874905q1.515625 0 2.59375 0.96874905q1.09375 0.96875 1.609375 2.625q0.515625 1.640625 0.515625 3.484375q0 1.8125 -0.515625 3.46875q-0.515625 1.640625 -1.609375 2.625q-1.078125 0.984375 -2.59375 0.984375zm0 -1.359375q1.46875 0 2.140625 -1.5625q0.671875 -1.578125 0.671875 -4.15625q0 -2.578125 -0.671875 -4.15625q-0.671875 -1.578125 -2.140625 -1.578125q-1.484375 0 -2.15625 1.578125q-0.65625 1.578125 -0.65625 4.15625q0 2.578125 0.65625 4.15625q0.671875 1.5625 2.15625 1.5625zm7.9374237 1.015625l0 -1.796875l1.796875 0l0 1.796875l-1.796875 0zm0.234375 -3.59375l-0.234375 -7.1875l0 -2.703124l1.796875 0l0 2.703124l-0.21875 7.1875l-1.34375 0z" fill-rule="nonzero"/><path fill="#000000" fill-opacity="0.0" d="m2.2703412 23.818897l53.480316 0l0 42.01575l-53.480316 0z" fill-rule="evenodd"/><path fill="#000000" d="m22.426249 50.78577l0 -1.59375q1.34375 0.53125 2.546875 0.53125q1.46875 0 2.15625 -0.859375q0.703125 -0.859375 0.703125 -2.0625q0 -1.390625 -1.015625 -2.21875q-1.015625 -0.828125 -3.171875 -0.828125q-0.484375 0 -0.984375 0.0625l0 -6.5625l6.8125 0l0 1.5625l-5.234375 0l0 3.5625q2.84375 0 4.171875 1.296875q1.328125 1.296875 1.328125 3.203125q0 1.75 -1.203125 2.984375q-1.203125 1.21875 -3.78125 1.21875q-1.03125 0 -2.328125 -0.296875zm11.578047 -0.046875l0 -1.796875l1.796875 0l0 1.796875l-1.796875 0zm0.234375 -3.59375l-0.234375 -7.1875l0 -2.703125l1.796875 0l0 2.703125l-0.21875 7.1875l-1.34375 0z" fill-rule="nonzero"/><path fill="#000000" fill-opacity="0.0" d="m7.8425198 32.963253l37.795273 -0.37795258" fill-rule="evenodd"/><path stroke="#000000" stroke-width="2.0" stroke-linejoin="round" stroke-linecap="butt" d="m7.8425198 32.963253l37.795273 -0.37795258" fill-rule="evenodd"/><path fill="#000000" fill-opacity="0.0" d="m45.637794 11.766404l29.259842 0l0 42.01575l-29.259842 0z" fill-rule="evenodd"/><path fill="#000000" d="m55.59092 36.353653l0 -1.34375l9.890625 0l0 1.34375l-9.890625 0zm0 -3.15625l0 -1.3437481l9.890625 0l0 1.3437481l-9.890625 0z" fill-rule="nonzero"/><path fill="#000000" fill-opacity="0.0" d="m68.04989 0.5695538l192.18896 0l0 42.015747l-192.18896 0z" fill-rule="evenodd"/><path fill="#000000" d="m86.2742 30.558426l0 1.25q-1.484375 -1.015625 -2.40625 -2.421875q-0.921875 -1.40625 -1.390625 -3.0q-0.46875 -1.59375 -0.46875 -3.125q0 -1.53125 0.46875 -3.125q0.46875 -1.59375 1.390625 -3.0q0.921875 -1.40625 2.40625 -2.421875l0 1.25q-1.03125 1.109375 -1.53125 2.171875q-0.484375 1.046875 -0.71875 2.359375q-0.21875 1.3125 -0.21875 2.765625q0 1.453125 0.21875 2.765625q0.234375 1.3125 0.71875 2.375q0.5 1.046875 1.53125 2.15625zm2.223175 -1.453125l0 -1.578125q0.78125 -1.828125 3.171875 -3.984375l1.03125 -0.921875q1.125 -1.015625 1.546875 -1.84375q0.4375 -0.828125 0.4375 -1.71875q0 -1.140625 -0.703125 -1.78125q-0.6875 -0.640625 -1.84375 -0.640625q-0.5 0 -0.96875 0.09375q-0.453125 0.09375 -0.984375 0.3125q-0.515625 0.203125 -1.34375 0.671875l0 -1.578125q1.796875 -0.84375 3.5625 -0.84375q1.9375 0 3.0625 1.0625q1.125 1.0625 1.125 2.65625q0 1.03125 -0.46875 1.953125q-0.453125 0.921875 -2.265625 2.46875l-0.6875 0.59375q-0.765625 0.640625 -1.53125 1.5625q-0.765625 0.90625 -0.96875 1.9375l5.859375 0l0 1.578125l-8.03125 0zm12.078049 2.921875l0 -0.671875q0.28125 -0.078125 0.453125 -0.3125q0.171875 -0.21875 0.296875 -0.578125q0.125 -0.34375 0.125 -1.171875l0 -0.1875l-0.875 0l0 -2.25l2.25 0l0 1.953125q0 1.546875 -0.546875 2.328125q-0.53125 0.78125 -1.703125 0.890625zm8.371704 -10.265625q-1.296875 -0.890625 -1.640625 -1.5625q-0.34375 -0.6875 -0.34375 -1.484375q0 -1.484375 1.09375 -2.453125q1.109375 -0.984375 2.953125 -0.984375q1.671875 0 2.703125 0.8125q1.03125 0.8125 1.03125 2.109375q0 0.890625 -0.53125 1.765625q-0.53125 0.859375 -1.984375 1.796875q1.703125 0.828125 2.375 1.75q0.671875 0.90625 0.671875 2.109375q0 1.5625 -1.21875 2.703125q-1.21875 1.125 -3.328125 1.125q-2.171875 0 -3.328125 -1.078125q-1.140625 -1.09375 -1.140625 -2.578125q0 -1.0625 0.625 -2.125q0.640625 -1.0625 2.0625 -1.90625zm2.28125 -0.5625q0.890625 -0.59375 1.390625 -1.296875q0.5 -0.71875 0.5 -1.46875q0 -0.78125 -0.625 -1.28125q-0.625 -0.515625 -1.671875 -0.515625q-1.0625 0 -1.65625 0.53125q-0.578125 0.515625 -0.578125 1.21875q0 0.65625 0.46875 1.265625q0.484375 0.59375 2.171875 1.546875zm-1.3125 1.296875q-1.28125 0.984375 -1.578125 1.625q-0.28125 0.640625 -0.28125 1.375q0 1.1875 0.765625 1.890625q0.78125 0.703125 1.953125 0.703125q1.09375 0 1.875 -0.578125q0.78125 -0.578125 0.78125 -1.609375q0 -0.734375 -0.421875 -1.265625q-0.40625 -0.546875 -1.8125 -1.390625l-1.28125 -0.75zm7.2030487 -6.53125l0 -1.25q1.484375 1.015625 2.40625 2.421875q0.921875 1.40625 1.390625 3.0q0.484375 1.59375 0.484375 3.125q0 1.53125 -0.484375 3.125q-0.46875 1.59375 -1.390625 3.0q-0.921875 1.40625 -2.40625 2.421875l0 -1.25q1.03125 -1.109375 1.515625 -2.15625q0.5 -1.0625 0.71875 -2.375q0.234375 -1.328125 0.234375 -2.765625q0 -1.4375 -0.234375 -2.75q-0.21875 -1.328125 -0.71875 -2.375q-0.484375 -1.0625 -1.515625 -2.171875zm10.785675 14.59375l0 1.25q-1.484375 -1.015625 -2.40625 -2.421875q-0.921875 -1.40625 -1.390625 -3.0q-0.46875 -1.59375 -0.46875 -3.125q0 -1.53125 0.46875 -3.125q0.46875 -1.59375 1.390625 -3.0q0.921875 -1.40625 2.40625 -2.421875l0 1.25q-1.03125 1.109375 -1.53125 2.171875q-0.484375 1.046875 -0.71875 2.359375q-0.21875 1.3125 -0.21875 2.765625q0 1.453125 0.21875 2.765625q0.234375 1.3125 0.71875 2.375q0.5 1.046875 1.53125 2.15625zm2.566925 -1.546875l0 -1.6875q1.921875 0.765625 3.03125 0.765625q1.28125 0 2.09375 -0.75q0.8125 -0.75 0.8125 -1.9375q0 -1.171875 -0.828125 -2.0q-0.828125 -0.84375 -3.140625 -0.84375l-0.71875 0l0 -1.21875l0.625 0q2.171875 0 2.953125 -0.78125q0.78125 -0.796875 0.78125 -1.859375q0 -0.9375 -0.625 -1.5q-0.609375 -0.5625 -1.84375 -0.5625q-1.328125 0 -2.953125 0.75l0 -1.5625q1.15625 -0.390625 1.796875 -0.453125q0.65625 -0.078125 1.265625 -0.078125q2.140625 0 3.15625 0.859375q1.015625 0.84375 1.015625 2.265625q0 0.78125 -0.296875 1.390625q-0.28125 0.59375 -0.875 1.109375q-0.59375 0.515625 -1.640625 0.875q1.3125 0.3125 1.953125 0.796875q0.640625 0.484375 0.96875 1.21875q0.328125 0.71875 0.328125 1.5625q0 1.578125 -1.078125 2.828125q-1.078125 1.25 -3.625 1.25q-1.25 0 -3.15625 -0.4375zm11.734299 3.015625l0 -0.671875q0.28125 -0.078125 0.453125 -0.3125q0.171875 -0.21875 0.296875 -0.578125q0.125 -0.34375 0.125 -1.171875l0 -0.1875l-0.875 0l0 -2.25l2.25 0l0 1.953125q0 1.546875 -0.546875 2.328125q-0.53125 0.78125 -1.703125 0.890625zm11.090454 -2.921875l0 -3.8125l-6.0625 0l0 -1.359375l6.0625 -8.3125l1.6875 0l0 8.203125l1.8125 0l0 1.46875l-1.8125 0l0 3.8125l-1.6875 0zm-4.296875 -5.28125l4.421875 0l0 -6.0l-4.421875 6.0zm9.749924 -7.859375l0 -1.25q1.484375 1.015625 2.40625 2.421875q0.921875 1.40625 1.390625 3.0q0.484375 1.59375 0.484375 3.125q0 1.53125 -0.484375 3.125q-0.46875 1.59375 -1.390625 3.0q-0.921875 1.40625 -2.40625 2.421875l0 -1.25q1.03125 -1.109375 1.515625 -2.15625q0.5 -1.0625 0.71875 -2.375q0.234375 -1.328125 0.234375 -2.765625q0 -1.4375 -0.234375 -2.75q-0.21875 -1.328125 -0.71875 -2.375q-0.484375 -1.0625 -1.515625 -2.171875zm10.785675 14.59375l0 1.25q-1.484375 -1.015625 -2.40625 -2.421875q-0.921875 -1.40625 -1.390625 -3.0q-0.46875 -1.59375 -0.46875 -3.125q0 -1.53125 0.46875 -3.125q0.46875 -1.59375 1.390625 -3.0q0.921875 -1.40625 2.40625 -2.421875l0 1.25q-1.03125 1.109375 -1.53125 2.171875q-0.484375 1.046875 -0.71875 2.359375q-0.21875 1.3125 -0.21875 2.765625q0 1.453125 0.21875 2.765625q0.234375 1.3125 0.71875 2.375q0.5 1.046875 1.53125 2.15625zm2.941925 -1.40625l0 -1.59375q1.34375 0.53125 2.546875 0.53125q1.46875 0 2.15625 -0.859375q0.703125 -0.859375 0.703125 -2.0625q0 -1.390625 -1.015625 -2.21875q-1.015625 -0.828125 -3.171875 -0.828125q-0.484375 0 -0.984375 0.0625l0 -6.5625l6.8125 0l0 1.5625l-5.234375 0l0 3.5625q2.84375 0 4.171875 1.296875q1.328125 1.296875 1.328125 3.203125q0 1.75 -1.203125 2.984375q-1.203125 1.21875 -3.78125 1.21875q-1.03125 0 -2.328125 -0.296875zm11.359299 2.875l0 -0.671875q0.28125 -0.078125 0.453125 -0.3125q0.171875 -0.21875 0.296875 -0.578125q0.125 -0.34375 0.125 -1.171875l0 -0.1875l-0.875 0l0 -2.25l2.25 0l0 1.953125q0 1.546875 -0.546875 2.328125q-0.53125 0.78125 -1.703125 0.890625zm5.621704 -2.921875l0 -1.578125q0.78125 -1.828125 3.171875 -3.984375l1.03125 -0.921875q1.125 -1.015625 1.546875 -1.84375q0.4375 -0.828125 0.4375 -1.71875q0 -1.140625 -0.703125 -1.78125q-0.6875 -0.640625 -1.84375 -0.640625q-0.5 0 -0.96875 0.09375q-0.453125 0.09375 -0.984375 0.3125q-0.515625 0.203125 -1.34375 0.671875l0 -1.578125q1.796875 -0.84375 3.5625 -0.84375q1.9375 0 3.0625153 1.0625q1.125 1.0625 1.125 2.65625q0 1.03125 -0.46875 1.953125q-0.453125 0.921875 -2.2656403 2.46875l-0.6875 0.59375q-0.765625 0.640625 -1.53125 1.5625q-0.765625 0.90625 -0.96875 1.9375l5.8593903 0l0 1.578125l-8.031265 0zm10.921799 -13.140625l0 -1.25q1.484375 1.015625 2.40625 2.421875q0.921875 1.40625 1.390625 3.0q0.484375 1.59375 0.484375 3.125q0 1.53125 -0.484375 3.125q-0.46875 1.59375 -1.390625 3.0q-0.921875 1.40625 -2.40625 2.421875l0 -1.25q1.03125 -1.109375 1.515625 -2.15625q0.5 -1.0625 0.71875 -2.375q0.234375 -1.328125 0.234375 -2.765625q0 -1.4375 -0.234375 -2.75q-0.21875 -1.328125 -0.71875 -2.375q-0.484375 -1.0625 -1.515625 -2.171875zm10.785675 14.59375l0 1.25q-1.484375 -1.015625 -2.40625 -2.421875q-0.921875 -1.40625 -1.390625 -3.0q-0.46875 -1.59375 -0.46875 -3.125q0 -1.53125 0.46875 -3.125q0.46875 -1.59375 1.390625 -3.0q0.921875 -1.40625 2.40625 -2.421875l0 1.25q-1.03125 1.109375 -1.53125 2.171875q-0.484375 1.046875 -0.71875 2.359375q-0.21875 1.3125 -0.21875 2.765625q0 1.453125 0.21875 2.765625q0.234375 1.3125 0.71875 2.375q0.5 1.046875 1.53125 2.15625zm3.4888 -1.453125q0.296875 -1.828125 0.859375 -3.015625q0.578125 -1.1875 1.609375 -2.859375l3.6875 -5.921875l-6.953125 0l0 -1.6875l8.65625 0l0 1.6875q-1.75 2.5625 -2.875 4.625q-1.125 2.046875 -1.921875 3.859375q-0.78125 1.796875 -1.0 3.3125l-2.0625 0zm10.812439 2.921875l0 -0.671875q0.28125 -0.078125 0.453125 -0.3125q0.171875 -0.21875 0.296875 -0.578125q0.125 -0.34375 0.125 -1.171875l0 -0.1875l-0.875 0l0 -2.25l2.25 0l0 1.953125q0 1.546875 -0.546875 2.328125q-0.53125 0.78125 -1.703125 0.890625zm8.949829 -2.921875l0 -12.140625l-2.125 0l0 -1.125l3.9375 -0.328125l0 13.59375l-1.8125 0zm7.5936584 -13.140625l0 -1.25q1.484375 1.015625 2.40625 2.421875q0.921875 1.40625 1.390625 3.0q0.484375 1.59375 0.484375 3.125q0 1.53125 -0.484375 3.125q-0.46875 1.59375 -1.390625 3.0q-0.921875 1.40625 -2.40625 2.421875l0 -1.25q1.03125 -1.109375 1.515625 -2.15625q0.5 -1.0625 0.71875 -2.375q0.234375 -1.328125 0.234375 -2.765625q0 -1.4375 -0.234375 -2.75q-0.21875 -1.328125 -0.71875 -2.375q-0.484375 -1.0625 -1.515625 -2.171875z" fill-rule="nonzero"/><path fill="#000000" fill-opacity="0.0" d="m70.32017 23.532808l197.95276 0l0 42.015747l-197.95276 0z" fill-rule="evenodd"/><path fill="#000000" d="m112.24157 51.905933l0 1.25q-1.484375 -1.015625 -2.40625 -2.421875q-0.921875 -1.40625 -1.390625 -3.0q-0.46875 -1.59375 -0.46875 -3.125q0 -1.53125 0.46875 -3.125q0.46875 -1.59375 1.390625 -3.0q0.921875 -1.40625 2.40625 -2.421875l0 1.25q-1.03125 1.109375 -1.53125 2.171875q-0.484375 1.046875 -0.71875 2.359375q-0.21875 1.3125 -0.21875 2.765625q0 1.453125 0.21875 2.765625q0.234375 1.3125 0.71875 2.375q0.5 1.046875 1.53125 2.15625zm2.223175 -1.453125l0 -1.578125q0.78125 -1.828125 3.171875 -3.984375l1.03125 -0.921875q1.125 -1.015625 1.546875 -1.84375q0.4375 -0.828125 0.4375 -1.71875q0 -1.140625 -0.703125 -1.78125q-0.6875 -0.640625 -1.84375 -0.640625q-0.5 0 -0.96875 0.09375q-0.453125 0.09375 -0.984375 0.3125q-0.515625 0.203125 -1.34375 0.671875l0 -1.578125q1.796875 -0.84375 3.5625 -0.84375q1.9375 0 3.0625 1.0625q1.125 1.0625 1.125 2.65625q0 1.03125 -0.46875 1.953125q-0.453125 0.921875 -2.265625 2.46875l-0.6875 0.59375q-0.765625 0.640625 -1.53125 1.5625q-0.765625 0.90625 -0.96875 1.9375l5.859375 0l0 1.578125l-8.03125 0zm12.078049 2.921875l0 -0.671875q0.28125 -0.078125 0.453125 -0.3125q0.171875 -0.21875 0.296875 -0.578125q0.125 -0.34375 0.125 -1.171875l0 -0.1875l-0.875 0l0 -2.25l2.2499924 0l0 1.953125q0 1.546875 -0.546875 2.328125q-0.5312424 0.78125 -1.7031174 0.890625zm5.9654465 -3.015625l0 -1.6875q1.921875 0.765625 3.03125 0.765625q1.28125 0 2.09375 -0.75q0.8125 -0.75 0.8125 -1.9375q0 -1.171875 -0.828125 -2.0q-0.828125 -0.84375 -3.140625 -0.84375l-0.71875 0l0 -1.21875l0.625 0q2.171875 0 2.953125 -0.78125q0.78125 -0.796875 0.78125 -1.859375q0 -0.9375 -0.625 -1.5q-0.609375 -0.5625 -1.84375 -0.5625q-1.328125 0 -2.953125 0.75l0 -1.5625q1.15625 -0.390625 1.796875 -0.453125q0.65625 -0.078125 1.265625 -0.078125q2.140625 0 3.15625 0.859375q1.015625 0.84375 1.015625 2.265625q0 0.78125 -0.296875 1.390625q-0.28125 0.59375 -0.875 1.109375q-0.59375 0.515625 -1.640625 0.875q1.3125 0.3125 1.953125 0.796875q0.640625 0.484375 0.96875 1.21875q0.328125 0.71875 0.328125 1.5625q0 1.578125 -1.078125 2.828125q-1.078125 1.25 -3.625 1.25q-1.25 0 -3.15625 -0.4375zm10.578049 -13.046875l0 -1.25q1.484375 1.015625 2.40625 2.421875q0.921875 1.40625 1.390625 3.0q0.484375 1.59375 0.484375 3.125q0 1.53125 -0.484375 3.125q-0.46875 1.59375 -1.390625 3.0q-0.921875 1.40625 -2.40625 2.421875l0 -1.25q1.03125 -1.109375 1.515625 -2.15625q0.5 -1.0625 0.71875 -2.375q0.234375 -1.328125 0.234375 -2.765625q0 -1.4375 -0.234375 -2.75q-0.21875 -1.328125 -0.71875 -2.375q-0.484375 -1.0625 -1.515625 -2.171875zm10.785675 14.59375l0 1.25q-1.484375 -1.015625 -2.40625 -2.421875q-0.921875 -1.40625 -1.390625 -3.0q-0.46875 -1.59375 -0.46875 -3.125q0 -1.53125 0.46875 -3.125q0.46875 -1.59375 1.390625 -3.0q0.921875 -1.40625 2.40625 -2.421875l0 1.25q-1.03125 1.109375 -1.53125 2.171875q-0.484375 1.046875 -0.71875 2.359375q-0.21875 1.3125 -0.21875 2.765625q0 1.453125 0.21875 2.765625q0.234375 1.3125 0.71875 2.375q0.5 1.046875 1.53125 2.15625zm2.566925 -1.546875l0 -1.6875q1.921875 0.765625 3.03125 0.765625q1.28125 0 2.09375 -0.75q0.8125 -0.75 0.8125 -1.9375q0 -1.171875 -0.828125 -2.0q-0.828125 -0.84375 -3.140625 -0.84375l-0.71875 0l0 -1.21875l0.625 0q2.171875 0 2.953125 -0.78125q0.78125 -0.796875 0.78125 -1.859375q0 -0.9375 -0.625 -1.5q-0.609375 -0.5625 -1.84375 -0.5625q-1.328125 0 -2.953125 0.75l0 -1.5625q1.15625 -0.390625 1.796875 -0.453125q0.65625 -0.078125 1.265625 -0.078125q2.140625 0 3.15625 0.859375q1.015625 0.84375 1.015625 2.265625q0 0.78125 -0.296875 1.390625q-0.28125 0.59375 -0.875 1.109375q-0.59375 0.515625 -1.640625 0.875q1.3125 0.3125 1.953125 0.796875q0.640625 0.484375 0.96875 1.21875q0.328125 0.71875 0.328125 1.5625q0 1.578125 -1.078125 2.828125q-1.078125 1.25 -3.625 1.25q-1.25 0 -3.15625 -0.4375zm11.734299 3.015625l0 -0.671875q0.28125 -0.078125 0.453125 -0.3125q0.171875 -0.21875 0.296875 -0.578125q0.125 -0.34375 0.125 -1.171875l0 -0.1875l-0.875 0l0 -2.25l2.25 0l0 1.953125q0 1.546875 -0.546875 2.328125q-0.53125 0.78125 -1.703125 0.890625zm8.949829 -2.921875l0 -12.140625l-2.125 0l0 -1.125l3.9375 -0.328125l0 13.59375l-1.8125 0zm7.5936737 -13.140625l0 -1.25q1.484375 1.015625 2.40625 2.421875q0.921875 1.40625 1.390625 3.0q0.484375 1.59375 0.484375 3.125q0 1.53125 -0.484375 3.125q-0.46875 1.59375 -1.390625 3.0q-0.921875 1.40625 -2.40625 2.421875l0 -1.25q1.03125 -1.109375 1.515625 -2.15625q0.5 -1.0625 0.71875 -2.375q0.234375 -1.328125 0.234375 -2.765625q0 -1.4375 -0.234375 -2.75q-0.21875 -1.328125 -0.71875 -2.375q-0.484375 -1.0625 -1.515625 -2.171875zm10.785675 14.59375l0 1.25q-1.484375 -1.015625 -2.40625 -2.421875q-0.921875 -1.40625 -1.390625 -3.0q-0.46875 -1.59375 -0.46875 -3.125q0 -1.53125 0.46875 -3.125q0.46875 -1.59375 1.390625 -3.0q0.921875 -1.40625 2.40625 -2.421875l0 1.25q-1.03125 1.109375 -1.53125 2.171875q-0.484375 1.046875 -0.71875 2.359375q-0.21875 1.3125 -0.21875 2.765625q0 1.453125 0.21875 2.765625q0.234375 1.3125 0.71875 2.375q0.5 1.046875 1.53125 2.15625zm2.941925 -1.40625l0 -1.59375q1.34375 0.53125 2.546875 0.53125q1.46875 0 2.15625 -0.859375q0.703125 -0.859375 0.703125 -2.0625q0 -1.390625 -1.015625 -2.21875q-1.015625 -0.828125 -3.171875 -0.828125q-0.484375 0 -0.984375 0.0625l0 -6.5625l6.8125 0l0 1.5625l-5.234375 0l0 3.5625q2.84375 0 4.171875 1.296875q1.328125 1.296875 1.328125 3.203125q0 1.75 -1.203125 2.984375q-1.203125 1.21875 -3.78125 1.21875q-1.03125 0 -2.328125 -0.296875zm11.359299 2.875l0 -0.671875q0.28125 -0.078125 0.453125 -0.3125q0.171875 -0.21875 0.296875 -0.578125q0.125 -0.34375 0.125 -1.171875l0 -0.1875l-0.875 0l0 -2.25l2.25 0l0 1.953125q0 1.546875 -0.546875 2.328125q-0.53125 0.78125 -1.703125 0.890625zm8.949829 -2.921875l0 -12.140625l-2.125 0l0 -1.125l3.9375 -0.328125l0 13.59375l-1.8125 0zm7.5936737 -13.140625l0 -1.25q1.484375 1.015625 2.40625 2.421875q0.921875 1.40625 1.390625 3.0q0.484375 1.59375 0.484375 3.125q0 1.53125 -0.484375 3.125q-0.46875 1.59375 -1.390625 3.0q-0.921875 1.40625 -2.40625 2.421875l0 -1.25q1.03125 -1.109375 1.515625 -2.15625q0.5 -1.0625 0.71875 -2.375q0.234375 -1.328125 0.234375 -2.765625q0 -1.4375 -0.234375 -2.75q-0.21875 -1.328125 -0.71875 -2.375q-0.484375 -1.0625 -1.515625 -2.171875z" fill-rule="nonzero"/><path fill="#000000" fill-opacity="0.0" d="m75.88845 32.677166l181.41733 -0.37795258" fill-rule="evenodd"/><path stroke="#000000" stroke-width="2.0" stroke-linejoin="round" stroke-linecap="butt" d="m75.88845 32.677166l181.41733 -0.37795258" fill-rule="evenodd"/><path fill="#000000" fill-opacity="0.0" d="m257.3071 12.052493l29.259827 0l0 42.015747l-29.259827 0z" fill-rule="evenodd"/><path fill="#000000" d="m267.26022 36.639744l0 -1.34375l9.890625 0l0 1.34375l-9.890625 0zm0 -3.15625l0 -1.34375l9.890625 0l0 1.34375l-9.890625 0z" fill-rule="nonzero"/><path fill="#000000" fill-opacity="0.0" d="m277.6824 0l126.17325 0l0 42.015747l-126.17325 0z" fill-rule="evenodd"/><path fill="#000000" d="m289.50687 28.535748l0 -1.578125q0.78125 -1.828125 3.171875 -3.984375l1.03125 -0.921875q1.125 -1.015625 1.546875 -1.84375q0.4375 -0.828125 0.4375 -1.71875q0 -1.140625 -0.703125 -1.78125q-0.6875 -0.640625 -1.84375 -0.640625q-0.5 0 -0.96875 0.09375q-0.453125 0.09375 -0.984375 0.3125q-0.515625 0.203125 -1.34375 0.671875l0 -1.578125q1.796875 -0.84375 3.5625 -0.84375q1.9375 0 3.0625 1.0625q1.125 1.0625 1.125 2.65625q0 1.03125 -0.46875 1.953125q-0.453125 0.921875 -2.265625 2.46875l-0.6875 0.59375q-0.765625 0.640625 -1.53125 1.5625q-0.765625 0.90625 -0.96875 1.9375l5.859375 0l0 1.578125l-8.03125 0z" fill-rule="nonzero"/><path fill="#000000" d="m302.61618 16.645123q-0.859375 -0.59375 -1.09375 -1.046875q-0.21875 -0.46875 -0.21875 -0.984375q0 -0.984375 0.734375 -1.640625q0.734375 -0.65625 1.953125 -0.65625q1.109375 0 1.796875 0.546875q0.703125 0.546875 0.703125 1.390625q0 0.59375 -0.359375 1.1875q-0.34375 0.578125 -1.328125 1.203125q1.140625 0.546875 1.59375 1.15625q0.453125 0.609375 0.453125 1.40625q0 1.046875 -0.828125 1.796875q-0.8125 0.75 -2.21875 0.75q-1.453125 0 -2.21875 -0.71875q-0.75 -0.71875 -0.75 -1.703125q0 -0.71875 0.421875 -1.421875q0.421875 -0.71875 1.359375 -1.265625zm1.53125 -0.375q0.59375 -0.40625 0.921875 -0.875q0.328125 -0.46875 0.328125 -0.96875q0 -0.53125 -0.421875 -0.859375q-0.40625 -0.34375 -1.09375 -0.34375q-0.71875 0 -1.109375 0.359375q-0.390625 0.34375 -0.390625 0.8125q0 0.4375 0.3125 0.84375q0.328125 0.390625 1.453125 1.03125zm-0.875 0.859375q-0.859375 0.65625 -1.0625 1.09375q-0.1875 0.421875 -0.1875 0.90625q0 0.796875 0.515625 1.265625q0.515625 0.46875 1.296875 0.46875q0.734375 0 1.25 -0.390625q0.53125 -0.390625 0.53125 -1.078125q0 -0.484375 -0.28125 -0.84375q-0.28125 -0.359375 -1.21875 -0.921875l-0.84375 -0.5z" fill-rule="nonzero"/><path fill="#000000" d="m315.19934 16.801373l0.40625 1.28125l-2.75 0.59375l0.015625 -0.140625q0 -0.359375 -0.265625 -0.609375l2.59375 -1.125zm-0.5 4.09375l-1.09375 0.796875l-1.421875 -2.4375q0.171875 -0.015625 0.359375 -0.140625q0.1875 -0.140625 0.265625 -0.3125l1.890625 2.09375zm-4.0625 0.796875l-1.09375 -0.796875l1.875 -2.09375q0.078125 0.1875 0.265625 0.3125q0.203125 0.125 0.375 0.140625l-1.421875 2.4375zm-2.015625 -3.609375l0.421875 -1.28125l2.59375 1.125q-0.265625 0.234375 -0.265625 0.609375l0.015625 0.140625l-2.765625 -0.59375zm2.828125 -3.03125l1.34375 0l-0.28125 2.8125q-0.15625 -0.109375 -0.390625 -0.109375q-0.234375 0 -0.390625 0.109375l-0.28125 -2.8125zm7.0535583 13.390625l0 -1.6875q1.921875 0.765625 3.03125 0.765625q1.28125 0 2.09375 -0.75q0.8125 -0.75 0.8125 -1.9375q0 -1.171875 -0.828125 -2.0q-0.828125 -0.84375 -3.140625 -0.84375l-0.71875 0l0 -1.21875l0.625 0q2.171875 0 2.953125 -0.78125q0.78125 -0.796875 0.78125 -1.859375q0 -0.9375 -0.625 -1.5q-0.609375 -0.5625 -1.84375 -0.5625q-1.328125 0 -2.953125 0.75l0 -1.5625q1.15625 -0.390625 1.796875 -0.453125q0.65625 -0.078125 1.265625 -0.078125q2.140625 0 3.15625 0.859375q1.015625 0.84375 1.015625 2.265625q0 0.78125 -0.296875 1.390625q-0.28125 0.59375 -0.875 1.109375q-0.59375 0.515625 -1.640625 0.875q1.3125 0.3125 1.953125 0.796875q0.640625 0.484375 0.96875 1.21875q0.328125 0.71875 0.328125 1.5625q0 1.578125 -1.078125 2.828125q-1.078125 1.25 -3.625 1.25q-1.25 0 -3.15625 -0.4375z" fill-rule="nonzero"/><path fill="#000000" d="m333.0966 21.535748l0 -2.546875l-4.046875 0l0 -0.90625l4.046875 -5.53125l1.125 0l0 5.46875l1.203125 0l0 0.96875l-1.203125 0l0 2.546875l-1.125 0zm-2.875 -3.515625l2.953125 0l0 -4.0l-2.953125 4.0z" fill-rule="nonzero"/><path fill="#000000" d="m343.85162 16.801373l0.40625 1.28125l-2.75 0.59375l0.015625 -0.140625q0 -0.359375 -0.265625 -0.609375l2.59375 -1.125zm-0.5 4.09375l-1.09375 0.796875l-1.421875 -2.4375q0.171875 -0.015625 0.359375 -0.140625q0.1875 -0.140625 0.265625 -0.3125l1.890625 2.09375zm-4.0625 0.796875l-1.09375 -0.796875l1.875 -2.09375q0.078125 0.1875 0.265625 0.3125q0.203125 0.125 0.375 0.140625l-1.421875 2.4375zm-2.015625 -3.609375l0.421875 -1.28125l2.59375 1.125q-0.265625 0.234375 -0.265625 0.609375l0.015625 0.140625l-2.765625 -0.59375zm2.828125 -3.03125l1.34375 0l-0.28125 2.8125q-0.15625 -0.109375 -0.390625 -0.109375q-0.234375 0 -0.390625 0.109375l-0.28125 -2.8125zm7.4285583 13.53125l0 -1.59375q1.34375 0.53125 2.546875 0.53125q1.46875 0 2.15625 -0.859375q0.703125 -0.859375 0.703125 -2.0625q0 -1.390625 -1.015625 -2.21875q-1.015625 -0.828125 -3.171875 -0.828125q-0.484375 0 -0.984375 0.0625l0 -6.5625l6.8125 0l0 1.5625l-5.234375 0l0 3.5625q2.84375 0 4.171875 1.296875q1.328125 1.296875 1.328125 3.203125q0 1.75 -1.203125 2.984375q-1.203125 1.21875 -3.78125 1.21875q-1.03125 0 -2.328125 -0.296875z" fill-rule="nonzero"/><path fill="#000000" d="m358.09262 21.535748l0 -1.046875q0.53125 -1.21875 2.109375 -2.65625l0.6875 -0.625q0.75 -0.671875 1.03125 -1.21875q0.296875 -0.5625 0.296875 -1.15625q0 -0.75 -0.46875 -1.171875q-0.453125 -0.4375 -1.234375 -0.4375q-0.328125 0 -0.640625 0.0625q-0.296875 0.0625 -0.65625 0.203125q-0.34375 0.140625 -0.90625 0.453125l0 -1.046875q1.203125 -0.578125 2.390625 -0.578125q1.296875 0 2.03125 0.71875q0.75 0.703125 0.75 1.765625q0 0.703125 -0.3125 1.3125q-0.296875 0.609375 -1.5 1.640625l-0.46875 0.40625q-0.5 0.421875 -1.015625 1.03125q-0.5 0.609375 -0.640625 1.296875l3.890625 0l0 1.046875l-5.34375 0z" fill-rule="nonzero"/><path fill="#000000" d="m372.5039 16.801373l0.40625 1.28125l-2.75 0.59375l0.015625 -0.140625q0 -0.359375 -0.265625 -0.609375l2.59375 -1.125zm-0.5 4.09375l-1.09375 0.796875l-1.421875 -2.4375q0.171875 -0.015625 0.359375 -0.140625q0.1875 -0.140625 0.265625 -0.3125l1.890625 2.09375zm-4.0625 0.796875l-1.09375 -0.796875l1.875 -2.09375q0.078125 0.1875 0.265625 0.3125q0.203125 0.125 0.375 0.140625l-1.421875 2.4375zm-2.015625 -3.609375l0.421875 -1.28125l2.59375 1.125q-0.265625 0.234375 -0.265625 0.609375l0.015625 0.140625l-2.765625 -0.59375zm2.828125 -3.03125l1.34375 0l-0.28125 2.8125q-0.15625 -0.109375 -0.390625 -0.109375q-0.234375 0 -0.390625 0.109375l-0.28125 -2.8125zm7.9754333 13.484375q0.296875 -1.828125 0.859375 -3.015625q0.578125 -1.1875 1.609375 -2.859375l3.6875 -5.921875l-6.953125 0l0 -1.6875l8.65625 0l0 1.6875q-1.75 2.5625 -2.875 4.625q-1.125 2.046875 -1.921875 3.859375q-0.78125 1.796875 -1.0 3.3125l-2.0625 0z" fill-rule="nonzero"/><path fill="#000000" d="m388.96365 21.535748l0 -8.09375l-1.421875 0l0 -0.75l2.625 -0.21875l0 9.0625l-1.203125 0z" fill-rule="nonzero"/><path fill="#000000" fill-opacity="0.0" d="m279.95276 22.963255l126.17322 0l0 42.015747l-126.17322 0z" fill-rule="evenodd"/><path fill="#000000" d="m306.10336 49.88325l0 -1.578125q0.78125 -1.828125 3.171875 -3.984375l1.03125 -0.921875q1.125 -1.015625 1.546875 -1.84375q0.4375 -0.828125 0.4375 -1.71875q0 -1.140625 -0.703125 -1.78125q-0.6875 -0.640625 -1.84375 -0.640625q-0.5 0 -0.96875 0.09375q-0.453125 0.09375 -0.984375 0.3125q-0.515625 0.203125 -1.34375 0.671875l0 -1.578125q1.796875 -0.84375 3.5625 -0.84375q1.9375 0 3.0625 1.0625q1.125 1.0625 1.125 2.65625q0 1.03125 -0.46875 1.953125q-0.453125 0.921875 -2.265625 2.46875l-0.6875 0.59375q-0.765625 0.640625 -1.53125 1.5625q-0.765625 0.90625 -0.96875 1.9375l5.859375 0l0 1.578125l-8.03125 0z" fill-rule="nonzero"/><path fill="#000000" d="m317.6189 42.82075l0 -1.125q1.28125 0.515625 2.015625 0.515625q0.859375 0 1.390625 -0.5q0.546875 -0.5 0.546875 -1.296875q0 -0.78125 -0.5625 -1.328125q-0.546875 -0.5625 -2.09375 -0.5625l-0.46875 0l0 -0.8125l0.421875 -0.015625q1.4375 0 1.953125 -0.515625q0.53125 -0.53125 0.53125 -1.234375q0 -0.625 -0.421875 -1.0q-0.40625 -0.375 -1.21875 -0.375q-0.890625 0 -1.96875 0.5l0 -1.046875q0.765625 -0.25 1.1875 -0.296875q0.4375 -0.0625 0.859375 -0.0625q1.421875 0 2.09375 0.578125q0.671875 0.5625 0.671875 1.515625q0 0.53125 -0.203125 0.921875q-0.1875 0.390625 -0.578125 0.734375q-0.390625 0.34375 -1.09375 0.59375q0.875 0.203125 1.296875 0.53125q0.4375 0.328125 0.65625 0.8125q0.21875 0.484375 0.21875 1.046875q0 1.046875 -0.71875 1.875q-0.71875 0.828125 -2.421875 0.828125q-0.828125 0 -2.09375 -0.28125z" fill-rule="nonzero"/><path fill="#000000" d="m331.7958 38.148876l0.40625 1.28125l-2.75 0.59375l0.015625 -0.140625q0 -0.359375 -0.265625 -0.609375l2.59375 -1.125zm-0.5 4.09375l-1.09375 0.796875l-1.421875 -2.4375q0.171875 -0.015625 0.359375 -0.140625q0.1875 -0.140625 0.265625 -0.3125l1.890625 2.09375zm-4.0625 0.796875l-1.09375 -0.796875l1.875 -2.09375q0.078125 0.1875 0.265625 0.3125q0.203125 0.125 0.375 0.140625l-1.421875 2.4375zm-2.015625 -3.609375l0.421875 -1.28125l2.59375 1.125q-0.265625 0.234375 -0.265625 0.609375l0.015625 0.140625l-2.765625 -0.59375zm2.828125 -3.03125l1.34375 0l-0.28125 2.8125q-0.15625 -0.109375 -0.390625 -0.109375q-0.234375 0 -0.390625 0.109375l-0.28125 -2.8125zm7.053589 13.390625l0 -1.6875q1.921875 0.765625 3.03125 0.765625q1.28125 0 2.09375 -0.75q0.8125 -0.75 0.8125 -1.9375q0 -1.171875 -0.828125 -2.0q-0.828125 -0.84375 -3.140625 -0.84375l-0.71875 0l0 -1.21875l0.625 0q2.171875 0 2.953125 -0.78125q0.78125 -0.796875 0.78125 -1.859375q0 -0.9375 -0.625 -1.5q-0.609375 -0.5625 -1.84375 -0.5625q-1.328125 0 -2.953125 0.75l0 -1.5625q1.15625 -0.390625 1.796875 -0.453125q0.65625 -0.078125 1.265625 -0.078125q2.140625 0 3.15625 0.859375q1.015625 0.84375 1.015625 2.265625q0 0.78125 -0.296875 1.390625q-0.28125 0.59375 -0.875 1.109375q-0.59375 0.515625 -1.640625 0.875q1.3125 0.3125 1.953125 0.796875q0.640625 0.484375 0.96875 1.21875q0.328125 0.71875 0.328125 1.5625q0 1.578125 -1.078125 2.828125q-1.078125 1.25 -3.625 1.25q-1.25 0 -3.15625 -0.4375z" fill-rule="nonzero"/><path fill="#000000" d="m348.25555 42.88325l0 -8.09375l-1.421875 0l0 -0.75l2.625 -0.21875l0 9.0625l-1.203125 0z" fill-rule="nonzero"/><path fill="#000000" d="m360.4481 38.148876l0.40625 1.28125l-2.75 0.59375l0.015625 -0.140625q0 -0.359375 -0.265625 -0.609375l2.59375 -1.125zm-0.5 4.09375l-1.09375 0.796875l-1.421875 -2.4375q0.171875 -0.015625 0.359375 -0.140625q0.1875 -0.140625 0.265625 -0.3125l1.890625 2.09375zm-4.0625 0.796875l-1.09375 -0.796875l1.875 -2.09375q0.078125 0.1875 0.265625 0.3125q0.203125 0.125 0.375 0.140625l-1.421875 2.4375zm-2.015625 -3.609375l0.421875 -1.28125l2.59375 1.125q-0.265625 0.234375 -0.265625 0.609375l0.015625 0.140625l-2.765625 -0.59375zm2.828125 -3.03125l1.34375 0l-0.28125 2.8125q-0.15625 -0.109375 -0.390625 -0.109375q-0.234375 0 -0.390625 0.109375l-0.28125 -2.8125zm7.428589 13.53125l0 -1.59375q1.34375 0.53125 2.546875 0.53125q1.46875 0 2.15625 -0.859375q0.703125 -0.859375 0.703125 -2.0625q0 -1.390625 -1.015625 -2.21875q-1.015625 -0.828125 -3.171875 -0.828125q-0.484375 0 -0.984375 0.0625l0 -6.5625l6.8125 0l0 1.5625l-5.234375 0l0 3.5625q2.84375 0 4.171875 1.296875q1.328125 1.296875 1.328125 3.203125q0 1.75 -1.203125 2.984375q-1.203125 1.21875 -3.78125 1.21875q-1.03125 0 -2.328125 -0.296875z" fill-rule="nonzero"/><path fill="#000000" d="m376.90784 42.88325l0 -8.09375l-1.421875 0l0 -0.75l2.625 -0.21875l0 9.0625l-1.203125 0z" fill-rule="nonzero"/><path fill="#000000" fill-opacity="0.0" d="m285.521 32.1063l113.38583 -0.37795448" fill-rule="evenodd"/><path stroke="#000000" stroke-width="2.0" stroke-linejoin="round" stroke-linecap="butt" d="m285.521 32.1063l113.38583 -0.37795448" fill-rule="evenodd"/><path fill="#000000" fill-opacity="0.0" d="m400.15222 10.910761l29.259857 0l0 42.015747l-29.259857 0z" fill-rule="evenodd"/><path fill="#000000" d="m410.10535 35.498013l0 -1.34375l9.890625 0l0 1.34375l-9.890625 0zm0 -3.15625l0 -1.3437519l9.890625 0l0 1.3437519l-9.890625 0z" fill-rule="nonzero"/><path fill="#000000" fill-opacity="0.0" d="m400.15222 10.910761l186.2677 0l0 42.015747l-186.2677 0z" fill-rule="evenodd"/><path fill="#000000" d="m424.16052 37.83076l0 -1.578125q0.78125 -1.828125 3.171875 -3.984375l1.03125 -0.9218769q1.125 -1.015625 1.546875 -1.84375q0.4375 -0.828125 0.4375 -1.71875q0 -1.140625 -0.703125 -1.78125q-0.6875 -0.640625 -1.84375 -0.640625q-0.5 0 -0.96875 0.09375q-0.453125 0.09375 -0.984375 0.3125q-0.515625 0.203125 -1.34375 0.671875l0 -1.578125q1.796875 -0.84375 3.5625 -0.84375q1.9375 0 3.0625 1.0625q1.125 1.0625 1.125 2.65625q0 1.03125 -0.46875 1.953125q-0.453125 0.921875 -2.265625 2.468752l-0.6875 0.59375q-0.765625 0.640625 -1.53125 1.5625q-0.765625 0.90625 -0.96875 1.9375l5.859375 0l0 1.578125l-8.03125 0z" fill-rule="nonzero"/><path fill="#000000" d="m437.2698 25.940134q-0.859375 -0.59375 -1.09375 -1.046875q-0.21875 -0.46875 -0.21875 -0.984375q0 -0.984375 0.734375 -1.640625q0.734375 -0.65625 1.953125 -0.65625q1.109375 0 1.796875 0.546875q0.703125 0.546875 0.703125 1.390625q0 0.59375 -0.359375 1.1875q-0.34375 0.578125 -1.328125 1.203125q1.140625 0.546875 1.59375 1.15625q0.453125 0.609375 0.453125 1.40625q0 1.046875 -0.828125 1.796875q-0.8125 0.75 -2.21875 0.75q-1.453125 0 -2.21875 -0.71875q-0.75 -0.71875 -0.75 -1.703125q0 -0.71875 0.421875 -1.421875q0.421875 -0.71875 1.359375 -1.265625zm1.53125 -0.375q0.59375 -0.40625 0.921875 -0.875q0.328125 -0.46875 0.328125 -0.96875q0 -0.53125 -0.421875 -0.859375q-0.40625 -0.34375 -1.09375 -0.34375q-0.71875 0 -1.109375 0.359375q-0.390625 0.34375 -0.390625 0.8125q0 0.4375 0.3125 0.84375q0.328125 0.390625 1.453125 1.03125zm-0.875 0.859375q-0.859375 0.65625 -1.0625 1.09375q-0.1875 0.421875 -0.1875 0.90625q0 0.796875 0.515625 1.265625q0.515625 0.46875 1.296875 0.46875q0.734375 0 1.25 -0.390625q0.53125 -0.390625 0.53125 -1.078125q0 -0.484375 -0.28125 -0.84375q-0.28125 -0.359375 -1.21875 -0.921875l-0.84375 -0.5zm5.0206604 1.109375l0 -0.90625l2.703125 0l0 0.90625l-2.703125 0zm4.6383057 3.234375l0 -1.125q1.28125 0.515625 2.015625 0.515625q0.859375 0 1.390625 -0.5q0.546875 -0.5 0.546875 -1.296875q0 -0.78125 -0.5625 -1.328125q-0.546875 -0.5625 -2.09375 -0.5625l-0.46875 0l0 -0.8125l0.421875 -0.015625q1.4375 0 1.953125 -0.515625q0.53125 -0.53125 0.53125 -1.234375q0 -0.625 -0.421875 -1.0q-0.40625 -0.375 -1.21875 -0.375q-0.890625 0 -1.96875 0.5l0 -1.046875q0.765625 -0.25 1.1875 -0.296875q0.4375 -0.0625 0.859375 -0.0625q1.421875 0 2.09375 0.578125q0.671875 0.5625 0.671875 1.515625q0 0.53125 -0.203125 0.921875q-0.1875 0.390625 -0.578125 0.734375q-0.390625 0.34375 -1.09375 0.59375q0.875 0.203125 1.296875 0.53125q0.4375 0.328125 0.65625 0.8125q0.21875 0.484375 0.21875 1.046875q0 1.046875 -0.71875 1.875q-0.71875 0.828125 -2.421875 0.828125q-0.828125 0 -2.09375 -0.28125z" fill-rule="nonzero"/><path fill="#000000" d="m461.76193 26.096384l0.40625 1.28125l-2.75 0.59375l0.015625 -0.140625q0 -0.359375 -0.265625 -0.609375l2.59375 -1.125zm-0.5 4.09375l-1.09375 0.796875l-1.421875 -2.4375q0.171875 -0.015625 0.359375 -0.140625q0.1875 -0.140625 0.265625 -0.3125l1.890625 2.09375zm-4.0625 0.796875l-1.09375 -0.796875l1.875 -2.09375q0.078125 0.1875 0.265625 0.3125q0.203125 0.125 0.375 0.140625l-1.421875 2.4375zm-2.015625 -3.609375l0.421875 -1.28125l2.59375 1.125q-0.265625 0.234375 -0.265625 0.609375l0.015625 0.140625l-2.765625 -0.59375zm2.828125 -3.03125l1.34375 0l-0.28125 2.8125q-0.15625 -0.109375 -0.390625 -0.109375q-0.234375 0 -0.390625 0.109375l-0.28125 -2.8125zm7.0535583 13.390627l0 -1.6875q1.921875 0.765625 3.03125 0.765625q1.28125 0 2.09375 -0.75q0.8125 -0.75 0.8125 -1.9375q0 -1.171875 -0.828125 -2.0q-0.828125 -0.8437519 -3.140625 -0.8437519l-0.71875 0l0 -1.21875l0.625 0q2.171875 0 2.953125 -0.78125q0.78125 -0.796875 0.78125 -1.859375q0 -0.9375 -0.625 -1.5q-0.609375 -0.5625 -1.84375 -0.5625q-1.328125 0 -2.953125 0.75l0 -1.5625q1.15625 -0.390625 1.796875 -0.453125q0.65625 -0.078125 1.265625 -0.078125q2.140625 0 3.15625 0.859375q1.015625 0.84375 1.015625 2.265625q0 0.78125 -0.296875 1.390625q-0.28125 0.59375 -0.875 1.109375q-0.59375 0.515625 -1.640625 0.875q1.3125 0.3125 1.953125 0.796875q0.640625 0.484375 0.96875 1.2187519q0.328125 0.71875 0.328125 1.5625q0 1.578125 -1.078125 2.828125q-1.078125 1.25 -3.625 1.25q-1.25 0 -3.15625 -0.4375z" fill-rule="nonzero"/><path fill="#000000" d="m479.65918 30.83076l0 -2.546875l-4.046875 0l0 -0.90625l4.046875 -5.53125l1.125 0l0 5.46875l1.203125 0l0 0.96875l-1.203125 0l0 2.546875l-1.125 0zm-2.875 -3.515625l2.953125 0l0 -4.0l-2.953125 4.0zm6.7237854 0.21875l0 -0.90625l2.703125 0l0 0.90625l-2.703125 0zm6.62265 3.296875l0 -8.09375l-1.421875 0l0 -0.75l2.625 -0.21875l0 9.0625l-1.203125 0z" fill-rule="nonzero"/><path fill="#000000" d="m502.32315 26.096384l0.40625 1.28125l-2.75 0.59375l0.015625 -0.140625q0 -0.359375 -0.265625 -0.609375l2.59375 -1.125zm-0.5 4.09375l-1.09375 0.796875l-1.421875 -2.4375q0.171875 -0.015625 0.359375 -0.140625q0.1875 -0.140625 0.265625 -0.3125l1.890625 2.09375zm-4.0625 0.796875l-1.09375 -0.796875l1.875 -2.09375q0.078125 0.1875 0.265625 0.3125q0.203125 0.125 0.375 0.140625l-1.421875 2.4375zm-2.015625 -3.609375l0.421875 -1.28125l2.59375 1.125q-0.265625 0.234375 -0.265625 0.609375l0.015625 0.140625l-2.765625 -0.59375zm2.828125 -3.03125l1.34375 0l-0.28125 2.8125q-0.15625 -0.109375 -0.390625 -0.109375q-0.234375 0 -0.390625 0.109375l-0.28125 -2.8125zm7.428589 13.531252l0 -1.59375q1.34375 0.53125 2.546875 0.53125q1.46875 0 2.15625 -0.859375q0.703125 -0.859375 0.703125 -2.0625q0 -1.390625 -1.015625 -2.218752q-1.015625 -0.828125 -3.171875 -0.828125q-0.484375 0 -0.984375 0.0625l0 -6.5625l6.8124695 0l0 1.5625l-5.2343445 0l0 3.5625q2.84375 0 4.171875 1.296875q1.3280945 1.2968769 1.3280945 3.203127q0 1.75 -1.203125 2.984375q-1.2030945 1.21875 -3.7812195 1.21875q-1.03125 0 -2.328125 -0.296875z" fill-rule="nonzero"/><path fill="#000000" d="m516.56415 30.83076l0 -1.046875q0.53125 -1.21875 2.109375 -2.65625l0.6875 -0.625q0.75 -0.671875 1.03125 -1.21875q0.296875 -0.5625 0.296875 -1.15625q0 -0.75 -0.46875 -1.171875q-0.453125 -0.4375 -1.234375 -0.4375q-0.328125 0 -0.640625 0.0625q-0.296875 0.0625 -0.65625 0.203125q-0.34375 0.140625 -0.90625 0.453125l0 -1.046875q1.203125 -0.578125 2.390625 -0.578125q1.296875 0 2.03125 0.71875q0.75 0.703125 0.75 1.765625q0 0.703125 -0.3125 1.3125q-0.296875 0.609375 -1.5 1.640625l-0.46875 0.40625q-0.5 0.421875 -1.015625 1.03125q-0.5 0.609375 -0.640625 1.296875l3.890625 0l0 1.046875l-5.34375 0zm7.505066 -3.296875l0 -0.90625l2.703125 0l0 0.90625l-2.703125 0zm6.6226196 3.296875l0 -8.09375l-1.421875 0l0 -0.75l2.625 -0.21875l0 9.0625l-1.203125 0z" fill-rule="nonzero"/><path fill="#000000" d="m542.8844 26.096384l0.40625 1.28125l-2.75 0.59375l0.015625 -0.140625q0 -0.359375 -0.265625 -0.609375l2.59375 -1.125zm-0.5 4.09375l-1.09375 0.796875l-1.421875 -2.4375q0.171875 -0.015625 0.359375 -0.140625q0.1875 -0.140625 0.265625 -0.3125l1.890625 2.09375zm-4.0625 0.796875l-1.09375 -0.796875l1.875 -2.09375q0.078125 0.1875 0.265625 0.3125q0.203125 0.125 0.375 0.140625l-1.421875 2.4375zm-2.015625 -3.609375l0.421875 -1.28125l2.59375 1.125q-0.265625 0.234375 -0.265625 0.609375l0.015625 0.140625l-2.765625 -0.59375zm2.828125 -3.03125l1.34375 0l-0.28125 2.8125q-0.15625 -0.109375 -0.390625 -0.109375q-0.234375 0 -0.390625 0.109375l-0.28125 -2.8125zm7.975403 13.484377q0.296875 -1.828125 0.859375 -3.015625q0.578125 -1.1875 1.609375 -2.859377l3.6875 -5.921875l-6.953125 0l0 -1.6875l8.65625 0l0 1.6875q-1.75 2.5625 -2.875 4.625q-1.125 2.046877 -1.921875 3.859377q-0.78125 1.796875 -1.0 3.3125l-2.0625 0z" fill-rule="nonzero"/><path fill="#000000" d="m559.3441 30.83076l0 -8.09375l-1.421875 0l0 -0.75l2.625 -0.21875l0 9.0625l-1.203125 0z" fill-rule="nonzero"/><path fill="#000000" fill-opacity="0.0" d="m557.1601 10.910761l29.259827 0l0 42.015747l-29.259827 0z" fill-rule="evenodd"/><path fill="#000000" d="m567.1132 34.690136l0 -1.34375l9.890625 0l0 1.34375l-9.890625 0zm0 -3.156252l0 -1.34375l9.890625 0l0 1.34375l-9.890625 0z" fill-rule="nonzero"/><path fill="#000000" fill-opacity="0.0" d="m572.2572 10.910761l126.17322 0l0 42.015747l-126.17322 0z" fill-rule="evenodd"/><path fill="#000000" d="m584.08167 37.83076l0 -1.578125q0.78125 -1.828125 3.171875 -3.984375l1.03125 -0.9218769q1.125 -1.015625 1.546875 -1.84375q0.4375 -0.828125 0.4375 -1.71875q0 -1.140625 -0.703125 -1.78125q-0.6875 -0.640625 -1.84375 -0.640625q-0.5 0 -0.96875 0.09375q-0.453125 0.09375 -0.984375 0.3125q-0.515625 0.203125 -1.34375 0.671875l0 -1.578125q1.796875 -0.84375 3.5625 -0.84375q1.9375 0 3.0625 1.0625q1.125 1.0625 1.125 2.65625q0 1.03125 -0.46875 1.953125q-0.453125 0.921875 -2.265625 2.468752l-0.6875 0.59375q-0.765625 0.640625 -1.53125 1.5625q-0.765625 0.90625 -0.96875 1.9375l5.859375 0l0 1.578125l-8.03125 0z" fill-rule="nonzero"/><path fill="#000000" d="m595.8472 30.86201l0 -1.0625q0.890625 0.359375 1.703125 0.359375q0.96875 0 1.421875 -0.578125q0.46875 -0.578125 0.46875 -1.375q0 -0.921875 -0.671875 -1.46875q-0.671875 -0.5625 -2.109375 -0.5625q-0.328125 0 -0.671875 0.046875l0 -4.375l4.5625 0l0 1.046875l-3.5 0l0 2.359375q1.890625 0 2.78125 0.875q0.890625 0.859375 0.890625 2.125q0 1.171875 -0.8125 1.984375q-0.796875 0.8125 -2.515625 0.8125q-0.6875 0 -1.546875 -0.1875z" fill-rule="nonzero"/><path fill="#000000" d="m609.7741 26.096384l0.40625 1.28125l-2.75 0.59375l0.015625 -0.140625q0 -0.359375 -0.265625 -0.609375l2.59375 -1.125zm-0.5 4.09375l-1.09375 0.796875l-1.421875 -2.4375q0.171875 -0.015625 0.359375 -0.140625q0.1875 -0.140625 0.265625 -0.3125l1.890625 2.09375zm-4.0625 0.796875l-1.09375 -0.796875l1.875 -2.09375q0.078125 0.1875 0.265625 0.3125q0.203125 0.125 0.375 0.140625l-1.421875 2.4375zm-2.015625 -3.609375l0.421875 -1.28125l2.59375 1.125q-0.265625 0.234375 -0.265625 0.609375l0.015625 0.140625l-2.765625 -0.59375zm2.828125 -3.03125l1.34375 0l-0.28125 2.8125q-0.15625 -0.109375 -0.390625 -0.109375q-0.234375 0 -0.390625 0.109375l-0.28125 -2.8125zm7.053589 13.390627l0 -1.6875q1.921875 0.765625 3.03125 0.765625q1.28125 0 2.09375 -0.75q0.8125 -0.75 0.8125 -1.9375q0 -1.171875 -0.828125 -2.0q-0.828125 -0.8437519 -3.140625 -0.8437519l-0.71875 0l0 -1.21875l0.625 0q2.171875 0 2.953125 -0.78125q0.78125 -0.796875 0.78125 -1.859375q0 -0.9375 -0.625 -1.5q-0.609375 -0.5625 -1.84375 -0.5625q-1.328125 0 -2.953125 0.75l0 -1.5625q1.15625 -0.390625 1.796875 -0.453125q0.65625 -0.078125 1.265625 -0.078125q2.140625 0 3.15625 0.859375q1.015625 0.84375 1.015625 2.265625q0 0.78125 -0.296875 1.390625q-0.28125 0.59375 -0.875 1.109375q-0.59375 0.515625 -1.640625 0.875q1.3125 0.3125 1.953125 0.796875q0.640625 0.484375 0.96875 1.2187519q0.328125 0.71875 0.328125 1.5625q0 1.578125 -1.078125 2.828125q-1.078125 1.25 -3.625 1.25q-1.25 0 -3.15625 -0.4375z" fill-rule="nonzero"/><path fill="#000000" d="m624.2495 30.76826l0 -1.125q1.28125 0.515625 2.015625 0.515625q0.859375 0 1.390625 -0.5q0.546875 -0.5 0.546875 -1.296875q0 -0.78125 -0.5625 -1.328125q-0.546875 -0.5625 -2.09375 -0.5625l-0.46875 0l0 -0.8125l0.421875 -0.015625q1.4375 0 1.953125 -0.515625q0.53125 -0.53125 0.53125 -1.234375q0 -0.625 -0.421875 -1.0q-0.40625 -0.375 -1.21875 -0.375q-0.890625 0 -1.96875 0.5l0 -1.046875q0.765625 -0.25 1.1875 -0.296875q0.4375 -0.0625 0.859375 -0.0625q1.421875 0 2.09375 0.578125q0.671875 0.5625 0.671875 1.515625q0 0.53125 -0.203125 0.921875q-0.1875 0.390625 -0.578125 0.734375q-0.390625 0.34375 -1.09375 0.59375q0.875 0.203125 1.296875 0.53125q0.4375 0.328125 0.65625 0.8125q0.21875 0.484375 0.21875 1.046875q0 1.046875 -0.71875 1.875q-0.71875 0.828125 -2.421875 0.828125q-0.828125 0 -2.09375 -0.28125z" fill-rule="nonzero"/><path fill="#000000" d="m638.42645 26.096384l0.40625 1.28125l-2.750061 0.59375l0.015625 -0.140625q0 -0.359375 -0.265625 -0.609375l2.593811 -1.125zm-0.5 4.09375l-1.09375 0.796875l-1.421936 -2.4375q0.171875 -0.015625 0.359375 -0.140625q0.1875 -0.140625 0.265625 -0.3125l1.890686 2.09375zm-4.062561 0.796875l-1.09375 -0.796875l1.875 -2.09375q0.078125 0.1875 0.265625 0.3125q0.203125 0.125 0.375 0.140625l-1.421875 2.4375zm-2.015625 -3.609375l0.421875 -1.28125l2.59375 1.125q-0.265625 0.234375 -0.265625 0.609375l0.015625 0.140625l-2.765625 -0.59375zm2.828125 -3.03125l1.34375 0l-0.28125 2.8125q-0.15625 -0.109375 -0.390625 -0.109375q-0.234375 0 -0.390625 0.109375l-0.28125 -2.8125zm7.428589 13.531252l0 -1.59375q1.34375 0.53125 2.546875 0.53125q1.46875 0 2.15625 -0.859375q0.703125 -0.859375 0.703125 -2.0625q0 -1.390625 -1.015625 -2.218752q-1.015625 -0.828125 -3.171875 -0.828125q-0.484375 0 -0.984375 0.0625l0 -6.5625l6.8125 0l0 1.5625l-5.234375 0l0 3.5625q2.84375 0 4.171875 1.296875q1.328125 1.2968769 1.328125 3.203127q0 1.75 -1.203125 2.984375q-1.203125 1.21875 -3.78125 1.21875q-1.03125 0 -2.328125 -0.296875z" fill-rule="nonzero"/><path fill="#000000" d="m654.88617 30.83076l0 -8.09375l-1.421875 0l0 -0.75l2.625 -0.21875l0 9.0625l-1.203125 0z" fill-rule="nonzero"/><path fill="#000000" d="m667.07874 26.096384l0.40625 1.28125l-2.75 0.59375l0.015625 -0.140625q0 -0.359375 -0.265625 -0.609375l2.59375 -1.125zm-0.5 4.09375l-1.09375 0.796875l-1.421875 -2.4375q0.171875 -0.015625 0.359375 -0.140625q0.1875 -0.140625 0.265625 -0.3125l1.890625 2.09375zm-4.0625 0.796875l-1.09375 -0.796875l1.875 -2.09375q0.078125 0.1875 0.265625 0.3125q0.203125 0.125 0.375 0.140625l-1.421875 2.4375zm-2.015625 -3.609375l0.421875 -1.28125l2.59375 1.125q-0.265625 0.234375 -0.265625 0.609375l0.015625 0.140625l-2.765625 -0.59375zm2.828125 -3.03125l1.34375 0l-0.28125 2.8125q-0.15625 -0.109375 -0.390625 -0.109375q-0.234375 0 -0.390625 0.109375l-0.28125 -2.8125zm7.975403 13.484377q0.296875 -1.828125 0.859375 -3.015625q0.578125 -1.1875 1.609375 -2.859377l3.6875 -5.921875l-6.953125 0l0 -1.6875l8.65625 0l0 1.6875q-1.75 2.5625 -2.875 4.625q-1.125 2.046877 -1.921875 3.859377q-0.78125 1.796875 -1.0 3.3125l-2.0625 0z" fill-rule="nonzero"/><path fill="#000000" d="m683.53845 30.83076l0 -8.09375l-1.421875 0l0 -0.75l2.625 -0.21875l0 9.0625l-1.203125 0z" fill-rule="nonzero"/><path fill="#000000" fill-opacity="0.0" d="m686.30444 10.910761l29.259888 0l0 42.015747l-29.259888 0z" fill-rule="evenodd"/><path fill="#000000" d="m696.25757 34.690136l0 -1.34375l9.890625 0l0 1.34375l-9.890625 0zm0 -3.156252l0 -1.34375l9.890625 0l0 1.34375l-9.890625 0z" fill-rule="nonzero"/><path fill="#000000" fill-opacity="0.0" d="m704.94226 10.910761l186.2677 0l0 42.015747l-186.2677 0z" fill-rule="evenodd"/><path fill="#000000" d="m720.20593 39.283886l0 1.25q-1.484375 -1.015625 -2.40625 -2.421875q-0.921875 -1.40625 -1.390625 -3.0q-0.46875 -1.59375 -0.46875 -3.125002q0 -1.53125 0.46875 -3.125q0.46875 -1.59375 1.390625 -3.0q0.921875 -1.40625 2.40625 -2.421875l0 1.25q-1.03125 1.109375 -1.53125 2.171875q-0.484375 1.046875 -0.71875 2.359375q-0.21875 1.3125 -0.21875 2.765625q0 1.4531269 0.21875 2.765627q0.234375 1.3125 0.71875 2.375q0.5 1.046875 1.53125 2.15625zm2.2232056 -1.453125l0 -1.578125q0.78125 -1.828125 3.171875 -3.984375l1.03125 -0.9218769q1.125 -1.015625 1.546875 -1.84375q0.4375 -0.828125 0.4375 -1.71875q0 -1.140625 -0.703125 -1.78125q-0.6875 -0.640625 -1.84375 -0.640625q-0.5 0 -0.96875 0.09375q-0.453125 0.09375 -0.984375 0.3125q-0.515625 0.203125 -1.34375 0.671875l0 -1.578125q1.796875 -0.84375 3.5625 -0.84375q1.9375 0 3.0625 1.0625q1.125 1.0625 1.125 2.65625q0 1.03125 -0.46875 1.953125q-0.453125 0.921875 -2.265625 2.468752l-0.6875 0.59375q-0.765625 0.640625 -1.53125 1.5625q-0.765625 0.90625 -0.96875 1.9375l5.859375 0l0 1.578125l-8.03125 0zm12.078003 2.921875l0 -0.671875q0.28125 -0.078125 0.453125 -0.3125q0.171875 -0.21875 0.296875 -0.578125q0.125 -0.34375 0.125 -1.171875l0 -0.1875l-0.875 0l0 -2.25l2.25 0l0 1.953125q0 1.546875 -0.546875 2.328125q-0.53125 0.78125 -1.703125 0.890625zm6.340454 -2.875l0 -1.59375q1.34375 0.53125 2.546875 0.53125q1.46875 0 2.15625 -0.859375q0.703125 -0.859375 0.703125 -2.0625q0 -1.390625 -1.015625 -2.218752q-1.015625 -0.828125 -3.171875 -0.828125q-0.484375 0 -0.984375 0.0625l0 -6.5625l6.8125 0l0 1.5625l-5.234375 0l0 3.5625q2.84375 0 4.171875 1.296875q1.328125 1.2968769 1.328125 3.203127q0 1.75 -1.203125 2.984375q-1.203125 1.21875 -3.78125 1.21875q-1.03125 0 -2.328125 -0.296875zm10.203064 -13.187502l0 -1.25q1.484375 1.015625 2.40625 2.421875q0.921875 1.40625 1.390625 3.0q0.484375 1.59375 0.484375 3.125q0 1.5312519 -0.484375 3.125002q-0.46875 1.59375 -1.390625 3.0q-0.921875 1.40625 -2.40625 2.421875l0 -1.25q1.03125 -1.109375 1.515625 -2.15625q0.5 -1.0625 0.71875 -2.375q0.234375 -1.328125 0.234375 -2.765627q0 -1.4375 -0.234375 -2.75q-0.21875 -1.328125 -0.71875 -2.375q-0.484375 -1.0625 -1.515625 -2.171875zm10.785706 14.593752l0 1.25q-1.484375 -1.015625 -2.40625 -2.421875q-0.921875 -1.40625 -1.390625 -3.0q-0.46875 -1.59375 -0.46875 -3.125002q0 -1.53125 0.46875 -3.125q0.46875 -1.59375 1.390625 -3.0q0.921875 -1.40625 2.40625 -2.421875l0 1.25q-1.03125 1.109375 -1.53125 2.171875q-0.484375 1.046875 -0.71875 2.359375q-0.21875 1.3125 -0.21875 2.765625q0 1.4531269 0.21875 2.765627q0.234375 1.3125 0.71875 2.375q0.5 1.046875 1.53125 2.15625zm2.5668945 -1.546875l0 -1.6875q1.921875 0.765625 3.03125 0.765625q1.28125 0 2.09375 -0.75q0.8125 -0.75 0.8125 -1.9375q0 -1.171875 -0.828125 -2.0q-0.828125 -0.8437519 -3.140625 -0.8437519l-0.71875 0l0 -1.21875l0.625 0q2.171875 0 2.953125 -0.78125q0.78125 -0.796875 0.78125 -1.859375q0 -0.9375 -0.625 -1.5q-0.609375 -0.5625 -1.84375 -0.5625q-1.328125 0 -2.953125 0.75l0 -1.5625q1.15625 -0.390625 1.796875 -0.453125q0.65625 -0.078125 1.265625 -0.078125q2.140625 0 3.15625 0.859375q1.015625 0.84375 1.015625 2.265625q0 0.78125 -0.296875 1.390625q-0.28125 0.59375 -0.875 1.109375q-0.59375 0.515625 -1.640625 0.875q1.3125 0.3125 1.953125 0.796875q0.640625 0.484375 0.96875 1.2187519q0.328125 0.71875 0.328125 1.5625q0 1.578125 -1.078125 2.828125q-1.078125 1.25 -3.625 1.25q-1.25 0 -3.15625 -0.4375zm11.734314 3.015625l0 -0.671875q0.28125 -0.078125 0.453125 -0.3125q0.171875 -0.21875 0.296875 -0.578125q0.125 -0.34375 0.125 -1.171875l0 -0.1875l-0.875 0l0 -2.25l2.25 0l0 1.953125q0 1.546875 -0.546875 2.328125q-0.53125 0.78125 -1.703125 0.890625zm5.965454 -3.015625l0 -1.6875q1.921875 0.765625 3.03125 0.765625q1.28125 0 2.09375 -0.75q0.8125 -0.75 0.8125 -1.9375q0 -1.171875 -0.828125 -2.0q-0.828125 -0.8437519 -3.140625 -0.8437519l-0.71875 0l0 -1.21875l0.625 0q2.171875 0 2.953125 -0.78125q0.78125 -0.796875 0.78125 -1.859375q0 -0.9375 -0.625 -1.5q-0.609375 -0.5625 -1.84375 -0.5625q-1.328125 0 -2.953125 0.75l0 -1.5625q1.15625 -0.390625 1.796875 -0.453125q0.65625 -0.078125 1.265625 -0.078125q2.140625 0 3.15625 0.859375q1.015625 0.84375 1.015625 2.265625q0 0.78125 -0.296875 1.390625q-0.28125 0.59375 -0.875 1.109375q-0.59375 0.515625 -1.640625 0.875q1.3125 0.3125 1.953125 0.796875q0.640625 0.484375 0.96875 1.2187519q0.328125 0.71875 0.328125 1.5625q0 1.578125 -1.078125 2.828125q-1.078125 1.25 -3.625 1.25q-1.25 0 -3.15625 -0.4375zm10.578064 -13.046877l0 -1.25q1.484375 1.015625 2.40625 2.421875q0.921875 1.40625 1.390625 3.0q0.484375 1.59375 0.484375 3.125q0 1.5312519 -0.484375 3.125002q-0.46875 1.59375 -1.390625 3.0q-0.921875 1.40625 -2.40625 2.421875l0 -1.25q1.03125 -1.109375 1.515625 -2.15625q0.5 -1.0625 0.71875 -2.375q0.234375 -1.328125 0.234375 -2.765627q0 -1.4375 -0.234375 -2.75q-0.21875 -1.328125 -0.71875 -2.375q-0.484375 -1.0625 -1.515625 -2.171875zm10.785645 14.593752l0 1.25q-1.484375 -1.015625 -2.40625 -2.421875q-0.921875 -1.40625 -1.390625 -3.0q-0.46875 -1.59375 -0.46875 -3.125002q0 -1.53125 0.46875 -3.125q0.46875 -1.59375 1.390625 -3.0q0.921875 -1.40625 2.40625 -2.421875l0 1.25q-1.03125 1.109375 -1.53125 2.171875q-0.484375 1.046875 -0.71875 2.359375q-0.21875 1.3125 -0.21875 2.765625q0 1.4531269 0.21875 2.765627q0.234375 1.3125 0.71875 2.375q0.5 1.046875 1.53125 2.15625zm2.9419556 -1.40625l0 -1.59375q1.34375 0.53125 2.546875 0.53125q1.46875 0 2.15625 -0.859375q0.703125 -0.859375 0.703125 -2.0625q0 -1.390625 -1.015625 -2.218752q-1.015625 -0.828125 -3.171875 -0.828125q-0.484375 0 -0.984375 0.0625l0 -6.5625l6.8125 0l0 1.5625l-5.234375 0l0 3.5625q2.84375 0 4.171875 1.296875q1.328125 1.2968769 1.328125 3.203127q0 1.75 -1.203125 2.984375q-1.203125 1.21875 -3.78125 1.21875q-1.03125 0 -2.328125 -0.296875zm11.359253 2.875l0 -0.671875q0.28125 -0.078125 0.453125 -0.3125q0.171875 -0.21875 0.296875 -0.578125q0.125 -0.34375 0.125 -1.171875l0 -0.1875l-0.875 0l0 -2.25l2.25 0l0 1.953125q0 1.546875 -0.546875 2.328125q-0.53125 0.78125 -1.703125 0.890625zm8.949829 -2.921875l0 -12.140627l-2.125 0l0 -1.125l3.9375 -0.328125l0 13.593752l-1.8125 0zm7.593689 -13.140627l0 -1.25q1.484375 1.015625 2.40625 2.421875q0.921875 1.40625 1.390625 3.0q0.484375 1.59375 0.484375 3.125q0 1.5312519 -0.484375 3.125002q-0.46875 1.59375 -1.390625 3.0q-0.921875 1.40625 -2.40625 2.421875l0 -1.25q1.03125 -1.109375 1.515625 -2.15625q0.5 -1.0625 0.71875 -2.375q0.234375 -1.328125 0.234375 -2.765627q0 -1.4375 -0.234375 -2.75q-0.21875 -1.328125 -0.71875 -2.375q-0.484375 -1.0625 -1.515625 -2.171875zm10.785645 14.593752l0 1.25q-1.484375 -1.015625 -2.40625 -2.421875q-0.921875 -1.40625 -1.390625 -3.0q-0.46875 -1.59375 -0.46875 -3.125002q0 -1.53125 0.46875 -3.125q0.46875 -1.59375 1.390625 -3.0q0.921875 -1.40625 2.40625 -2.421875l0 1.25q-1.03125 1.109375 -1.53125 2.171875q-0.484375 1.046875 -0.71875 2.359375q-0.21875 1.3125 -0.21875 2.765625q0 1.4531269 0.21875 2.765627q0.234375 1.3125 0.71875 2.375q0.5 1.046875 1.53125 2.15625zm3.4888306 -1.453125q0.296875 -1.828125 0.859375 -3.015625q0.578125 -1.1875 1.609375 -2.859377l3.6875 -5.921875l-6.953125 0l0 -1.6875l8.65625 0l0 1.6875q-1.75 2.5625 -2.875 4.625q-1.125 2.046877 -1.921875 3.859377q-0.78125 1.796875 -1.0 3.3125l-2.0625 0zm10.812439 2.921875l0 -0.671875q0.28125 -0.078125 0.453125 -0.3125q0.171875 -0.21875 0.296875 -0.578125q0.125 -0.34375 0.125 -1.171875l0 -0.1875l-0.875 0l0 -2.25l2.25 0l0 1.953125q0 1.546875 -0.546875 2.328125q-0.53125 0.78125 -1.703125 0.890625zm8.949829 -2.921875l0 -12.140627l-2.125 0l0 -1.125l3.9375 -0.328125l0 13.593752l-1.8125 0zm7.593628 -13.140627l0 -1.25q1.484375 1.015625 2.40625 2.421875q0.921875 1.40625 1.390625 3.0q0.484375 1.59375 0.484375 3.125q0 1.5312519 -0.484375 3.125002q-0.46875 1.59375 -1.390625 3.0q-0.921875 1.40625 -2.40625 2.421875l0 -1.25q1.03125 -1.109375 1.515625 -2.15625q0.5 -1.0625 0.71875 -2.375q0.234375 -1.328125 0.234375 -2.765627q0 -1.4375 -0.234375 -2.75q-0.21875 -1.328125 -0.71875 -2.375q-0.484375 -1.0625 -1.515625 -2.171875z" fill-rule="nonzero"/></g></svg>