<svg version="1.1" viewBox="0.0 0.0 651.9658792650919 442.249343832021" fill="none" stroke="none" stroke-linecap="square" stroke-miterlimit="10" xmlns:xlink="http://www.w3.org/1999/xlink" xmlns="http://www.w3.org/2000/svg"><clipPath id="p.0"><path d="m0 0l651.9659 0l0 442.24933l-651.9659 0l0 -442.24933z" clip-rule="nonzero"/></clipPath><g clip-path="url(#p.0)"><path fill="#ffffff" d="m0 0l651.9659 0l0 442.24933l-651.9659 0z" fill-rule="evenodd"/><path fill="#efefef" d="m155.86482 7.1362576l176.25197 0l0 396.44095l-176.25197 0z" fill-rule="evenodd"/><path stroke="#000000" stroke-width="3.0" stroke-linejoin="round" stroke-linecap="butt" d="m155.86482 7.1362576l176.25197 0l0 396.44095l-176.25197 0z" fill-rule="evenodd"/><path fill="#b7b7b7" d="m155.86613 342.81342l176.25197 0l0 60.75589l-176.25197 0z" fill-rule="evenodd"/><path stroke="#000000" stroke-width="3.0" stroke-linejoin="round" stroke-linecap="butt" d="m155.86613 342.81342l176.25197 0l0 60.75589l-176.25197 0z" fill-rule="evenodd"/><path fill="#000000" fill-opacity="0.0" d="m155.86482 403.563l176.25197 0l0 42.015747l-176.25197 0z" fill-rule="evenodd"/><path fill="#000000" d="m221.97389 426.1705l1.75 -0.171875l-0.015625 0.46875q0 0.765625 0.34375 1.421875q0.359375 0.640625 1.171875 1.0q0.828125 0.34375 1.953125 0.34375q1.609375 0 2.453125 -0.703125q0.84375 -0.703125 0.84375 -1.609375q0 -0.625 -0.453125 -1.140625q-0.453125 -0.515625 -2.484375 -1.390625q-1.578125 -0.6875 -2.140625 -1.046875q-0.90625 -0.59375 -1.34375 -1.28125q-0.421875 -0.703125 -0.421875 -1.59375q0 -1.03125 0.5625 -1.859375q0.5625 -0.828125 1.65625 -1.265625q1.09375 -0.4375 2.453125 -0.4375q1.640625 0 2.75 0.546875q1.125 0.546875 1.625 1.453125q0.515625 0.90625 0.515625 1.734375q0 0.09375 -0.015625 0.28125l-1.71875 0.140625q0 -0.578125 -0.109375 -0.890625q-0.171875 -0.5625 -0.5625 -0.9375q-0.375 -0.390625 -1.046875 -0.609375q-0.671875 -0.234375 -1.5 -0.234375q-1.453125 0 -2.265625 0.65625q-0.625 0.5 -0.625 1.328125q0 0.484375 0.25 0.875q0.265625 0.390625 0.921875 0.765625q0.484375 0.265625 2.25 1.046875q1.453125 0.640625 2.0 1.0q0.71875 0.484375 1.109375 1.171875q0.390625 0.6875 0.390625 1.5625q0 1.078125 -0.65625 2.0q-0.65625 0.90625 -1.828125 1.421875q-1.15625 0.5 -2.671875 0.5q-2.265625 0 -3.703125 -0.984375q-1.421875 -1.0 -1.4375 -3.5625zm15.599823 2.96875l-0.265625 1.359375q-0.59375 0.140625 -1.15625 0.140625q-0.984375 0 -1.5625 -0.46875q-0.4375 -0.375 -0.4375 -1.0q0 -0.3125 0.234375 -1.46875l1.171875 -5.625l-1.296875 0l0.265625 -1.265625l1.296875 0l0.5 -2.375l1.890625 -1.140625l-0.734375 3.515625l1.625 0l-0.28125 1.265625l-1.609375 0l-1.125 5.359375q-0.203125 1.015625 -0.203125 1.21875q0 0.28125 0.15625 0.4375q0.171875 0.15625 0.5625 0.15625q0.546875 0 0.96875 -0.109375zm7.855179 0.140625q-0.859375 0.734375 -1.65625 1.078125q-0.78125 0.34375 -1.6875 0.34375q-1.34375 0 -2.171875 -0.78125q-0.8125 -0.796875 -0.8125 -2.03125q0 -0.796875 0.375 -1.421875q0.375 -0.625 0.984375 -1.0q0.609375 -0.390625 1.484375 -0.546875q0.5625 -0.109375 2.109375 -0.171875q1.5625 -0.0625 2.234375 -0.328125q0.1875 -0.671875 0.1875 -1.125q0 -0.578125 -0.421875 -0.90625q-0.5625 -0.453125 -1.671875 -0.453125q-1.03125 0 -1.703125 0.46875q-0.65625 0.453125 -0.953125 1.296875l-1.671875 -0.140625q0.515625 -1.4375 1.609375 -2.203125q1.109375 -0.765625 2.796875 -0.765625q1.796875 0 2.84375 0.859375q0.796875 0.625 0.796875 1.65625q0 0.765625 -0.21875 1.796875l-0.53125 2.40625q-0.265625 1.140625 -0.265625 1.859375q0 0.453125 0.203125 1.3125l-1.671875 0q-0.125 -0.46875 -0.1875 -1.203125zm0.609375 -3.703125q-0.34375 0.140625 -0.75 0.21875q-0.390625 0.0625 -1.3125 0.15625q-1.4375 0.125 -2.03125 0.328125q-0.59375 0.1875 -0.90625 0.625q-0.296875 0.421875 -0.296875 0.9375q0 0.6875 0.484375 1.140625q0.484375 0.4375 1.359375 0.4375q0.828125 0 1.578125 -0.421875q0.75 -0.4375 1.1875 -1.203125q0.4375 -0.78125 0.6875 -2.21875zm9.922592 1.375l1.6562347 0.171875q-0.625 1.8125 -1.7656097 2.703125q-1.140625 0.875 -2.609375 0.875q-1.578125 0 -2.5625 -1.015625q-0.96875 -1.03125 -0.96875 -2.859375q0 -1.578125 0.625 -3.109375q0.640625 -1.53125 1.796875 -2.328125q1.171875 -0.796875 2.6875 -0.796875q1.5468597 0 2.4531097 0.875q0.921875 0.875 0.921875 2.328125l-1.625 0.109375q-0.015625 -0.921875 -0.546875 -1.4375q-0.51560974 -0.515625 -1.3593597 -0.515625q-1.0 0 -1.734375 0.625q-0.71875 0.625 -1.140625 1.90625q-0.40625 1.28125 -0.40625 2.46875q0 1.234375 0.546875 1.859375q0.546875 0.609375 1.34375 0.609375q0.796875 0 1.53125 -0.609375q0.734375 -0.609375 1.15625 -1.859375zm2.6718597 3.53125l2.796875 -13.359375l1.640625 0l-1.734375 8.28125l4.8125 -4.59375l2.171875 0l-4.125 3.609375l2.5 6.0625l-1.8125 0l-1.921875 -4.96875l-2.015625 1.734375l-0.671875 3.234375l-1.640625 0z" fill-rule="nonzero"/><path fill="#000000" fill-opacity="0.0" d="m460.50787 400.24014l176.25195 0l0 42.015778l-176.25195 0z" fill-rule="evenodd"/><path fill="#000000" d="m527.11505 427.16016l2.796875 -13.359375l1.78125 0l-1.15625 5.546875l6.921875 0l1.15625 -5.546875l1.78125 0l-2.78125 13.359375l-1.796875 0l1.3125 -6.296875l-6.90625 0l-1.328125 6.296875l-1.78125 0zm20.410461 -3.28125l1.609375 0.15625q-0.34375 1.1875 -1.59375 2.265625q-1.234375 1.078125 -2.96875 1.078125q-1.0625 0 -1.96875 -0.5q-0.890625 -0.5 -1.359375 -1.4375q-0.46875 -0.953125 -0.46875 -2.15625q0 -1.59375 0.734375 -3.078125q0.734375 -1.484375 1.890625 -2.203125q1.171875 -0.734375 2.53125 -0.734375q1.734375 0 2.765625 1.078125q1.03125 1.0625 1.03125 2.921875q0 0.71875 -0.125 1.46875l-7.125 0q-0.046875 0.28125 -0.046875 0.5q0 1.359375 0.625 2.078125q0.625 0.71875 1.53125 0.71875q0.84375 0 1.65625 -0.546875q0.828125 -0.5625 1.28125 -1.609375zm-4.78125 -2.40625l5.421875 0q0.015625 -0.25 0.015625 -0.359375q0 -1.234375 -0.625 -1.890625q-0.625 -0.671875 -1.59375 -0.671875q-1.0625 0 -1.9375 0.734375q-0.859375 0.71875 -1.28125 2.1875zm14.578857 4.484375q-0.859375 0.734375 -1.65625 1.078125q-0.78125 0.34375 -1.6875 0.34375q-1.34375 0 -2.171875 -0.78125q-0.8125 -0.796875 -0.8125 -2.03125q0 -0.796875 0.375 -1.421875q0.375 -0.625 0.984375 -1.0q0.609375 -0.390625 1.484375 -0.546875q0.5625 -0.109375 2.109375 -0.171875q1.5625 -0.0625 2.234375 -0.328125q0.1875 -0.671875 0.1875 -1.125q0 -0.578125 -0.421875 -0.90625q-0.5625 -0.453125 -1.671875 -0.453125q-1.03125 0 -1.703125 0.46875q-0.65625 0.453125 -0.953125 1.296875l-1.671875 -0.140625q0.515625 -1.4375 1.609375 -2.203125q1.109375 -0.765625 2.796875 -0.765625q1.796875 0 2.84375 0.859375q0.796875 0.625 0.796875 1.65625q0 0.765625 -0.21875 1.796875l-0.53125 2.40625q-0.265625 1.140625 -0.265625 1.859375q0 0.453125 0.203125 1.3125l-1.671875 0q-0.125 -0.46875 -0.1875 -1.203125zm0.609375 -3.703125q-0.34375 0.140625 -0.75 0.21875q-0.390625 0.0625 -1.3125 0.15625q-1.4375 0.125 -2.03125 0.328125q-0.59375 0.1875 -0.90625 0.625q-0.296875 0.421875 -0.296875 0.9375q0 0.6875 0.484375 1.140625q0.484375 0.4375 1.359375 0.4375q0.828125 0 1.578125 -0.421875q0.75 -0.4375 1.1875 -1.203125q0.4375 -0.78125 0.6875 -2.21875zm2.4381714 8.609375l2.796875 -13.375l1.515625 0l-0.28125 1.34375q0.84375 -0.875 1.515625 -1.21875q0.671875 -0.34375 1.421875 -0.34375q1.375 0 2.28125 1.015625q0.921875 1.0 0.921875 2.875q0 1.515625 -0.5 2.765625q-0.5 1.234375 -1.234375 2.0q-0.71875 0.75 -1.46875 1.109375q-0.75 0.34375 -1.53125 0.34375q-1.75 0 -2.703125 -1.765625l-1.09375 5.25l-1.640625 0zm3.25 -7.65625q0 1.078125 0.15625 1.5q0.234375 0.59375 0.75 0.96875q0.515625 0.359375 1.203125 0.359375q1.421875 0 2.296875 -1.59375q0.875 -1.609375 0.875 -3.28125q0 -1.21875 -0.59375 -1.890625q-0.578125 -0.671875 -1.453125 -0.671875q-0.625 0 -1.171875 0.34375q-0.53125 0.328125 -1.0 0.984375q-0.453125 0.65625 -0.765625 1.609375q-0.296875 0.953125 -0.296875 1.671875z" fill-rule="nonzero"/><path fill="#000000" fill-opacity="0.0" d="m5.7874017 235.47244l150.07874 0l0 87.27557l-150.07874 0z" fill-rule="evenodd"/><path fill="#000000" d="m33.436672 262.39243l0 -13.35936l1.78125 0l0 6.625l6.625 -6.625l2.390625 0l-5.59375 5.421875l5.84375 7.9374847l-2.328125 0l-4.765625 -6.7656097l-2.171875 2.1406097l0 4.625l-1.78125 0zm11.709198 -4.84375q0 -2.6874847 1.484375 -3.9687347q1.25 -1.078125 3.046875 -1.078125q2.0 0 3.265625 1.3125q1.265625 1.296875 1.265625 3.6093597q0 1.859375 -0.5625 2.9375q-0.5625 1.0625 -1.640625 1.65625q-1.0625 0.59375 -2.328125 0.59375q-2.03125 0 -3.28125 -1.296875q-1.25 -1.3125 -1.25 -3.765625zm1.6875 0q0 1.859375 0.796875 2.796875q0.8125 0.921875 2.046875 0.921875q1.21875 0 2.03125 -0.921875q0.8125 -0.9375 0.8125 -2.84375q0 -1.7968597 -0.8125 -2.7187347q-0.8125 -0.921875 -2.03125 -0.921875q-1.234375 0 -2.046875 0.921875q-0.796875 0.90625 -0.796875 2.7656097zm9.297592 8.546875l0 -13.374985l1.484375 0l0 1.25q0.53125 -0.734375 1.1875 -1.09375q0.671875 -0.375 1.625 -0.375q1.234375 0 2.171875 0.640625q0.953125 0.625 1.4374962 1.796875q0.484375 1.1562347 0.484375 2.5468597q0 1.484375 -0.5312462 2.671875q-0.53125 1.1875 -1.546875 1.828125q-1.015625 0.625 -2.140625 0.625q-0.8125 0 -1.46875 -0.34375q-0.65625 -0.34375 -1.0625 -0.875l0 4.703125l-1.640625 0zm1.484375 -8.484375q0 1.859375 0.75 2.765625q0.765625 0.890625 1.828125 0.890625q1.09375 0 1.875 -0.921875q0.78125 -0.9375 0.78125 -2.875q0 -1.8437347 -0.765625 -2.7656097q-0.75 -0.921875 -1.8125 -0.921875q-1.046875 0 -1.859375 0.984375q-0.796875 0.96875 -0.796875 2.8437347zm8.891338 -6.6874847l0 -1.890625l1.640625 0l0 1.890625l-1.640625 0zm0 11.468735l0 -9.67186l1.640625 0l0 9.67186l-1.640625 0zm10.769821 -3.109375l1.6875 0.203125q-0.40625 1.484375 -1.484375 2.3125q-1.078125 0.8125 -2.765625 0.8125q-2.125 0 -3.375 -1.296875q-1.234375 -1.3125 -1.234375 -3.671875q0 -2.4531097 1.25 -3.7968597q1.265625 -1.34375 3.265625 -1.34375q1.9375 0 3.15625 1.328125q1.234375 1.3125 1.234375 3.7031097q0 0.15625 0 0.4375l-7.21875 0q0.09375 1.59375 0.90625 2.453125q0.8125 0.84375 2.015625 0.84375q0.90625 0 1.546875 -0.46875q0.640625 -0.484375 1.015625 -1.515625zm-5.390625 -2.65625l5.40625 0q-0.109375 -1.2187347 -0.625 -1.8281097q-0.78125 -0.953125 -2.03125 -0.953125q-1.125 0 -1.90625 0.765625q-0.765625 0.75 -0.84375 2.0156097zm20.949646 2.65625l1.6875 0.203125q-0.40625 1.484375 -1.484375 2.3125q-1.078125 0.8125 -2.765625 0.8125q-2.125 0 -3.375 -1.296875q-1.234375 -1.3125 -1.234375 -3.671875q0 -2.4531097 1.25 -3.7968597q1.265625 -1.34375 3.265625 -1.34375q1.9375 0 3.15625 1.328125q1.234375 1.3125 1.234375 3.7031097q0 0.15625 0 0.4375l-7.21875 0q0.09375 1.59375 0.90625 2.453125q0.8125 0.84375 2.015625 0.84375q0.90625 0 1.546875 -0.46875q0.640625 -0.484375 1.015625 -1.515625zm-5.390625 -2.65625l5.40625 0q-0.109375 -1.2187347 -0.625 -1.8281097q-0.78125 -0.953125 -2.03125 -0.953125q-1.125 0 -1.90625 0.765625q-0.765625 0.75 -0.84375 2.0156097zm9.141342 -5.7031097l0 -1.890625l1.640625 0l0 1.890625l-1.640625 0zm0 11.468735l0 -9.67186l1.640625 0l0 9.67186l-1.640625 0zm4.144821 0l0 -9.67186l1.46875 0l0 1.375q1.0625 -1.59375 3.078125 -1.59375q0.875 0 1.609375 0.3125q0.734375 0.3125 1.09375 0.828125q0.375 0.5 0.515625 1.203125q0.09375 0.453125 0.09375 1.5937347l0 5.953125l-1.640625 0l0 -5.890625q0 -0.99998474 -0.203125 -1.4843597q-0.1875 -0.5 -0.671875 -0.796875q-0.484375 -0.296875 -1.140625 -0.296875q-1.046875 0 -1.8125 0.671875q-0.75 0.65625 -0.75 2.5156097l0 5.28125l-1.640625 0zm17.000717 -3.109375l1.6875 0.203125q-0.40625 1.484375 -1.484375 2.3125q-1.078125 0.8125 -2.765625 0.8125q-2.125 0 -3.375 -1.296875q-1.234375 -1.3125 -1.234375 -3.671875q0 -2.4531097 1.25 -3.7968597q1.265625 -1.34375 3.265625 -1.34375q1.9375 0 3.15625 1.328125q1.234375 1.3125 1.234375 3.7031097q0 0.15625 0 0.4375l-7.21875 0q0.09375 1.59375 0.90625 2.453125q0.8125 0.84375 2.015625 0.84375q0.90625 0 1.546875 -0.46875q0.640625 -0.484375 1.015625 -1.515625zm-5.390625 -2.65625l5.40625 0q-0.109375 -1.2187347 -0.625 -1.8281097q-0.78125 -0.953125 -2.03125 -0.953125q-1.125 0 -1.90625 0.765625q-0.765625 0.75 -0.84375 2.0156097zm8.485092 2.875l1.625 -0.25q0.125 0.96875 0.75 1.5q0.625 0.515625 1.75 0.515625q1.125 0 1.671875 -0.453125q0.546875 -0.46875 0.546875 -1.09375q0 -0.546875 -0.484375 -0.875q-0.328125 -0.21875 -1.671875 -0.546875q-1.8125 -0.46875 -2.515625 -0.796875q-0.6875 -0.328125 -1.046875 -0.90625q-0.359375 -0.59375 -0.359375 -1.3124847q0 -0.640625 0.296875 -1.1875q0.296875 -0.5625 0.8125 -0.921875q0.375 -0.28125 1.03125 -0.46875q0.671875 -0.203125 1.421875 -0.203125q1.140625 0 2.0 0.328125q0.859375 0.328125 1.265625 0.890625q0.42188263 0.5625 0.5781326 1.5l-1.6093826 0.21875q-0.109375 -0.75 -0.640625 -1.171875q-0.515625 -0.421875 -1.46875 -0.421875q-1.140625 0 -1.625 0.375q-0.46875 0.375 -0.46875 0.875q0 0.3125 0.1875 0.578125q0.203125 0.265625 0.640625 0.43748474q0.234375 0.09375 1.4375 0.421875q1.75 0.453125 2.4375 0.75q0.6875076 0.296875 1.0781326 0.859375q0.390625 0.5625 0.390625 1.40625q0 0.828125 -0.484375 1.546875q-0.46875763 0.71875 -1.3750076 1.125q-0.90625 0.390625 -2.046875 0.390625q-1.875 0 -2.875 -0.78125q-0.984375 -0.78125 -1.25 -2.328125z" fill-rule="nonzero"/><path fill="#000000" d="m37.65286 280.71432l-2.203125 0q-0.046875 0.59375 -0.234375 1.0625q-0.171875 0.46875 -0.484375 0.78125q-0.296875 0.3125 -0.734375 0.484375q-0.4375 0.15625 -1.015625 0.15625q-0.46875 0 -0.84375 -0.125q-0.3593769 -0.140625 -0.6406269 -0.390625q-0.28125 -0.234375 -0.484375 -0.5625q-0.1875 -0.328125 -0.3125 -0.734375q-0.15625 -0.484375 -0.234375 -1.0625q-0.078125 -0.59375 -0.078125 -1.25l0 -1.828125q0 -0.546875 0.046875 -1.0625q0.0625 -0.515625 0.1875 -0.96875q0.15625 -0.515625 0.390625 -0.9375q0.25 -0.421875 0.609375 -0.6875q0.265625 -0.21875 0.6093769 -0.328125q0.34375 -0.125 0.765625 -0.125q0.609375 0 1.046875 0.171875q0.4375 0.171875 0.734375 0.515625q0.296875 0.34375 0.46875 0.828125q0.171875 0.46875 0.21875 1.0625l2.1875 0q-0.09375 -1.0 -0.4375 -1.8125q-0.34375 -0.8125 -0.9375 -1.375q-0.578125 -0.5625 -1.40625 -0.875q-0.828125 -0.3125 -1.875 -0.3125q-0.78125 0 -1.4375019 0.21875q-0.640625 0.203125 -1.171875 0.578125q-0.5625 0.40625 -1.0 0.984375q-0.4375 0.578125 -0.703125 1.28125q-0.265625 0.640625 -0.390625 1.359375q-0.125 0.71875 -0.125 1.5l0 1.8125q0 0.8125 0.125 1.5625q0.140625 0.734375 0.40625 1.375q0.265625 0.65625 0.640625 1.203125q0.390625 0.53125 0.921875 0.90625q0.53125 0.421875 1.21875 0.640625q0.6875019 0.21875 1.5000019 0.21875q1.015625 0 1.828125 -0.296875q0.828125 -0.3125 1.4375 -0.875q0.578125 -0.5625 0.9375 -1.34375q0.375 -0.78125 0.46875 -1.75zm1.8986969 -0.9375l0 0.1875q0 1.078125 0.296875 2.0q0.3125 0.90625 0.90625 1.578125q0.59375 0.671875 1.4375 1.0625q0.859375 0.375 1.953125 0.375q1.0625 0 1.90625 -0.375q0.859375 -0.390625 1.453125 -1.0625q0.578125 -0.671875 0.890625 -1.578125q0.3125 -0.921875 0.3125 -2.0l0 -0.1875q0 -1.078125 -0.3125 -1.984375q-0.3125 -0.921875 -0.890625 -1.59375q-0.59375 -0.6875 -1.453125 -1.0625q-0.84375 -0.375 -1.9375 -0.375q-1.078125 0 -1.921875 0.375q-0.84375 0.375 -1.4375 1.0625q-0.59375 0.671875 -0.90625 1.59375q-0.296875 0.90625 -0.296875 1.984375zm2.171875 0.1875l0 -0.1875q0 -0.65625 0.140625 -1.234375q0.140625 -0.59375 0.4375 -1.046875q0.296875 -0.453125 0.75 -0.703125q0.453125 -0.265625 1.0625 -0.265625q0.640625 0 1.078125 0.265625q0.453125 0.25 0.765625 0.703125q0.28125 0.453125 0.421875 1.046875q0.140625 0.578125 0.140625 1.234375l0 0.1875q0 0.671875 -0.140625 1.265625q-0.140625 0.578125 -0.421875 1.03125q-0.296875 0.4375 -0.75 0.703125q-0.453125 0.265625 -1.0625 0.265625q-0.640625 0 -1.09375 -0.265625q-0.453125 -0.265625 -0.75 -0.703125q-0.296875 -0.453125 -0.4375 -1.03125q-0.140625 -0.59375 -0.140625 -1.265625zm10.242447 4.828125l1.84375 0l1.25 -5.59375l0.21875 -1.21875l0.234375 1.21875l1.265625 5.59375l1.859375 0l1.890625 -9.859375l-1.96875 0l-0.890625 6.015625l-0.171875 1.203125l-0.203125 -1.1875l-1.28125 -6.03125l-1.4375 0l-1.28125 6.046875l-0.203125 1.140625l-0.15625 -1.140625l-0.90625 -6.046875l-1.96875 0l1.90625 9.859375zm17.226818 -3.421875q0 0.4375 -0.1875 0.78125q-0.1875 0.328125 -0.484375 0.5625q-0.328125 0.234375 -0.765625 0.359375q-0.421875 0.109375 -0.921875 0.109375q-0.59375 0 -1.09375 -0.140625q-0.5 -0.140625 -0.859375 -0.453125q-0.375 -0.28125 -0.59375 -0.734375q-0.203125 -0.453125 -0.25 -1.0625l-2.1874962 0q0 0.953125 0.375 1.703125q0.390625 0.734375 1.03125 1.28125q0.703125 0.578125 1.6406212 0.890625q0.953125 0.296875 1.9375 0.296875q0.921875 0 1.75 -0.234375q0.828125 -0.234375 1.453125 -0.6875q0.625 -0.453125 0.984375 -1.125q0.375 -0.671875 0.375 -1.5625q0 -0.953125 -0.421875 -1.6875q-0.421875 -0.734375 -1.125 -1.265625q-0.5625 -0.421875 -1.234375 -0.703125q-0.671875 -0.296875 -1.375 -0.5q-0.5625 -0.171875 -1.0625 -0.359375q-0.5 -0.1875 -0.890625 -0.453125q-0.390625 -0.25 -0.625 -0.59375q-0.21875 -0.34375 -0.234375 -0.796875q0 -0.421875 0.171875 -0.765625q0.1875 -0.34375 0.484375 -0.59375q0.3125 -0.234375 0.734375 -0.359375q0.421875 -0.140625 0.9375 -0.140625q0.5625 0 1.0 0.171875q0.453125 0.15625 0.765625 0.453125q0.296875 0.296875 0.453125 0.71875q0.171875 0.40625 0.21875 0.90625l2.171875 0q0 -0.890625 -0.359375 -1.625q-0.359375 -0.75 -0.984375 -1.296875q-0.609375 -0.53125 -1.453125 -0.828125q-0.828125 -0.296875 -1.796875 -0.296875q-0.90625 0 -1.734375 0.265625q-0.828125 0.25 -1.4374962 0.71875q-0.625 0.484375 -0.984375 1.171875q-0.359375 0.671875 -0.359375 1.515625q0 0.78125 0.3125 1.40625q0.3125 0.625 0.859375 1.109375q0.5625 0.484375 1.3437462 0.875q0.796875 0.390625 1.734375 0.65625q0.609375 0.171875 1.09375 0.390625q0.5 0.203125 0.875 0.46875q0.34375 0.28125 0.53125 0.640625q0.1875 0.359375 0.1875 0.8125zm8.711197 -8.84375l-2.1875 0l0 2.40625l-2.375 0l0 1.640625l2.375 0l0 4.84375q0 0.9375 0.25 1.625q0.25 0.671875 0.703125 1.09375q0.4375 0.4375 1.0625 0.640625q0.625 0.203125 1.375 0.203125q0.40625 0 0.8125 -0.046875q0.421875 -0.03125 0.8125 -0.109375q0.375 -0.0625 0.703125 -0.171875q0.34375 -0.109375 0.578125 -0.25l-0.234375 -1.5q-0.171875 0.03125 -0.40625 0.078125q-0.234375 0.046875 -0.515625 0.09375q-0.28125 0.046875 -0.578125 0.078125q-0.296875 0.015625 -0.59375 0.015625q-0.390625 0 -0.71875 -0.078125q-0.328125 -0.09375 -0.5625 -0.3125q-0.234375 -0.21875 -0.375 -0.578125q-0.125 -0.375 -0.125 -0.921875l0 -4.703125l3.703125 0l0 -1.640625l-3.703125 0l0 -2.40625zm13.633072 2.234375q-1.015625 0 -1.859375 0.46875q-0.84375 0.46875 -1.4375 1.296875l-0.015625 -0.21875l-0.09375 -1.375l-2.03125 0l0 9.859375l2.171875 0l0 -6.078125q0.171875 -0.4375 0.421875 -0.78125q0.265625 -0.34375 0.625 -0.5625q0.34375 -0.21875 0.78125 -0.328125q0.4375 -0.109375 0.984375 -0.109375q0.484375 0 0.96875 0.0625q0.484375 0.046875 0.984375 0.15625l0.3125 -2.15625q-0.28125 -0.09375 -0.78125 -0.15625q-0.5 -0.078125 -1.03125 -0.078125zm4.883072 0.171875l0 1.8125l3.046875 0l0 6.25l-3.046875 0l0 1.796875l8.125 0l0 -1.796875l-2.890625 0l0 -8.0625l-5.234375 0zm2.84375 -2.546875q0 0.34375 0.15625 0.609375q0.171875 0.25 0.5 0.359375q0.328125 0.09375 0.59375 0.046875q0.265625 -0.0625 0.453125 -0.234375q0.375 -0.09375 0.578125 -0.390625q0.203125 -0.296875 0.140625 -0.703125q-0.046875 -0.390625 -0.359375 -0.640625q-0.296875 -0.25 -0.796875 -0.25q-0.28125 0 -0.515625 0.09375q-0.234375 0.078125 -0.40625 0.234375q-0.171875 0.15625 -0.265625 0.390625q-0.078125 0.21875 -0.078125 0.484375zm7.851822 12.40625l2.1875 0l0 -7.03125q0.140625 -0.25 0.328125 -0.453125q0.203125 -0.21875 0.421875 -0.359375q0.28125 -0.1875 0.625 -0.296875q0.34375 -0.109375 0.75 -0.109375q0.46875 0 0.84375 0.109375q0.375 0.109375 0.640625 0.359375q0.265625 0.234375 0.40625 0.65625q0.140625 0.40625 0.140625 1.015625l0 6.109375l2.171875 0l0 -6.15625q0 -1.03125 -0.25 -1.765625q-0.25 -0.734375 -0.6875 -1.203125q-0.453125 -0.46875 -1.078125 -0.6875q-0.625 -0.21875 -1.390625 -0.21875q-0.5625 0 -1.09375 0.171875q-0.515625 0.15625 -0.953125 0.453125q-0.265625 0.1875 -0.515625 0.4375q-0.234375 0.234375 -0.4375 0.515625l-0.140625 -1.40625l-1.96875 0l0 9.859375zm10.914322 -5.0l0 0.1875q0 1.0625 0.28125 1.984375q0.28125 0.921875 0.796875 1.578125q0.515625 0.671875 1.234375 1.0625q0.734375 0.375 1.640625 0.375q0.5 0 0.921875 -0.109375q0.4375 -0.109375 0.796875 -0.3125q0.234375 -0.125 0.4375 -0.296875q0.203125 -0.171875 0.40625 -0.375l0 0.6875q0 0.5625 -0.171875 1.0q-0.15625 0.4375 -0.453125 0.734375q-0.3125 0.3125 -0.765625 0.46875q-0.453125 0.171875 -1.03125 0.171875q-0.34375 0 -0.671875 -0.078125q-0.3125 -0.0625 -0.640625 -0.203125q-0.3125 -0.15625 -0.625 -0.390625q-0.296875 -0.234375 -0.5625 -0.546875l-1.03125 1.328125q0.328125 0.4375 0.78125 0.734375q0.453125 0.3125 0.953125 0.5q0.5 0.203125 1.0 0.28125q0.5 0.09375 0.921875 0.09375q1.0 0 1.8125 -0.28125q0.828125 -0.265625 1.421875 -0.796875q0.59375 -0.53125 0.90625 -1.3125q0.328125 -0.765625 0.328125 -1.75l0 -9.59375l-1.984375 0l-0.078125 1.0q-0.1875 -0.21875 -0.40625 -0.40625q-0.203125 -0.1875 -0.4375 -0.328125q-0.359375 -0.21875 -0.8125 -0.328125q-0.453125 -0.109375 -1.0 -0.109375q-0.90625 0 -1.640625 0.375q-0.734375 0.359375 -1.25 1.015625q-0.53125 0.671875 -0.8125 1.59375q-0.265625 0.921875 -0.265625 2.046875zm2.1875 0.1875l0 -0.1875q0 -0.671875 0.140625 -1.25q0.140625 -0.59375 0.421875 -1.03125q0.28125 -0.453125 0.71875 -0.703125q0.4375 -0.265625 1.046875 -0.265625q0.359375 0 0.640625 0.078125q0.296875 0.078125 0.53125 0.203125q0.265625 0.15625 0.46875 0.375q0.203125 0.21875 0.359375 0.5l0 4.3125q-0.15625 0.265625 -0.34375 0.484375q-0.1875 0.21875 -0.4375 0.375q-0.25 0.140625 -0.5625 0.234375q-0.296875 0.078125 -0.671875 0.078125q-0.59375 0 -1.03125 -0.25q-0.4375 -0.25 -0.71875 -0.703125q-0.296875 -0.421875 -0.4375 -1.0q-0.125 -0.59375 -0.125 -1.25z" fill-rule="nonzero"/><path fill="#000000" d="m128.69426 280.77682l0 -1.640625l5.03125 0l0 1.640625l-5.03125 0z" fill-rule="nonzero"/><path fill="#000000" d="m50.1094 300.69244q0 -3.328125 1.78125 -5.203125q1.78125 -1.890625 4.609375 -1.890625q1.84375 0 3.328125 0.890625q1.484375 0.875 2.265625 2.46875q0.78125 1.578125 0.78125 3.578125q0 2.03125 -0.828125 3.640625q-0.8125 1.59375 -2.3125 2.421875q-1.5 0.828125 -3.25 0.828125q-1.875 0 -3.359375 -0.90625q-1.484375 -0.921875 -2.25 -2.5q-0.765625 -1.578125 -0.765625 -3.328125zm1.8125 0.015625q0 2.421875 1.296875 3.8125q1.296875 1.390625 3.265625 1.390625q2.0 0 3.28125 -1.40625q1.28125 -1.40625 1.28125 -3.984375q0 -1.625 -0.546875 -2.84375q-0.546875 -1.21875 -1.609375 -1.875q-1.0625 -0.671875 -2.375 -0.671875q-1.890625 0 -3.25 1.296875q-1.34375 1.28125 -1.34375 4.28125zm14.52705 6.484375l-1.515625 0l0 -13.359375l1.640625 0l0 4.765625q1.046875 -1.296875 2.65625 -1.296875q0.890625 0 1.6875 0.359375q0.796875 0.359375 1.3125 1.015625q0.515625 0.640625 0.796875 1.5625q0.296875 0.921875 0.296875 1.96875q0 2.484375 -1.234375 3.84375q-1.21875 1.359375 -2.953125 1.359375q-1.703125 0 -2.6875 -1.4375l0 1.21875zm-0.015625 -4.90625q0 1.734375 0.484375 2.515625q0.765625 1.265625 2.09375 1.265625q1.078125 0 1.859375 -0.9375q0.78125 -0.9375 0.78125 -2.78125q0 -1.890625 -0.75 -2.796875q-0.75 -0.90625 -1.828125 -0.90625q-1.0625 0 -1.859375 0.9375q-0.78125 0.9375 -0.78125 2.703125zm8.875717 -6.546875l0 -1.90625l1.640625 0l0 1.90625l-1.640625 0zm-2.078125 15.203125l0.3125 -1.390625q0.5 0.125 0.78125 0.125q0.5 0 0.734375 -0.328125q0.25 -0.328125 0.25 -1.671875l0 -10.15625l1.640625 0l0 10.203125q0 1.78125 -0.46875 2.484375q-0.59375 0.90625 -1.96875 0.90625q-0.65625 0 -1.28125 -0.171875zm12.863571 -6.859375l1.6875 0.203125q-0.40625 1.484375 -1.484375 2.3125q-1.078125 0.8125 -2.765625 0.8125q-2.125 0 -3.375 -1.296875q-1.234375 -1.3125 -1.234375 -3.671875q0 -2.453125 1.25 -3.796875q1.265625 -1.34375 3.265625 -1.34375q1.9375 0 3.15625 1.328125q1.234375 1.3125 1.234375 3.703125q0 0.15625 0 0.4375l-7.21875 0q0.09375 1.59375 0.90625 2.453125q0.8125 0.84375 2.015625 0.84375q0.90625 0 1.546875 -0.46875q0.640625 -0.484375 1.015625 -1.515625zm-5.390625 -2.65625l5.40625 0q-0.109375 -1.21875 -0.625 -1.828125q-0.78125 -0.953125 -2.03125 -0.953125q-1.125 0 -1.90625 0.765625q-0.765625 0.75 -0.84375 2.015625zm9.141342 5.765625l0 -13.359375l1.640625 0l0 7.625l3.890625 -3.9375l2.109375 0l-3.6875 3.59375l4.0625 6.078125l-2.015625 0l-3.203125 -4.953125l-1.15625 1.125l0 3.828125l-1.640625 0zm12.90625 -1.46875l0.234375 1.453125q-0.6875 0.140625 -1.234375 0.140625q-0.890625 0 -1.390625 -0.28125q-0.484375 -0.28125 -0.6875 -0.734375q-0.203125 -0.46875 -0.203125 -1.9375l0 -5.578125l-1.203125 0l0 -1.265625l1.203125 0l0 -2.390625l1.625 -0.984375l0 3.375l1.65625 0l0 1.265625l-1.65625 0l0 5.671875q0 0.6875 0.078125 0.890625q0.09375 0.203125 0.28125 0.328125q0.203125 0.109375 0.578125 0.109375q0.265625 0 0.71875 -0.0625zm0.94892883 -1.421875l1.625 -0.25q0.125 0.96875 0.75 1.5q0.625 0.515625 1.75 0.515625q1.125 0 1.671875 -0.453125q0.546875 -0.46875 0.546875 -1.09375q0 -0.546875 -0.484375 -0.875q-0.328125 -0.21875 -1.671875 -0.546875q-1.8125 -0.46875 -2.515625 -0.796875q-0.6875 -0.328125 -1.046875 -0.90625q-0.359375 -0.59375 -0.359375 -1.3125q0 -0.640625 0.296875 -1.1875q0.296875 -0.5625 0.8125 -0.921875q0.375 -0.28125 1.03125 -0.46875q0.671875 -0.203125 1.421875 -0.203125q1.140625 0 2.0 0.328125q0.859375 0.328125 1.265625 0.890625q0.421875 0.5625 0.578125 1.5l-1.609375 0.21875q-0.109375 -0.75 -0.640625 -1.171875q-0.515625 -0.421875 -1.46875 -0.421875q-1.140625 0 -1.625 0.375q-0.46875 0.375 -0.46875 0.875q0 0.3125 0.1875 0.578125q0.203125 0.265625 0.640625 0.4375q0.234375 0.09375 1.4375 0.421875q1.75 0.453125 2.4375 0.75q0.6875 0.296875 1.078125 0.859375q0.390625 0.5625 0.390625 1.40625q0 0.828125 -0.484375 1.546875q-0.46875 0.71875 -1.375 1.125q-0.90625 0.390625 -2.046875 0.390625q-1.875 0 -2.875 -0.78125q-0.984375 -0.78125 -1.25 -2.328125z" fill-rule="nonzero"/><path fill="#d9d9d9" d="m460.37402 188.95735l176.25195 0l0 85.19685l-176.25195 0z" fill-rule="evenodd"/><path stroke="#000000" stroke-width="3.0" stroke-linejoin="round" stroke-linecap="butt" d="m460.37402 188.95735l176.25195 0l0 85.19685l-176.25195 0z" fill-rule="evenodd"/><path fill="#d9d9d9" d="m460.37402 188.9567l176.25195 0l0 17.039368l-176.25195 0z" fill-rule="evenodd"/><path stroke="#000000" stroke-width="1.0" stroke-linejoin="round" stroke-linecap="butt" d="m460.37402 188.9567l176.25195 0l0 17.039368l-176.25195 0z" fill-rule="evenodd"/><path fill="#000000" d="m550.07904 200.08888l0.625 2.1875l1.625 0l-3.03125 -9.46875l-1.390625 0l-3.078125 9.46875l1.625 0l0.640625 -2.1875l2.984375 0zm-2.578125 -1.328125l1.09375 -3.75l1.09375 3.75l-2.1875 0z" fill-rule="nonzero"/><path fill="#d9d9d9" d="m460.37402 205.99606l176.25195 0l0 17.039368l-176.25195 0z" fill-rule="evenodd"/><path stroke="#000000" stroke-width="1.0" stroke-linejoin="round" stroke-linecap="butt" d="m460.37402 205.99606l176.25195 0l0 17.039368l-176.25195 0z" fill-rule="evenodd"/><path fill="#000000" d="m545.45404 219.31575l3.28125 0q0.703125 0 1.296875 -0.171875q0.609375 -0.1875 1.046875 -0.53125q0.4375 -0.34375 0.6875 -0.859375q0.25 -0.515625 0.234375 -1.203125q0 -0.375 -0.109375 -0.71875q-0.109375 -0.359375 -0.3125 -0.640625q-0.203125 -0.265625 -0.5 -0.46875q-0.296875 -0.21875 -0.71875 -0.328125l0 -0.015625q0.28125 -0.125 0.5 -0.265625q0.21875 -0.140625 0.390625 -0.34375q0.25 -0.265625 0.375 -0.609375q0.140625 -0.359375 0.15625 -0.75q0 -0.671875 -0.25 -1.15625q-0.25 -0.484375 -0.703125 -0.796875q-0.4375 -0.3125 -1.046875 -0.453125q-0.609375 -0.15625 -1.296875 -0.15625l-3.03125 0l0 9.46875zm1.578125 -4.28125l1.796875 0q0.390625 0 0.6875 0.109375q0.296875 0.109375 0.5 0.3125q0.21875 0.1875 0.3125 0.46875q0.109375 0.265625 0.109375 0.625q0 0.34375 -0.125 0.625q-0.125 0.265625 -0.359375 0.46875q-0.21875 0.171875 -0.53125 0.28125q-0.296875 0.109375 -0.671875 0.109375l-1.71875 0l0 -3.0zm0 -1.1875l0 -2.71875l1.484375 0q0.390625 0.015625 0.71875 0.109375q0.34375 0.078125 0.5625 0.28125q0.203125 0.15625 0.296875 0.40625q0.109375 0.234375 0.109375 0.5625q0 0.3125 -0.125 0.5625q-0.109375 0.234375 -0.3125 0.40625q-0.21875 0.1875 -0.546875 0.28125q-0.3125 0.09375 -0.703125 0.109375l-1.484375 0z" fill-rule="nonzero"/><path fill="#d9d9d9" d="m460.37402 223.03543l176.25195 0l0 17.039368l-176.25195 0z" fill-rule="evenodd"/><path stroke="#000000" stroke-width="1.0" stroke-linejoin="round" stroke-linecap="butt" d="m460.37402 223.03543l176.25195 0l0 17.039368l-176.25195 0z" fill-rule="evenodd"/><path fill="#000000" d="m551.8603 233.43324l-1.5625 0q-0.03125 0.4375 -0.171875 0.765625q-0.125 0.328125 -0.34375 0.5625q-0.21875 0.21875 -0.53125 0.34375q-0.3125 0.109375 -0.71875 0.109375q-0.328125 0 -0.59375 -0.09375q-0.265625 -0.09375 -0.46875 -0.28125q-0.203125 -0.15625 -0.34375 -0.390625q-0.125 -0.234375 -0.21875 -0.53125q-0.125 -0.34375 -0.1875 -0.75q-0.046875 -0.421875 -0.046875 -0.90625l0 -1.296875q0 -0.390625 0.046875 -0.75q0.046875 -0.375 0.125 -0.703125q0.109375 -0.359375 0.28125 -0.65625q0.171875 -0.3125 0.4375 -0.5q0.1875 -0.15625 0.421875 -0.234375q0.25 -0.09375 0.5625 -0.09375q0.4375 0 0.75 0.125q0.3125 0.125 0.515625 0.375q0.21875 0.234375 0.328125 0.578125q0.125 0.34375 0.171875 0.765625l1.546875 0q-0.0625 -0.71875 -0.3125 -1.296875q-0.234375 -0.578125 -0.65625 -0.984375q-0.421875 -0.40625 -1.015625 -0.625q-0.578125 -0.21875 -1.328125 -0.21875q-0.5625 0 -1.03125 0.15625q-0.453125 0.140625 -0.84375 0.40625q-0.40625 0.296875 -0.71875 0.71875q-0.296875 0.40625 -0.5 0.90625q-0.171875 0.453125 -0.265625 0.96875q-0.09375 0.515625 -0.09375 1.078125l0 1.28125q0 0.59375 0.09375 1.125q0.09375 0.53125 0.28125 0.984375q0.1875 0.46875 0.46875 0.859375q0.28125 0.375 0.640625 0.65625q0.390625 0.28125 0.875 0.453125q0.5 0.15625 1.078125 0.15625q0.71875 0 1.296875 -0.21875q0.59375 -0.21875 1.03125 -0.625q0.421875 -0.390625 0.671875 -0.953125q0.265625 -0.5625 0.328125 -1.265625z" fill-rule="nonzero"/><path fill="#d9d9d9" d="m460.37402 240.0748l176.25195 0l0 17.039368l-176.25195 0z" fill-rule="evenodd"/><path stroke="#000000" stroke-width="1.0" stroke-linejoin="round" stroke-linecap="butt" d="m460.37402 240.0748l176.25195 0l0 17.039368l-176.25195 0z" fill-rule="evenodd"/><path fill="#000000" d="m545.39154 253.39449l2.40625 0q0.640625 0 1.203125 -0.15625q0.578125 -0.15625 1.046875 -0.453125q0.421875 -0.265625 0.765625 -0.640625q0.34375 -0.375 0.578125 -0.84375q0.25 -0.46875 0.375 -1.046875q0.140625 -0.578125 0.140625 -1.21875l0 -0.75q0 -0.65625 -0.140625 -1.25q-0.140625 -0.59375 -0.40625 -1.09375q-0.25 -0.46875 -0.625 -0.84375q-0.375 -0.390625 -0.859375 -0.65625q-0.4375 -0.25 -0.984375 -0.375q-0.53125 -0.140625 -1.15625 -0.140625l-2.34375 0l0 9.46875zm1.59375 -8.203125l0.75 0q0.390625 0.015625 0.703125 0.09375q0.328125 0.078125 0.59375 0.234375q0.359375 0.203125 0.609375 0.53125q0.265625 0.3125 0.421875 0.703125q0.125 0.328125 0.1875 0.71875q0.0625 0.375 0.0625 0.8125l0 0.75q0 0.4375 -0.0625 0.828125q-0.0625 0.375 -0.1875 0.703125q-0.140625 0.375 -0.375 0.671875q-0.21875 0.296875 -0.5 0.5q-0.28125 0.1875 -0.640625 0.296875q-0.34375 0.09375 -0.75 0.09375l-0.8125 0l0 -6.9375z" fill-rule="nonzero"/><path fill="#d9d9d9" d="m460.37402 257.11417l176.25195 0l0 17.039368l-176.25195 0z" fill-rule="evenodd"/><path stroke="#000000" stroke-width="1.0" stroke-linejoin="round" stroke-linecap="butt" d="m460.37402 257.11417l176.25195 0l0 17.039368l-176.25195 0z" fill-rule="evenodd"/><path fill="#000000" d="m551.0478 266.18387l0 -1.265625l-3.921875 0l0 -2.671875l4.546875 0l0 -1.28125l-6.125 0l0 9.46875l6.15625 0l0 -1.28125l-4.578125 0l0 -2.96875l3.921875 0z" fill-rule="nonzero"/><path fill="#000000" fill-opacity="0.0" d="m5.7874017 90.026245l150.07874 0l0 64.62993l-150.07874 0z" fill-rule="evenodd"/><path fill="#000000" d="m37.65286 112.86812l-2.203125 0q-0.046875 0.59375 -0.234375 1.0625q-0.171875 0.46875 -0.484375 0.78125q-0.296875 0.3125 -0.734375 0.484375q-0.4375 0.15625 -1.015625 0.15625q-0.46875 0 -0.84375 -0.125q-0.3593769 -0.140625 -0.6406269 -0.390625q-0.28125 -0.234375 -0.484375 -0.5625q-0.1875 -0.328125 -0.3125 -0.734375q-0.15625 -0.484375 -0.234375 -1.0625q-0.078125 -0.59375 -0.078125 -1.25l0 -1.828125q0 -0.546875 0.046875 -1.0625q0.0625 -0.515625 0.1875 -0.96875q0.15625 -0.515625 0.390625 -0.9375q0.25 -0.421875 0.609375 -0.6875q0.265625 -0.21875 0.6093769 -0.328125q0.34375 -0.125 0.765625 -0.125q0.609375 0 1.046875 0.171875q0.4375 0.171875 0.734375 0.515625q0.296875 0.34375 0.46875 0.828125q0.171875 0.46875 0.21875 1.0625l2.1875 0q-0.09375 -1.0 -0.4375 -1.8125q-0.34375 -0.8125 -0.9375 -1.375q-0.578125 -0.5625 -1.40625 -0.875q-0.828125 -0.3125 -1.875 -0.3125q-0.78125 0 -1.4375019 0.21875q-0.640625 0.203125 -1.171875 0.578125q-0.5625 0.40625 -1.0 0.984375q-0.4375 0.578125 -0.703125 1.28125q-0.265625 0.640625 -0.390625 1.359375q-0.125 0.71875 -0.125 1.5l0 1.8125q0 0.8125 0.125 1.5625q0.140625 0.734375 0.40625 1.375q0.265625 0.65625 0.640625 1.203125q0.390625 0.53125 0.921875 0.90625q0.53125 0.421875 1.21875 0.640625q0.6875019 0.21875 1.5000019 0.21875q1.015625 0 1.828125 -0.296875q0.828125 -0.3125 1.4375 -0.875q0.578125 -0.5625 0.9375 -1.34375q0.375 -0.78125 0.46875 -1.75zm1.8986969 -0.9375l0 0.1875q0 1.078125 0.296875 2.0q0.3125 0.90625 0.90625 1.578125q0.59375 0.671875 1.4375 1.0625q0.859375 0.375 1.953125 0.375q1.0625 0 1.90625 -0.375q0.859375 -0.390625 1.453125 -1.0625q0.578125 -0.671875 0.890625 -1.578125q0.3125 -0.921875 0.3125 -2.0l0 -0.1875q0 -1.078125 -0.3125 -1.984375q-0.3125 -0.921875 -0.890625 -1.59375q-0.59375 -0.6875 -1.453125 -1.0625q-0.84375 -0.375 -1.9375 -0.375q-1.078125 0 -1.921875 0.375q-0.84375 0.375 -1.4375 1.0625q-0.59375 0.671875 -0.90625 1.59375q-0.296875 0.90625 -0.296875 1.984375zm2.171875 0.1875l0 -0.1875q0 -0.65625 0.140625 -1.234375q0.140625 -0.59375 0.4375 -1.046875q0.296875 -0.453125 0.75 -0.703125q0.453125 -0.265625 1.0625 -0.265625q0.640625 0 1.078125 0.265625q0.453125 0.25 0.765625 0.703125q0.28125 0.453125 0.421875 1.046875q0.140625 0.578125 0.140625 1.234375l0 0.1875q0 0.671875 -0.140625 1.265625q-0.140625 0.578125 -0.421875 1.03125q-0.296875 0.4375 -0.75 0.703125q-0.453125 0.265625 -1.0625 0.265625q-0.640625 0 -1.09375 -0.265625q-0.453125 -0.265625 -0.75 -0.703125q-0.296875 -0.453125 -0.4375 -1.03125q-0.140625 -0.59375 -0.140625 -1.265625zm10.242447 4.828125l1.84375 0l1.25 -5.59375l0.21875 -1.21875l0.234375 1.21875l1.265625 5.59375l1.859375 0l1.890625 -9.859375l-1.96875 0l-0.890625 6.015625l-0.171875 1.203125l-0.203125 -1.1875l-1.28125 -6.03125l-1.4375 0l-1.28125 6.046875l-0.203125 1.140625l-0.15625 -1.140625l-0.90625 -6.046875l-1.96875 0l1.90625 9.859375zm17.226818 -3.421875q0 0.4375 -0.1875 0.78125q-0.1875 0.328125 -0.484375 0.5625q-0.328125 0.234375 -0.765625 0.359375q-0.421875 0.109375 -0.921875 0.109375q-0.59375 0 -1.09375 -0.140625q-0.5 -0.140625 -0.859375 -0.453125q-0.375 -0.28125 -0.59375 -0.734375q-0.203125 -0.453125 -0.25 -1.0625l-2.1874962 0q0 0.953125 0.375 1.703125q0.390625 0.734375 1.03125 1.28125q0.703125 0.578125 1.6406212 0.890625q0.953125 0.296875 1.9375 0.296875q0.921875 0 1.75 -0.234375q0.828125 -0.234375 1.453125 -0.6875q0.625 -0.453125 0.984375 -1.125q0.375 -0.671875 0.375 -1.5625q0 -0.953125 -0.421875 -1.6875q-0.421875 -0.734375 -1.125 -1.265625q-0.5625 -0.421875 -1.234375 -0.703125q-0.671875 -0.296875 -1.375 -0.5q-0.5625 -0.171875 -1.0625 -0.359375q-0.5 -0.1875 -0.890625 -0.453125q-0.390625 -0.25 -0.625 -0.59375q-0.21875 -0.34375 -0.234375 -0.796875q0 -0.421875 0.171875 -0.765625q0.1875 -0.34375 0.484375 -0.59375q0.3125 -0.234375 0.734375 -0.359375q0.421875 -0.140625 0.9375 -0.140625q0.5625 0 1.0 0.171875q0.453125 0.15625 0.765625 0.453125q0.296875 0.296875 0.453125 0.71875q0.171875 0.40625 0.21875 0.90625l2.171875 0q0 -0.890625 -0.359375 -1.625q-0.359375 -0.75 -0.984375 -1.296875q-0.609375 -0.53125 -1.453125 -0.828125q-0.828125 -0.296875 -1.796875 -0.296875q-0.90625 0 -1.734375 0.265625q-0.828125 0.25 -1.4374962 0.71875q-0.625 0.484375 -0.984375 1.171875q-0.359375 0.671875 -0.359375 1.515625q0 0.78125 0.3125 1.40625q0.3125 0.625 0.859375 1.109375q0.5625 0.484375 1.3437462 0.875q0.796875 0.390625 1.734375 0.65625q0.609375 0.171875 1.09375 0.390625q0.5 0.203125 0.875 0.46875q0.34375 0.28125 0.53125 0.640625q0.1875 0.359375 0.1875 0.8125zm8.711197 -8.84375l-2.1875 0l0 2.40625l-2.375 0l0 1.640625l2.375 0l0 4.84375q0 0.9375 0.25 1.625q0.25 0.671875 0.703125 1.09375q0.4375 0.4375 1.0625 0.640625q0.625 0.203125 1.375 0.203125q0.40625 0 0.8125 -0.046875q0.421875 -0.03125 0.8125 -0.109375q0.375 -0.0625 0.703125 -0.171875q0.34375 -0.109375 0.578125 -0.25l-0.234375 -1.5q-0.171875 0.03125 -0.40625 0.078125q-0.234375 0.046875 -0.515625 0.09375q-0.28125 0.046875 -0.578125 0.078125q-0.296875 0.015625 -0.59375 0.015625q-0.390625 0 -0.71875 -0.078125q-0.328125 -0.09375 -0.5625 -0.3125q-0.234375 -0.21875 -0.375 -0.578125q-0.125 -0.375 -0.125 -0.921875l0 -4.703125l3.703125 0l0 -1.640625l-3.703125 0l0 -2.40625zm13.633072 2.234375q-1.015625 0 -1.859375 0.46875q-0.84375 0.46875 -1.4375 1.296875l-0.015625 -0.21875l-0.09375 -1.375l-2.03125 0l0 9.859375l2.171875 0l0 -6.078125q0.171875 -0.4375 0.421875 -0.78125q0.265625 -0.34375 0.625 -0.5625q0.34375 -0.21875 0.78125 -0.328125q0.4375 -0.109375 0.984375 -0.109375q0.484375 0 0.96875 0.0625q0.484375 0.046875 0.984375 0.15625l0.3125 -2.15625q-0.28125 -0.09375 -0.78125 -0.15625q-0.5 -0.078125 -1.03125 -0.078125zm4.883072 0.171875l0 1.8125l3.046875 0l0 6.25l-3.046875 0l0 1.796875l8.125 0l0 -1.796875l-2.890625 0l0 -8.0625l-5.234375 0zm2.84375 -2.546875q0 0.34375 0.15625 0.609375q0.171875 0.25 0.5 0.359375q0.328125 0.09375 0.59375 0.046875q0.265625 -0.0625 0.453125 -0.234375q0.375 -0.09375 0.578125 -0.390625q0.203125 -0.296875 0.140625 -0.703125q-0.046875 -0.390625 -0.359375 -0.640625q-0.296875 -0.25 -0.796875 -0.25q-0.28125 0 -0.515625 0.09375q-0.234375 0.078125 -0.40625 0.234375q-0.171875 0.15625 -0.265625 0.390625q-0.078125 0.21875 -0.078125 0.484375zm7.851822 12.40625l2.1875 0l0 -7.03125q0.140625 -0.25 0.328125 -0.453125q0.203125 -0.21875 0.421875 -0.359375q0.28125 -0.1875 0.625 -0.296875q0.34375 -0.109375 0.75 -0.109375q0.46875 0 0.84375 0.109375q0.375 0.109375 0.640625 0.359375q0.265625 0.234375 0.40625 0.65625q0.140625 0.40625 0.140625 1.015625l0 6.109375l2.171875 0l0 -6.15625q0 -1.03125 -0.25 -1.765625q-0.25 -0.734375 -0.6875 -1.203125q-0.453125 -0.46875 -1.078125 -0.6875q-0.625 -0.21875 -1.390625 -0.21875q-0.5625 0 -1.09375 0.171875q-0.515625 0.15625 -0.953125 0.453125q-0.265625 0.1875 -0.515625 0.4375q-0.234375 0.234375 -0.4375 0.515625l-0.140625 -1.40625l-1.96875 0l0 9.859375zm10.914322 -5.0l0 0.1875q0 1.0625 0.28125 1.984375q0.28125 0.921875 0.796875 1.578125q0.515625 0.671875 1.234375 1.0625q0.734375 0.375 1.640625 0.375q0.5 0 0.921875 -0.109375q0.4375 -0.109375 0.796875 -0.3125q0.234375 -0.125 0.4375 -0.296875q0.203125 -0.171875 0.40625 -0.375l0 0.6875q0 0.5625 -0.171875 1.0q-0.15625 0.4375 -0.453125 0.734375q-0.3125 0.3125 -0.765625 0.46875q-0.453125 0.171875 -1.03125 0.171875q-0.34375 0 -0.671875 -0.078125q-0.3125 -0.0625 -0.640625 -0.203125q-0.3125 -0.15625 -0.625 -0.390625q-0.296875 -0.234375 -0.5625 -0.546875l-1.03125 1.328125q0.328125 0.4375 0.78125 0.734375q0.453125 0.3125 0.953125 0.5q0.5 0.203125 1.0 0.28125q0.5 0.09375 0.921875 0.09375q1.0 0 1.8125 -0.28125q0.828125 -0.265625 1.421875 -0.796875q0.59375 -0.53125 0.90625 -1.3125q0.328125 -0.765625 0.328125 -1.75l0 -9.59375l-1.984375 0l-0.078125 1.0q-0.1875 -0.21875 -0.40625 -0.40625q-0.203125 -0.1875 -0.4375 -0.328125q-0.359375 -0.21875 -0.8125 -0.328125q-0.453125 -0.109375 -1.0 -0.109375q-0.90625 0 -1.640625 0.375q-0.734375 0.359375 -1.25 1.015625q-0.53125 0.671875 -0.8125 1.59375q-0.265625 0.921875 -0.265625 2.046875zm2.1875 0.1875l0 -0.1875q0 -0.671875 0.140625 -1.25q0.140625 -0.59375 0.421875 -1.03125q0.28125 -0.453125 0.71875 -0.703125q0.4375 -0.265625 1.046875 -0.265625q0.359375 0 0.640625 0.078125q0.296875 0.078125 0.53125 0.203125q0.265625 0.15625 0.46875 0.375q0.203125 0.21875 0.359375 0.5l0 4.3125q-0.15625 0.265625 -0.34375 0.484375q-0.1875 0.21875 -0.4375 0.375q-0.25 0.140625 -0.5625 0.234375q-0.296875 0.078125 -0.671875 0.078125q-0.59375 0 -1.03125 -0.25q-0.4375 -0.25 -0.71875 -0.703125q-0.296875 -0.421875 -0.4375 -1.0q-0.125 -0.59375 -0.125 -1.25z" fill-rule="nonzero"/><path fill="#000000" d="m128.69426 112.93062l0 -1.640625l5.03125 0l0 1.640625l-5.03125 0z" fill-rule="nonzero"/><path fill="#000000" d="m54.773464 132.84624q0 -3.328125 1.78125 -5.2031174q1.78125 -1.890625 4.609375 -1.890625q1.84375 0 3.3281212 0.890625q1.484375 0.875 2.265625 2.4687424q0.78125 1.578125 0.78125 3.578125q0 2.03125 -0.828125 3.640625q-0.8125 1.59375 -2.3125 2.421875q-1.4999962 0.828125 -3.2499962 0.828125q-1.875 0 -3.359375 -0.90625q-1.484375 -0.921875 -2.25 -2.5q-0.765625 -1.578125 -0.765625 -3.328125zm1.8125 0.015625q0 2.421875 1.296875 3.8125q1.296875 1.390625 3.265625 1.390625q2.0 0 3.2812462 -1.40625q1.28125 -1.40625 1.28125 -3.984375q0 -1.625 -0.546875 -2.84375q-0.546875 -1.21875 -1.6093712 -1.8749924q-1.0625 -0.671875 -2.375 -0.671875q-1.890625 0 -3.25 1.2968674q-1.34375 1.28125 -1.34375 4.28125zm14.52705 6.484375l-1.515625 0l0 -13.359367l1.640625 0l0 4.7656174q1.046875 -1.296875 2.65625 -1.296875q0.890625 0 1.6875 0.359375q0.796875 0.359375 1.3125 1.015625q0.515625 0.640625 0.796875 1.5625q0.296875 0.921875 0.296875 1.96875q0 2.484375 -1.234375 3.84375q-1.21875 1.359375 -2.953125 1.359375q-1.703125 0 -2.6875 -1.4375l0 1.21875zm-0.015625 -4.90625q0 1.734375 0.484375 2.515625q0.765625 1.265625 2.09375 1.265625q1.078125 0 1.859375 -0.9375q0.78125 -0.9375 0.78125 -2.78125q0 -1.890625 -0.75 -2.796875q-0.75 -0.90625 -1.828125 -0.90625q-1.0625 0 -1.859375 0.9375q-0.78125 0.9375 -0.78125 2.703125zm8.875717 -6.5468674l0 -1.90625l1.640625 0l0 1.90625l-1.640625 0zm-2.078125 15.203117l0.3125 -1.390625q0.5 0.125 0.78125 0.125q0.5 0 0.734375 -0.328125q0.25 -0.328125 0.25 -1.671875l0 -10.15625l1.640625 0l0 10.203125q0 1.78125 -0.46875 2.484375q-0.59375 0.90625 -1.96875 0.90625q-0.65625 0 -1.28125 -0.171875zm12.863571 -6.859375l1.6875 0.203125q-0.40625 1.484375 -1.484375 2.3125q-1.078125 0.8125 -2.765625 0.8125q-2.125 0 -3.375 -1.296875q-1.234375 -1.3125 -1.234375 -3.671875q0 -2.453125 1.25 -3.796875q1.265625 -1.34375 3.265625 -1.34375q1.9375 0 3.15625 1.328125q1.234375 1.3125 1.234375 3.703125q0 0.15625 0 0.4375l-7.21875 0q0.09375 1.59375 0.90625 2.453125q0.8125 0.84375 2.015625 0.84375q0.90625 0 1.546875 -0.46875q0.640625 -0.484375 1.015625 -1.515625zm-5.390625 -2.65625l5.40625 0q-0.109375 -1.21875 -0.625 -1.828125q-0.78125 -0.953125 -2.03125 -0.953125q-1.125 0 -1.90625 0.765625q-0.765625 0.75 -0.84375 2.015625zm9.141342 5.765625l0 -13.359367l1.640625 0l0 7.6249924l3.890625 -3.9375l2.109375 0l-3.6875 3.59375l4.0625 6.078125l-2.015625 0l-3.203125 -4.953125l-1.15625 1.125l0 3.828125l-1.640625 0zm12.90625 -1.46875l0.234375 1.453125q-0.6875 0.140625 -1.234375 0.140625q-0.890625 0 -1.390625 -0.28125q-0.484375 -0.28125 -0.6875 -0.734375q-0.203125 -0.46875 -0.203125 -1.9375l0 -5.578125l-1.203125 0l0 -1.265625l1.203125 0l0 -2.3906174l1.625 -0.984375l0 3.3749924l1.65625 0l0 1.265625l-1.65625 0l0 5.671875q0 0.6875 0.078125 0.890625q0.09375 0.203125 0.28125 0.328125q0.203125 0.109375 0.578125 0.109375q0.265625 0 0.71875 -0.0625z" fill-rule="nonzero"/><path fill="#000000" fill-opacity="0.0" d="m460.1063 7.1362576l177.32285 0l0 396.44095l-177.32285 0z" fill-rule="evenodd"/><path stroke="#000000" stroke-width="3.0" stroke-linejoin="round" stroke-linecap="butt" d="m460.1063 7.1362576l177.32285 0l0 396.44095l-177.32285 0z" fill-rule="evenodd"/><path fill="#ffffff" d="m460.37534 132.13878l176.25198 0l0 28.409454l-176.25198 0z" fill-rule="evenodd"/><path stroke="#000000" stroke-width="3.0" stroke-linejoin="round" stroke-linecap="butt" d="m460.37534 132.13878l176.25198 0l0 28.409454l-176.25198 0z" fill-rule="evenodd"/><path fill="#000000" d="m471.6566 143.75038l-1.625 0l0 8.453125l1.71875 0l0 -6.5q0.046875 -0.109375 0.09375 -0.203125q0.0625 -0.09375 0.140625 -0.171875q0.109375 -0.09375 0.25 -0.140625q0.140625 -0.0625 0.328125 -0.0625q0.171875 0 0.3125 0.046875q0.140625 0.046875 0.234375 0.15625q0.109375 0.09375 0.15625 0.28125q0.046875 0.171875 0.046875 0.421875l0 6.171875l1.6875 0l0 -6.28125q0 -0.078125 0 -0.109375q0 -0.046875 0 -0.078125q0.03125 -0.140625 0.09375 -0.234375q0.0625 -0.109375 0.15625 -0.1875q0.109375 -0.09375 0.234375 -0.140625q0.140625 -0.046875 0.3125 -0.046875q0.171875 0 0.3125 0.046875q0.15625 0.046875 0.25 0.15625q0.109375 0.109375 0.15625 0.28125q0.0625 0.171875 0.0625 0.421875l0 6.171875l1.71875 0l0 -6.15625q0 -0.65625 -0.140625 -1.125q-0.140625 -0.484375 -0.390625 -0.78125q-0.25 -0.28125 -0.59375 -0.40625q-0.328125 -0.140625 -0.734375 -0.140625q-0.3125 0 -0.578125 0.078125q-0.265625 0.078125 -0.46875 0.21875q-0.171875 0.109375 -0.3125 0.265625q-0.140625 0.15625 -0.25 0.328125q-0.078125 -0.1875 -0.1875 -0.34375q-0.109375 -0.15625 -0.25 -0.265625q-0.171875 -0.140625 -0.421875 -0.203125q-0.25 -0.078125 -0.5625 -0.078125q-0.609375 0 -1.03125 0.296875q-0.421875 0.28125 -0.671875 0.78125l-0.046875 -0.921875zm15.6484375 9.9375l0 -1.484375l-7.140625 0l0 1.484375l7.140625 0zm8.3359375 -10.09375q-0.875 0 -1.609375 0.40625q-0.71875 0.40625 -1.234375 1.109375l0 -0.1875l-0.078125 -1.171875l-1.75 0l0 8.453125l1.859375 0l0 -5.21875q0.15625 -0.375 0.375 -0.65625q0.21875 -0.296875 0.53125 -0.484375q0.28125 -0.203125 0.65625 -0.296875q0.375 -0.09375 0.84375 -0.09375q0.421875 0 0.828125 0.046875q0.421875 0.046875 0.859375 0.140625l0.265625 -1.84375q-0.25 -0.078125 -0.671875 -0.140625q-0.421875 -0.0625 -0.875 -0.0625zm7.6953125 8.765625q1.234375 0 2.109375 -0.484375q0.875 -0.484375 1.296875 -1.09375l-1.0 -0.96875q-0.390625 0.5 -1.0 0.765625q-0.59375 0.265625 -1.296875 0.265625q-0.5 0 -0.9375 -0.171875q-0.421875 -0.171875 -0.734375 -0.484375q-0.3125 -0.296875 -0.5 -0.671875q-0.171875 -0.375 -0.25 -0.921875l0 -0.046875l5.859375 0l0 -0.796875q0 -0.90625 -0.25 -1.671875q-0.234375 -0.765625 -0.71875 -1.328125q-0.46875 -0.546875 -1.171875 -0.84375q-0.703125 -0.3125 -1.625 -0.3125q-0.8125 0 -1.546875 0.3125q-0.71875 0.296875 -1.265625 0.875q-0.546875 0.5625 -0.859375 1.375q-0.3125 0.796875 -0.3125 1.796875l0 0.3125q0 0.875 0.296875 1.625q0.3125 0.734375 0.859375 1.28125q0.5625 0.5625 1.328125 0.875q0.78125 0.3125 1.71875 0.3125zm-0.21875 -7.25q0.46875 0 0.8125 0.15625q0.359375 0.15625 0.59375 0.421875q0.25 0.28125 0.375 0.640625q0.140625 0.359375 0.140625 0.734375l0 0.125l-3.984375 0q0.09375 -0.484375 0.265625 -0.859375q0.1875 -0.390625 0.453125 -0.671875q0.265625 -0.265625 0.59375 -0.40625q0.34375 -0.140625 0.75 -0.140625zm8.0078125 7.09375l1.8749695 0l0 -7.0625l3.125 0l0 -1.390625l-3.125 0l0 -0.515625q0 -0.453125 0.109375 -0.78125q0.109375 -0.34375 0.34375 -0.5625q0.234375 -0.25 0.609375 -0.375q0.390625 -0.125 0.90625 -0.125q0.5 0 0.890625 0.0625q0.40625 0.0625 0.71875 0.15625l0.140625 -1.5q-0.234375 -0.046875 -0.46875 -0.078125q-0.21875 -0.046875 -0.4375 -0.078125q-0.265625 -0.046875 -0.546875 -0.0625q-0.265625 -0.03125 -0.5625 -0.03125q-0.8125 0 -1.484375 0.21875q-0.65625 0.21875 -1.125 0.640625q-0.46871948 0.421875 -0.7187195 1.0625q-0.25 0.625 -0.25 1.453125l0 0.515625l-2.265625 0l0 1.390625l2.265625 0l0 7.0625zm15.101532 -3.5l-1.875 0q-0.046875 0.515625 -0.203125 0.921875q-0.15625 0.390625 -0.421875 0.65625q-0.265625 0.265625 -0.640625 0.40625q-0.375 0.140625 -0.859375 0.140625q-0.40625 0 -0.71875 -0.109375q-0.3125 -0.109375 -0.5625 -0.328125q-0.234375 -0.203125 -0.40625 -0.484375q-0.15625 -0.28125 -0.265625 -0.625q-0.140625 -0.421875 -0.21875 -0.921875q-0.0625 -0.5 -0.0625 -1.0625l0 -1.578125q0 -0.453125 0.046875 -0.890625q0.0625 -0.453125 0.15625 -0.84375q0.140625 -0.4375 0.34375 -0.796875q0.203125 -0.375 0.515625 -0.59375q0.234375 -0.1875 0.515625 -0.28125q0.296875 -0.109375 0.671875 -0.109375q0.515625 0 0.890625 0.15625q0.375 0.140625 0.640625 0.4375q0.25 0.28125 0.390625 0.703125q0.140625 0.40625 0.1875 0.90625l1.875 0q-0.078125 -0.84375 -0.375 -1.53125q-0.296875 -0.703125 -0.796875 -1.203125q-0.5 -0.484375 -1.21875 -0.75q-0.703125 -0.265625 -1.59375 -0.265625q-0.671875 0 -1.234375 0.1875q-0.546875 0.171875 -1.015625 0.5q-0.484375 0.34375 -0.859375 0.84375q-0.359375 0.5 -0.59375 1.109375q-0.21875 0.546875 -0.328125 1.171875q-0.109375 0.609375 -0.109375 1.265625l0 1.5625q0 0.6875 0.109375 1.328125q0.109375 0.640625 0.34375 1.1875q0.21875 0.5625 0.546875 1.03125q0.34375 0.453125 0.78125 0.78125q0.46875 0.359375 1.046875 0.5625q0.59375 0.1875 1.296875 0.1875q0.859375 0 1.5625 -0.265625q0.71875 -0.265625 1.234375 -0.75q0.5 -0.484375 0.8125 -1.15625q0.3125 -0.671875 0.390625 -1.5zm1.6328125 -0.8125l0 0.171875q0 0.921875 0.265625 1.703125q0.265625 0.78125 0.765625 1.359375q0.5 0.578125 1.234375 0.921875q0.734375 0.328125 1.671875 0.328125q0.921875 0 1.640625 -0.328125q0.734375 -0.34375 1.234375 -0.921875q0.5 -0.578125 0.765625 -1.359375q0.265625 -0.78125 0.265625 -1.703125l0 -0.171875q0 -0.921875 -0.265625 -1.703125q-0.265625 -0.78125 -0.765625 -1.359375q-0.5 -0.578125 -1.234375 -0.90625q-0.734375 -0.328125 -1.65625 -0.328125q-0.9375 0 -1.671875 0.328125q-0.71875 0.328125 -1.21875 0.90625q-0.5 0.578125 -0.765625 1.359375q-0.265625 0.78125 -0.265625 1.703125zm1.859375 0.171875l0 -0.171875q0 -0.546875 0.125 -1.046875q0.125 -0.515625 0.375 -0.90625q0.25 -0.375 0.640625 -0.59375q0.390625 -0.234375 0.921875 -0.234375q0.53125 0 0.921875 0.234375q0.390625 0.21875 0.640625 0.59375q0.25 0.390625 0.375 0.90625q0.125 0.5 0.125 1.046875l0 0.171875q0 0.5625 -0.125 1.078125q-0.125 0.5 -0.375 0.890625q-0.25 0.375 -0.640625 0.609375q-0.390625 0.21875 -0.90625 0.21875q-0.546875 0 -0.9375 -0.21875q-0.390625 -0.234375 -0.640625 -0.609375q-0.25 -0.390625 -0.375 -0.890625q-0.125 -0.515625 -0.125 -1.078125zm13.6171875 4.140625l1.703125 0l0 -8.453125l-1.875 0l0 5.984375q-0.109375 0.234375 -0.265625 0.421875q-0.15625 0.1875 -0.359375 0.328125q-0.25 0.15625 -0.578125 0.25q-0.3125 0.09375 -0.71875 0.09375q-0.390625 0 -0.6875 -0.09375q-0.28125 -0.109375 -0.46875 -0.359375q-0.1875 -0.234375 -0.28125 -0.625q-0.078125 -0.390625 -0.078125 -0.984375l0 -5.015625l-1.859375 0l0 5.0q0 0.953125 0.203125 1.640625q0.21875 0.6875 0.59375 1.125q0.390625 0.4375 0.9375 0.65625q0.546875 0.203125 1.203125 0.203125q0.765625 0 1.375 -0.359375q0.625 -0.359375 1.046875 -1.0l0.109375 1.1875zm4.0703125 0l1.859375 0l0 -6.03125q0.125 -0.21875 0.28125 -0.390625q0.171875 -0.1875 0.359375 -0.3125q0.25 -0.15625 0.546875 -0.25q0.296875 -0.09375 0.640625 -0.09375q0.40625 0 0.71875 0.09375q0.328125 0.09375 0.5625 0.296875q0.21875 0.21875 0.328125 0.578125q0.125 0.34375 0.125 0.859375l0 5.25l1.875 0l0 -5.28125q0 -0.890625 -0.21875 -1.515625q-0.203125 -0.625 -0.59375 -1.03125q-0.375 -0.40625 -0.921875 -0.59375q-0.53125 -0.1875 -1.1875 -0.1875q-0.484375 0 -0.9375 0.140625q-0.4375 0.140625 -0.8125 0.390625q-0.234375 0.171875 -0.453125 0.375q-0.203125 0.203125 -0.375 0.453125l-0.109375 -1.203125l-1.6875 0l0 8.453125zm13.3515625 -10.515625l-1.875 0l0 2.0625l-2.046875 0l0 1.390625l2.046875 0l0 4.15625q0 0.8125 0.203125 1.390625q0.21875 0.578125 0.609375 0.953125q0.375 0.375 0.90625 0.5625q0.546875 0.171875 1.1875 0.171875q0.34375 0 0.703125 -0.046875q0.359375 -0.03125 0.6875 -0.09375q0.328125 -0.0625 0.609375 -0.15625q0.28125 -0.09375 0.484375 -0.21875l-0.203125 -1.28125q-0.140625 0.03125 -0.34375 0.078125q-0.203125 0.03125 -0.4375 0.0625q-0.25 0.046875 -0.515625 0.078125q-0.25 0.015625 -0.484375 0.015625q-0.34375 0 -0.625 -0.078125q-0.28125 -0.078125 -0.484375 -0.265625q-0.203125 -0.1875 -0.3125 -0.5q-0.109375 -0.3125 -0.109375 -0.78125l0 -4.046875l3.171875 0l0 -1.390625l-3.171875 0l0 -2.0625z" fill-rule="nonzero"/><path fill="#000000" d="m569.65656 151.266q0 0.453125 0.28125 0.78125q0.296875 0.3125 0.859375 0.3125q0.546875 0 0.84375 -0.3125q0.296875 -0.328125 0.296875 -0.78125q0 -0.46875 -0.296875 -0.796875q-0.28125 -0.328125 -0.84375 -0.328125q-0.578125 0 -0.859375 0.328125q-0.28125 0.328125 -0.28125 0.796875zm0 -6.84375q0 0.453125 0.28125 0.78125q0.296875 0.3125 0.859375 0.3125q0.546875 0 0.84375 -0.3125q0.296875 -0.328125 0.296875 -0.78125q0 -0.46875 -0.296875 -0.796875q-0.28125 -0.328125 -0.84375 -0.328125q-0.578125 0 -0.859375 0.328125q-0.28125 0.328125 -0.28125 0.796875z" fill-rule="nonzero"/><path fill="#000000" d="m591.9456 150.84413l0 1.359375l-7.578125 0q-0.015625 -0.515625 0.171875 -0.984375q0.28125 -0.765625 0.921875 -1.515625q0.640625 -0.75 1.84375 -1.734375q1.859375 -1.53125 2.515625 -2.421875q0.65625 -0.90625 0.65625 -1.703125q0 -0.828125 -0.59375 -1.40625q-0.59375 -0.578125 -1.5625 -0.578125q-1.015625 0 -1.625 0.609375q-0.609375 0.609375 -0.609375 1.6875l-1.453125 -0.140625q0.15625 -1.625 1.125 -2.46875q0.96875 -0.84375 2.59375 -0.84375q1.65625 0 2.609375 0.921875q0.96875 0.90625 0.96875 2.25q0 0.6875 -0.28125 1.359375q-0.28125 0.65625 -0.9375 1.390625q-0.65625 0.734375 -2.171875 2.015625q-1.265625 1.0625 -1.625 1.453125q-0.359375 0.375 -0.59375 0.75l5.625 0z" fill-rule="nonzero"/><path fill="#ffffff" d="m460.64304 160.54816l176.25198 0l0 28.409454l-176.25198 0z" fill-rule="evenodd"/><path stroke="#000000" stroke-width="3.0" stroke-linejoin="round" stroke-linecap="butt" d="m460.64304 160.54816l176.25198 0l0 28.409454l-176.25198 0z" fill-rule="evenodd"/><path fill="#000000" d="m481.8774 180.61288l0 -2.203125l2.203125 0l0 2.203125l-2.203125 0zm-5.328125 0l0 -2.203125l2.203125 0l0 2.203125l-2.203125 0zm-5.328125 0l0 -2.203125l2.1875 0l0 2.203125l-2.1875 0z" fill-rule="nonzero"/><path fill="#ffffff" d="m155.86613 261.0521l176.25197 0l0 28.409454l-176.25197 0z" fill-rule="evenodd"/><path stroke="#000000" stroke-width="3.0" stroke-linejoin="round" stroke-linecap="butt" d="m155.86613 261.0521l176.25197 0l0 28.409454l-176.25197 0z" fill-rule="evenodd"/><path fill="#000000" d="m167.14738 272.6637l-1.625 0l0 8.453125l1.71875 0l0 -6.5q0.046875 -0.109375 0.09375 -0.203125q0.0625 -0.09375 0.140625 -0.171875q0.109375 -0.09375 0.25 -0.140625q0.140625 -0.0625 0.328125 -0.0625q0.171875 0 0.3125 0.046875q0.140625 0.046875 0.234375 0.15625q0.109375 0.09375 0.15625 0.28125q0.046875 0.171875 0.046875 0.421875l0 6.171875l1.6875 0l0 -6.28125q0 -0.078125 0 -0.109375q0 -0.046875 0 -0.078125q0.03125 -0.140625 0.09375 -0.234375q0.0625 -0.109375 0.15625 -0.1875q0.109375 -0.09375 0.234375 -0.140625q0.140625 -0.046875 0.3125 -0.046875q0.171875 0 0.3125 0.046875q0.15625 0.046875 0.25 0.15625q0.109375 0.109375 0.15625 0.28125q0.0625 0.171875 0.0625 0.421875l0 6.171875l1.71875 0l0 -6.15625q0 -0.65625 -0.140625 -1.125q-0.140625 -0.484375 -0.390625 -0.78125q-0.25 -0.28125 -0.59375 -0.40625q-0.328125 -0.140625 -0.734375 -0.140625q-0.3125 0 -0.578125 0.078125q-0.265625 0.078125 -0.46875 0.21875q-0.171875 0.109375 -0.3125 0.265625q-0.140625 0.15625 -0.25 0.328125q-0.078125 -0.1875 -0.1875 -0.34375q-0.109375 -0.15625 -0.25 -0.265625q-0.171875 -0.140625 -0.421875 -0.203125q-0.25 -0.078125 -0.5625 -0.078125q-0.609375 0 -1.03125 0.296875q-0.421875 0.28125 -0.671875 0.78125l-0.046875 -0.921875zm15.6484375 9.9375l0 -1.484375l-7.140625 0l0 1.484375l7.140625 0zm8.0078125 -3.78125q0 0.203125 -0.09375 0.375q-0.078125 0.171875 -0.265625 0.3125q-0.21875 0.171875 -0.578125 0.28125q-0.359375 0.09375 -0.84375 0.09375q-0.359375 0 -0.71875 -0.078125q-0.34375 -0.078125 -0.625 -0.25q-0.28125 -0.15625 -0.46875 -0.421875q-0.171875 -0.28125 -0.203125 -0.671875l-1.8125 0q0 0.53125 0.25 1.046875q0.25 0.5 0.734375 0.890625q0.484375 0.390625 1.1875 0.640625q0.703125 0.25 1.625 0.25q0.8125 0 1.484375 -0.1875q0.671875 -0.203125 1.15625 -0.53125q0.484375 -0.34375 0.734375 -0.8125q0.265625 -0.46875 0.265625 -1.03125q0 -0.578125 -0.25 -1.0q-0.25 -0.421875 -0.703125 -0.734375q-0.453125 -0.296875 -1.09375 -0.5q-0.640625 -0.203125 -1.40625 -0.34375q-0.5625 -0.09375 -0.921875 -0.203125q-0.359375 -0.125 -0.5625 -0.265625q-0.21875 -0.125 -0.3125 -0.296875q-0.078125 -0.1875 -0.078125 -0.40625q0 -0.203125 0.09375 -0.390625q0.109375 -0.203125 0.3125 -0.34375q0.203125 -0.15625 0.515625 -0.234375q0.3125 -0.09375 0.734375 -0.09375q0.46875 0 0.8125 0.125q0.34375 0.109375 0.5625 0.3125q0.1875 0.171875 0.28125 0.390625q0.09375 0.21875 0.09375 0.453125l1.875 0q0 -0.578125 -0.25 -1.0625q-0.25 -0.5 -0.71875 -0.859375q-0.46875 -0.359375 -1.140625 -0.5625q-0.671875 -0.203125 -1.515625 -0.203125q-0.78125 0 -1.4375 0.203125q-0.640625 0.203125 -1.09375 0.546875q-0.453125 0.359375 -0.703125 0.828125q-0.25 0.453125 -0.25 0.96875q0 0.546875 0.234375 0.953125q0.25 0.40625 0.6875 0.703125q0.4375 0.3125 1.03125 0.53125q0.609375 0.21875 1.34375 0.359375q0.59375 0.109375 0.984375 0.234375q0.390625 0.125 0.625 0.265625q0.234375 0.15625 0.328125 0.328125q0.09375 0.171875 0.09375 0.390625zm7.8359375 -8.21875l-1.875 0l0 2.0625l-2.046875 0l0 1.390625l2.046875 0l0 4.15625q0 0.8125 0.203125 1.390625q0.21875 0.578125 0.609375 0.953125q0.375 0.375 0.90625 0.5625q0.546875 0.171875 1.1875 0.171875q0.34375 0 0.703125 -0.046875q0.359375 -0.03125 0.6875 -0.09375q0.328125 -0.0625 0.609375 -0.15625q0.28125 -0.09375 0.484375 -0.21875l-0.203125 -1.28125q-0.140625 0.03125 -0.34375 0.078125q-0.203125 0.03125 -0.4375 0.0625q-0.25 0.046875 -0.515625 0.078125q-0.25 0.015625 -0.484375 0.015625q-0.34375 0 -0.625 -0.078125q-0.28125 -0.078125 -0.484375 -0.265625q-0.203125 -0.1875 -0.3125 -0.5q-0.109375 -0.3125 -0.109375 -0.78125l0 -4.046875l3.171875 0l0 -1.390625l-3.171875 0l0 -2.0625zm11.6953125 1.90625q-0.875 0 -1.609375 0.40625q-0.71875 0.40625 -1.234375 1.109375l0 -0.1875l-0.078125 -1.171875l-1.75 0l0 8.453125l1.859375 0l0 -5.21875q0.15625 -0.375 0.375 -0.65625q0.21875 -0.296875 0.53125 -0.484375q0.28125 -0.203125 0.65625 -0.296875q0.375 -0.09375 0.84375 -0.09375q0.421875 0 0.828125 0.046875q0.421875 0.046875 0.859375 0.140625l0.265625 -1.84375q-0.25 -0.078125 -0.671875 -0.140625q-0.421875 -0.0625 -0.875 -0.0625zm6.3203125 7.484375q0 0.53125 0.34375 0.90625q0.359375 0.375 1.0 0.375q0.640625 0 1.0 -0.359375q0.359375 -0.375 0.359375 -0.921875q0 -0.546875 -0.359375 -0.921875q-0.359375 -0.390625 -1.0 -0.390625q-0.65625 0 -1.0 0.390625q-0.34375 0.375 -0.34375 0.921875zm0 -6.625q0 0.53125 0.34375 0.90625q0.359375 0.375 1.0 0.375q0.640625 0 1.0 -0.359375q0.359375 -0.375 0.359375 -0.921875q0 -0.546875 -0.359375 -0.921875q-0.359375 -0.390625 -1.0 -0.390625q-0.65625 0 -1.0 0.390625q-0.34375 0.375 -0.34375 0.921875z" fill-rule="nonzero"/><path fill="#ffffff" d="m155.86613 122.472046l176.25197 0l0 28.409454l-176.25197 0z" fill-rule="evenodd"/><path stroke="#000000" stroke-width="3.0" stroke-linejoin="round" stroke-linecap="butt" d="m155.86613 122.472046l176.25197 0l0 28.409454l-176.25197 0z" fill-rule="evenodd"/><path fill="#000000" d="m167.14738 134.08365l-1.625 0l0 8.453125l1.71875 0l0 -6.5q0.046875 -0.109375 0.09375 -0.203125q0.0625 -0.09375 0.140625 -0.171875q0.109375 -0.09375 0.25 -0.140625q0.140625 -0.0625 0.328125 -0.0625q0.171875 0 0.3125 0.046875q0.140625 0.046875 0.234375 0.15625q0.109375 0.09375 0.15625 0.28125q0.046875 0.171875 0.046875 0.421875l0 6.171875l1.6875 0l0 -6.28125q0 -0.078125 0 -0.109375q0 -0.046875 0 -0.078125q0.03125 -0.140625 0.09375 -0.234375q0.0625 -0.109375 0.15625 -0.1875q0.109375 -0.09375 0.234375 -0.140625q0.140625 -0.046875 0.3125 -0.046875q0.171875 0 0.3125 0.046875q0.15625 0.046875 0.25 0.15625q0.109375 0.109375 0.15625 0.28125q0.0625 0.171875 0.0625 0.421875l0 6.171875l1.71875 0l0 -6.15625q0 -0.65625 -0.140625 -1.125q-0.140625 -0.484375 -0.390625 -0.78125q-0.25 -0.28125 -0.59375 -0.40625q-0.328125 -0.140625 -0.734375 -0.140625q-0.3125 0 -0.578125 0.078125q-0.265625 0.078125 -0.46875 0.21875q-0.171875 0.109375 -0.3125 0.265625q-0.140625 0.15625 -0.25 0.328125q-0.078125 -0.1875 -0.1875 -0.34375q-0.109375 -0.15625 -0.25 -0.265625q-0.171875 -0.140625 -0.421875 -0.203125q-0.25 -0.078125 -0.5625 -0.078125q-0.609375 0 -1.03125 0.296875q-0.421875 0.28125 -0.671875 0.78125l-0.046875 -0.921875zm15.6484375 9.9375l0 -1.484375l-7.140625 0l0 1.484375l7.140625 0zm8.0078125 -3.78125q0 0.203125 -0.09375 0.375q-0.078125 0.171875 -0.265625 0.3125q-0.21875 0.171875 -0.578125 0.28125q-0.359375 0.09375 -0.84375 0.09375q-0.359375 0 -0.71875 -0.078125q-0.34375 -0.078125 -0.625 -0.25q-0.28125 -0.15625 -0.46875 -0.421875q-0.171875 -0.28125 -0.203125 -0.671875l-1.8125 0q0 0.53125 0.25 1.046875q0.25 0.5 0.734375 0.890625q0.484375 0.390625 1.1875 0.640625q0.703125 0.25 1.625 0.25q0.8125 0 1.484375 -0.1875q0.671875 -0.203125 1.15625 -0.53125q0.484375 -0.34375 0.734375 -0.8125q0.265625 -0.46875 0.265625 -1.03125q0 -0.578125 -0.25 -1.0q-0.25 -0.421875 -0.703125 -0.734375q-0.453125 -0.296875 -1.09375 -0.5q-0.640625 -0.203125 -1.40625 -0.34375q-0.5625 -0.09375 -0.921875 -0.203125q-0.359375 -0.125 -0.5625 -0.265625q-0.21875 -0.125 -0.3125 -0.296875q-0.078125 -0.1875 -0.078125 -0.40625q0 -0.203125 0.09375 -0.390625q0.109375 -0.203125 0.3125 -0.34375q0.203125 -0.15625 0.515625 -0.234375q0.3125 -0.09375 0.734375 -0.09375q0.46875 0 0.8125 0.125q0.34375 0.109375 0.5625 0.3125q0.1875 0.171875 0.28125 0.390625q0.09375 0.21875 0.09375 0.453125l1.875 0q0 -0.578125 -0.25 -1.0625q-0.25 -0.5 -0.71875 -0.859375q-0.46875 -0.359375 -1.140625 -0.5625q-0.671875 -0.203125 -1.515625 -0.203125q-0.78125 0 -1.4375 0.203125q-0.640625 0.203125 -1.09375 0.546875q-0.453125 0.359375 -0.703125 0.828125q-0.25 0.453125 -0.25 0.96875q0 0.546875 0.234375 0.953125q0.25 0.40625 0.6875 0.703125q0.4375 0.3125 1.03125 0.53125q0.609375 0.21875 1.34375 0.359375q0.59375 0.109375 0.984375 0.234375q0.390625 0.125 0.625 0.265625q0.234375 0.15625 0.328125 0.328125q0.09375 0.171875 0.09375 0.390625zm7.8359375 -8.21875l-1.875 0l0 2.0625l-2.046875 0l0 1.390625l2.046875 0l0 4.15625q0 0.8125 0.203125 1.390625q0.21875 0.578125 0.609375 0.953125q0.375 0.375 0.90625 0.5625q0.546875 0.171875 1.1875 0.171875q0.34375 0 0.703125 -0.046875q0.359375 -0.03125 0.6875 -0.09375q0.328125 -0.0625 0.609375 -0.15625q0.28125 -0.09375 0.484375 -0.21875l-0.203125 -1.28125q-0.140625 0.03125 -0.34375 0.078125q-0.203125 0.03125 -0.4375 0.0625q-0.25 0.046875 -0.515625 0.078125q-0.25 0.015625 -0.484375 0.015625q-0.34375 0 -0.625 -0.078125q-0.28125 -0.078125 -0.484375 -0.265625q-0.203125 -0.1875 -0.3125 -0.5q-0.109375 -0.3125 -0.109375 -0.78125l0 -4.046875l3.171875 0l0 -1.390625l-3.171875 0l0 -2.0625zm11.6953125 1.90625q-0.875 0 -1.609375 0.40625q-0.71875 0.40625 -1.234375 1.109375l0 -0.1875l-0.078125 -1.171875l-1.75 0l0 8.453125l1.859375 0l0 -5.21875q0.15625 -0.375 0.375 -0.65625q0.21875 -0.296875 0.53125 -0.484375q0.28125 -0.203125 0.65625 -0.296875q0.375 -0.09375 0.84375 -0.09375q0.421875 0 0.828125 0.046875q0.421875 0.046875 0.859375 0.140625l0.265625 -1.84375q-0.25 -0.078125 -0.671875 -0.140625q-0.421875 -0.0625 -0.875 -0.0625zm6.3203125 7.484375q0 0.53125 0.34375 0.90625q0.359375 0.375 1.0 0.375q0.640625 0 1.0 -0.359375q0.359375 -0.375 0.359375 -0.921875q0 -0.546875 -0.359375 -0.921875q-0.359375 -0.390625 -1.0 -0.390625q-0.65625 0 -1.0 0.390625q-0.34375 0.375 -0.34375 0.921875zm0 -6.625q0 0.53125 0.34375 0.90625q0.359375 0.375 1.0 0.375q0.640625 0 1.0 -0.359375q0.359375 -0.375 0.359375 -0.921875q0 -0.546875 -0.359375 -0.921875q-0.359375 -0.390625 -1.0 -0.390625q-0.65625 0 -1.0 0.390625q-0.34375 0.375 -0.34375 0.921875z" fill-rule="nonzero"/><path fill="#ffffff" d="m155.86613 94.0626l176.25197 0l0 28.409447l-176.25197 0z" fill-rule="evenodd"/><path stroke="#000000" stroke-width="3.0" stroke-linejoin="round" stroke-linecap="butt" d="m155.86613 94.0626l176.25197 0l0 28.409447l-176.25197 0z" fill-rule="evenodd"/><path fill="#000000" d="m167.14738 105.674194l-1.625 0l0 8.453125l1.71875 0l0 -6.5q0.046875 -0.109375 0.09375 -0.203125q0.0625 -0.09375 0.140625 -0.171875q0.109375 -0.09375 0.25 -0.140625q0.140625 -0.0625 0.328125 -0.0625q0.171875 0 0.3125 0.046875q0.140625 0.046875 0.234375 0.15625q0.109375 0.09375 0.15625 0.28125q0.046875 0.171875 0.046875 0.421875l0 6.171875l1.6875 0l0 -6.28125q0 -0.078125 0 -0.109375q0 -0.046875 0 -0.078125q0.03125 -0.140625 0.09375 -0.234375q0.0625 -0.109375 0.15625 -0.1875q0.109375 -0.09375 0.234375 -0.140625q0.140625 -0.046875 0.3125 -0.046875q0.171875 0 0.3125 0.046875q0.15625 0.046875 0.25 0.15625q0.109375 0.109375 0.15625 0.28125q0.0625 0.171875 0.0625 0.421875l0 6.171875l1.71875 0l0 -6.15625q0 -0.65625 -0.140625 -1.125q-0.140625 -0.484375 -0.390625 -0.78125q-0.25 -0.28125 -0.59375 -0.40625q-0.328125 -0.140625 -0.734375 -0.140625q-0.3125 0 -0.578125 0.078125q-0.265625 0.078125 -0.46875 0.21875q-0.171875 0.109375 -0.3125 0.265625q-0.140625 0.15625 -0.25 0.328125q-0.078125 -0.1875 -0.1875 -0.34375q-0.109375 -0.15625 -0.25 -0.265625q-0.171875 -0.140625 -0.421875 -0.203125q-0.25 -0.078125 -0.5625 -0.078125q-0.609375 0 -1.03125 0.296875q-0.421875 0.28125 -0.671875 0.78125l-0.046875 -0.921875zm15.6484375 9.9375l0 -1.484375l-7.140625 0l0 1.484375l7.140625 0zm2.5078125 1.765625l1.859375 0l0 -4.015625q0.15625 0.15625 0.328125 0.296875q0.171875 0.140625 0.359375 0.25q0.3125 0.1875 0.6875 0.28125q0.390625 0.09375 0.84375 0.09375q0.796875 0 1.40625 -0.328125q0.625 -0.328125 1.046875 -0.90625q0.421875 -0.578125 0.625 -1.359375q0.21875 -0.796875 0.21875 -1.703125l0 -0.171875q0 -0.953125 -0.21875 -1.734375q-0.21875 -0.796875 -0.625 -1.375q-0.421875 -0.5625 -1.046875 -0.875q-0.625 -0.3125 -1.4375 -0.3125q-0.40625 0 -0.78125 0.09375q-0.359375 0.078125 -0.671875 0.25q-0.234375 0.125 -0.4375 0.296875q-0.203125 0.171875 -0.375 0.375l-0.0625 -0.859375l-1.71875 0l0 11.703125zm5.515625 -7.5625l0 0.171875q0 0.5625 -0.109375 1.0625q-0.109375 0.5 -0.359375 0.890625q-0.234375 0.390625 -0.609375 0.609375q-0.359375 0.21875 -0.890625 0.21875q-0.3125 0 -0.578125 -0.0625q-0.265625 -0.078125 -0.484375 -0.203125q-0.203125 -0.140625 -0.359375 -0.3125q-0.15625 -0.1875 -0.265625 -0.40625l0 -3.75q0.125 -0.234375 0.296875 -0.421875q0.171875 -0.1875 0.390625 -0.3125q0.203125 -0.125 0.453125 -0.1875q0.25 -0.0625 0.53125 -0.0625q0.53125 0 0.90625 0.21875q0.375 0.21875 0.609375 0.59375q0.234375 0.375 0.34375 0.890625q0.125 0.5 0.125 1.0625zm7.8203125 -6.203125l-1.875 0l0 2.0625l-2.046875 0l0 1.390625l2.046875 0l0 4.15625q0 0.8125 0.203125 1.390625q0.21875 0.578125 0.609375 0.953125q0.375 0.375 0.90625 0.5625q0.546875 0.171875 1.1875 0.171875q0.34375 0 0.703125 -0.046875q0.359375 -0.03125 0.6875 -0.09375q0.328125 -0.0625 0.609375 -0.15625q0.28125 -0.09375 0.484375 -0.21875l-0.203125 -1.28125q-0.140625 0.03125 -0.34375 0.078125q-0.203125 0.03125 -0.4375 0.0625q-0.25 0.046875 -0.515625 0.078125q-0.25 0.015625 -0.484375 0.015625q-0.34375 0 -0.625 -0.078125q-0.28125 -0.078125 -0.484375 -0.265625q-0.203125 -0.1875 -0.3125 -0.5q-0.109375 -0.3125 -0.109375 -0.78125l0 -4.046875l3.171875 0l0 -1.390625l-3.171875 0l0 -2.0625zm11.6953125 1.90625q-0.875 0 -1.609375 0.40625q-0.71875 0.40625 -1.234375 1.109375l0 -0.1875l-0.078125 -1.171875l-1.75 0l0 8.453125l1.859375 0l0 -5.21875q0.15625 -0.375 0.375 -0.65625q0.21875 -0.296875 0.53125 -0.484375q0.28125 -0.203125 0.65625 -0.296875q0.375 -0.09375 0.84375 -0.09375q0.421875 0 0.828125 0.046875q0.421875 0.046875 0.859375 0.140625l0.265625 -1.84375q-0.25 -0.078125 -0.671875 -0.140625q-0.421875 -0.0625 -0.875 -0.0625zm11.3828125 5.109375l-1.875 0q-0.046875 0.515625 -0.203125 0.921875q-0.15625 0.390625 -0.421875 0.65625q-0.265625 0.265625 -0.640625 0.40625q-0.375 0.140625 -0.859375 0.140625q-0.40625 0 -0.71875 -0.109375q-0.3125 -0.109375 -0.5625 -0.328125q-0.234375 -0.203125 -0.40625 -0.484375q-0.15625 -0.28125 -0.265625 -0.625q-0.140625 -0.421875 -0.21875 -0.921875q-0.0625 -0.5 -0.0625 -1.0625l0 -1.578125q0 -0.453125 0.046875 -0.890625q0.0625 -0.453125 0.15625 -0.84375q0.140625 -0.4375 0.34375 -0.796875q0.203125 -0.375 0.515625 -0.59375q0.234375 -0.1875 0.515625 -0.28125q0.296875 -0.109375 0.671875 -0.109375q0.515625 0 0.890625 0.15625q0.375 0.140625 0.640625 0.4375q0.25 0.28125 0.390625 0.703125q0.140625 0.40625 0.1875 0.90625l1.875 0q-0.078125 -0.84375 -0.375 -1.53125q-0.296875 -0.703125 -0.796875 -1.203125q-0.5 -0.484375 -1.21875 -0.75q-0.703125 -0.265625 -1.59375 -0.265625q-0.671875 0 -1.234375 0.1875q-0.546875 0.171875 -1.015625 0.5q-0.484375 0.34375 -0.859375 0.84375q-0.359375 0.5 -0.59375 1.109375q-0.21875 0.546875 -0.328125 1.171875q-0.109375 0.609375 -0.109375 1.265625l0 1.5625q0 0.6875 0.109375 1.328125q0.109375 0.640625 0.34375 1.1875q0.21875 0.5625 0.546875 1.03125q0.34375 0.453125 0.78125 0.78125q0.46875 0.359375 1.046875 0.5625q0.59375 0.1875 1.296875 0.1875q0.859375 0 1.5625 -0.265625q0.71875 -0.265625 1.234375 -0.75q0.5 -0.484375 0.8125 -1.15625q0.3125 -0.671875 0.390625 -1.5zm1.9140625 3.5l3.9375 0q0.84375 0 1.5625 -0.21875q0.71875 -0.21875 1.25 -0.640625q0.515625 -0.40625 0.8125 -1.015625q0.296875 -0.625 0.296875 -1.4375q0 -0.46875 -0.140625 -0.875q-0.125 -0.421875 -0.375 -0.765625q-0.234375 -0.328125 -0.59375 -0.578125q-0.359375 -0.25 -0.875 -0.390625l0 -0.015625q0.34375 -0.140625 0.609375 -0.3125q0.265625 -0.171875 0.46875 -0.40625q0.296875 -0.328125 0.453125 -0.734375q0.171875 -0.421875 0.171875 -0.90625q0 -0.796875 -0.296875 -1.375q-0.296875 -0.59375 -0.828125 -0.96875q-0.53125 -0.375 -1.265625 -0.546875q-0.71875 -0.1875 -1.546875 -0.1875l-3.640625 0l0 11.375zm1.890625 -5.140625l2.15625 0q0.453125 0 0.8125 0.140625q0.359375 0.125 0.609375 0.359375q0.25 0.234375 0.375 0.5625q0.125 0.328125 0.125 0.765625q0 0.40625 -0.15625 0.734375q-0.140625 0.328125 -0.421875 0.5625q-0.265625 0.21875 -0.640625 0.34375q-0.359375 0.125 -0.796875 0.125l-2.0625 0l0 -3.59375zm0 -1.4375l0 -3.25l1.765625 0q0.484375 0.015625 0.875 0.125q0.40625 0.09375 0.671875 0.328125q0.234375 0.1875 0.359375 0.484375q0.140625 0.296875 0.140625 0.6875q0 0.375 -0.140625 0.671875q-0.140625 0.28125 -0.390625 0.484375q-0.265625 0.234375 -0.65625 0.359375q-0.375 0.109375 -0.84375 0.109375l-1.78125 0zm10.3359375 5.453125q0 0.53125 0.34375 0.90625q0.359375 0.375 1.0 0.375q0.640625 0 1.0 -0.359375q0.359375 -0.375 0.359375 -0.921875q0 -0.546875 -0.359375 -0.921875q-0.359375 -0.390625 -1.0 -0.390625q-0.65625 0 -1.0 0.390625q-0.34375 0.375 -0.34375 0.921875zm0 -6.625q0 0.53125 0.34375 0.90625q0.359375 0.375 1.0 0.375q0.640625 0 1.0 -0.359375q0.359375 -0.375 0.359375 -0.921875q0 -0.546875 -0.359375 -0.921875q-0.359375 -0.390625 -1.0 -0.390625q-0.65625 0 -1.0 0.390625q-0.34375 0.375 -0.34375 0.921875z" fill-rule="nonzero"/><path fill="#ffffff" d="m155.86613 232.64265l176.25197 0l0 28.40944l-176.25197 0z" fill-rule="evenodd"/><path stroke="#000000" stroke-width="3.0" stroke-linejoin="round" stroke-linecap="butt" d="m155.86613 232.64265l176.25197 0l0 28.40944l-176.25197 0z" fill-rule="evenodd"/><path fill="#000000" d="m167.14738 244.25426l-1.625 0l0 8.453125l1.71875 0l0 -6.5q0.046875 -0.109375 0.09375 -0.203125q0.0625 -0.09375 0.140625 -0.171875q0.109375 -0.09375 0.25 -0.140625q0.140625 -0.0625 0.328125 -0.0625q0.171875 0 0.3125 0.046875q0.140625 0.046875 0.234375 0.15625q0.109375 0.09375 0.15625 0.28125q0.046875 0.171875 0.046875 0.421875l0 6.171875l1.6875 0l0 -6.28125q0 -0.078125 0 -0.109375q0 -0.046875 0 -0.078125q0.03125 -0.140625 0.09375 -0.234375q0.0625 -0.109375 0.15625 -0.1875q0.109375 -0.09375 0.234375 -0.140625q0.140625 -0.046875 0.3125 -0.046875q0.171875 0 0.3125 0.046875q0.15625 0.046875 0.25 0.15625q0.109375 0.109375 0.15625 0.28125q0.0625 0.171875 0.0625 0.421875l0 6.171875l1.71875 0l0 -6.15625q0 -0.65625 -0.140625 -1.125q-0.140625 -0.484375 -0.390625 -0.78125q-0.25 -0.28125 -0.59375 -0.40625q-0.328125 -0.140625 -0.734375 -0.140625q-0.3125 0 -0.578125 0.078125q-0.265625 0.078125 -0.46875 0.21875q-0.171875 0.109375 -0.3125 0.265625q-0.140625 0.15625 -0.25 0.328125q-0.078125 -0.1875 -0.1875 -0.34375q-0.109375 -0.15625 -0.25 -0.265625q-0.171875 -0.140625 -0.421875 -0.203125q-0.25 -0.078125 -0.5625 -0.078125q-0.609375 0 -1.03125 0.296875q-0.421875 0.28125 -0.671875 0.78125l-0.046875 -0.921875zm15.6484375 9.9375l0 -1.484375l-7.140625 0l0 1.484375l7.140625 0zm2.5078125 1.765625l1.859375 0l0 -4.015625q0.15625 0.15625 0.328125 0.296875q0.171875 0.140625 0.359375 0.25q0.3125 0.1875 0.6875 0.28125q0.390625 0.09375 0.84375 0.09375q0.796875 0 1.40625 -0.328125q0.625 -0.328125 1.046875 -0.90625q0.421875 -0.578125 0.625 -1.359375q0.21875 -0.796875 0.21875 -1.703125l0 -0.171875q0 -0.953125 -0.21875 -1.734375q-0.21875 -0.796875 -0.625 -1.375q-0.421875 -0.5625 -1.046875 -0.875q-0.625 -0.3125 -1.4375 -0.3125q-0.40625 0 -0.78125 0.09375q-0.359375 0.078125 -0.671875 0.25q-0.234375 0.125 -0.4375 0.296875q-0.203125 0.171875 -0.375 0.375l-0.0625 -0.859375l-1.71875 0l0 11.703125zm5.515625 -7.5625l0 0.171875q0 0.5625 -0.109375 1.0625q-0.109375 0.5 -0.359375 0.890625q-0.234375 0.390625 -0.609375 0.609375q-0.359375 0.21875 -0.890625 0.21875q-0.3125 0 -0.578125 -0.0625q-0.265625 -0.078125 -0.484375 -0.203125q-0.203125 -0.140625 -0.359375 -0.3125q-0.15625 -0.1875 -0.265625 -0.40625l0 -3.75q0.125 -0.234375 0.296875 -0.421875q0.171875 -0.1875 0.390625 -0.3125q0.203125 -0.125 0.453125 -0.1875q0.25 -0.0625 0.53125 -0.0625q0.53125 0 0.90625 0.21875q0.375 0.21875 0.609375 0.59375q0.234375 0.375 0.34375 0.890625q0.125 0.5 0.125 1.0625zm7.8203125 -6.203125l-1.875 0l0 2.0625l-2.046875 0l0 1.390625l2.046875 0l0 4.15625q0 0.8125 0.203125 1.390625q0.21875 0.578125 0.609375 0.953125q0.375 0.375 0.90625 0.5625q0.546875 0.171875 1.1875 0.171875q0.34375 0 0.703125 -0.046875q0.359375 -0.03125 0.6875 -0.09375q0.328125 -0.0625 0.609375 -0.15625q0.28125 -0.09375 0.484375 -0.21875l-0.203125 -1.28125q-0.140625 0.03125 -0.34375 0.078125q-0.203125 0.03125 -0.4375 0.0625q-0.25 0.046875 -0.515625 0.078125q-0.25 0.015625 -0.484375 0.015625q-0.34375 0 -0.625 -0.078125q-0.28125 -0.078125 -0.484375 -0.265625q-0.203125 -0.1875 -0.3125 -0.5q-0.109375 -0.3125 -0.109375 -0.78125l0 -4.046875l3.171875 0l0 -1.390625l-3.171875 0l0 -2.0625zm11.6953125 1.90625q-0.875 0 -1.609375 0.40625q-0.71875 0.40625 -1.234375 1.109375l0 -0.1875l-0.078125 -1.171875l-1.75 0l0 8.453125l1.859375 0l0 -5.21875q0.15625 -0.375 0.375 -0.65625q0.21875 -0.296875 0.53125 -0.484375q0.28125 -0.203125 0.65625 -0.296875q0.375 -0.09375 0.84375 -0.09375q0.421875 0 0.828125 0.046875q0.421875 0.046875 0.859375 0.140625l0.265625 -1.84375q-0.25 -0.078125 -0.671875 -0.140625q-0.421875 -0.0625 -0.875 -0.0625zm11.3828125 5.109375l-1.875 0q-0.046875 0.515625 -0.203125 0.921875q-0.15625 0.390625 -0.421875 0.65625q-0.265625 0.265625 -0.640625 0.40625q-0.375 0.140625 -0.859375 0.140625q-0.40625 0 -0.71875 -0.109375q-0.3125 -0.109375 -0.5625 -0.328125q-0.234375 -0.203125 -0.40625 -0.484375q-0.15625 -0.28125 -0.265625 -0.625q-0.140625 -0.421875 -0.21875 -0.921875q-0.0625 -0.5 -0.0625 -1.0625l0 -1.578125q0 -0.453125 0.046875 -0.890625q0.0625 -0.453125 0.15625 -0.84375q0.140625 -0.4375 0.34375 -0.796875q0.203125 -0.375 0.515625 -0.59375q0.234375 -0.1875 0.515625 -0.28125q0.296875 -0.109375 0.671875 -0.109375q0.515625 0 0.890625 0.15625q0.375 0.140625 0.640625 0.4375q0.25 0.28125 0.390625 0.703125q0.140625 0.40625 0.1875 0.90625l1.875 0q-0.078125 -0.84375 -0.375 -1.53125q-0.296875 -0.703125 -0.796875 -1.203125q-0.5 -0.484375 -1.21875 -0.75q-0.703125 -0.265625 -1.59375 -0.265625q-0.671875 0 -1.234375 0.1875q-0.546875 0.171875 -1.015625 0.5q-0.484375 0.34375 -0.859375 0.84375q-0.359375 0.5 -0.59375 1.109375q-0.21875 0.546875 -0.328125 1.171875q-0.109375 0.609375 -0.109375 1.265625l0 1.5625q0 0.6875 0.109375 1.328125q0.109375 0.640625 0.34375 1.1875q0.21875 0.5625 0.546875 1.03125q0.34375 0.453125 0.78125 0.78125q0.46875 0.359375 1.046875 0.5625q0.59375 0.1875 1.296875 0.1875q0.859375 0 1.5625 -0.265625q0.71875 -0.265625 1.234375 -0.75q0.5 -0.484375 0.8125 -1.15625q0.3125 -0.671875 0.390625 -1.5zm1.9140625 3.5l3.9375 0q0.84375 0 1.5625 -0.21875q0.71875 -0.21875 1.25 -0.640625q0.515625 -0.40625 0.8125 -1.015625q0.296875 -0.625 0.296875 -1.4375q0 -0.46875 -0.140625 -0.875q-0.125 -0.421875 -0.375 -0.765625q-0.234375 -0.328125 -0.59375 -0.578125q-0.359375 -0.25 -0.875 -0.390625l0 -0.015625q0.34375 -0.140625 0.609375 -0.3125q0.265625 -0.171875 0.46875 -0.40625q0.296875 -0.328125 0.453125 -0.734375q0.171875 -0.421875 0.171875 -0.90625q0 -0.796875 -0.296875 -1.375q-0.296875 -0.59375 -0.828125 -0.96875q-0.53125 -0.375 -1.265625 -0.546875q-0.71875 -0.1875 -1.546875 -0.1875l-3.640625 0l0 11.375zm1.890625 -5.140625l2.15625 0q0.453125 0 0.8125 0.140625q0.359375 0.125 0.609375 0.359375q0.25 0.234375 0.375 0.5625q0.125 0.328125 0.125 0.765625q0 0.40625 -0.15625 0.734375q-0.140625 0.328125 -0.421875 0.5625q-0.265625 0.21875 -0.640625 0.34375q-0.359375 0.125 -0.796875 0.125l-2.0625 0l0 -3.59375zm0 -1.4375l0 -3.25l1.765625 0q0.484375 0.015625 0.875 0.125q0.40625 0.09375 0.671875 0.328125q0.234375 0.1875 0.359375 0.484375q0.140625 0.296875 0.140625 0.6875q0 0.375 -0.140625 0.671875q-0.140625 0.28125 -0.390625 0.484375q-0.265625 0.234375 -0.65625 0.359375q-0.375 0.109375 -0.84375 0.109375l-1.78125 0zm10.3359375 5.453125q0 0.53125 0.34375 0.90625q0.359375 0.375 1.0 0.375q0.640625 0 1.0 -0.359375q0.359375 -0.375 0.359375 -0.921875q0 -0.546875 -0.359375 -0.921875q-0.359375 -0.390625 -1.0 -0.390625q-0.65625 0 -1.0 0.390625q-0.34375 0.375 -0.34375 0.921875zm0 -6.625q0 0.53125 0.34375 0.90625q0.359375 0.375 1.0 0.375q0.640625 0 1.0 -0.359375q0.359375 -0.375 0.359375 -0.921875q0 -0.546875 -0.359375 -0.921875q-0.359375 -0.390625 -1.0 -0.390625q-0.65625 0 -1.0 0.390625q-0.34375 0.375 -0.34375 0.921875z" fill-rule="nonzero"/><path fill="#000000" fill-opacity="0.0" d="m270.23358 247.19391l95.07089 0l0 -100.8504l95.07086 0" fill-rule="evenodd"/><path stroke="#000000" stroke-width="3.0" stroke-linejoin="round" stroke-linecap="butt" d="m281.6036 247.1939l83.70087 0l0 -100.85039l77.07086 0" fill-rule="evenodd"/><path fill="#000000" stroke="#000000" stroke-width="3.0" stroke-linecap="butt" d="m271.73358 247.1939c0 -2.725525 2.2095032 -4.9349976 4.935028 -4.9349976c2.725525 0 4.9349976 2.2094727 4.9349976 4.9349976c0 2.725525 -2.2094727 4.9349976 -4.9349976 4.9349976c-2.725525 0 -4.935028 -2.2094727 -4.935028 -4.9349976z" fill-rule="nonzero"/><path fill="#000000" stroke="#000000" stroke-width="3.0" stroke-linecap="butt" d="m442.37534 151.2987l13.614288 -4.9552l-13.614288 -4.9552z" fill-rule="evenodd"/><path fill="#000000" fill-opacity="0.0" d="m267.5118 108.24672l96.4252 0l0 21.259842l96.4252 0" fill-rule="evenodd"/><path stroke="#000000" stroke-width="3.0" stroke-linejoin="round" stroke-linecap="butt" d="m278.8818 108.24672l85.05521 0l0 21.259842l78.4252 0" fill-rule="evenodd"/><path fill="#000000" stroke="#000000" stroke-width="3.0" stroke-linecap="butt" d="m269.0118 108.24672c0 -2.725525 2.2094727 -4.9349976 4.9349976 -4.9349976c2.725525 0 4.9349976 2.2094727 4.9349976 4.9349976c0 2.725525 -2.2094727 4.9349976 -4.9349976 4.9349976c-2.725525 0 -4.9349976 -2.2094727 -4.9349976 -4.9349976z" fill-rule="nonzero"/><path fill="#000000" stroke="#000000" stroke-width="3.0" stroke-linecap="butt" d="m442.3622 134.46176l13.614288 -4.9552l-13.614288 -4.9552z" fill-rule="evenodd"/><path fill="#000000" fill-opacity="0.0" d="m267.5118 138.00787l138.95242 0l0 51.338577l54.27591 0" fill-rule="evenodd"/><path stroke="#000000" stroke-width="3.0" stroke-linejoin="round" stroke-linecap="butt" d="m278.8818 138.00787l127.58243 0l0 51.338577l36.27591 0" fill-rule="evenodd"/><path fill="#000000" stroke="#000000" stroke-width="3.0" stroke-linecap="butt" d="m269.0118 138.00787c0 -2.725525 2.2094727 -4.9349976 4.9349976 -4.9349976c2.725525 0 4.9349976 2.2094727 4.9349976 4.9349976c0 2.725525 -2.2094727 4.9349976 -4.9349976 4.9349976c-2.725525 0 -4.9349976 -2.2094727 -4.9349976 -4.9349976z" fill-rule="nonzero"/><path fill="#000000" stroke="#000000" stroke-width="3.0" stroke-linecap="butt" d="m442.74017 194.30165l13.614288 -4.9552l-13.614288 -4.955185z" fill-rule="evenodd"/><path fill="#000000" fill-opacity="0.0" d="m269.8701 278.14413l136.5953 0l0 -72.7874l53.6409 0" fill-rule="evenodd"/><path stroke="#000000" stroke-width="3.0" stroke-linejoin="round" stroke-linecap="butt" d="m281.24008 278.14413l125.22531 0l0 -72.7874l35.6409 0" fill-rule="evenodd"/><path fill="#000000" stroke="#000000" stroke-width="3.0" stroke-linecap="butt" d="m271.3701 278.14413c0 -2.725525 2.2094727 -4.9349976 4.9349976 -4.9349976c2.725525 0 4.9349976 2.2094727 4.9349976 4.9349976c0 2.725525 -2.2094727 4.9349976 -4.9349976 4.9349976c-2.725525 0 -4.9349976 -2.2094727 -4.9349976 -4.9349976z" fill-rule="nonzero"/><path fill="#000000" stroke="#000000" stroke-width="3.0" stroke-linecap="butt" d="m442.1063 210.31192l13.614288 -4.955185l-13.614288 -4.9552z" fill-rule="evenodd"/><path fill="#ffffff" d="m155.86613 289.46155l176.25197 0l0 28.409454l-176.25197 0z" fill-rule="evenodd"/><path stroke="#000000" stroke-width="3.0" stroke-linejoin="round" stroke-linecap="butt" d="m155.86613 289.46155l176.25197 0l0 28.409454l-176.25197 0z" fill-rule="evenodd"/><path fill="#000000" d="m167.14738 301.07315l-1.625 0l0 8.453125l1.71875 0l0 -6.5q0.046875 -0.109375 0.09375 -0.203125q0.0625 -0.09375 0.140625 -0.171875q0.109375 -0.09375 0.25 -0.140625q0.140625 -0.0625 0.328125 -0.0625q0.171875 0 0.3125 0.046875q0.140625 0.046875 0.234375 0.15625q0.109375 0.09375 0.15625 0.28125q0.046875 0.171875 0.046875 0.421875l0 6.171875l1.6875 0l0 -6.28125q0 -0.078125 0 -0.109375q0 -0.046875 0 -0.078125q0.03125 -0.140625 0.09375 -0.234375q0.0625 -0.109375 0.15625 -0.1875q0.109375 -0.09375 0.234375 -0.140625q0.140625 -0.046875 0.3125 -0.046875q0.171875 0 0.3125 0.046875q0.15625 0.046875 0.25 0.15625q0.109375 0.109375 0.15625 0.28125q0.0625 0.171875 0.0625 0.421875l0 6.171875l1.71875 0l0 -6.15625q0 -0.65625 -0.140625 -1.125q-0.140625 -0.484375 -0.390625 -0.78125q-0.25 -0.28125 -0.59375 -0.40625q-0.328125 -0.140625 -0.734375 -0.140625q-0.3125 0 -0.578125 0.078125q-0.265625 0.078125 -0.46875 0.21875q-0.171875 0.109375 -0.3125 0.265625q-0.140625 0.15625 -0.25 0.328125q-0.078125 -0.1875 -0.1875 -0.34375q-0.109375 -0.15625 -0.25 -0.265625q-0.171875 -0.140625 -0.421875 -0.203125q-0.25 -0.078125 -0.5625 -0.078125q-0.609375 0 -1.03125 0.296875q-0.421875 0.28125 -0.671875 0.78125l-0.046875 -0.921875zm15.6484375 9.9375l0 -1.484375l-7.140625 0l0 1.484375l7.140625 0zm2.8515625 -13.484375l0 1.546875l2.671875 0l0 8.90625l-2.671875 0l0 1.546875l7.109375 0l0 -1.546875l-2.5625 0l0 -10.453125l-4.546875 0zm13.1796875 12.15625q1.234375 0 2.109375 -0.484375q0.875 -0.484375 1.296875 -1.09375l-1.0 -0.96875q-0.390625 0.5 -1.0 0.765625q-0.59375 0.265625 -1.296875 0.265625q-0.5 0 -0.9375 -0.171875q-0.421875 -0.171875 -0.734375 -0.484375q-0.3125 -0.296875 -0.5 -0.671875q-0.171875 -0.375 -0.25 -0.921875l0 -0.046875l5.859375 0l0 -0.796875q0 -0.90625 -0.25 -1.671875q-0.234375 -0.765625 -0.71875 -1.328125q-0.46875 -0.546875 -1.171875 -0.84375q-0.703125 -0.3125 -1.625 -0.3125q-0.8125 0 -1.546875 0.3125q-0.71875 0.296875 -1.265625 0.875q-0.546875 0.5625 -0.859375 1.375q-0.3125 0.796875 -0.3125 1.796875l0 0.3125q0 0.875 0.296875 1.625q0.3125 0.734375 0.859375 1.28125q0.5625 0.5625 1.328125 0.875q0.78125 0.3125 1.71875 0.3125zm-0.21875 -7.25q0.46875 0 0.8125 0.15625q0.359375 0.15625 0.59375 0.421875q0.25 0.28125 0.375 0.640625q0.140625 0.359375 0.140625 0.734375l0 0.125l-3.984375 0q0.09375 -0.484375 0.265625 -0.859375q0.1875 -0.390625 0.453125 -0.671875q0.265625 -0.265625 0.59375 -0.40625q0.34375 -0.140625 0.75 -0.140625zm5.8828125 7.09375l1.859375 0l0 -6.03125q0.125 -0.21875 0.28125 -0.390625q0.171875 -0.1875 0.359375 -0.3125q0.25 -0.15625 0.546875 -0.25q0.296875 -0.09375 0.640625 -0.09375q0.40625 0 0.71875 0.09375q0.328125 0.09375 0.5625 0.296875q0.21875 0.21875 0.328125 0.578125q0.125 0.34375 0.125 0.859375l0 5.25l1.875 0l0 -5.28125q0 -0.890625 -0.21875 -1.515625q-0.203125 -0.625 -0.59375 -1.03125q-0.375 -0.40625 -0.921875 -0.59375q-0.53125 -0.1875 -1.1875 -0.1875q-0.484375 0 -0.9375 0.140625q-0.4375 0.140625 -0.8125 0.390625q-0.234375 0.171875 -0.453125 0.375q-0.203125 0.203125 -0.375 0.453125l-0.109375 -1.203125l-1.6875 0l0 8.453125zm12.1640625 -1.125q0 0.53125 0.34375 0.90625q0.359375 0.375 1.0 0.375q0.640625 0 1.0 -0.359375q0.359375 -0.375 0.359375 -0.921875q0 -0.546875 -0.359375 -0.921875q-0.359375 -0.390625 -1.0 -0.390625q-0.65625 0 -1.0 0.390625q-0.34375 0.375 -0.34375 0.921875zm0 -6.625q0 0.53125 0.34375 0.90625q0.359375 0.375 1.0 0.375q0.640625 0 1.0 -0.359375q0.359375 -0.375 0.359375 -0.921875q0 -0.546875 -0.359375 -0.921875q-0.359375 -0.390625 -1.0 -0.390625q-0.65625 0 -1.0 0.390625q-0.34375 0.375 -0.34375 0.921875zm55.32814 2.109375l1.484375 0.359375q0.15625 -0.140625 0.3125 -0.25q0.15625 -0.125 0.359375 -0.21875q0.1875 -0.09375 0.421875 -0.140625q0.25 -0.0625 0.59375 -0.0625q0.5 0 0.875 0.171875q0.390625 0.171875 0.65625 0.46875q0.25 0.3125 0.375 0.71875q0.140625 0.40625 0.140625 0.90625q0 0.5 -0.109375 0.9375q-0.109375 0.4375 -0.328125 0.734375q-0.234375 0.3125 -0.578125 0.484375q-0.34375 0.171875 -0.8125 0.171875q-0.796875 0 -1.3125 -0.4375q-0.515625 -0.453125 -0.609375 -1.28125l-1.828125 0q0.046875 0.78125 0.375 1.390625q0.328125 0.609375 0.828125 1.015625q0.515625 0.40625 1.171875 0.625q0.65625 0.203125 1.375 0.203125q0.9375 0 1.625 -0.296875q0.703125 -0.296875 1.15625 -0.8125q0.46875 -0.515625 0.6875 -1.203125q0.21875 -0.703125 0.21875 -1.484375q0 -0.875 -0.234375 -1.578125q-0.234375 -0.71875 -0.671875 -1.21875q-0.4375 -0.484375 -1.078125 -0.75q-0.640625 -0.265625 -1.4375 -0.265625q-0.59375 0 -1.0625 0.15625q-0.453125 0.140625 -0.734375 0.296875l0.296875 -2.71875l4.5625 0l0 -1.65625l-6.109375 0l-0.609375 5.734375z" fill-rule="nonzero"/><path fill="#ffffff" d="m155.86613 149.70695l176.25197 0l0 28.409454l-176.25197 0z" fill-rule="evenodd"/><path stroke="#000000" stroke-width="3.0" stroke-linejoin="round" stroke-linecap="butt" d="m155.86613 149.70695l176.25197 0l0 28.409454l-176.25197 0z" fill-rule="evenodd"/><path fill="#000000" d="m167.14738 161.31856l-1.625 0l0 8.453125l1.71875 0l0 -6.5q0.046875 -0.109375 0.09375 -0.203125q0.0625 -0.09375 0.140625 -0.171875q0.109375 -0.09375 0.25 -0.140625q0.140625 -0.0625 0.328125 -0.0625q0.171875 0 0.3125 0.046875q0.140625 0.046875 0.234375 0.15625q0.109375 0.09375 0.15625 0.28125q0.046875 0.171875 0.046875 0.421875l0 6.171875l1.6875 0l0 -6.28125q0 -0.078125 0 -0.109375q0 -0.046875 0 -0.078125q0.03125 -0.140625 0.09375 -0.234375q0.0625 -0.109375 0.15625 -0.1875q0.109375 -0.09375 0.234375 -0.140625q0.140625 -0.046875 0.3125 -0.046875q0.171875 0 0.3125 0.046875q0.15625 0.046875 0.25 0.15625q0.109375 0.109375 0.15625 0.28125q0.0625 0.171875 0.0625 0.421875l0 6.171875l1.71875 0l0 -6.15625q0 -0.65625 -0.140625 -1.125q-0.140625 -0.484375 -0.390625 -0.78125q-0.25 -0.28125 -0.59375 -0.40625q-0.328125 -0.140625 -0.734375 -0.140625q-0.3125 0 -0.578125 0.078125q-0.265625 0.078125 -0.46875 0.21875q-0.171875 0.109375 -0.3125 0.265625q-0.140625 0.15625 -0.25 0.328125q-0.078125 -0.1875 -0.1875 -0.34375q-0.109375 -0.15625 -0.25 -0.265625q-0.171875 -0.140625 -0.421875 -0.203125q-0.25 -0.078125 -0.5625 -0.078125q-0.609375 0 -1.03125 0.296875q-0.421875 0.28125 -0.671875 0.78125l-0.046875 -0.921875zm15.6484375 9.9375l0 -1.484375l-7.140625 0l0 1.484375l7.140625 0zm2.8515625 -13.484375l0 1.546875l2.671875 0l0 8.90625l-2.671875 0l0 1.546875l7.109375 0l0 -1.546875l-2.5625 0l0 -10.453125l-4.546875 0zm13.1796875 12.15625q1.234375 0 2.109375 -0.484375q0.875 -0.484375 1.296875 -1.09375l-1.0 -0.96875q-0.390625 0.5 -1.0 0.765625q-0.59375 0.265625 -1.296875 0.265625q-0.5 0 -0.9375 -0.171875q-0.421875 -0.171875 -0.734375 -0.484375q-0.3125 -0.296875 -0.5 -0.671875q-0.171875 -0.375 -0.25 -0.921875l0 -0.046875l5.859375 0l0 -0.796875q0 -0.90625 -0.25 -1.671875q-0.234375 -0.765625 -0.71875 -1.328125q-0.46875 -0.546875 -1.171875 -0.84375q-0.703125 -0.3125 -1.625 -0.3125q-0.8125 0 -1.546875 0.3125q-0.71875 0.296875 -1.265625 0.875q-0.546875 0.5625 -0.859375 1.375q-0.3125 0.796875 -0.3125 1.796875l0 0.3125q0 0.875 0.296875 1.625q0.3125 0.734375 0.859375 1.28125q0.5625 0.5625 1.328125 0.875q0.78125 0.3125 1.71875 0.3125zm-0.21875 -7.25q0.46875 0 0.8125 0.15625q0.359375 0.15625 0.59375 0.421875q0.25 0.28125 0.375 0.640625q0.140625 0.359375 0.140625 0.734375l0 0.125l-3.984375 0q0.09375 -0.484375 0.265625 -0.859375q0.1875 -0.390625 0.453125 -0.671875q0.265625 -0.265625 0.59375 -0.40625q0.34375 -0.140625 0.75 -0.140625zm5.8828125 7.09375l1.859375 0l0 -6.03125q0.125 -0.21875 0.28125 -0.390625q0.171875 -0.1875 0.359375 -0.3125q0.25 -0.15625 0.546875 -0.25q0.296875 -0.09375 0.640625 -0.09375q0.40625 0 0.71875 0.09375q0.328125 0.09375 0.5625 0.296875q0.21875 0.21875 0.328125 0.578125q0.125 0.34375 0.125 0.859375l0 5.25l1.875 0l0 -5.28125q0 -0.890625 -0.21875 -1.515625q-0.203125 -0.625 -0.59375 -1.03125q-0.375 -0.40625 -0.921875 -0.59375q-0.53125 -0.1875 -1.1875 -0.1875q-0.484375 0 -0.9375 0.140625q-0.4375 0.140625 -0.8125 0.390625q-0.234375 0.171875 -0.453125 0.375q-0.203125 0.203125 -0.375 0.453125l-0.109375 -1.203125l-1.6875 0l0 8.453125zm12.1640625 -1.125q0 0.53125 0.34375 0.90625q0.359375 0.375 1.0 0.375q0.640625 0 1.0 -0.359375q0.359375 -0.375 0.359375 -0.921875q0 -0.546875 -0.359375 -0.921875q-0.359375 -0.390625 -1.0 -0.390625q-0.65625 0 -1.0 0.390625q-0.34375 0.375 -0.34375 0.921875zm0 -6.625q0 0.53125 0.34375 0.90625q0.359375 0.375 1.0 0.375q0.640625 0 1.0 -0.359375q0.359375 -0.375 0.359375 -0.921875q0 -0.546875 -0.359375 -0.921875q-0.359375 -0.390625 -1.0 -0.390625q-0.65625 0 -1.0 0.390625q-0.34375 0.375 -0.34375 0.921875zm55.32814 2.109375l1.484375 0.359375q0.15625 -0.140625 0.3125 -0.25q0.15625 -0.125 0.359375 -0.21875q0.1875 -0.09375 0.421875 -0.140625q0.25 -0.0625 0.59375 -0.0625q0.5 0 0.875 0.171875q0.390625 0.171875 0.65625 0.46875q0.25 0.3125 0.375 0.71875q0.140625 0.40625 0.140625 0.90625q0 0.5 -0.109375 0.9375q-0.109375 0.4375 -0.328125 0.734375q-0.234375 0.3125 -0.578125 0.484375q-0.34375 0.171875 -0.8125 0.171875q-0.796875 0 -1.3125 -0.4375q-0.515625 -0.453125 -0.609375 -1.28125l-1.828125 0q0.046875 0.78125 0.375 1.390625q0.328125 0.609375 0.828125 1.015625q0.515625 0.40625 1.171875 0.625q0.65625 0.203125 1.375 0.203125q0.9375 0 1.625 -0.296875q0.703125 -0.296875 1.15625 -0.8125q0.46875 -0.515625 0.6875 -1.203125q0.21875 -0.703125 0.21875 -1.484375q0 -0.875 -0.234375 -1.578125q-0.234375 -0.71875 -0.671875 -1.21875q-0.4375 -0.484375 -1.078125 -0.75q-0.640625 -0.265625 -1.4375 -0.265625q-0.59375 0 -1.0625 0.15625q-0.453125 0.140625 -0.734375 0.296875l0.296875 -2.71875l4.5625 0l0 -1.65625l-6.109375 0l-0.609375 5.734375z" fill-rule="nonzero"/></g></svg>