<svg version="1.1" viewBox="0.0 0.0 626.4540682414698 444.79527559055117" fill="none" stroke="none" stroke-linecap="square" stroke-miterlimit="10" xmlns:xlink="http://www.w3.org/1999/xlink" xmlns="http://www.w3.org/2000/svg"><clipPath id="p.0"><path d="m0 0l626.45404 0l0 444.7953l-626.45404 0l0 -444.7953z" clip-rule="nonzero"/></clipPath><g clip-path="url(#p.0)"><path fill="#ffffff" d="m0 0l626.45404 0l0 444.7953l-626.45404 0z" fill-rule="evenodd"/><path fill="#efefef" d="m125.48294 5.2766776l176.25195 0l0 396.44095l-176.25195 0z" fill-rule="evenodd"/><path stroke="#000000" stroke-width="3.0" stroke-linejoin="round" stroke-linecap="butt" d="m125.48294 5.2766776l176.25195 0l0 396.44095l-176.25195 0z" fill-rule="evenodd"/><path fill="#b7b7b7" d="m125.48163 328.47507l176.25195 0l0 73.22833l-176.25195 0z" fill-rule="evenodd"/><path stroke="#000000" stroke-width="3.0" stroke-linejoin="round" stroke-linecap="butt" d="m125.48163 328.47507l176.25195 0l0 73.22833l-176.25195 0z" fill-rule="evenodd"/><path fill="#000000" fill-opacity="0.0" d="m125.48163 401.7034l176.25195 0l0 42.015747l-176.25195 0z" fill-rule="evenodd"/><path fill="#000000" d="m191.59068 424.3109l1.75 -0.171875l-0.015625 0.46875q0 0.765625 0.34375 1.421875q0.359375 0.640625 1.171875 1.0q0.828125 0.34375 1.953125 0.34375q1.609375 0 2.453125 -0.703125q0.84375 -0.703125 0.84375 -1.609375q0 -0.625 -0.453125 -1.140625q-0.453125 -0.515625 -2.484375 -1.390625q-1.578125 -0.6875 -2.140625 -1.046875q-0.90625 -0.59375 -1.34375 -1.28125q-0.421875 -0.703125 -0.421875 -1.59375q0 -1.03125 0.5625 -1.859375q0.5625 -0.828125 1.65625 -1.265625q1.09375 -0.4375 2.453125 -0.4375q1.640625 0 2.75 0.546875q1.125 0.546875 1.625 1.453125q0.515625 0.90625 0.515625 1.734375q0 0.09375 -0.015625 0.28125l-1.71875 0.140625q0 -0.578125 -0.109375 -0.890625q-0.171875 -0.5625 -0.5625 -0.9375q-0.375 -0.390625 -1.046875 -0.609375q-0.671875 -0.234375 -1.5 -0.234375q-1.453125 0 -2.265625 0.65625q-0.625 0.5 -0.625 1.328125q0 0.484375 0.25 0.875q0.265625 0.390625 0.921875 0.765625q0.484375 0.265625 2.25 1.046875q1.453125 0.640625 2.0 1.0q0.71875 0.484375 1.109375 1.171875q0.390625 0.6875 0.390625 1.5625q0 1.078125 -0.65625 2.0q-0.65625 0.90625 -1.828125 1.421875q-1.15625 0.5 -2.671875 0.5q-2.265625 0 -3.703125 -0.984375q-1.421875 -1.0 -1.4375 -3.5625zm15.599823 2.96875l-0.265625 1.359375q-0.59375 0.140625 -1.15625 0.140625q-0.984375 0 -1.5625 -0.46875q-0.4375 -0.375 -0.4375 -1.0q0 -0.3125 0.234375 -1.46875l1.171875 -5.625l-1.296875 0l0.265625 -1.265625l1.296875 0l0.5 -2.375l1.890625 -1.140625l-0.734375 3.515625l1.625 0l-0.28125 1.265625l-1.609375 0l-1.125 5.359375q-0.203125 1.015625 -0.203125 1.21875q0 0.28125 0.15625 0.4375q0.171875 0.15625 0.5625 0.15625q0.546875 0 0.96875 -0.109375zm7.855179 0.140625q-0.859375 0.734375 -1.65625 1.078125q-0.78125 0.34375 -1.6875 0.34375q-1.34375 0 -2.171875 -0.78125q-0.8125 -0.796875 -0.8125 -2.03125q0 -0.796875 0.375 -1.421875q0.375 -0.625 0.984375 -1.0q0.609375 -0.390625 1.484375 -0.546875q0.5625 -0.109375 2.109375 -0.171875q1.5625 -0.0625 2.234375 -0.328125q0.1875 -0.671875 0.1875 -1.125q0 -0.578125 -0.421875 -0.90625q-0.5625 -0.453125 -1.671875 -0.453125q-1.03125 0 -1.703125 0.46875q-0.65625 0.453125 -0.953125 1.296875l-1.671875 -0.140625q0.515625 -1.4375 1.609375 -2.203125q1.109375 -0.765625 2.796875 -0.765625q1.796875 0 2.84375 0.859375q0.796875 0.625 0.796875 1.65625q0 0.765625 -0.21875 1.796875l-0.53125 2.40625q-0.265625 1.140625 -0.265625 1.859375q0 0.453125 0.203125 1.3125l-1.671875 0q-0.125 -0.46875 -0.1875 -1.203125zm0.609375 -3.703125q-0.34375 0.140625 -0.75 0.21875q-0.390625 0.0625 -1.3125 0.15625q-1.4375 0.125 -2.03125 0.328125q-0.59375 0.1875 -0.90625 0.625q-0.296875 0.421875 -0.296875 0.9375q0 0.6875 0.484375 1.140625q0.484375 0.4375 1.359375 0.4375q0.828125 0 1.578125 -0.421875q0.75 -0.4375 1.1875 -1.203125q0.4375 -0.78125 0.6875 -2.21875zm9.922592 1.375l1.65625 0.171875q-0.625 1.8125 -1.765625 2.703125q-1.140625 0.875 -2.609375 0.875q-1.578125 0 -2.5625 -1.015625q-0.96875 -1.03125 -0.96875 -2.859375q0 -1.578125 0.625 -3.109375q0.640625 -1.53125 1.796875 -2.328125q1.171875 -0.796875 2.6875 -0.796875q1.546875 0 2.453125 0.875q0.921875 0.875 0.921875 2.328125l-1.625 0.109375q-0.015625 -0.921875 -0.546875 -1.4375q-0.515625 -0.515625 -1.359375 -0.515625q-1.0 0 -1.734375 0.625q-0.71875 0.625 -1.140625 1.90625q-0.40625 1.28125 -0.40625 2.46875q0 1.234375 0.546875 1.859375q0.546875 0.609375 1.34375 0.609375q0.796875 0 1.53125 -0.609375q0.734375 -0.609375 1.15625 -1.859375zm2.671875 3.53125l2.796875 -13.359375l1.640625 0l-1.734375 8.28125l4.8125 -4.59375l2.171875 0l-4.125 3.609375l2.5 6.0625l-1.8125 0l-1.921875 -4.96875l-2.015625 1.734375l-0.671875 3.234375l-1.640625 0z" fill-rule="nonzero"/><path fill="#000000" fill-opacity="0.0" d="m429.85696 401.7034l176.25198 0l0 42.015747l-176.25198 0z" fill-rule="evenodd"/><path fill="#000000" d="m496.46414 428.6234l2.796875 -13.359375l1.78125 0l-1.15625 5.546875l6.921875 0l1.15625 -5.546875l1.78125 0l-2.78125 13.359375l-1.796875 0l1.3125 -6.296875l-6.90625 0l-1.328125 6.296875l-1.78125 0zm20.41043 -3.28125l1.609375 0.15625q-0.34375 1.1875 -1.59375 2.265625q-1.234375 1.078125 -2.96875 1.078125q-1.0625 0 -1.96875 -0.5q-0.890625 -0.5 -1.359375 -1.4375q-0.46875 -0.953125 -0.46875 -2.15625q0 -1.59375 0.734375 -3.078125q0.734375 -1.484375 1.890625 -2.203125q1.171875 -0.734375 2.53125 -0.734375q1.734375 0 2.765625 1.078125q1.03125 1.0625 1.03125 2.921875q0 0.71875 -0.125 1.46875l-7.125 0q-0.046875 0.28125 -0.046875 0.5q0 1.359375 0.625 2.078125q0.625 0.71875 1.53125 0.71875q0.84375 0 1.65625 -0.546875q0.828125 -0.5625 1.28125 -1.609375zm-4.78125 -2.40625l5.421875 0q0.015625 -0.25 0.015625 -0.359375q0 -1.234375 -0.625 -1.890625q-0.625 -0.671875 -1.59375 -0.671875q-1.0625 0 -1.9375 0.734375q-0.859375 0.71875 -1.28125 2.1875zm14.578857 4.484375q-0.859375 0.734375 -1.65625 1.078125q-0.78125 0.34375 -1.6875 0.34375q-1.34375 0 -2.171875 -0.78125q-0.8125 -0.796875 -0.8125 -2.03125q0 -0.796875 0.375 -1.421875q0.375 -0.625 0.984375 -1.0q0.609375 -0.390625 1.484375 -0.546875q0.5625 -0.109375 2.109375 -0.171875q1.5625 -0.0625 2.234375 -0.328125q0.1875 -0.671875 0.1875 -1.125q0 -0.578125 -0.421875 -0.90625q-0.5625 -0.453125 -1.671875 -0.453125q-1.03125 0 -1.703125 0.46875q-0.65625 0.453125 -0.953125 1.296875l-1.671875 -0.140625q0.515625 -1.4375 1.609375 -2.203125q1.109375 -0.765625 2.796875 -0.765625q1.796875 0 2.84375 0.859375q0.796875 0.625 0.796875 1.65625q0 0.765625 -0.21875 1.796875l-0.53125 2.40625q-0.265625 1.140625 -0.265625 1.859375q0 0.453125 0.203125 1.3125l-1.671875 0q-0.125 -0.46875 -0.1875 -1.203125zm0.609375 -3.703125q-0.34375 0.140625 -0.75 0.21875q-0.390625 0.0625 -1.3125 0.15625q-1.4375 0.125 -2.03125 0.328125q-0.59375 0.1875 -0.90625 0.625q-0.296875 0.421875 -0.296875 0.9375q0 0.6875 0.484375 1.140625q0.484375 0.4375 1.359375 0.4375q0.828125 0 1.578125 -0.421875q0.75 -0.4375 1.1875 -1.203125q0.4375 -0.78125 0.6875 -2.21875zm2.4382324 8.609375l2.796875 -13.375l1.515625 0l-0.28125 1.34375q0.84375 -0.875 1.515625 -1.21875q0.671875 -0.34375 1.421875 -0.34375q1.375 0 2.28125 1.015625q0.921875 1.0 0.921875 2.875q0 1.515625 -0.5 2.765625q-0.5 1.234375 -1.234375 2.0q-0.71875 0.75 -1.46875 1.109375q-0.75 0.34375 -1.53125 0.34375q-1.75 0 -2.703125 -1.765625l-1.09375 5.25l-1.640625 0zm3.25 -7.65625q0 1.078125 0.15625 1.5q0.234375 0.59375 0.75 0.96875q0.515625 0.359375 1.203125 0.359375q1.421875 0 2.296875 -1.59375q0.875 -1.609375 0.875 -3.28125q0 -1.21875 -0.59375 -1.890625q-0.578125 -0.671875 -1.453125 -0.671875q-0.625 0 -1.171875 0.34375q-0.53125 0.328125 -1.0 0.984375q-0.453125 0.65625 -0.765625 1.609375q-0.296875 0.953125 -0.296875 1.671875z" fill-rule="nonzero"/><path fill="#d9d9d9" d="m430.12466 133.73294l176.25198 0l0 85.19685l-176.25198 0z" fill-rule="evenodd"/><path stroke="#000000" stroke-width="3.0" stroke-linejoin="round" stroke-linecap="butt" d="m430.12466 133.73294l176.25198 0l0 85.19685l-176.25198 0z" fill-rule="evenodd"/><path fill="#d9d9d9" d="m430.12466 133.73228l176.25198 0l0 17.039368l-176.25198 0z" fill-rule="evenodd"/><path stroke="#000000" stroke-width="1.0" stroke-linejoin="round" stroke-linecap="butt" d="m430.12466 133.73228l176.25198 0l0 17.039368l-176.25198 0z" fill-rule="evenodd"/><path fill="#000000" d="m519.8297 144.86447l0.625 2.1875l1.625 0l-3.03125 -9.46875l-1.390625 0l-3.078125 9.46875l1.625 0l0.640625 -2.1875l2.984375 0zm-2.578125 -1.328125l1.09375 -3.75l1.09375 3.75l-2.1875 0z" fill-rule="nonzero"/><path fill="#d9d9d9" d="m430.12466 150.77165l176.25198 0l0 17.039368l-176.25198 0z" fill-rule="evenodd"/><path stroke="#000000" stroke-width="1.0" stroke-linejoin="round" stroke-linecap="butt" d="m430.12466 150.77165l176.25198 0l0 17.039368l-176.25198 0z" fill-rule="evenodd"/><path fill="#000000" d="m515.2047 164.09134l3.28125 0q0.703125 0 1.296875 -0.171875q0.609375 -0.1875 1.046875 -0.53125q0.4375 -0.34375 0.6875 -0.859375q0.25 -0.515625 0.234375 -1.203125q0 -0.375 -0.109375 -0.71875q-0.109375 -0.359375 -0.3125 -0.640625q-0.203125 -0.265625 -0.5 -0.46875q-0.296875 -0.21875 -0.71875 -0.328125l0 -0.015625q0.28125 -0.125 0.5 -0.265625q0.21875 -0.140625 0.390625 -0.34375q0.25 -0.265625 0.375 -0.609375q0.140625 -0.359375 0.15625 -0.75q0 -0.671875 -0.25 -1.15625q-0.25 -0.484375 -0.703125 -0.796875q-0.4375 -0.3125 -1.046875 -0.453125q-0.609375 -0.15625 -1.296875 -0.15625l-3.03125 0l0 9.46875zm1.578125 -4.28125l1.796875 0q0.390625 0 0.6875 0.109375q0.296875 0.109375 0.5 0.3125q0.21875 0.1875 0.3125 0.46875q0.109375 0.265625 0.109375 0.625q0 0.34375 -0.125 0.625q-0.125 0.265625 -0.359375 0.46875q-0.21875 0.171875 -0.53125 0.28125q-0.296875 0.109375 -0.671875 0.109375l-1.71875 0l0 -3.0zm0 -1.1875l0 -2.71875l1.484375 0q0.390625 0.015625 0.71875 0.109375q0.34375 0.078125 0.5625 0.28125q0.203125 0.15625 0.296875 0.40625q0.109375 0.234375 0.109375 0.5625q0 0.3125 -0.125 0.5625q-0.109375 0.234375 -0.3125 0.40625q-0.21875 0.1875 -0.546875 0.28125q-0.3125 0.09375 -0.703125 0.109375l-1.484375 0z" fill-rule="nonzero"/><path fill="#d9d9d9" d="m430.12466 167.81102l176.25198 0l0 17.039368l-176.25198 0z" fill-rule="evenodd"/><path stroke="#000000" stroke-width="1.0" stroke-linejoin="round" stroke-linecap="butt" d="m430.12466 167.81102l176.25198 0l0 17.039368l-176.25198 0z" fill-rule="evenodd"/><path fill="#000000" d="m521.61096 178.20883l-1.5625 0q-0.03125 0.4375 -0.171875 0.765625q-0.125 0.328125 -0.34375 0.5625q-0.21875 0.21875 -0.53125 0.34375q-0.3125 0.109375 -0.71875 0.109375q-0.328125 0 -0.59375 -0.09375q-0.265625 -0.09375 -0.46875 -0.28125q-0.203125 -0.15625 -0.34375 -0.390625q-0.125 -0.234375 -0.21875 -0.53125q-0.125 -0.34375 -0.1875 -0.75q-0.046875 -0.421875 -0.046875 -0.90625l0 -1.296875q0 -0.390625 0.046875 -0.75q0.046875 -0.375 0.125 -0.703125q0.109375 -0.359375 0.28125 -0.65625q0.171875 -0.3125 0.4375 -0.5q0.1875 -0.15625 0.421875 -0.234375q0.25 -0.09375 0.5625 -0.09375q0.4375 0 0.75 0.125q0.3125 0.125 0.515625 0.375q0.21875 0.234375 0.328125 0.578125q0.125 0.34375 0.171875 0.765625l1.546875 0q-0.0625 -0.71875 -0.3125 -1.296875q-0.234375 -0.578125 -0.65625 -0.984375q-0.421875 -0.40625 -1.015625 -0.625q-0.578125 -0.21875 -1.328125 -0.21875q-0.5625 0 -1.03125 0.15625q-0.453125 0.140625 -0.84375 0.40625q-0.40625 0.296875 -0.71875 0.71875q-0.296875 0.40625 -0.5 0.90625q-0.171875 0.453125 -0.265625 0.96875q-0.09375 0.515625 -0.09375 1.078125l0 1.28125q0 0.59375 0.09375 1.125q0.09375 0.53125 0.28125 0.984375q0.1875 0.46875 0.46875 0.859375q0.28125 0.375 0.640625 0.65625q0.390625 0.28125 0.875 0.453125q0.5 0.15625 1.078125 0.15625q0.71875 0 1.296875 -0.21875q0.59375 -0.21875 1.03125 -0.625q0.421875 -0.390625 0.671875 -0.953125q0.265625 -0.5625 0.328125 -1.265625z" fill-rule="nonzero"/><path fill="#d9d9d9" d="m430.12466 184.85039l176.25198 0l0 17.039383l-176.25198 0z" fill-rule="evenodd"/><path stroke="#000000" stroke-width="1.0" stroke-linejoin="round" stroke-linecap="butt" d="m430.12466 184.85039l176.25198 0l0 17.039383l-176.25198 0z" fill-rule="evenodd"/><path fill="#000000" d="m515.1422 198.17007l2.40625 0q0.640625 0 1.203125 -0.15625q0.578125 -0.15625 1.046875 -0.453125q0.421875 -0.265625 0.765625 -0.640625q0.34375 -0.375 0.578125 -0.84375q0.25 -0.46875 0.375 -1.046875q0.140625 -0.578125 0.140625 -1.21875l0 -0.75q0 -0.65625 -0.140625 -1.25q-0.140625 -0.59375 -0.40625 -1.09375q-0.25 -0.46875 -0.625 -0.84375q-0.375 -0.390625 -0.859375 -0.65625q-0.4375 -0.25 -0.984375 -0.375q-0.53125 -0.140625 -1.15625 -0.140625l-2.34375 0l0 9.46875zm1.59375 -8.203125l0.75 0q0.390625 0.015625 0.703125 0.09375q0.328125 0.078125 0.59375 0.234375q0.359375 0.203125 0.609375 0.53125q0.265625 0.3125 0.421875 0.703125q0.125 0.328125 0.1875 0.71875q0.0625 0.375 0.0625 0.8125l0 0.75q0 0.4375 -0.0625 0.828125q-0.0625 0.375 -0.1875 0.703125q-0.140625 0.375 -0.375 0.671875q-0.21875 0.296875 -0.5 0.5q-0.28125 0.1875 -0.640625 0.296875q-0.34375 0.09375 -0.75 0.09375l-0.8125 0l0 -6.9375z" fill-rule="nonzero"/><path fill="#d9d9d9" d="m430.12466 201.88977l176.25198 0l0 17.039368l-176.25198 0z" fill-rule="evenodd"/><path stroke="#000000" stroke-width="1.0" stroke-linejoin="round" stroke-linecap="butt" d="m430.12466 201.88977l176.25198 0l0 17.039368l-176.25198 0z" fill-rule="evenodd"/><path fill="#000000" d="m520.79846 210.95944l0 -1.265625l-3.921875 0l0 -2.671875l4.546875 0l0 -1.28125l-6.125 0l0 9.46875l6.15625 0l0 -1.28125l-4.578125 0l0 -2.96875l3.921875 0z" fill-rule="nonzero"/><path fill="#000000" fill-opacity="0.0" d="m0 194.26772l129.44882 0l0 64.62993l-129.44882 0z" fill-rule="evenodd"/><path fill="#000000" d="m21.550499 217.10959l-2.203125 0q-0.046875 0.59375 -0.234375 1.0625q-0.171875 0.46875 -0.484375 0.78125q-0.296875 0.3125 -0.734375 0.484375q-0.4375 0.15625 -1.015625 0.15625q-0.46875 0 -0.84375 -0.125q-0.359375 -0.140625 -0.640625 -0.390625q-0.28125 -0.234375 -0.484375 -0.5625q-0.1875 -0.328125 -0.3125 -0.734375q-0.15625 -0.484375 -0.234375 -1.0625q-0.078125 -0.59375 -0.078125 -1.25l0 -1.828125q0 -0.546875 0.046875 -1.0625q0.0625 -0.515625 0.1875 -0.96875q0.15625 -0.515625 0.390625 -0.9375q0.25 -0.421875 0.609375 -0.6875q0.265625 -0.21875 0.609375 -0.328125q0.34375 -0.125 0.765625 -0.125q0.609375 0 1.046875 0.171875q0.4375 0.171875 0.734375 0.515625q0.296875 0.34375 0.46875 0.828125q0.171875 0.46875 0.21875 1.0625l2.1875 0q-0.09375 -1.0 -0.4375 -1.8125q-0.34375 -0.8125 -0.9375 -1.375q-0.578125 -0.5625 -1.40625 -0.875q-0.828125 -0.3125 -1.875 -0.3125q-0.78125 0 -1.4375 0.21875q-0.640625 0.203125 -1.171875 0.578125q-0.5625 0.40625 -1.0 0.984375q-0.4375 0.578125 -0.703125 1.28125q-0.265625 0.640625 -0.390625 1.359375q-0.125 0.71875 -0.125 1.5l0 1.8125q0 0.8125 0.125 1.5625q0.140625 0.734375 0.40625 1.375q0.265625 0.65625 0.640625 1.203125q0.390625 0.53125 0.921875 0.90625q0.53125 0.421875 1.21875 0.640625q0.6875 0.21875 1.5 0.21875q1.015625 0 1.828125 -0.296875q0.828125 -0.3125 1.4375 -0.875q0.578125 -0.5625 0.9375 -1.34375q0.375 -0.78125 0.46875 -1.75zm1.8986969 -0.9375l0 0.1875q0 1.078125 0.296875 2.0q0.3125 0.90625 0.90625 1.578125q0.59375 0.671875 1.4375 1.0625q0.859375 0.375 1.953125 0.375q1.0625 0 1.90625 -0.375q0.859375 -0.390625 1.453125 -1.0625q0.578125 -0.671875 0.890625 -1.578125q0.3125 -0.921875 0.3125 -2.0l0 -0.1875q0 -1.078125 -0.3125 -1.984375q-0.3125 -0.921875 -0.890625 -1.59375q-0.59375 -0.6875 -1.453125 -1.0625q-0.84375 -0.375 -1.9375 -0.375q-1.078125 0 -1.921875 0.375q-0.84375 0.375 -1.4375 1.0625q-0.59375 0.671875 -0.90625 1.59375q-0.296875 0.90625 -0.296875 1.984375zm2.171875 0.1875l0 -0.1875q0 -0.65625 0.140625 -1.234375q0.140625 -0.59375 0.4375 -1.046875q0.296875 -0.453125 0.75 -0.703125q0.453125 -0.265625 1.0625 -0.265625q0.640625 0 1.078125 0.265625q0.453125 0.25 0.765625 0.703125q0.28125 0.453125 0.421875 1.046875q0.140625 0.578125 0.140625 1.234375l0 0.1875q0 0.671875 -0.140625 1.265625q-0.140625 0.578125 -0.421875 1.03125q-0.296875 0.4375 -0.75 0.703125q-0.453125 0.265625 -1.0625 0.265625q-0.640625 0 -1.09375 -0.265625q-0.453125 -0.265625 -0.75 -0.703125q-0.296875 -0.453125 -0.4375 -1.03125q-0.140625 -0.59375 -0.140625 -1.265625zm10.242447 4.828125l1.84375 0l1.25 -5.59375l0.21875 -1.21875l0.234375 1.21875l1.265625 5.59375l1.859375 0l1.890625 -9.859375l-1.96875 0l-0.890625 6.015625l-0.171875 1.203125l-0.203125 -1.1875l-1.28125 -6.03125l-1.4375 0l-1.28125 6.046875l-0.203125 1.140625l-0.15625 -1.140625l-0.90625 -6.046875l-1.96875 0l1.90625 9.859375zm17.226822 -3.421875q0 0.4375 -0.1875 0.78125q-0.1875 0.328125 -0.484375 0.5625q-0.328125 0.234375 -0.765625 0.359375q-0.421875 0.109375 -0.921875 0.109375q-0.59375 0 -1.09375 -0.140625q-0.5 -0.140625 -0.859375 -0.453125q-0.375 -0.28125 -0.59375 -0.734375q-0.203125 -0.453125 -0.25 -1.0625l-2.1875 0q0 0.953125 0.375 1.703125q0.390625 0.734375 1.03125 1.28125q0.703125 0.578125 1.640625 0.890625q0.953125 0.296875 1.9375 0.296875q0.921875 0 1.75 -0.234375q0.828125 -0.234375 1.453125 -0.6875q0.625 -0.453125 0.984375 -1.125q0.375 -0.671875 0.375 -1.5625q0 -0.953125 -0.421875 -1.6875q-0.421875 -0.734375 -1.125 -1.265625q-0.5625 -0.421875 -1.234375 -0.703125q-0.671875 -0.296875 -1.375 -0.5q-0.5625 -0.171875 -1.0625 -0.359375q-0.5 -0.1875 -0.890625 -0.453125q-0.390625 -0.25 -0.625 -0.59375q-0.21875 -0.34375 -0.234375 -0.796875q0 -0.421875 0.171875 -0.765625q0.1875 -0.34375 0.484375 -0.59375q0.3125 -0.234375 0.734375 -0.359375q0.421875 -0.140625 0.9375 -0.140625q0.5625 0 1.0 0.171875q0.453125 0.15625 0.765625 0.453125q0.296875 0.296875 0.453125 0.71875q0.171875 0.40625 0.21875 0.90625l2.171875 0q0 -0.890625 -0.359375 -1.625q-0.359375 -0.75 -0.984375 -1.296875q-0.609375 -0.53125 -1.453125 -0.828125q-0.828125 -0.296875 -1.796875 -0.296875q-0.90625 0 -1.734375 0.265625q-0.828125 0.25 -1.4375 0.71875q-0.625 0.484375 -0.984375 1.171875q-0.359375 0.671875 -0.359375 1.515625q0 0.78125 0.3125 1.40625q0.3125 0.625 0.859375 1.109375q0.5625 0.484375 1.34375 0.875q0.796875 0.390625 1.734375 0.65625q0.609375 0.171875 1.09375 0.390625q0.5 0.203125 0.875 0.46875q0.34375 0.28125 0.53125 0.640625q0.1875 0.359375 0.1875 0.8125zm8.711197 -8.84375l-2.1875 0l0 2.40625l-2.375 0l0 1.640625l2.375 0l0 4.84375q0 0.9375 0.25 1.625q0.25 0.671875 0.703125 1.09375q0.4375 0.4375 1.0625 0.640625q0.625 0.203125 1.375 0.203125q0.40625 0 0.8125 -0.046875q0.421875 -0.03125 0.8125 -0.109375q0.375 -0.0625 0.703125 -0.171875q0.34375 -0.109375 0.578125 -0.25l-0.234375 -1.5q-0.171875 0.03125 -0.40625 0.078125q-0.234375 0.046875 -0.515625 0.09375q-0.28125 0.046875 -0.578125 0.078125q-0.296875 0.015625 -0.59375 0.015625q-0.390625 0 -0.71875 -0.078125q-0.328125 -0.09375 -0.5625 -0.3125q-0.234375 -0.21875 -0.375 -0.578125q-0.125 -0.375 -0.125 -0.921875l0 -4.703125l3.703125 0l0 -1.640625l-3.703125 0l0 -2.40625zm13.633072 2.234375q-1.015625 0 -1.859375 0.46875q-0.84375 0.46875 -1.4375 1.296875l-0.015625 -0.21875l-0.09375 -1.375l-2.03125 0l0 9.859375l2.171875 0l0 -6.078125q0.171875 -0.4375 0.421875 -0.78125q0.265625 -0.34375 0.625 -0.5625q0.34375 -0.21875 0.78125 -0.328125q0.4375 -0.109375 0.984375 -0.109375q0.484375 0 0.96875 0.0625q0.484375 0.046875 0.984375 0.15625l0.3125 -2.15625q-0.28125 -0.09375 -0.78125 -0.15625q-0.5 -0.078125 -1.03125 -0.078125zm4.883072 0.171875l0 1.8125l3.046875 0l0 6.25l-3.046875 0l0 1.796875l8.125 0l0 -1.796875l-2.890625 0l0 -8.0625l-5.234375 0zm2.84375 -2.546875q0 0.34375 0.15625 0.609375q0.171875 0.25 0.5 0.359375q0.328125 0.09375 0.59375 0.046875q0.265625 -0.0625 0.453125 -0.234375q0.375 -0.09375 0.578125 -0.390625q0.203125 -0.296875 0.140625 -0.703125q-0.046875 -0.390625 -0.359375 -0.640625q-0.296875 -0.25 -0.796875 -0.25q-0.28125 0 -0.515625 0.09375q-0.234375 0.078125 -0.40625 0.234375q-0.171875 0.15625 -0.265625 0.390625q-0.078125 0.21875 -0.078125 0.484375zm7.851822 12.40625l2.1875 0l0 -7.03125q0.140625 -0.25 0.328125 -0.453125q0.203125 -0.21875 0.421875 -0.359375q0.28125 -0.1875 0.625 -0.296875q0.34375 -0.109375 0.75 -0.109375q0.46875 0 0.84375 0.109375q0.375 0.109375 0.640625 0.359375q0.265625 0.234375 0.40625 0.65625q0.140625 0.40625 0.140625 1.015625l0 6.109375l2.171875 0l0 -6.15625q0 -1.03125 -0.25 -1.765625q-0.25 -0.734375 -0.6875 -1.203125q-0.453125 -0.46875 -1.078125 -0.6875q-0.625 -0.21875 -1.390625 -0.21875q-0.5625 0 -1.09375 0.171875q-0.515625 0.15625 -0.953125 0.453125q-0.265625 0.1875 -0.515625 0.4375q-0.234375 0.234375 -0.4375 0.515625l-0.140625 -1.40625l-1.96875 0l0 9.859375zm10.914322 -5.0l0 0.1875q0 1.0625 0.28125 1.984375q0.28125 0.921875 0.796875 1.578125q0.515625 0.671875 1.234375 1.0625q0.734375 0.375 1.640625 0.375q0.5 0 0.921875 -0.109375q0.4375 -0.109375 0.796875 -0.3125q0.234375 -0.125 0.4375 -0.296875q0.203125 -0.171875 0.40625 -0.375l0 0.6875q0 0.5625 -0.171875 1.0q-0.15625 0.4375 -0.453125 0.734375q-0.3125 0.3125 -0.765625 0.46875q-0.453125 0.171875 -1.03125 0.171875q-0.34375 0 -0.671875 -0.078125q-0.3125 -0.0625 -0.640625 -0.203125q-0.3125 -0.15625 -0.625 -0.390625q-0.296875 -0.234375 -0.5625 -0.546875l-1.03125 1.328125q0.328125 0.4375 0.78125 0.734375q0.453125 0.3125 0.953125 0.5q0.5 0.203125 1.0 0.28125q0.5 0.09375 0.921875 0.09375q1.0 0 1.8125 -0.28125q0.828125 -0.265625 1.421875 -0.796875q0.59375 -0.53125 0.90625 -1.3125q0.328125 -0.765625 0.328125 -1.75l0 -9.59375l-1.984375 0l-0.078125 1.0q-0.1875 -0.21875 -0.40625 -0.40625q-0.203125 -0.1875 -0.4375 -0.328125q-0.359375 -0.21875 -0.8125 -0.328125q-0.453125 -0.109375 -1.0 -0.109375q-0.90625 0 -1.640625 0.375q-0.734375 0.359375 -1.25 1.015625q-0.53125 0.671875 -0.8125 1.59375q-0.265625 0.921875 -0.265625 2.046875zm2.1875 0.1875l0 -0.1875q0 -0.671875 0.140625 -1.25q0.140625 -0.59375 0.421875 -1.03125q0.28125 -0.453125 0.71875 -0.703125q0.4375 -0.265625 1.046875 -0.265625q0.359375 0 0.640625 0.078125q0.296875 0.078125 0.53125 0.203125q0.265625 0.15625 0.46875 0.375q0.203125 0.21875 0.359375 0.5l0 4.3125q-0.15625 0.265625 -0.34375 0.484375q-0.1875 0.21875 -0.4375 0.375q-0.25 0.140625 -0.5625 0.234375q-0.296875 0.078125 -0.671875 0.078125q-0.59375 0 -1.03125 -0.25q-0.4375 -0.25 -0.71875 -0.703125q-0.296875 -0.421875 -0.4375 -1.0q-0.125 -0.59375 -0.125 -1.25z" fill-rule="nonzero"/><path fill="#000000" d="m112.591896 217.17209l0 -1.640625l5.03125 0l0 1.640625l-5.03125 0z" fill-rule="nonzero"/><path fill="#000000" d="m38.671104 237.0877q0 -3.328125 1.78125 -5.203125q1.78125 -1.890625 4.609375 -1.890625q1.84375 0 3.328125 0.890625q1.484375 0.875 2.265625 2.46875q0.78125 1.578125 0.78125 3.578125q0 2.03125 -0.828125 3.640625q-0.8125 1.59375 -2.3125 2.421875q-1.5 0.828125 -3.25 0.828125q-1.875 0 -3.359375 -0.90625q-1.484375 -0.921875 -2.25 -2.5q-0.765625 -1.578125 -0.765625 -3.328125zm1.8125 0.015625q0 2.421875 1.296875 3.8125q1.296875 1.390625 3.265625 1.390625q2.0 0 3.28125 -1.40625q1.28125 -1.40625 1.28125 -3.984375q0 -1.625 -0.546875 -2.84375q-0.546875 -1.21875 -1.609375 -1.875q-1.0625 -0.671875 -2.375 -0.671875q-1.890625 0 -3.25 1.296875q-1.34375 1.28125 -1.34375 4.28125zm14.527054 6.484375l-1.515625 0l0 -13.359375l1.640625 0l0 4.765625q1.046875 -1.296875 2.65625 -1.296875q0.890625 0 1.6875 0.359375q0.796875 0.359375 1.3125 1.015625q0.515625 0.640625 0.796875 1.5625q0.296875 0.921875 0.296875 1.96875q0 2.484375 -1.234375 3.84375q-1.21875 1.359375 -2.953125 1.359375q-1.703125 0 -2.6875 -1.4375l0 1.21875zm-0.015625 -4.90625q0 1.734375 0.484375 2.515625q0.765625 1.265625 2.09375 1.265625q1.078125 0 1.859375 -0.9375q0.78125 -0.9375 0.78125 -2.78125q0 -1.890625 -0.75 -2.796875q-0.75 -0.90625 -1.828125 -0.90625q-1.0625 0 -1.859375 0.9375q-0.78125 0.9375 -0.78125 2.703125zm8.875717 -6.546875l0 -1.90625l1.640625 0l0 1.90625l-1.640625 0zm-2.078125 15.203125l0.3125 -1.390625q0.5 0.125 0.78125 0.125q0.5 0 0.734375 -0.328125q0.25 -0.328125 0.25 -1.671875l0 -10.15625l1.640625 0l0 10.203125q0 1.78125 -0.46875 2.484375q-0.59375 0.90625 -1.96875 0.90625q-0.65625 0 -1.28125 -0.171875zm12.863571 -6.859375l1.6875 0.203125q-0.40625 1.484375 -1.484375 2.3125q-1.078125 0.8125 -2.765625 0.8125q-2.125 0 -3.375 -1.296875q-1.234375 -1.3125 -1.234375 -3.671875q0 -2.453125 1.25 -3.796875q1.265625 -1.34375 3.265625 -1.34375q1.9375 0 3.15625 1.328125q1.234375 1.3125 1.234375 3.703125q0 0.15625 0 0.4375l-7.21875 0q0.09375 1.59375 0.90625 2.453125q0.8125 0.84375 2.015625 0.84375q0.90625 0 1.546875 -0.46875q0.640625 -0.484375 1.015625 -1.515625zm-5.390625 -2.65625l5.40625 0q-0.109375 -1.21875 -0.625 -1.828125q-0.78125 -0.953125 -2.03125 -0.953125q-1.125 0 -1.90625 0.765625q-0.765625 0.75 -0.84375 2.015625zm9.141342 5.765625l0 -13.359375l1.640625 0l0 7.625l3.890625 -3.9375l2.109375 0l-3.6875 3.59375l4.0625 6.078125l-2.015625 0l-3.203125 -4.953125l-1.15625 1.125l0 3.828125l-1.640625 0zm12.90625 -1.46875l0.234375 1.453125q-0.6875 0.140625 -1.234375 0.140625q-0.890625 0 -1.390625 -0.28125q-0.484375 -0.28125 -0.6875 -0.734375q-0.203125 -0.46875 -0.203125 -1.9375l0 -5.578125l-1.203125 0l0 -1.265625l1.203125 0l0 -2.390625l1.625 -0.984375l0 3.375l1.65625 0l0 1.265625l-1.65625 0l0 5.671875q0 0.6875 0.078125 0.890625q0.09375 0.203125 0.28125 0.328125q0.203125 0.109375 0.578125 0.109375q0.265625 0 0.71875 -0.0625z" fill-rule="nonzero"/><path fill="#000000" fill-opacity="0.0" d="m430.12466 5.2766776l177.32285 0l0 396.44095l-177.32285 0z" fill-rule="evenodd"/><path stroke="#000000" stroke-width="3.0" stroke-linejoin="round" stroke-linecap="butt" d="m430.12466 5.2766776l177.32285 0l0 396.44095l-177.32285 0z" fill-rule="evenodd"/><path fill="#ffffff" d="m430.12598 76.914375l176.25195 0l0 28.409447l-176.25195 0z" fill-rule="evenodd"/><path stroke="#000000" stroke-width="3.0" stroke-linejoin="round" stroke-linecap="butt" d="m430.12598 76.914375l176.25195 0l0 28.409447l-176.25195 0z" fill-rule="evenodd"/><path fill="#000000" d="m441.40723 88.52597l-1.625 0l0 8.453125l1.71875 0l0 -6.5q0.046875 -0.109375 0.09375 -0.203125q0.0625 -0.09375 0.140625 -0.171875q0.109375 -0.09375 0.25 -0.140625q0.140625 -0.0625 0.328125 -0.0625q0.171875 0 0.3125 0.046875q0.140625 0.046875 0.234375 0.15625q0.109375 0.09375 0.15625 0.28125q0.046875 0.171875 0.046875 0.421875l0 6.171875l1.6875 0l0 -6.28125q0 -0.078125 0 -0.109375q0 -0.046875 0 -0.078125q0.03125 -0.140625 0.09375 -0.234375q0.0625 -0.109375 0.15625 -0.1875q0.109375 -0.09375 0.234375 -0.140625q0.140625 -0.046875 0.3125 -0.046875q0.171875 0 0.3125 0.046875q0.15625 0.046875 0.25 0.15625q0.109375 0.109375 0.15625 0.28125q0.0625 0.171875 0.0625 0.421875l0 6.171875l1.71875 0l0 -6.15625q0 -0.65625 -0.140625 -1.125q-0.140625 -0.484375 -0.390625 -0.78125q-0.25 -0.28125 -0.59375 -0.40625q-0.328125 -0.140625 -0.734375 -0.140625q-0.3125 0 -0.578125 0.078125q-0.265625 0.078125 -0.46875 0.21875q-0.171875 0.109375 -0.3125 0.265625q-0.140625 0.15625 -0.25 0.328125q-0.078125 -0.1875 -0.1875 -0.34375q-0.109375 -0.15625 -0.25 -0.265625q-0.171875 -0.140625 -0.421875 -0.203125q-0.25 -0.078125 -0.5625 -0.078125q-0.609375 0 -1.03125 0.296875q-0.421875 0.28125 -0.671875 0.78125l-0.046875 -0.921875zm15.6484375 9.9375l0 -1.484375l-7.140625 0l0 1.484375l7.140625 0zm8.3359375 -10.09375q-0.875 0 -1.609375 0.40625q-0.71875 0.40625 -1.234375 1.109375l0 -0.1875l-0.078125 -1.171875l-1.75 0l0 8.453125l1.859375 0l0 -5.21875q0.15625 -0.375 0.375 -0.65625q0.21875 -0.296875 0.53125 -0.484375q0.28125 -0.203125 0.65625 -0.296875q0.375 -0.09375 0.84375 -0.09375q0.421875 0 0.828125 0.046875q0.421875 0.046875 0.859375 0.140625l0.265625 -1.84375q-0.25 -0.078125 -0.671875 -0.140625q-0.421875 -0.0625 -0.875 -0.0625zm7.6953125 8.765625q1.234375 0 2.109375 -0.484375q0.875 -0.484375 1.296875 -1.09375l-1.0 -0.96875q-0.390625 0.5 -1.0 0.765625q-0.59375 0.265625 -1.296875 0.265625q-0.5 0 -0.9375 -0.171875q-0.421875 -0.171875 -0.734375 -0.484375q-0.3125 -0.296875 -0.5 -0.671875q-0.171875 -0.375 -0.25 -0.921875l0 -0.046875l5.859375 0l0 -0.796875q0 -0.90625 -0.25 -1.671875q-0.234375 -0.765625 -0.71875 -1.328125q-0.46875 -0.546875 -1.171875 -0.84375q-0.703125 -0.3125 -1.625 -0.3125q-0.8125 0 -1.546875 0.3125q-0.71875 0.296875 -1.265625 0.875q-0.546875 0.5625 -0.859375 1.375q-0.3125 0.796875 -0.3125 1.796875l0 0.3125q0 0.875 0.296875 1.625q0.3125 0.734375 0.859375 1.28125q0.5625 0.5625 1.328125 0.875q0.78125 0.3125 1.71875 0.3125zm-0.21875 -7.25q0.46875 0 0.8125 0.15625q0.359375 0.15625 0.59375 0.421875q0.25 0.28125 0.375 0.640625q0.140625 0.359375 0.140625 0.734375l0 0.125l-3.984375 0q0.09375 -0.484375 0.265625 -0.859375q0.1875 -0.390625 0.453125 -0.671875q0.265625 -0.265625 0.59375 -0.40625q0.34375 -0.140625 0.75 -0.140625zm8.0078125 7.09375l1.875 0l0 -7.0625l3.125 0l0 -1.390625l-3.125 0l0 -0.515625q0 -0.453125 0.109375 -0.78125q0.109375 -0.34375 0.34375 -0.5625q0.234375 -0.25 0.609375 -0.375q0.390625 -0.125 0.90625 -0.125q0.5 0 0.890625 0.0625q0.40625 0.0625 0.71875 0.15625l0.140625 -1.5q-0.234375 -0.046875 -0.46875 -0.078125q-0.21875 -0.046875 -0.4375 -0.078125q-0.265625 -0.046875 -0.546875 -0.0625q-0.265625 -0.03125 -0.5625 -0.03125q-0.8125 0 -1.484375 0.21875q-0.65625 0.21875 -1.125 0.640625q-0.46875 0.421875 -0.71875 1.0625q-0.25 0.625 -0.25 1.453125l0 0.515625l-2.265625 0l0 1.390625l2.265625 0l0 7.0625zm15.1015625 -3.5l-1.875 0q-0.046875 0.515625 -0.203125 0.921875q-0.15625 0.390625 -0.421875 0.65625q-0.265625 0.265625 -0.640625 0.40625q-0.375 0.140625 -0.859375 0.140625q-0.40625 0 -0.71875 -0.109375q-0.3125 -0.109375 -0.5625 -0.328125q-0.234375 -0.203125 -0.40625 -0.484375q-0.15625 -0.28125 -0.265625 -0.625q-0.140625 -0.421875 -0.21875 -0.921875q-0.0625 -0.5 -0.0625 -1.0625l0 -1.578125q0 -0.453125 0.046875 -0.890625q0.0625 -0.453125 0.15625 -0.84375q0.140625 -0.4375 0.34375 -0.796875q0.203125 -0.375 0.515625 -0.59375q0.234375 -0.1875 0.515625 -0.28125q0.296875 -0.109375 0.671875 -0.109375q0.515625 0 0.890625 0.15625q0.375 0.140625 0.640625 0.4375q0.25 0.28125 0.390625 0.703125q0.140625 0.40625 0.1875 0.90625l1.875 0q-0.078125 -0.84375 -0.375 -1.53125q-0.296875 -0.703125 -0.796875 -1.203125q-0.5 -0.484375 -1.21875 -0.75q-0.703125 -0.265625 -1.59375 -0.265625q-0.671875 0 -1.234375 0.1875q-0.546875 0.171875 -1.015625 0.5q-0.484375 0.34375 -0.859375 0.84375q-0.359375 0.5 -0.59375 1.109375q-0.21875 0.546875 -0.328125 1.171875q-0.109375 0.609375 -0.109375 1.265625l0 1.5625q0 0.6875 0.109375 1.328125q0.109375 0.640625 0.34375 1.1875q0.21875 0.5625 0.546875 1.03125q0.34375 0.453125 0.78125 0.78125q0.46875 0.359375 1.046875 0.5625q0.59375 0.1875 1.296875 0.1875q0.859375 0 1.5625 -0.265625q0.71875 -0.265625 1.234375 -0.75q0.5 -0.484375 0.8125 -1.15625q0.3125 -0.671875 0.390625 -1.5zm1.6328125 -0.8125l0 0.171875q0 0.921875 0.265625 1.703125q0.265625 0.78125 0.765625 1.359375q0.5 0.578125 1.234375 0.921875q0.734375 0.328125 1.671875 0.328125q0.921875 0 1.640625 -0.328125q0.734375 -0.34375 1.234375 -0.921875q0.5 -0.578125 0.765625 -1.359375q0.265625 -0.78125 0.265625 -1.703125l0 -0.171875q0 -0.921875 -0.265625 -1.703125q-0.265625 -0.78125 -0.765625 -1.359375q-0.5 -0.578125 -1.234375 -0.90625q-0.734375 -0.328125 -1.65625 -0.328125q-0.9375 0 -1.671875 0.328125q-0.71875 0.328125 -1.21875 0.90625q-0.5 0.578125 -0.765625 1.359375q-0.265625 0.78125 -0.265625 1.703125zm1.859375 0.171875l0 -0.171875q0 -0.546875 0.125 -1.046875q0.125 -0.515625 0.375 -0.90625q0.25 -0.375 0.640625 -0.59375q0.390625 -0.234375 0.921875 -0.234375q0.53125 0 0.921875 0.234375q0.390625 0.21875 0.640625 0.59375q0.25 0.390625 0.375 0.90625q0.125 0.5 0.125 1.046875l0 0.171875q0 0.5625 -0.125 1.078125q-0.125 0.5 -0.375 0.890625q-0.25 0.375 -0.640625 0.609375q-0.390625 0.21875 -0.90625 0.21875q-0.546875 0 -0.9375 -0.21875q-0.390625 -0.234375 -0.640625 -0.609375q-0.25 -0.390625 -0.375 -0.890625q-0.125 -0.515625 -0.125 -1.078125zm13.6171875 4.140625l1.703125 0l0 -8.453125l-1.875 0l0 5.984375q-0.109375 0.234375 -0.265625 0.421875q-0.15625 0.1875 -0.359375 0.328125q-0.25 0.15625 -0.578125 0.25q-0.3125 0.09375 -0.71875 0.09375q-0.390625 0 -0.6875 -0.09375q-0.28125 -0.109375 -0.46875 -0.359375q-0.1875 -0.234375 -0.28125 -0.625q-0.078125 -0.390625 -0.078125 -0.984375l0 -5.015625l-1.859375 0l0 5.0q0 0.953125 0.203125 1.640625q0.21875 0.6875 0.59375 1.125q0.390625 0.4375 0.9375 0.65625q0.546875 0.203125 1.203125 0.203125q0.765625 0 1.375 -0.359375q0.625 -0.359375 1.046875 -1.0l0.109375 1.1875zm4.0703125 0l1.859375 0l0 -6.03125q0.125 -0.21875 0.28125 -0.390625q0.171875 -0.1875 0.359375 -0.3125q0.25 -0.15625 0.546875 -0.25q0.296875 -0.09375 0.640625 -0.09375q0.40625 0 0.71875 0.09375q0.328125 0.09375 0.5625 0.296875q0.21875 0.21875 0.328125 0.578125q0.125 0.34375 0.125 0.859375l0 5.25l1.875 0l0 -5.28125q0 -0.890625 -0.21875 -1.515625q-0.203125 -0.625 -0.59375 -1.03125q-0.375 -0.40625 -0.921875 -0.59375q-0.53125 -0.1875 -1.1875 -0.1875q-0.484375 0 -0.9375 0.140625q-0.4375 0.140625 -0.8125 0.390625q-0.234375 0.171875 -0.453125 0.375q-0.203125 0.203125 -0.375 0.453125l-0.109375 -1.203125l-1.6875 0l0 8.453125zm13.3515625 -10.515625l-1.875 0l0 2.0625l-2.046875 0l0 1.390625l2.046875 0l0 4.15625q0 0.8125 0.203125 1.390625q0.21875 0.578125 0.609375 0.953125q0.375 0.375 0.90625 0.5625q0.546875 0.171875 1.1875 0.171875q0.34375 0 0.703125 -0.046875q0.359375 -0.03125 0.6875 -0.09375q0.328125 -0.0625 0.609375 -0.15625q0.28125 -0.09375 0.484375 -0.21875l-0.203125 -1.28125q-0.140625 0.03125 -0.34375 0.078125q-0.203125 0.03125 -0.4375 0.0625q-0.25 0.046875 -0.515625 0.078125q-0.25 0.015625 -0.484375 0.015625q-0.34375 0 -0.625 -0.078125q-0.28125 -0.078125 -0.484375 -0.265625q-0.203125 -0.1875 -0.3125 -0.5q-0.109375 -0.3125 -0.109375 -0.78125l0 -4.046875l3.171875 0l0 -1.390625l-3.171875 0l0 -2.0625z" fill-rule="nonzero"/><path fill="#000000" d="m539.4072 96.041595q0 0.453125 0.28125 0.78125q0.296875 0.3125 0.859375 0.3125q0.546875 0 0.84375 -0.3125q0.296875 -0.328125 0.296875 -0.78125q0 -0.46875 -0.296875 -0.796875q-0.28125 -0.328125 -0.84375 -0.328125q-0.578125 0 -0.859375 0.328125q-0.28125 0.328125 -0.28125 0.796875zm0 -6.84375q0 0.453125 0.28125 0.78125q0.296875 0.3125 0.859375 0.3125q0.546875 0 0.84375 -0.3125q0.296875 -0.328125 0.296875 -0.78125q0 -0.46875 -0.296875 -0.796875q-0.28125 -0.328125 -0.84375 -0.328125q-0.578125 0 -0.859375 0.328125q-0.28125 0.328125 -0.28125 0.796875z" fill-rule="nonzero"/><path fill="#000000" d="m559.60254 96.979095l-1.40625 0l0 -8.96875q-0.515625 0.484375 -1.34375 0.96875q-0.8125 0.484375 -1.46875 0.734375l0 -1.359375q1.171875 -0.5625 2.046875 -1.34375q0.890625 -0.796875 1.265625 -1.53125l0.90625 0l0 11.5z" fill-rule="nonzero"/><path fill="#ffffff" d="m430.12598 105.32375l176.25195 0l0 28.409447l-176.25195 0z" fill-rule="evenodd"/><path stroke="#000000" stroke-width="3.0" stroke-linejoin="round" stroke-linecap="butt" d="m430.12598 105.32375l176.25195 0l0 28.409447l-176.25195 0z" fill-rule="evenodd"/><path fill="#000000" d="m451.36035 125.38848l0 -2.203125l2.203125 0l0 2.203125l-2.203125 0zm-5.328125 0l0 -2.203125l2.203125 0l0 2.203125l-2.203125 0zm-5.328125 0l0 -2.203125l2.1875 0l0 2.203125l-2.1875 0z" fill-rule="nonzero"/><path fill="#ffffff" d="m125.48294 207.41037l176.25195 0l0 28.40944l-176.25195 0z" fill-rule="evenodd"/><path stroke="#000000" stroke-width="3.0" stroke-linejoin="round" stroke-linecap="butt" d="m125.48294 207.41037l176.25195 0l0 28.40944l-176.25195 0z" fill-rule="evenodd"/><path fill="#000000" d="m136.76419 219.02197l-1.625 0l0 8.453125l1.71875 0l0 -6.5q0.046875 -0.109375 0.09375 -0.203125q0.0625 -0.09375 0.140625 -0.171875q0.109375 -0.09375 0.25 -0.140625q0.140625 -0.0625 0.328125 -0.0625q0.171875 0 0.3125 0.046875q0.140625 0.046875 0.234375 0.15625q0.109375 0.09375 0.15625 0.28125q0.046875 0.171875 0.046875 0.421875l0 6.171875l1.6875 0l0 -6.28125q0 -0.078125 0 -0.109375q0 -0.046875 0 -0.078125q0.03125 -0.140625 0.09375 -0.234375q0.0625 -0.109375 0.15625 -0.1875q0.109375 -0.09375 0.234375 -0.140625q0.140625 -0.046875 0.3125 -0.046875q0.171875 0 0.3125 0.046875q0.15625 0.046875 0.25 0.15625q0.109375 0.109375 0.15625 0.28125q0.0625 0.171875 0.0625 0.421875l0 6.171875l1.71875 0l0 -6.15625q0 -0.65625 -0.140625 -1.125q-0.140625 -0.484375 -0.390625 -0.78125q-0.25 -0.28125 -0.59375 -0.40625q-0.328125 -0.140625 -0.734375 -0.140625q-0.3125 0 -0.578125 0.078125q-0.265625 0.078125 -0.46875 0.21875q-0.171875 0.109375 -0.3125 0.265625q-0.140625 0.15625 -0.25 0.328125q-0.078125 -0.1875 -0.1875 -0.34375q-0.109375 -0.15625 -0.25 -0.265625q-0.171875 -0.140625 -0.421875 -0.203125q-0.25 -0.078125 -0.5625 -0.078125q-0.609375 0 -1.03125 0.296875q-0.421875 0.28125 -0.671875 0.78125l-0.046875 -0.921875zm15.6484375 9.9375l0 -1.484375l-7.140625 0l0 1.484375l7.140625 0zm8.0078125 -3.78125q0 0.203125 -0.09375 0.375q-0.078125 0.171875 -0.265625 0.3125q-0.21875 0.171875 -0.578125 0.28125q-0.359375 0.09375 -0.84375 0.09375q-0.359375 0 -0.71875 -0.078125q-0.34375 -0.078125 -0.625 -0.25q-0.28125 -0.15625 -0.46875 -0.421875q-0.171875 -0.28125 -0.203125 -0.671875l-1.8125 0q0 0.53125 0.25 1.046875q0.25 0.5 0.734375 0.890625q0.484375 0.390625 1.1875 0.640625q0.703125 0.25 1.625 0.25q0.8125 0 1.484375 -0.1875q0.671875 -0.203125 1.15625 -0.53125q0.484375 -0.34375 0.734375 -0.8125q0.265625 -0.46875 0.265625 -1.03125q0 -0.578125 -0.25 -1.0q-0.25 -0.421875 -0.703125 -0.734375q-0.453125 -0.296875 -1.09375 -0.5q-0.640625 -0.203125 -1.40625 -0.34375q-0.5625 -0.09375 -0.921875 -0.203125q-0.359375 -0.125 -0.5625 -0.265625q-0.21875 -0.125 -0.3125 -0.296875q-0.078125 -0.1875 -0.078125 -0.40625q0 -0.203125 0.09375 -0.390625q0.109375 -0.203125 0.3125 -0.34375q0.203125 -0.15625 0.515625 -0.234375q0.3125 -0.09375 0.734375 -0.09375q0.46875 0 0.8125 0.125q0.34375 0.109375 0.5625 0.3125q0.1875 0.171875 0.28125 0.390625q0.09375 0.21875 0.09375 0.453125l1.875 0q0 -0.578125 -0.25 -1.0625q-0.25 -0.5 -0.71875 -0.859375q-0.46875 -0.359375 -1.140625 -0.5625q-0.671875 -0.203125 -1.515625 -0.203125q-0.78125 0 -1.4375 0.203125q-0.640625 0.203125 -1.09375 0.546875q-0.453125 0.359375 -0.703125 0.828125q-0.25 0.453125 -0.25 0.96875q0 0.546875 0.234375 0.953125q0.25 0.40625 0.6875 0.703125q0.4375 0.3125 1.03125 0.53125q0.609375 0.21875 1.34375 0.359375q0.59375 0.109375 0.984375 0.234375q0.390625 0.125 0.625 0.265625q0.234375 0.15625 0.328125 0.328125q0.09375 0.171875 0.09375 0.390625zm7.8359375 -8.21875l-1.875 0l0 2.0625l-2.046875 0l0 1.390625l2.046875 0l0 4.15625q0 0.8125 0.203125 1.390625q0.21875 0.578125 0.609375 0.953125q0.375 0.375 0.90625 0.5625q0.546875 0.171875 1.1875 0.171875q0.34375 0 0.703125 -0.046875q0.359375 -0.03125 0.6875 -0.09375q0.328125 -0.0625 0.609375 -0.15625q0.28125 -0.09375 0.484375 -0.21875l-0.203125 -1.28125q-0.140625 0.03125 -0.34375 0.078125q-0.203125 0.03125 -0.4375 0.0625q-0.25 0.046875 -0.515625 0.078125q-0.25 0.015625 -0.484375 0.015625q-0.34375 0 -0.625 -0.078125q-0.28125 -0.078125 -0.484375 -0.265625q-0.203125 -0.1875 -0.3125 -0.5q-0.109375 -0.3125 -0.109375 -0.78125l0 -4.046875l3.171875 0l0 -1.390625l-3.171875 0l0 -2.0625zm11.6953125 1.90625q-0.875 0 -1.609375 0.40625q-0.71875 0.40625 -1.234375 1.109375l0 -0.1875l-0.078125 -1.171875l-1.75 0l0 8.453125l1.859375 0l0 -5.21875q0.15625 -0.375 0.375 -0.65625q0.21875 -0.296875 0.53125 -0.484375q0.28125 -0.203125 0.65625 -0.296875q0.375 -0.09375 0.84375 -0.09375q0.421875 0 0.828125 0.046875q0.421875 0.046875 0.859375 0.140625l0.265625 -1.84375q-0.25 -0.078125 -0.671875 -0.140625q-0.421875 -0.0625 -0.875 -0.0625zm6.3203125 7.484375q0 0.53125 0.34375 0.90625q0.359375 0.375 1.0 0.375q0.640625 0 1.0 -0.359375q0.359375 -0.375 0.359375 -0.921875q0 -0.546875 -0.359375 -0.921875q-0.359375 -0.390625 -1.0 -0.390625q-0.65625 0 -1.0 0.390625q-0.34375 0.375 -0.34375 0.921875zm0 -6.625q0 0.53125 0.34375 0.90625q0.359375 0.375 1.0 0.375q0.640625 0 1.0 -0.359375q0.359375 -0.375 0.359375 -0.921875q0 -0.546875 -0.359375 -0.921875q-0.359375 -0.390625 -1.0 -0.390625q-0.65625 0 -1.0 0.390625q-0.34375 0.375 -0.34375 0.921875z" fill-rule="nonzero"/><path fill="#000000" fill-opacity="0.0" d="m247.00787 220.7044l133.57199 0l0 -86.61418l49.6091 0" fill-rule="evenodd"/><path stroke="#000000" stroke-width="3.0" stroke-linejoin="round" stroke-linecap="butt" d="m258.37787 220.70439l122.20203 0l0 -86.61417l31.60907 0" fill-rule="evenodd"/><path fill="#000000" stroke="#000000" stroke-width="3.0" stroke-linecap="butt" d="m248.50787 220.70439c0 -2.725525 2.2094727 -4.9349976 4.9349976 -4.9349976c2.725525 0 4.9349976 2.2094727 4.9349976 4.9349976c0 2.725525 -2.2094727 4.9349976 -4.9349976 4.9349976c-2.725525 0 -4.9349976 -2.2094727 -4.9349976 -4.9349976z" fill-rule="nonzero"/><path fill="#000000" stroke="#000000" stroke-width="3.0" stroke-linecap="butt" d="m412.18896 139.04543l13.614319 -4.9552l-13.614319 -4.9552z" fill-rule="evenodd"/><path fill="#ffffff" d="m125.48294 179.16496l176.25195 0l0 28.409454l-176.25195 0z" fill-rule="evenodd"/><path stroke="#000000" stroke-width="3.0" stroke-linejoin="round" stroke-linecap="butt" d="m125.48294 179.16496l176.25195 0l0 28.409454l-176.25195 0z" fill-rule="evenodd"/><path fill="#000000" d="m136.76419 190.77657l-1.625 0l0 8.453125l1.71875 0l0 -6.5q0.046875 -0.109375 0.09375 -0.203125q0.0625 -0.09375 0.140625 -0.171875q0.109375 -0.09375 0.25 -0.140625q0.140625 -0.0625 0.328125 -0.0625q0.171875 0 0.3125 0.046875q0.140625 0.046875 0.234375 0.15625q0.109375 0.09375 0.15625 0.28125q0.046875 0.171875 0.046875 0.421875l0 6.171875l1.6875 0l0 -6.28125q0 -0.078125 0 -0.109375q0 -0.046875 0 -0.078125q0.03125 -0.140625 0.09375 -0.234375q0.0625 -0.109375 0.15625 -0.1875q0.109375 -0.09375 0.234375 -0.140625q0.140625 -0.046875 0.3125 -0.046875q0.171875 0 0.3125 0.046875q0.15625 0.046875 0.25 0.15625q0.109375 0.109375 0.15625 0.28125q0.0625 0.171875 0.0625 0.421875l0 6.171875l1.71875 0l0 -6.15625q0 -0.65625 -0.140625 -1.125q-0.140625 -0.484375 -0.390625 -0.78125q-0.25 -0.28125 -0.59375 -0.40625q-0.328125 -0.140625 -0.734375 -0.140625q-0.3125 0 -0.578125 0.078125q-0.265625 0.078125 -0.46875 0.21875q-0.171875 0.109375 -0.3125 0.265625q-0.140625 0.15625 -0.25 0.328125q-0.078125 -0.1875 -0.1875 -0.34375q-0.109375 -0.15625 -0.25 -0.265625q-0.171875 -0.140625 -0.421875 -0.203125q-0.25 -0.078125 -0.5625 -0.078125q-0.609375 0 -1.03125 0.296875q-0.421875 0.28125 -0.671875 0.78125l-0.046875 -0.921875zm15.6484375 9.9375l0 -1.484375l-7.140625 0l0 1.484375l7.140625 0zm2.5078125 1.765625l1.859375 0l0 -4.015625q0.15625 0.15625 0.328125 0.296875q0.171875 0.140625 0.359375 0.25q0.3125 0.1875 0.6875 0.28125q0.390625 0.09375 0.84375 0.09375q0.796875 0 1.40625 -0.328125q0.625 -0.328125 1.046875 -0.90625q0.421875 -0.578125 0.625 -1.359375q0.21875 -0.796875 0.21875 -1.703125l0 -0.171875q0 -0.953125 -0.21875 -1.734375q-0.21875 -0.796875 -0.625 -1.375q-0.421875 -0.5625 -1.046875 -0.875q-0.625 -0.3125 -1.4375 -0.3125q-0.40625 0 -0.78125 0.09375q-0.359375 0.078125 -0.671875 0.25q-0.234375 0.125 -0.4375 0.296875q-0.203125 0.171875 -0.375 0.375l-0.0625 -0.859375l-1.71875 0l0 11.703125zm5.515625 -7.5625l0 0.171875q0 0.5625 -0.109375 1.0625q-0.109375 0.5 -0.359375 0.890625q-0.234375 0.390625 -0.609375 0.609375q-0.359375 0.21875 -0.890625 0.21875q-0.3125 0 -0.578125 -0.0625q-0.265625 -0.078125 -0.484375 -0.203125q-0.203125 -0.140625 -0.359375 -0.3125q-0.15625 -0.1875 -0.265625 -0.40625l0 -3.75q0.125 -0.234375 0.296875 -0.421875q0.171875 -0.1875 0.390625 -0.3125q0.203125 -0.125 0.453125 -0.1875q0.25 -0.0625 0.53125 -0.0625q0.53125 0 0.90625 0.21875q0.375 0.21875 0.609375 0.59375q0.234375 0.375 0.34375 0.890625q0.125 0.5 0.125 1.0625zm7.8203125 -6.203125l-1.875 0l0 2.0625l-2.046875 0l0 1.390625l2.046875 0l0 4.15625q0 0.8125 0.203125 1.390625q0.21875 0.578125 0.609375 0.953125q0.375 0.375 0.90625 0.5625q0.546875 0.171875 1.1875 0.171875q0.34375 0 0.703125 -0.046875q0.359375 -0.03125 0.6875 -0.09375q0.328125 -0.0625 0.609375 -0.15625q0.28125 -0.09375 0.484375 -0.21875l-0.203125 -1.28125q-0.140625 0.03125 -0.34375 0.078125q-0.203125 0.03125 -0.4375 0.0625q-0.25 0.046875 -0.515625 0.078125q-0.25 0.015625 -0.484375 0.015625q-0.34375 0 -0.625 -0.078125q-0.28125 -0.078125 -0.484375 -0.265625q-0.203125 -0.1875 -0.3125 -0.5q-0.109375 -0.3125 -0.109375 -0.78125l0 -4.046875l3.171875 0l0 -1.390625l-3.171875 0l0 -2.0625zm11.6953125 1.90625q-0.875 0 -1.609375 0.40625q-0.71875 0.40625 -1.234375 1.109375l0 -0.1875l-0.078125 -1.171875l-1.75 0l0 8.453125l1.859375 0l0 -5.21875q0.15625 -0.375 0.375 -0.65625q0.21875 -0.296875 0.53125 -0.484375q0.28125 -0.203125 0.65625 -0.296875q0.375 -0.09375 0.84375 -0.09375q0.421875 0 0.828125 0.046875q0.421875 0.046875 0.859375 0.140625l0.265625 -1.84375q-0.25 -0.078125 -0.671875 -0.140625q-0.421875 -0.0625 -0.875 -0.0625zm11.3828125 5.109375l-1.875 0q-0.046875 0.515625 -0.203125 0.921875q-0.15625 0.390625 -0.421875 0.65625q-0.265625 0.265625 -0.640625 0.40625q-0.375 0.140625 -0.859375 0.140625q-0.40625 0 -0.71875 -0.109375q-0.3125 -0.109375 -0.5625 -0.328125q-0.234375 -0.203125 -0.40625 -0.484375q-0.15625 -0.28125 -0.265625 -0.625q-0.140625 -0.421875 -0.21875 -0.921875q-0.0625 -0.5 -0.0625 -1.0625l0 -1.578125q0 -0.453125 0.046875 -0.890625q0.0625 -0.453125 0.15625 -0.84375q0.140625 -0.4375 0.34375 -0.796875q0.203125 -0.375 0.515625 -0.59375q0.234375 -0.1875 0.515625 -0.28125q0.296875 -0.109375 0.671875 -0.109375q0.515625 0 0.890625 0.15625q0.375 0.140625 0.640625 0.4375q0.25 0.28125 0.390625 0.703125q0.140625 0.40625 0.1875 0.90625l1.875 0q-0.078125 -0.84375 -0.375 -1.53125q-0.296875 -0.703125 -0.796875 -1.203125q-0.5 -0.484375 -1.21875 -0.75q-0.703125 -0.265625 -1.59375 -0.265625q-0.671875 0 -1.234375 0.1875q-0.546875 0.171875 -1.015625 0.5q-0.484375 0.34375 -0.859375 0.84375q-0.359375 0.5 -0.59375 1.109375q-0.21875 0.546875 -0.328125 1.171875q-0.109375 0.609375 -0.109375 1.265625l0 1.5625q0 0.6875 0.109375 1.328125q0.109375 0.640625 0.34375 1.1875q0.21875 0.5625 0.546875 1.03125q0.34375 0.453125 0.78125 0.78125q0.46875 0.359375 1.046875 0.5625q0.59375 0.1875 1.296875 0.1875q0.859375 0 1.5625 -0.265625q0.71875 -0.265625 1.234375 -0.75q0.5 -0.484375 0.8125 -1.15625q0.3125 -0.671875 0.390625 -1.5zm1.9140625 3.5l3.9375 0q0.84375 0 1.5625 -0.21875q0.71875 -0.21875 1.25 -0.640625q0.515625 -0.40625 0.8125 -1.015625q0.296875 -0.625 0.296875 -1.4375q0 -0.46875 -0.140625 -0.875q-0.125 -0.421875 -0.375 -0.765625q-0.234375 -0.328125 -0.59375 -0.578125q-0.359375 -0.25 -0.875 -0.390625l0 -0.015625q0.34375 -0.140625 0.609375 -0.3125q0.265625 -0.171875 0.46875 -0.40625q0.296875 -0.328125 0.453125 -0.734375q0.171875 -0.421875 0.171875 -0.90625q0 -0.796875 -0.296875 -1.375q-0.296875 -0.59375 -0.828125 -0.96875q-0.53125 -0.375 -1.265625 -0.546875q-0.71875 -0.1875 -1.546875 -0.1875l-3.640625 0l0 11.375zm1.890625 -5.140625l2.15625 0q0.453125 0 0.8125 0.140625q0.359375 0.125 0.609375 0.359375q0.25 0.234375 0.375 0.5625q0.125 0.328125 0.125 0.765625q0 0.40625 -0.15625 0.734375q-0.140625 0.328125 -0.421875 0.5625q-0.265625 0.21875 -0.640625 0.34375q-0.359375 0.125 -0.796875 0.125l-2.0625 0l0 -3.59375zm0 -1.4375l0 -3.25l1.765625 0q0.484375 0.015625 0.875 0.125q0.40625 0.09375 0.671875 0.328125q0.234375 0.1875 0.359375 0.484375q0.140625 0.296875 0.140625 0.6875q0 0.375 -0.140625 0.671875q-0.140625 0.28125 -0.390625 0.484375q-0.265625 0.234375 -0.65625 0.359375q-0.375 0.109375 -0.84375 0.109375l-1.78125 0zm10.3359375 5.453125q0 0.53125 0.34375 0.90625q0.359375 0.375 1.0 0.375q0.640625 0 1.0 -0.359375q0.359375 -0.375 0.359375 -0.921875q0 -0.546875 -0.359375 -0.921875q-0.359375 -0.390625 -1.0 -0.390625q-0.65625 0 -1.0 0.390625q-0.34375 0.375 -0.34375 0.921875zm0 -6.625q0 0.53125 0.34375 0.90625q0.359375 0.375 1.0 0.375q0.640625 0 1.0 -0.359375q0.359375 -0.375 0.359375 -0.921875q0 -0.546875 -0.359375 -0.921875q-0.359375 -0.390625 -1.0 -0.390625q-0.65625 0 -1.0 0.390625q-0.34375 0.375 -0.34375 0.921875z" fill-rule="nonzero"/><path fill="#000000" fill-opacity="0.0" d="m246.5958 194.26772l91.763794 0l0 -103.149605l91.76376 0" fill-rule="evenodd"/><path stroke="#000000" stroke-width="3.0" stroke-linejoin="round" stroke-linecap="butt" d="m257.9658 194.26772l80.3938 0l0 -103.149605l73.76376 0" fill-rule="evenodd"/><path fill="#000000" stroke="#000000" stroke-width="3.0" stroke-linecap="butt" d="m248.0958 194.26772c0 -2.725525 2.209488 -4.9349976 4.935013 -4.9349976c2.725525 0 4.9349823 2.2094727 4.9349823 4.9349976c0 2.725525 -2.2094574 4.9349976 -4.9349823 4.9349976c-2.725525 0 -4.935013 -2.2094727 -4.935013 -4.9349976z" fill-rule="nonzero"/><path fill="#000000" stroke="#000000" stroke-width="3.0" stroke-linecap="butt" d="m412.12335 96.07331l13.614288 -4.9552l-13.614288 -4.9552z" fill-rule="evenodd"/><path fill="#ffffff" d="m125.48294 235.8185l176.25195 0l0 28.40947l-176.25195 0z" fill-rule="evenodd"/><path stroke="#000000" stroke-width="3.0" stroke-linejoin="round" stroke-linecap="butt" d="m125.48294 235.8185l176.25195 0l0 28.40947l-176.25195 0z" fill-rule="evenodd"/><path fill="#000000" d="m136.76419 247.4301l-1.625 0l0 8.453125l1.71875 0l0 -6.5q0.046875 -0.109375 0.09375 -0.203125q0.0625 -0.09375 0.140625 -0.171875q0.109375 -0.09375 0.25 -0.140625q0.140625 -0.0625 0.328125 -0.0625q0.171875 0 0.3125 0.046875q0.140625 0.046875 0.234375 0.15625q0.109375 0.09375 0.15625 0.28125q0.046875 0.171875 0.046875 0.421875l0 6.171875l1.6875 0l0 -6.28125q0 -0.078125 0 -0.109375q0 -0.046875 0 -0.078125q0.03125 -0.140625 0.09375 -0.234375q0.0625 -0.109375 0.15625 -0.1875q0.109375 -0.09375 0.234375 -0.140625q0.140625 -0.046875 0.3125 -0.046875q0.171875 0 0.3125 0.046875q0.15625 0.046875 0.25 0.15625q0.109375 0.109375 0.15625 0.28125q0.0625 0.171875 0.0625 0.421875l0 6.171875l1.71875 0l0 -6.15625q0 -0.65625 -0.140625 -1.125q-0.140625 -0.484375 -0.390625 -0.78125q-0.25 -0.28125 -0.59375 -0.40625q-0.328125 -0.140625 -0.734375 -0.140625q-0.3125 0 -0.578125 0.078125q-0.265625 0.078125 -0.46875 0.21875q-0.171875 0.109375 -0.3125 0.265625q-0.140625 0.15625 -0.25 0.328125q-0.078125 -0.1875 -0.1875 -0.34375q-0.109375 -0.15625 -0.25 -0.265625q-0.171875 -0.140625 -0.421875 -0.203125q-0.25 -0.078125 -0.5625 -0.078125q-0.609375 0 -1.03125 0.296875q-0.421875 0.28125 -0.671875 0.78125l-0.046875 -0.921875zm15.6484375 9.937515l0 -1.4843903l-7.140625 0l0 1.4843903l7.140625 0zm2.8515625 -13.48439l0 1.546875l2.671875 0l0 8.90625l-2.671875 0l0 1.546875l7.109375 0l0 -1.546875l-2.5625 0l0 -10.453125l-4.546875 0zm13.1796875 12.156265q1.234375 0 2.109375 -0.48439026q0.875 -0.484375 1.296875 -1.09375l-1.0 -0.96875q-0.390625 0.5 -1.0 0.765625q-0.59375 0.265625 -1.296875 0.265625q-0.5 0 -0.9375 -0.171875q-0.421875 -0.171875 -0.734375 -0.484375q-0.3125 -0.296875 -0.5 -0.671875q-0.171875 -0.375 -0.25 -0.921875l0 -0.046875l5.859375 0l0 -0.796875q0 -0.90625 -0.25 -1.671875q-0.234375 -0.765625 -0.71875 -1.328125q-0.46875 -0.546875 -1.171875 -0.84375q-0.703125 -0.3125 -1.625 -0.3125q-0.8125 0 -1.546875 0.3125q-0.71875 0.296875 -1.265625 0.875q-0.546875 0.5625 -0.859375 1.375q-0.3125 0.796875 -0.3125 1.796875l0 0.3125q0 0.875 0.296875 1.625q0.3125 0.734375 0.859375 1.28125q0.5625 0.5625 1.328125 0.875q0.78125 0.31251526 1.71875 0.31251526zm-0.21875 -7.2500153q0.46875 0 0.8125 0.15625q0.359375 0.15625 0.59375 0.421875q0.25 0.28125 0.375 0.640625q0.140625 0.359375 0.140625 0.734375l0 0.125l-3.984375 0q0.09375 -0.484375 0.265625 -0.859375q0.1875 -0.390625 0.453125 -0.671875q0.265625 -0.265625 0.59375 -0.40625q0.34375 -0.140625 0.75 -0.140625zm5.8828125 7.09375l1.859375 0l0 -6.03125q0.125 -0.21875 0.28125 -0.390625q0.171875 -0.1875 0.359375 -0.3125q0.25 -0.15625 0.546875 -0.25q0.296875 -0.09375 0.640625 -0.09375q0.40625 0 0.71875 0.09375q0.328125 0.09375 0.5625 0.296875q0.21875 0.21875 0.328125 0.578125q0.125 0.34375 0.125 0.859375l0 5.25l1.875 0l0 -5.28125q0 -0.890625 -0.21875 -1.515625q-0.203125 -0.625 -0.59375 -1.03125q-0.375 -0.40625 -0.921875 -0.59375q-0.53125 -0.1875 -1.1875 -0.1875q-0.484375 0 -0.9375 0.140625q-0.4375 0.140625 -0.8125 0.390625q-0.234375 0.171875 -0.453125 0.375q-0.203125 0.203125 -0.375 0.453125l-0.109375 -1.203125l-1.6875 0l0 8.453125zm12.1640625 -1.125q0 0.53125 0.34375 0.90625q0.359375 0.37501526 1.0 0.37501526q0.640625 0 1.0 -0.35939026q0.359375 -0.375 0.359375 -0.921875q0 -0.546875 -0.359375 -0.921875q-0.359375 -0.390625 -1.0 -0.390625q-0.65625 0 -1.0 0.390625q-0.34375 0.375 -0.34375 0.921875zm0 -6.625q0 0.53125 0.34375 0.90625q0.359375 0.375 1.0 0.375q0.640625 0 1.0 -0.359375q0.359375 -0.375 0.359375 -0.921875q0 -0.546875 -0.359375 -0.921875q-0.359375 -0.390625 -1.0 -0.390625q-0.65625 0 -1.0 0.390625q-0.34375 0.375 -0.34375 0.921875zm64.92969 2.109375l1.484375 0.359375q0.15625 -0.140625 0.3125 -0.25q0.15625 -0.125 0.359375 -0.21875q0.1875 -0.09375 0.421875 -0.140625q0.25 -0.0625 0.59375 -0.0625q0.5 0 0.875 0.171875q0.390625 0.171875 0.65625 0.46875q0.25 0.3125 0.375 0.71875q0.140625 0.40625 0.140625 0.90625q0 0.5 -0.109375 0.9375q-0.109375 0.4375 -0.328125 0.734375q-0.234375 0.3125 -0.578125 0.484375q-0.34375 0.171875 -0.8125 0.171875q-0.796875 0 -1.3125 -0.4375q-0.515625 -0.453125 -0.609375 -1.28125l-1.828125 0q0.046875 0.78125 0.375 1.390625q0.328125 0.609375 0.828125 1.015625q0.515625 0.40625 1.171875 0.625q0.65625 0.20314026 1.375 0.20314026q0.9375 0 1.625 -0.29689026q0.703125 -0.296875 1.15625 -0.8125q0.46875 -0.515625 0.6875 -1.203125q0.21875 -0.703125 0.21875 -1.484375q0 -0.875 -0.234375 -1.578125q-0.234375 -0.71875 -0.671875 -1.21875q-0.4375 -0.484375 -1.078125 -0.75q-0.640625 -0.265625 -1.4375 -0.265625q-0.59375 0 -1.0625 0.15625q-0.453125 0.140625 -0.734375 0.296875l0.296875 -2.71875l4.5625 0l0 -1.65625l-6.109375 0l-0.609375 5.734375z" fill-rule="nonzero"/></g></svg>