<svg version="1.1" viewBox="0.0 0.0 345.86876640419945 513.0446194225722" fill="none" stroke="none" stroke-linecap="square" stroke-miterlimit="10" xmlns:xlink="http://www.w3.org/1999/xlink" xmlns="http://www.w3.org/2000/svg"><clipPath id="p.0"><path d="m0 0l345.86877 0l0 513.0446l-345.86877 0l0 -513.0446z" clip-rule="nonzero"/></clipPath><g clip-path="url(#p.0)"><path fill="#ffffff" d="m0 0l345.86877 0l0 513.0446l-345.86877 0z" fill-rule="evenodd"/><path fill="#000000" fill-opacity="0.0" d="m157.4672 5.0000334l176.25195 0l0 465.70078l-176.25195 0z" fill-rule="evenodd"/><path stroke="#000000" stroke-width="3.0" stroke-linejoin="round" stroke-linecap="butt" d="m157.4672 5.0000334l176.25195 0l0 465.70078l-176.25195 0z" fill-rule="evenodd"/><path fill="#cccccc" d="m157.46588 397.4685l176.25195 0l0 73.22833l-176.25195 0z" fill-rule="evenodd"/><path stroke="#000000" stroke-width="3.0" stroke-linejoin="round" stroke-linecap="butt" d="m157.46588 397.4685l176.25195 0l0 73.22833l-176.25195 0z" fill-rule="evenodd"/><path fill="#000000" fill-opacity="0.0" d="m157.46588 470.69684l176.25195 0l0 42.015747l-176.25195 0z" fill-rule="evenodd"/><path fill="#000000" d="m223.57494 493.30435l1.75 -0.171875l-0.015625 0.46875q0 0.765625 0.34375 1.421875q0.359375 0.640625 1.171875 1.0q0.828125 0.34375 1.953125 0.34375q1.609375 0 2.453125 -0.703125q0.84375 -0.703125 0.84375 -1.609375q0 -0.625 -0.453125 -1.140625q-0.453125 -0.515625 -2.484375 -1.390625q-1.578125 -0.6875 -2.140625 -1.046875q-0.90625 -0.59375 -1.34375 -1.28125q-0.421875 -0.703125 -0.421875 -1.59375q0 -1.03125 0.5625 -1.859375q0.5625 -0.828125 1.65625 -1.265625q1.09375 -0.4375 2.453125 -0.4375q1.640625 0 2.75 0.546875q1.125 0.546875 1.625 1.453125q0.515625 0.90625 0.515625 1.734375q0 0.09375 -0.015625 0.28125l-1.71875 0.140625q0 -0.578125 -0.109375 -0.890625q-0.171875 -0.5625 -0.5625 -0.9375q-0.375 -0.390625 -1.046875 -0.609375q-0.671875 -0.234375 -1.5 -0.234375q-1.453125 0 -2.265625 0.65625q-0.625 0.5 -0.625 1.328125q0 0.484375 0.25 0.875q0.265625 0.390625 0.921875 0.765625q0.484375 0.265625 2.25 1.046875q1.453125 0.640625 2.0 1.0q0.71875 0.484375 1.109375 1.171875q0.390625 0.6875 0.390625 1.5625q0 1.078125 -0.65625 2.0q-0.65625 0.90625 -1.828125 1.421875q-1.15625 0.5 -2.671875 0.5q-2.265625 0 -3.703125 -0.984375q-1.421875 -1.0 -1.4375 -3.5625zm15.599823 2.96875l-0.265625 1.359375q-0.59375 0.140625 -1.15625 0.140625q-0.984375 0 -1.5625 -0.46875q-0.4375 -0.375 -0.4375 -1.0q0 -0.3125 0.234375 -1.46875l1.171875 -5.625l-1.296875 0l0.265625 -1.265625l1.296875 0l0.5 -2.375l1.890625 -1.140625l-0.734375 3.515625l1.625 0l-0.28125 1.265625l-1.609375 0l-1.125 5.359375q-0.203125 1.015625 -0.203125 1.21875q0 0.28125 0.15625 0.4375q0.171875 0.15625 0.5625 0.15625q0.546875 0 0.96875 -0.109375zm7.855179 0.140625q-0.859375 0.734375 -1.65625 1.078125q-0.78125 0.34375 -1.6875 0.34375q-1.34375 0 -2.171875 -0.78125q-0.8125 -0.796875 -0.8125 -2.03125q0 -0.796875 0.375 -1.421875q0.375 -0.625 0.984375 -1.0q0.609375 -0.390625 1.484375 -0.546875q0.5625 -0.109375 2.109375 -0.171875q1.5625 -0.0625 2.234375 -0.328125q0.1875 -0.671875 0.1875 -1.125q0 -0.578125 -0.421875 -0.90625q-0.5625 -0.453125 -1.671875 -0.453125q-1.03125 0 -1.703125 0.46875q-0.65625 0.453125 -0.953125 1.296875l-1.671875 -0.140625q0.515625 -1.4375 1.609375 -2.203125q1.109375 -0.765625 2.796875 -0.765625q1.796875 0 2.84375 0.859375q0.796875 0.625 0.796875 1.65625q0 0.765625 -0.21875 1.796875l-0.53125 2.40625q-0.265625 1.140625 -0.265625 1.859375q0 0.453125 0.203125 1.3125l-1.671875 0q-0.125 -0.46875 -0.1875 -1.203125zm0.609375 -3.703125q-0.34375 0.140625 -0.75 0.21875q-0.390625 0.0625 -1.3125 0.15625q-1.4375 0.125 -2.03125 0.328125q-0.59375 0.1875 -0.90625 0.625q-0.296875 0.421875 -0.296875 0.9375q0 0.6875 0.484375 1.140625q0.484375 0.4375 1.359375 0.4375q0.828125 0 1.578125 -0.421875q0.75 -0.4375 1.1875 -1.203125q0.4375 -0.78125 0.6875 -2.21875zm9.922607 1.375l1.65625 0.171875q-0.625 1.8125 -1.765625 2.703125q-1.140625 0.875 -2.6093903 0.875q-1.578125 0 -2.5625 -1.015625q-0.96875 -1.03125 -0.96875 -2.859375q0 -1.578125 0.625 -3.109375q0.640625 -1.53125 1.796875 -2.328125q1.171875 -0.796875 2.6875153 -0.796875q1.546875 0 2.453125 0.875q0.921875 0.875 0.921875 2.328125l-1.625 0.109375q-0.015625 -0.921875 -0.546875 -1.4375q-0.515625 -0.515625 -1.359375 -0.515625q-1.0000153 0 -1.7343903 0.625q-0.71875 0.625 -1.140625 1.90625q-0.40625 1.28125 -0.40625 2.46875q0 1.234375 0.546875 1.859375q0.546875 0.609375 1.34375 0.609375q0.796875 0 1.5312653 -0.609375q0.734375 -0.609375 1.15625 -1.859375zm2.671875 3.53125l2.796875 -13.359375l1.640625 0l-1.734375 8.28125l4.8125 -4.59375l2.171875 0l-4.125 3.609375l2.5 6.0625l-1.8125 0l-1.921875 -4.96875l-2.015625 1.734375l-0.671875 3.234375l-1.640625 0z" fill-rule="nonzero"/><path fill="#000000" fill-opacity="0.0" d="m157.46588 278.2874l176.25195 0l0 38.04724l-176.25195 0z" fill-rule="evenodd"/><path stroke="#000000" stroke-width="3.0" stroke-linejoin="round" stroke-linecap="butt" d="m157.46588 278.2874l176.25195 0l0 38.04724l-176.25195 0z" fill-rule="evenodd"/><path fill="#000000" d="m168.74713 294.7179l-1.625 0l0 8.453125l1.71875 0l0 -6.5q0.046875 -0.109375 0.09375 -0.203125q0.0625 -0.09375 0.140625 -0.171875q0.109375 -0.09375 0.25 -0.140625q0.140625 -0.0625 0.328125 -0.0625q0.171875 0 0.3125 0.046875q0.140625 0.046875 0.234375 0.15625q0.109375 0.09375 0.15625 0.28125q0.046875 0.171875 0.046875 0.421875l0 6.171875l1.6875 0l0 -6.28125q0 -0.078125 0 -0.109375q0 -0.046875 0 -0.078125q0.03125 -0.140625 0.09375 -0.234375q0.0625 -0.109375 0.15625 -0.1875q0.109375 -0.09375 0.234375 -0.140625q0.140625 -0.046875 0.3125 -0.046875q0.171875 0 0.3125 0.046875q0.15625 0.046875 0.25 0.15625q0.109375 0.109375 0.15625 0.28125q0.0625 0.171875 0.0625 0.421875l0 6.171875l1.71875 0l0 -6.15625q0 -0.65625 -0.140625 -1.125q-0.140625 -0.484375 -0.390625 -0.78125q-0.25 -0.28125 -0.59375 -0.40625q-0.328125 -0.140625 -0.734375 -0.140625q-0.3125 0 -0.578125 0.078125q-0.265625 0.078125 -0.46875 0.21875q-0.171875 0.109375 -0.3125 0.265625q-0.140625 0.15625 -0.25 0.328125q-0.078125 -0.1875 -0.1875 -0.34375q-0.109375 -0.15625 -0.25 -0.265625q-0.171875 -0.140625 -0.421875 -0.203125q-0.25 -0.078125 -0.5625 -0.078125q-0.609375 0 -1.03125 0.296875q-0.421875 0.28125 -0.671875 0.78125l-0.046875 -0.921875zm15.6484375 9.9375l0 -1.484375l-7.140625 0l0 1.484375l7.140625 0zm5.2578125 -1.484375l1.640625 0l3.3125 -8.453125l-1.9375 0l-2.0625 6.125l-0.125 0.5625l-0.125 -0.5625l-2.09375 -6.125l-1.9375 0l3.328125 8.453125zm12.2265625 0l1.90625 0l0 -0.140625q-0.15625 -0.328125 -0.234375 -0.78125q-0.078125 -0.453125 -0.078125 -1.03125l0 -3.75q0 -0.71875 -0.265625 -1.265625q-0.265625 -0.5625 -0.734375 -0.921875q-0.46875 -0.359375 -1.125 -0.53125q-0.640625 -0.1875 -1.375 -0.1875q-0.828125 0 -1.484375 0.21875q-0.640625 0.203125 -1.078125 0.578125q-0.453125 0.359375 -0.6875 0.828125q-0.234375 0.46875 -0.234375 0.96875l1.875 0q0 -0.234375 0.078125 -0.453125q0.09375 -0.21875 0.28125 -0.359375q0.1875 -0.171875 0.46875 -0.265625q0.296875 -0.09375 0.671875 -0.09375q0.421875 0 0.75 0.109375q0.328125 0.109375 0.546875 0.296875q0.21875 0.203125 0.328125 0.46875q0.109375 0.265625 0.109375 0.59375l0 0.5625l-1.359375 0q-0.90625 0 -1.640625 0.171875q-0.71875 0.171875 -1.203125 0.5q-0.53125 0.359375 -0.8125 0.890625q-0.28125 0.53125 -0.28125 1.234375q0 0.53125 0.21875 1.0q0.21875 0.46875 0.609375 0.796875q0.375 0.328125 0.921875 0.53125q0.546875 0.1875 1.203125 0.1875q0.40625 0 0.75 -0.078125q0.359375 -0.078125 0.65625 -0.21875q0.3125 -0.140625 0.546875 -0.3125q0.25 -0.1875 0.453125 -0.390625q0.03125 0.234375 0.078125 0.46875q0.0625 0.21875 0.140625 0.375zm-2.265625 -1.34375q-0.359375 0 -0.625 -0.09375q-0.265625 -0.09375 -0.453125 -0.25q-0.171875 -0.15625 -0.265625 -0.375q-0.09375 -0.21875 -0.09375 -0.484375q0 -0.3125 0.109375 -0.5625q0.109375 -0.25 0.34375 -0.421875q0.265625 -0.21875 0.703125 -0.328125q0.453125 -0.109375 1.0625 -0.109375l1.203125 0l0 1.5625q-0.09375 0.203125 -0.28125 0.390625q-0.1875 0.1875 -0.453125 0.328125q-0.25 0.15625 -0.578125 0.25q-0.3125 0.09375 -0.671875 0.09375zm6.8359375 -10.65625l0 1.546875l2.671875 0l0 8.90625l-2.671875 0l0 1.546875l7.109375 0l0 -1.546875l-2.5625 0l0 -10.453125l-4.546875 0zm14.7734375 12.0l1.703125 0l0 -8.453125l-1.875 0l0 5.984375q-0.109375 0.234375 -0.265625 0.421875q-0.15625 0.1875 -0.359375 0.328125q-0.25 0.15625 -0.578125 0.25q-0.3125 0.09375 -0.71875 0.09375q-0.390625 0 -0.6875 -0.09375q-0.28125 -0.109375 -0.46875 -0.359375q-0.1875 -0.234375 -0.28125 -0.625q-0.078125 -0.390625 -0.078125 -0.984375l0 -5.015625l-1.859375 0l0 5.0q0 0.953125 0.203125 1.640625q0.21875 0.6875 0.59375 1.125q0.390625 0.4375 0.9375 0.65625q0.546875 0.203125 1.203125 0.203125q0.765625 0 1.375 -0.359375q0.625 -0.359375 1.046875 -1.0l0.109375 1.1875zm8.0078125 0.15625q1.234375 0 2.109375 -0.484375q0.875 -0.484375 1.296875 -1.09375l-1.0 -0.96875q-0.390625 0.5 -1.0 0.765625q-0.59375 0.265625 -1.296875 0.265625q-0.5 0 -0.9375 -0.171875q-0.421875 -0.171875 -0.734375 -0.484375q-0.3125 -0.296875 -0.5 -0.671875q-0.171875 -0.375 -0.25 -0.921875l0 -0.046875l5.859375 0l0 -0.796875q0 -0.90625 -0.25 -1.671875q-0.234375 -0.765625 -0.71875 -1.328125q-0.46875 -0.546875 -1.171875 -0.84375q-0.703125 -0.3125 -1.625 -0.3125q-0.8125 0 -1.546875 0.3125q-0.71875 0.296875 -1.265625 0.875q-0.546875 0.5625 -0.859375 1.375q-0.3125 0.796875 -0.3125 1.796875l0 0.3125q0 0.875 0.296875 1.625q0.3125 0.734375 0.859375 1.28125q0.5625 0.5625 1.328125 0.875q0.78125 0.3125 1.71875 0.3125zm-0.21875 -7.25q0.46875 0 0.8125 0.15625q0.359375 0.15625 0.59375 0.421875q0.25 0.28125 0.375 0.640625q0.140625 0.359375 0.140625 0.734375l0 0.125l-3.984375 0q0.09375 -0.484375 0.265625 -0.859375q0.1875 -0.390625 0.453125 -0.671875q0.265625 -0.265625 0.59375 -0.40625q0.34375 -0.140625 0.75 -0.140625zm12.9921875 8.578125l0 -1.484375l-7.140625 0l0 1.484375l7.140625 0zm7.5390625 -1.484375l0 -11.375l-0.109375 0l-4.6875 1.734375l0 1.640625l2.921875 -1.0625l0 9.0625l1.875 0z" fill-rule="nonzero"/><path fill="#000000" d="m257.14557 302.23352q0 0.453125 0.28125 0.78125q0.296875 0.3125 0.859375 0.3125q0.546875 0 0.84375 -0.3125q0.296875 -0.328125 0.296875 -0.78125q0 -0.46875 -0.296875 -0.796875q-0.28125 -0.328125 -0.84375 -0.328125q-0.578125 0 -0.859375 0.328125q-0.28125 0.328125 -0.28125 0.796875zm0 -6.84375q0 0.453125 0.28125 0.78125q0.296875 0.3125 0.859375 0.3125q0.546875 0 0.84375 -0.3125q0.296875 -0.328125 0.296875 -0.78125q0 -0.46875 -0.296875 -0.796875q-0.28125 -0.328125 -0.84375 -0.328125q-0.578125 0 -0.859375 0.328125q-0.28125 0.328125 -0.28125 0.796875zm30.585938 7.78125l0 -11.375l-0.109375 0l-4.3125 1.65625l0 1.3125l2.984375 -1.125l0 9.53125l1.4375 0zm12.0546875 -4.359375l0 -2.65625q0 -1.09375 -0.25 -1.921875q-0.25 -0.84375 -0.71875 -1.421875q-0.46875 -0.578125 -1.15625 -0.875q-0.6875 -0.3125 -1.5625 -0.3125q-0.859375 0 -1.546875 0.3125q-0.6875 0.296875 -1.15625 0.875q-0.46875 0.578125 -0.71875 1.421875q-0.25 0.828125 -0.25 1.921875l0 2.65625q0 1.09375 0.25 1.9375q0.25 0.828125 0.71875 1.40625q0.484375 0.578125 1.171875 0.875q0.6875 0.296875 1.546875 0.296875q0.875 0 1.546875 -0.296875q0.6875 -0.296875 1.15625 -0.875q0.46875 -0.578125 0.71875 -1.40625q0.25 -0.84375 0.25 -1.9375zm-5.90625 -0.28125q0 -0.203125 0 -0.390625q0 -0.203125 0 -0.40625l0 -1.90625q0 -0.796875 0.15625 -1.390625q0.15625 -0.609375 0.484375 -1.0q0.28125 -0.296875 0.671875 -0.453125q0.390625 -0.171875 0.90625 -0.171875q0.515625 0 0.890625 0.15625q0.390625 0.140625 0.65625 0.4375q0.28125 0.296875 0.4375 0.734375q0.15625 0.421875 0.21875 0.984375l-4.421875 3.40625zm4.453125 0.59375q0 0.828125 -0.171875 1.453125q-0.15625 0.609375 -0.515625 1.0q-0.265625 0.28125 -0.65625 0.4375q-0.375 0.140625 -0.875 0.140625q-0.46875 0 -0.84375 -0.140625q-0.375 -0.140625 -0.640625 -0.40625q-0.28125 -0.28125 -0.46875 -0.703125q-0.171875 -0.4375 -0.25 -1.015625l4.421875 -3.375q0 0.21875 0 0.546875q0 0.328125 0 0.453125l0 1.609375z" fill-rule="nonzero"/><path fill="#000000" fill-opacity="0.0" d="m157.46588 316.33466l176.25195 0l0 40.566925l-176.25195 0z" fill-rule="evenodd"/><path stroke="#000000" stroke-width="3.0" stroke-linejoin="round" stroke-linecap="butt" d="m157.46588 316.33466l176.25195 0l0 40.566925l-176.25195 0z" fill-rule="evenodd"/><path fill="#000000" d="m168.74713 334.025l-1.625 0l0 8.453125l1.71875 0l0 -6.5q0.046875 -0.109375 0.09375 -0.203125q0.0625 -0.09375 0.140625 -0.171875q0.109375 -0.09375 0.25 -0.140625q0.140625 -0.0625 0.328125 -0.0625q0.171875 0 0.3125 0.046875q0.140625 0.046875 0.234375 0.15625q0.109375 0.09375 0.15625 0.28125q0.046875 0.171875 0.046875 0.421875l0 6.171875l1.6875 0l0 -6.28125q0 -0.078125 0 -0.109375q0 -0.046875 0 -0.078125q0.03125 -0.140625 0.09375 -0.234375q0.0625 -0.109375 0.15625 -0.1875q0.109375 -0.09375 0.234375 -0.140625q0.140625 -0.046875 0.3125 -0.046875q0.171875 0 0.3125 0.046875q0.15625 0.046875 0.25 0.15625q0.109375 0.109375 0.15625 0.28125q0.0625 0.171875 0.0625 0.421875l0 6.171875l1.71875 0l0 -6.15625q0 -0.65625 -0.140625 -1.125q-0.140625 -0.484375 -0.390625 -0.78125q-0.25 -0.28125 -0.59375 -0.40625q-0.328125 -0.140625 -0.734375 -0.140625q-0.3125 0 -0.578125 0.078125q-0.265625 0.078125 -0.46875 0.21875q-0.171875 0.109375 -0.3125 0.265625q-0.140625 0.15625 -0.25 0.328125q-0.078125 -0.1875 -0.1875 -0.34375q-0.109375 -0.15625 -0.25 -0.265625q-0.171875 -0.140625 -0.421875 -0.203125q-0.25 -0.078125 -0.5625 -0.078125q-0.609375 0 -1.03125 0.296875q-0.421875 0.28125 -0.671875 0.78125l-0.046875 -0.921875zm15.6484375 9.9375l0 -1.484375l-7.140625 0l0 1.484375l7.140625 0zm5.2578125 -1.484375l1.640625 0l3.3125 -8.453125l-1.9375 0l-2.0625 6.125l-0.125 0.5625l-0.125 -0.5625l-2.09375 -6.125l-1.9375 0l3.328125 8.453125zm12.2265625 0l1.90625 0l0 -0.140625q-0.15625 -0.328125 -0.234375 -0.78125q-0.078125 -0.453125 -0.078125 -1.03125l0 -3.75q0 -0.71875 -0.265625 -1.265625q-0.265625 -0.5625 -0.734375 -0.921875q-0.46875 -0.359375 -1.125 -0.53125q-0.640625 -0.1875 -1.375 -0.1875q-0.828125 0 -1.484375 0.21875q-0.640625 0.203125 -1.078125 0.578125q-0.453125 0.359375 -0.6875 0.828125q-0.234375 0.46875 -0.234375 0.96875l1.875 0q0 -0.234375 0.078125 -0.453125q0.09375 -0.21875 0.28125 -0.359375q0.1875 -0.171875 0.46875 -0.265625q0.296875 -0.09375 0.671875 -0.09375q0.421875 0 0.75 0.109375q0.328125 0.109375 0.546875 0.296875q0.21875 0.203125 0.328125 0.46875q0.109375 0.265625 0.109375 0.59375l0 0.5625l-1.359375 0q-0.90625 0 -1.640625 0.171875q-0.71875 0.171875 -1.203125 0.5q-0.53125 0.359375 -0.8125 0.890625q-0.28125 0.53125 -0.28125 1.234375q0 0.53125 0.21875 1.0q0.21875 0.46875 0.609375 0.796875q0.375 0.328125 0.921875 0.53125q0.546875 0.1875 1.203125 0.1875q0.40625 0 0.75 -0.078125q0.359375 -0.078125 0.65625 -0.21875q0.3125 -0.140625 0.546875 -0.3125q0.25 -0.1875 0.453125 -0.390625q0.03125 0.234375 0.078125 0.46875q0.0625 0.21875 0.140625 0.375zm-2.265625 -1.34375q-0.359375 0 -0.625 -0.09375q-0.265625 -0.09375 -0.453125 -0.25q-0.171875 -0.15625 -0.265625 -0.375q-0.09375 -0.21875 -0.09375 -0.484375q0 -0.3125 0.109375 -0.5625q0.109375 -0.25 0.34375 -0.421875q0.265625 -0.21875 0.703125 -0.328125q0.453125 -0.109375 1.0625 -0.109375l1.203125 0l0 1.5625q-0.09375 0.203125 -0.28125 0.390625q-0.1875 0.1875 -0.453125 0.328125q-0.25 0.15625 -0.578125 0.25q-0.3125 0.09375 -0.671875 0.09375zm6.8359375 -10.65625l0 1.546875l2.671875 0l0 8.90625l-2.671875 0l0 1.546875l7.109375 0l0 -1.546875l-2.5625 0l0 -10.453125l-4.546875 0zm14.7734375 12.0l1.703125 0l0 -8.453125l-1.875 0l0 5.984375q-0.109375 0.234375 -0.265625 0.421875q-0.15625 0.1875 -0.359375 0.328125q-0.25 0.15625 -0.578125 0.25q-0.3125 0.09375 -0.71875 0.09375q-0.390625 0 -0.6875 -0.09375q-0.28125 -0.109375 -0.46875 -0.359375q-0.1875 -0.234375 -0.28125 -0.625q-0.078125 -0.390625 -0.078125 -0.984375l0 -5.015625l-1.859375 0l0 5.0q0 0.953125 0.203125 1.640625q0.21875 0.6875 0.59375 1.125q0.390625 0.4375 0.9375 0.65625q0.546875 0.203125 1.203125 0.203125q0.765625 0 1.375 -0.359375q0.625 -0.359375 1.046875 -1.0l0.109375 1.1875zm8.0078125 0.15625q1.234375 0 2.109375 -0.484375q0.875 -0.484375 1.296875 -1.09375l-1.0 -0.96875q-0.390625 0.5 -1.0 0.765625q-0.59375 0.265625 -1.296875 0.265625q-0.5 0 -0.9375 -0.171875q-0.421875 -0.171875 -0.734375 -0.484375q-0.3125 -0.296875 -0.5 -0.671875q-0.171875 -0.375 -0.25 -0.921875l0 -0.046875l5.859375 0l0 -0.796875q0 -0.90625 -0.25 -1.671875q-0.234375 -0.765625 -0.71875 -1.328125q-0.46875 -0.546875 -1.171875 -0.84375q-0.703125 -0.3125 -1.625 -0.3125q-0.8125 0 -1.546875 0.3125q-0.71875 0.296875 -1.265625 0.875q-0.546875 0.5625 -0.859375 1.375q-0.3125 0.796875 -0.3125 1.796875l0 0.3125q0 0.875 0.296875 1.625q0.3125 0.734375 0.859375 1.28125q0.5625 0.5625 1.328125 0.875q0.78125 0.3125 1.71875 0.3125zm-0.21875 -7.25q0.46875 0 0.8125 0.15625q0.359375 0.15625 0.59375 0.421875q0.25 0.28125 0.375 0.640625q0.140625 0.359375 0.140625 0.734375l0 0.125l-3.984375 0q0.09375 -0.484375 0.265625 -0.859375q0.1875 -0.390625 0.453125 -0.671875q0.265625 -0.265625 0.59375 -0.40625q0.34375 -0.140625 0.75 -0.140625zm12.9921875 8.578125l0 -1.484375l-7.140625 0l0 1.484375l7.140625 0zm9.7265625 -1.484375l0 -1.515625l-5.296875 0l2.53125 -2.703125q0.5 -0.53125 0.921875 -1.03125q0.4375 -0.5 0.75 -0.984375q0.296875 -0.5 0.46875 -1.0q0.1875 -0.5 0.1875 -1.046875q0 -0.71875 -0.234375 -1.3125q-0.234375 -0.59375 -0.6875 -1.03125q-0.453125 -0.421875 -1.109375 -0.65625q-0.65625 -0.25 -1.5 -0.25q-0.890625 0 -1.609375 0.296875q-0.71875 0.28125 -1.21875 0.765625q-0.515625 0.5 -0.796875 1.15625q-0.265625 0.65625 -0.265625 1.40625l1.875 0q0 -0.5 0.125 -0.875q0.125 -0.390625 0.375 -0.671875q0.25 -0.25 0.609375 -0.390625q0.375 -0.140625 0.875 -0.140625q0.390625 0 0.703125 0.140625q0.3125 0.125 0.546875 0.359375q0.21875 0.234375 0.328125 0.5625q0.125 0.328125 0.125 0.71875q0 0.296875 -0.078125 0.59375q-0.078125 0.296875 -0.265625 0.625q-0.203125 0.34375 -0.515625 0.75q-0.3125 0.390625 -0.765625 0.90625l-3.703125 4.03125l0 1.296875l7.625 0z" fill-rule="nonzero"/><path fill="#000000" d="m257.14557 341.54062q0 0.453125 0.28125 0.78125q0.296875 0.3125 0.859375 0.3125q0.546875 0 0.84375 -0.3125q0.296875 -0.328125 0.296875 -0.78125q0 -0.46875 -0.296875 -0.796875q-0.28125 -0.328125 -0.84375 -0.328125q-0.578125 0 -0.859375 0.328125q-0.28125 0.328125 -0.28125 0.796875zm0 -6.84375q0 0.453125 0.28125 0.78125q0.296875 0.3125 0.859375 0.3125q0.546875 0 0.84375 -0.3125q0.296875 -0.328125 0.296875 -0.78125q0 -0.46875 -0.296875 -0.796875q-0.28125 -0.328125 -0.84375 -0.328125q-0.578125 0 -0.859375 0.328125q-0.28125 0.328125 -0.28125 0.796875zm30.585938 7.78125l0 -11.375l-0.109375 0l-4.3125 1.65625l0 1.3125l2.984375 -1.125l0 9.53125l1.4375 0zm9.6015625 0l0 -11.375l-0.109375 0l-4.3125 1.65625l0 1.3125l2.984375 -1.125l0 9.53125l1.4375 0z" fill-rule="nonzero"/><path fill="#000000" fill-opacity="0.0" d="m6.7375326 304.30447l150.70866 0l0 64.62991l-150.70866 0z" fill-rule="evenodd"/><path fill="#000000" d="m34.701767 331.22446l0 -13.359375l1.78125 0l0 6.625l6.625 -6.625l2.390625 0l-5.59375 5.421875l5.84375 7.9375l-2.328125 0l-4.765625 -6.765625l-2.171875 2.140625l0 4.625l-1.78125 0zm11.709198 -4.84375q0 -2.6875 1.484375 -3.96875q1.25 -1.078125 3.046875 -1.078125q2.0 0 3.265625 1.3125q1.265625 1.296875 1.265625 3.609375q0 1.859375 -0.5625 2.9375q-0.5625 1.0625 -1.640625 1.65625q-1.0625 0.59375 -2.328125 0.59375q-2.03125 0 -3.28125 -1.296875q-1.25 -1.3125 -1.25 -3.765625zm1.6875 0q0 1.859375 0.796875 2.796875q0.8125 0.921875 2.046875 0.921875q1.21875 0 2.03125 -0.921875q0.8125 -0.9375 0.8125 -2.84375q0 -1.796875 -0.8125 -2.71875q-0.8125 -0.921875 -2.03125 -0.921875q-1.234375 0 -2.046875 0.921875q-0.796875 0.90625 -0.796875 2.765625zm9.297592 8.546875l0 -13.375l1.484375 0l0 1.25q0.53125 -0.734375 1.1875 -1.09375q0.671875 -0.375 1.625 -0.375q1.234375 0 2.171875 0.640625q0.953125 0.625 1.4375 1.796875q0.484375 1.15625 0.484375 2.546875q0 1.484375 -0.53125 2.671875q-0.53125 1.1875 -1.546875 1.828125q-1.015625 0.625 -2.140625 0.625q-0.8125 0 -1.46875 -0.34375q-0.65625 -0.34375 -1.0625 -0.875l0 4.703125l-1.640625 0zm1.484375 -8.484375q0 1.859375 0.75 2.765625q0.765625 0.890625 1.828125 0.890625q1.09375 0 1.875 -0.921875q0.78125 -0.9375 0.78125 -2.875q0 -1.84375 -0.765625 -2.765625q-0.75 -0.921875 -1.8125 -0.921875q-1.046875 0 -1.859375 0.984375q-0.796875 0.96875 -0.796875 2.84375zm8.891342 -6.6875l0 -1.890625l1.640625 0l0 1.890625l-1.640625 0zm0 11.46875l0 -9.671875l1.640625 0l0 9.671875l-1.640625 0zm10.769821 -3.109375l1.6875 0.203125q-0.40625 1.484375 -1.484375 2.3125q-1.078125 0.8125 -2.765625 0.8125q-2.125 0 -3.375 -1.296875q-1.234375 -1.3125 -1.234375 -3.671875q0 -2.453125 1.25 -3.796875q1.265625 -1.34375 3.265625 -1.34375q1.9375 0 3.15625 1.328125q1.234375 1.3125 1.234375 3.703125q0 0.15625 0 0.4375l-7.21875 0q0.09375 1.59375 0.90625 2.453125q0.8125 0.84375 2.015625 0.84375q0.90625 0 1.546875 -0.46875q0.640625 -0.484375 1.015625 -1.515625zm-5.390625 -2.65625l5.40625 0q-0.109375 -1.21875 -0.625 -1.828125q-0.78125 -0.953125 -2.03125 -0.953125q-1.125 0 -1.90625 0.765625q-0.765625 0.75 -0.84375 2.015625zm20.949646 2.65625l1.6875 0.203125q-0.40625 1.484375 -1.484375 2.3125q-1.078125 0.8125 -2.765625 0.8125q-2.125 0 -3.375 -1.296875q-1.234375 -1.3125 -1.234375 -3.671875q0 -2.453125 1.25 -3.796875q1.265625 -1.34375 3.265625 -1.34375q1.9375 0 3.15625 1.328125q1.234375 1.3125 1.234375 3.703125q0 0.15625 0 0.4375l-7.21875 0q0.09375 1.59375 0.90625 2.453125q0.8125 0.84375 2.015625 0.84375q0.90625 0 1.546875 -0.46875q0.640625 -0.484375 1.015625 -1.515625zm-5.390625 -2.65625l5.40625 0q-0.109375 -1.21875 -0.625 -1.828125q-0.78125 -0.953125 -2.03125 -0.953125q-1.125 0 -1.90625 0.765625q-0.765625 0.75 -0.84375 2.015625zm9.141342 -5.703125l0 -1.890625l1.640625 0l0 1.890625l-1.640625 0zm0 11.46875l0 -9.671875l1.640625 0l0 9.671875l-1.640625 0zm4.144821 0l0 -9.671875l1.46875 0l0 1.375q1.0625 -1.59375 3.078125 -1.59375q0.875 0 1.609375 0.3125q0.734375 0.3125 1.09375 0.828125q0.375 0.5 0.515625 1.203125q0.09375 0.453125 0.09375 1.59375l0 5.953125l-1.640625 0l0 -5.890625q0 -1.0 -0.203125 -1.484375q-0.1875 -0.5 -0.671875 -0.796875q-0.484375 -0.296875 -1.140625 -0.296875q-1.046875 0 -1.8125 0.671875q-0.75 0.65625 -0.75 2.515625l0 5.28125l-1.640625 0zm17.000717 -3.109375l1.6875 0.203125q-0.40625 1.484375 -1.484375 2.3125q-1.078125 0.8125 -2.765625 0.8125q-2.125 0 -3.375 -1.296875q-1.234375 -1.3125 -1.234375 -3.671875q0 -2.453125 1.25 -3.796875q1.265625 -1.34375 3.265625 -1.34375q1.9375 0 3.15625 1.328125q1.234375 1.3125 1.234375 3.703125q0 0.15625 0 0.4375l-7.21875 0q0.09375 1.59375 0.90625 2.453125q0.8125 0.84375 2.015625 0.84375q0.90625 0 1.546875 -0.46875q0.640625 -0.484375 1.015625 -1.515625zm-5.390625 -2.65625l5.40625 0q-0.109375 -1.21875 -0.625 -1.828125q-0.78125 -0.953125 -2.03125 -0.953125q-1.125 0 -1.90625 0.765625q-0.765625 0.75 -0.84375 2.015625zm8.485092 2.875l1.625 -0.25q0.125 0.96875 0.75 1.5q0.625 0.515625 1.75 0.515625q1.125 0 1.671875 -0.453125q0.546875 -0.46875 0.546875 -1.09375q0 -0.546875 -0.484375 -0.875q-0.328125 -0.21875 -1.671875 -0.546875q-1.8125 -0.46875 -2.515625 -0.796875q-0.6875 -0.328125 -1.046875 -0.90625q-0.359375 -0.59375 -0.359375 -1.3125q0 -0.640625 0.296875 -1.1875q0.296875 -0.5625 0.8125 -0.921875q0.375 -0.28125 1.03125 -0.46875q0.671875 -0.203125 1.421875 -0.203125q1.140625 0 2.0 0.328125q0.859375 0.328125 1.265625 0.890625q0.421875 0.5625 0.578125 1.5l-1.609375 0.21875q-0.109375 -0.75 -0.640625 -1.171875q-0.515625 -0.421875 -1.46875 -0.421875q-1.140625 0 -1.625 0.375q-0.46875 0.375 -0.46875 0.875q0 0.3125 0.1875 0.578125q0.203125 0.265625 0.640625 0.4375q0.234375 0.09375 1.4375 0.421875q1.75 0.453125 2.4375 0.75q0.6875 0.296875 1.078125 0.859375q0.390625 0.5625 0.390625 1.40625q0 0.828125 -0.484375 1.546875q-0.46875 0.71875 -1.375 1.125q-0.90625 0.390625 -2.046875 0.390625q-1.875 0 -2.875 -0.78125q-0.984375 -0.78125 -1.25 -2.328125z" fill-rule="nonzero"/><path fill="#000000" d="m26.220764 353.62445l3.359375 0q0.90625 0 1.703125 -0.21875q0.796875 -0.21875 1.453125 -0.625q0.59375 -0.375 1.0625 -0.90625q0.484375 -0.53125 0.8125 -1.171875q0.359375 -0.671875 0.53125 -1.46875q0.1875 -0.8125 0.1875 -1.71875l0 -1.03125q0 -0.9375 -0.203125 -1.765625q-0.1875 -0.828125 -0.5625 -1.53125q-0.34375 -0.65625 -0.875 -1.1875q-0.515625 -0.546875 -1.1875 -0.90625q-0.625 -0.34375 -1.390625 -0.53125q-0.75 -0.203125 -1.609375 -0.203125l-3.28125 0l0 13.265625zm2.21875 -11.484375l1.0625 0q0.53125 0.015625 0.984375 0.140625q0.453125 0.109375 0.828125 0.3125q0.5 0.28125 0.859375 0.734375q0.359375 0.453125 0.578125 1.0q0.1875 0.453125 0.265625 1.0q0.09375 0.53125 0.09375 1.140625l0 1.046875q0 0.609375 -0.09375 1.15625q-0.078125 0.53125 -0.265625 0.984375q-0.1875 0.546875 -0.515625 0.96875q-0.3125 0.40625 -0.703125 0.671875q-0.390625 0.265625 -0.890625 0.40625q-0.484375 0.140625 -1.0625 0.140625l-1.140625 0l0 -9.703125zm15.429947 11.484375l2.21875 0l0 -0.15625q-0.171875 -0.375 -0.265625 -0.90625q-0.09375 -0.546875 -0.09375 -1.203125l0 -4.390625q0 -0.828125 -0.3125 -1.46875q-0.3125 -0.640625 -0.859375 -1.0625q-0.546875 -0.421875 -1.296875 -0.625q-0.75 -0.21875 -1.625 -0.21875q-0.953125 0 -1.71875 0.25q-0.75 0.25 -1.25 0.671875q-0.53125 0.421875 -0.8125 0.96875q-0.265625 0.546875 -0.28125 1.140625l2.1875 0q0 -0.28125 0.109375 -0.53125q0.109375 -0.25 0.328125 -0.4375q0.21875 -0.1875 0.546875 -0.296875q0.328125 -0.109375 0.78125 -0.109375q0.484375 0 0.859375 0.125q0.390625 0.125 0.65625 0.359375q0.234375 0.21875 0.359375 0.53125q0.140625 0.3125 0.140625 0.6875l0 0.671875l-1.578125 0q-1.0625 0 -1.90625 0.203125q-0.84375 0.1875 -1.421875 0.578125q-0.625 0.40625 -0.953125 1.03125q-0.3125 0.625 -0.3125 1.4375q0 0.625 0.25 1.171875q0.25 0.546875 0.703125 0.921875q0.453125 0.390625 1.078125 0.625q0.640625 0.21875 1.40625 0.21875q0.46875 0 0.875 -0.09375q0.421875 -0.09375 0.765625 -0.25q0.359375 -0.15625 0.640625 -0.375q0.296875 -0.21875 0.515625 -0.453125q0.046875 0.28125 0.109375 0.546875q0.0625 0.25 0.15625 0.4375zm-2.640625 -1.5625q-0.421875 0 -0.734375 -0.109375q-0.3125 -0.109375 -0.515625 -0.28125q-0.21875 -0.1875 -0.328125 -0.4375q-0.109375 -0.265625 -0.109375 -0.5625q0 -0.375 0.125 -0.65625q0.140625 -0.296875 0.421875 -0.515625q0.3125 -0.234375 0.828125 -0.359375q0.515625 -0.140625 1.21875 -0.140625l1.40625 0l0 1.8125q-0.109375 0.25 -0.328125 0.46875q-0.21875 0.21875 -0.53125 0.390625q-0.296875 0.171875 -0.671875 0.28125q-0.359375 0.109375 -0.78125 0.109375zm11.914322 -10.703125l-2.1875 0l0 2.40625l-2.375 0l0 1.640625l2.375 0l0 4.84375q0 0.9375 0.25 1.625q0.25 0.671875 0.703125 1.09375q0.4375 0.4375 1.0625 0.640625q0.625 0.203125 1.375 0.203125q0.40625 0 0.8125 -0.046875q0.421875 -0.03125 0.8125 -0.109375q0.375 -0.0625 0.703125 -0.171875q0.34375 -0.109375 0.578125 -0.25l-0.234375 -1.5q-0.171875 0.03125 -0.40625 0.078125q-0.234375 0.046875 -0.515625 0.09375q-0.28125 0.046875 -0.578125 0.078125q-0.296875 0.015625 -0.59375 0.015625q-0.390625 0 -0.71875 -0.078125q-0.328125 -0.09375 -0.5625 -0.3125q-0.234375 -0.21875 -0.375 -0.578125q-0.125 -0.375 -0.125 -0.921875l0 -4.703125l3.703125 0l0 -1.640625l-3.703125 0l0 -2.40625zm13.117447 12.265625l2.21875 0l0 -0.15625q-0.171875 -0.375 -0.265625 -0.90625q-0.09375 -0.546875 -0.09375 -1.203125l0 -4.390625q0 -0.828125 -0.3125 -1.46875q-0.3125 -0.640625 -0.859375 -1.0625q-0.546875 -0.421875 -1.296875 -0.625q-0.75 -0.21875 -1.625 -0.21875q-0.953125 0 -1.71875 0.25q-0.75 0.25 -1.25 0.671875q-0.53125 0.421875 -0.8125 0.96875q-0.265625 0.546875 -0.28125 1.140625l2.1875 0q0 -0.28125 0.109375 -0.53125q0.109375 -0.25 0.328125 -0.4375q0.21875 -0.1875 0.546875 -0.296875q0.328125 -0.109375 0.78125 -0.109375q0.484375 0 0.859375 0.125q0.390625 0.125 0.65625 0.359375q0.234375 0.21875 0.359375 0.53125q0.140625 0.3125 0.140625 0.6875l0 0.671875l-1.578125 0q-1.0625 0 -1.90625 0.203125q-0.84375 0.1875 -1.421875 0.578125q-0.625 0.40625 -0.953125 1.03125q-0.3125 0.625 -0.3125 1.4375q0 0.625 0.25 1.171875q0.25 0.546875 0.703125 0.921875q0.453125 0.390625 1.078125 0.625q0.640625 0.21875 1.40625 0.21875q0.46875 0 0.875 -0.09375q0.421875 -0.09375 0.765625 -0.25q0.359375 -0.15625 0.640625 -0.375q0.296875 -0.21875 0.515625 -0.453125q0.046875 0.28125 0.109375 0.546875q0.0625 0.25 0.15625 0.4375zm-2.640625 -1.5625q-0.421875 0 -0.734375 -0.109375q-0.3125 -0.109375 -0.515625 -0.28125q-0.21875 -0.1875 -0.328125 -0.4375q-0.109375 -0.265625 -0.109375 -0.5625q0 -0.375 0.125 -0.65625q0.140625 -0.296875 0.421875 -0.515625q0.3125 -0.234375 0.828125 -0.359375q0.515625 -0.140625 1.21875 -0.140625l1.40625 0l0 1.8125q-0.109375 0.25 -0.328125 0.46875q-0.21875 0.21875 -0.53125 0.390625q-0.296875 0.171875 -0.671875 0.28125q-0.359375 0.109375 -0.78125 0.109375z" fill-rule="nonzero"/><path fill="#000000" d="m70.3468 349.60883l0 -1.640625l5.03125 0l0 1.640625l-5.03125 0zm6.525177 -2.484375q0 -3.328125 1.78125 -5.203125q1.78125 -1.890625 4.609375 -1.890625q1.84375 0 3.328125 0.890625q1.484375 0.875 2.265625 2.46875q0.78125 1.578125 0.78125 3.578125q0 2.03125 -0.828125 3.640625q-0.8125 1.59375 -2.3125 2.421875q-1.5 0.828125 -3.25 0.828125q-1.875 0 -3.359375 -0.90625q-1.484375 -0.921875 -2.25 -2.5q-0.765625 -1.578125 -0.765625 -3.328125zm1.8125 0.015625q0 2.421875 1.296875 3.8125q1.296875 1.390625 3.265625 1.390625q2.0 0 3.28125 -1.40625q1.28125 -1.40625 1.28125 -3.984375q0 -1.625 -0.546875 -2.84375q-0.546875 -1.21875 -1.609375 -1.875q-1.0625 -0.671875 -2.375 -0.671875q-1.890625 0 -3.25 1.296875q-1.34375 1.28125 -1.34375 4.28125zm14.527054 6.484375l-1.515625 0l0 -13.359375l1.640625 0l0 4.765625q1.046875 -1.296875 2.65625 -1.296875q0.890625 0 1.6875 0.359375q0.796875 0.359375 1.3125 1.015625q0.515625 0.640625 0.796875 1.5625q0.296875 0.921875 0.296875 1.96875q0 2.484375 -1.234375 3.84375q-1.21875 1.359375 -2.953125 1.359375q-1.703125 0 -2.6875 -1.4375l0 1.21875zm-0.015625 -4.90625q0 1.734375 0.484375 2.515625q0.765625 1.265625 2.09375 1.265625q1.078125 0 1.859375 -0.9375q0.78125 -0.9375 0.78125 -2.78125q0 -1.890625 -0.75 -2.796875q-0.75 -0.90625 -1.828125 -0.90625q-1.0625 0 -1.859375 0.9375q-0.78125 0.9375 -0.78125 2.703125zm8.875717 -6.546875l0 -1.90625l1.640625 0l0 1.90625l-1.640625 0zm-2.078125 15.203125l0.3125 -1.390625q0.5 0.125 0.78125 0.125q0.5 0 0.734375 -0.328125q0.25 -0.328125 0.25 -1.671875l0 -10.15625l1.640625 0l0 10.203125q0 1.78125 -0.46875 2.484375q-0.59375 0.90625 -1.96875 0.90625q-0.65625 0 -1.28125 -0.171875zm12.863571 -6.859375l1.6875 0.203125q-0.40625 1.484375 -1.484375 2.3125q-1.078125 0.8125 -2.765625 0.8125q-2.125 0 -3.375 -1.296875q-1.234375 -1.3125 -1.234375 -3.671875q0 -2.453125 1.25 -3.796875q1.265625 -1.34375 3.265625 -1.34375q1.9375 0 3.15625 1.328125q1.234375 1.3125 1.234375 3.703125q0 0.15625 0 0.4375l-7.21875 0q0.09375 1.59375 0.90625 2.453125q0.8125 0.84375 2.015625 0.84375q0.90625 0 1.546875 -0.46875q0.640625 -0.484375 1.015625 -1.515625zm-5.390625 -2.65625l5.40625 0q-0.109375 -1.21875 -0.625 -1.828125q-0.78125 -0.953125 -2.03125 -0.953125q-1.125 0 -1.90625 0.765625q-0.765625 0.75 -0.84375 2.015625zm9.141342 5.765625l0 -13.359375l1.640625 0l0 7.625l3.890625 -3.9375l2.109375 0l-3.6875 3.59375l4.0625 6.078125l-2.015625 0l-3.203125 -4.953125l-1.15625 1.125l0 3.828125l-1.640625 0zm12.90625 -1.46875l0.234375 1.453125q-0.6875 0.140625 -1.234375 0.140625q-0.890625 0 -1.390625 -0.28125q-0.484375 -0.28125 -0.6875 -0.734375q-0.203125 -0.46875 -0.203125 -1.9375l0 -5.578125l-1.203125 0l0 -1.265625l1.203125 0l0 -2.390625l1.625 -0.984375l0 3.375l1.65625 0l0 1.265625l-1.65625 0l0 5.671875q0 0.6875 0.078125 0.890625q0.09375 0.203125 0.28125 0.328125q0.203125 0.109375 0.578125 0.109375q0.265625 0 0.71875 -0.0625zm0.94892883 -1.421875l1.625 -0.25q0.125 0.96875 0.75 1.5q0.625 0.515625 1.75 0.515625q1.125 0 1.671875 -0.453125q0.546875 -0.46875 0.546875 -1.09375q0 -0.546875 -0.484375 -0.875q-0.328125 -0.21875 -1.671875 -0.546875q-1.8125 -0.46875 -2.515625 -0.796875q-0.6875 -0.328125 -1.046875 -0.90625q-0.359375 -0.59375 -0.359375 -1.3125q0 -0.640625 0.296875 -1.1875q0.296875 -0.5625 0.8125 -0.921875q0.375 -0.28125 1.03125 -0.46875q0.671875 -0.203125 1.421875 -0.203125q1.140625 0 2.0 0.328125q0.859375 0.328125 1.265625 0.890625q0.421875 0.5625 0.578125 1.5l-1.609375 0.21875q-0.109375 -0.75 -0.640625 -1.171875q-0.515625 -0.421875 -1.46875 -0.421875q-1.140625 0 -1.625 0.375q-0.46875 0.375 -0.46875 0.875q0 0.3125 0.1875 0.578125q0.203125 0.265625 0.640625 0.4375q0.234375 0.09375 1.4375 0.421875q1.75 0.453125 2.4375 0.75q0.6875 0.296875 1.078125 0.859375q0.390625 0.5625 0.390625 1.40625q0 0.828125 -0.484375 1.546875q-0.46875 0.71875 -1.375 1.125q-0.90625 0.390625 -2.046875 0.390625q-1.875 0 -2.875 -0.78125q-0.984375 -0.78125 -1.25 -2.328125z" fill-rule="nonzero"/><path fill="#000000" fill-opacity="0.0" d="m157.46588 356.90158l176.25195 0l0 40.566925l-176.25195 0z" fill-rule="evenodd"/><path stroke="#000000" stroke-width="3.0" stroke-linejoin="round" stroke-linecap="butt" d="m157.46588 356.90158l176.25195 0l0 40.566925l-176.25195 0z" fill-rule="evenodd"/><path fill="#000000" d="m168.74713 374.59192l-1.625 0l0 8.453125l1.71875 0l0 -6.5q0.046875 -0.109375 0.09375 -0.203125q0.0625 -0.09375 0.140625 -0.171875q0.109375 -0.09375 0.25 -0.140625q0.140625 -0.0625 0.328125 -0.0625q0.171875 0 0.3125 0.046875q0.140625 0.046875 0.234375 0.15625q0.109375 0.09375 0.15625 0.28125q0.046875 0.171875 0.046875 0.421875l0 6.171875l1.6875 0l0 -6.28125q0 -0.078125 0 -0.109375q0 -0.046875 0 -0.078125q0.03125 -0.140625 0.09375 -0.234375q0.0625 -0.109375 0.15625 -0.1875q0.109375 -0.09375 0.234375 -0.140625q0.140625 -0.046875 0.3125 -0.046875q0.171875 0 0.3125 0.046875q0.15625 0.046875 0.25 0.15625q0.109375 0.109375 0.15625 0.28125q0.0625 0.171875 0.0625 0.421875l0 6.171875l1.71875 0l0 -6.15625q0 -0.65625 -0.140625 -1.125q-0.140625 -0.484375 -0.390625 -0.78125q-0.25 -0.28125 -0.59375 -0.40625q-0.328125 -0.140625 -0.734375 -0.140625q-0.3125 0 -0.578125 0.078125q-0.265625 0.078125 -0.46875 0.21875q-0.171875 0.109375 -0.3125 0.265625q-0.140625 0.15625 -0.25 0.328125q-0.078125 -0.1875 -0.1875 -0.34375q-0.109375 -0.15625 -0.25 -0.265625q-0.171875 -0.140625 -0.421875 -0.203125q-0.25 -0.078125 -0.5625 -0.078125q-0.609375 0 -1.03125 0.296875q-0.421875 0.28125 -0.671875 0.78125l-0.046875 -0.921875zm15.6484375 9.9375l0 -1.484375l-7.140625 0l0 1.484375l7.140625 0zm5.2578125 -1.484375l1.640625 0l3.3125 -8.453125l-1.9375 0l-2.0625 6.125l-0.125 0.5625l-0.125 -0.5625l-2.09375 -6.125l-1.9375 0l3.328125 8.453125zm12.2265625 0l1.90625 0l0 -0.140625q-0.15625 -0.328125 -0.234375 -0.78125q-0.078125 -0.453125 -0.078125 -1.03125l0 -3.75q0 -0.71875 -0.265625 -1.265625q-0.265625 -0.5625 -0.734375 -0.921875q-0.46875 -0.359375 -1.125 -0.53125q-0.640625 -0.1875 -1.375 -0.1875q-0.828125 0 -1.484375 0.21875q-0.640625 0.203125 -1.078125 0.578125q-0.453125 0.359375 -0.6875 0.828125q-0.234375 0.46875 -0.234375 0.96875l1.875 0q0 -0.234375 0.078125 -0.453125q0.09375 -0.21875 0.28125 -0.359375q0.1875 -0.171875 0.46875 -0.265625q0.296875 -0.09375 0.671875 -0.09375q0.421875 0 0.75 0.109375q0.328125 0.109375 0.546875 0.296875q0.21875 0.203125 0.328125 0.46875q0.109375 0.265625 0.109375 0.59375l0 0.5625l-1.359375 0q-0.90625 0 -1.640625 0.171875q-0.71875 0.171875 -1.203125 0.5q-0.53125 0.359375 -0.8125 0.890625q-0.28125 0.53125 -0.28125 1.234375q0 0.53125 0.21875 1.0q0.21875 0.46875 0.609375 0.796875q0.375 0.328125 0.921875 0.53125q0.546875 0.1875 1.203125 0.1875q0.40625 0 0.75 -0.078125q0.359375 -0.078125 0.65625 -0.21875q0.3125 -0.140625 0.546875 -0.3125q0.25 -0.1875 0.453125 -0.390625q0.03125 0.234375 0.078125 0.46875q0.0625 0.21875 0.140625 0.375zm-2.265625 -1.34375q-0.359375 0 -0.625 -0.09375q-0.265625 -0.09375 -0.453125 -0.25q-0.171875 -0.15625 -0.265625 -0.375q-0.09375 -0.21875 -0.09375 -0.484375q0 -0.3125 0.109375 -0.5625q0.109375 -0.25 0.34375 -0.421875q0.265625 -0.21875 0.703125 -0.328125q0.453125 -0.109375 1.0625 -0.109375l1.203125 0l0 1.5625q-0.09375 0.203125 -0.28125 0.390625q-0.1875 0.1875 -0.453125 0.328125q-0.25 0.15625 -0.578125 0.25q-0.3125 0.09375 -0.671875 0.09375zm6.8359375 -10.65625l0 1.546875l2.671875 0l0 8.90625l-2.671875 0l0 1.546875l7.109375 0l0 -1.546875l-2.5625 0l0 -10.453125l-4.546875 0zm14.7734375 12.0l1.703125 0l0 -8.453125l-1.875 0l0 5.984375q-0.109375 0.234375 -0.265625 0.421875q-0.15625 0.1875 -0.359375 0.328125q-0.25 0.15625 -0.578125 0.25q-0.3125 0.09375 -0.71875 0.09375q-0.390625 0 -0.6875 -0.09375q-0.28125 -0.109375 -0.46875 -0.359375q-0.1875 -0.234375 -0.28125 -0.625q-0.078125 -0.390625 -0.078125 -0.984375l0 -5.015625l-1.859375 0l0 5.0q0 0.953125 0.203125 1.640625q0.21875 0.6875 0.59375 1.125q0.390625 0.4375 0.9375 0.65625q0.546875 0.203125 1.203125 0.203125q0.765625 0 1.375 -0.359375q0.625 -0.359375 1.046875 -1.0l0.109375 1.1875zm8.0078125 0.15625q1.234375 0 2.109375 -0.484375q0.875 -0.484375 1.296875 -1.09375l-1.0 -0.96875q-0.390625 0.5 -1.0 0.765625q-0.59375 0.265625 -1.296875 0.265625q-0.5 0 -0.9375 -0.171875q-0.421875 -0.171875 -0.734375 -0.484375q-0.3125 -0.296875 -0.5 -0.671875q-0.171875 -0.375 -0.25 -0.921875l0 -0.046875l5.859375 0l0 -0.796875q0 -0.90625 -0.25 -1.671875q-0.234375 -0.765625 -0.71875 -1.328125q-0.46875 -0.546875 -1.171875 -0.84375q-0.703125 -0.3125 -1.625 -0.3125q-0.8125 0 -1.546875 0.3125q-0.71875 0.296875 -1.265625 0.875q-0.546875 0.5625 -0.859375 1.375q-0.3125 0.796875 -0.3125 1.796875l0 0.3125q0 0.875 0.296875 1.625q0.3125 0.734375 0.859375 1.28125q0.5625 0.5625 1.328125 0.875q0.78125 0.3125 1.71875 0.3125zm-0.21875 -7.25q0.46875 0 0.8125 0.15625q0.359375 0.15625 0.59375 0.421875q0.25 0.28125 0.375 0.640625q0.140625 0.359375 0.140625 0.734375l0 0.125l-3.984375 0q0.09375 -0.484375 0.265625 -0.859375q0.1875 -0.390625 0.453125 -0.671875q0.265625 -0.265625 0.59375 -0.40625q0.34375 -0.140625 0.75 -0.140625zm12.9921875 8.578125l0 -1.484375l-7.140625 0l0 1.484375l7.140625 0zm4.4609375 -8.015625l0 1.46875l1.125 0q0.484375 0 0.875 0.109375q0.390625 0.109375 0.671875 0.34375q0.28125 0.234375 0.421875 0.59375q0.15625 0.34375 0.15625 0.828125q0 0.4375 -0.125 0.78125q-0.125 0.34375 -0.375 0.5625q-0.25 0.25 -0.609375 0.375q-0.359375 0.109375 -0.8125 0.109375q-0.421875 0 -0.78125 -0.125q-0.34375 -0.125 -0.59375 -0.34375q-0.25 -0.21875 -0.390625 -0.53125q-0.140625 -0.328125 -0.140625 -0.703125l-1.859375 0q0 0.796875 0.296875 1.40625q0.3125 0.59375 0.828125 1.0q0.515625 0.40625 1.1875 0.609375q0.6875 0.203125 1.421875 0.203125q0.8125 0 1.515625 -0.21875q0.703125 -0.234375 1.21875 -0.65625q0.5 -0.421875 0.796875 -1.046875q0.296875 -0.625 0.296875 -1.421875q0 -0.421875 -0.109375 -0.828125q-0.09375 -0.40625 -0.328125 -0.75q-0.21875 -0.34375 -0.578125 -0.625q-0.359375 -0.28125 -0.859375 -0.453125q0.421875 -0.1875 0.734375 -0.46875q0.328125 -0.28125 0.546875 -0.609375q0.203125 -0.328125 0.3125 -0.671875q0.109375 -0.359375 0.109375 -0.703125q0 -0.796875 -0.265625 -1.390625q-0.265625 -0.609375 -0.75 -1.03125q-0.484375 -0.40625 -1.15625 -0.609375q-0.671875 -0.203125 -1.484375 -0.203125q-0.78125 0 -1.453125 0.234375q-0.65625 0.234375 -1.140625 0.640625q-0.484375 0.421875 -0.765625 1.0q-0.265625 0.5625 -0.265625 1.25l1.875 0q0 -0.375 0.125 -0.671875q0.140625 -0.296875 0.390625 -0.5q0.234375 -0.21875 0.546875 -0.328125q0.328125 -0.109375 0.71875 -0.109375q0.421875 0 0.75 0.125q0.34375 0.109375 0.5625 0.3125q0.21875 0.234375 0.328125 0.5625q0.109375 0.3125 0.109375 0.71875q0 0.375 -0.125 0.703125q-0.109375 0.3125 -0.34375 0.53125q-0.234375 0.25 -0.609375 0.390625q-0.375 0.140625 -0.875 0.140625l-1.125 0z" fill-rule="nonzero"/><path fill="#000000" d="m257.14557 382.10754q0 0.453125 0.28125 0.78125q0.296875 0.3125 0.859375 0.3125q0.546875 0 0.84375 -0.3125q0.296875 -0.328125 0.296875 -0.78125q0 -0.46875 -0.296875 -0.796875q-0.28125 -0.328125 -0.84375 -0.328125q-0.578125 0 -0.859375 0.328125q-0.28125 0.328125 -0.28125 0.796875zm0 -6.84375q0 0.453125 0.28125 0.78125q0.296875 0.3125 0.859375 0.3125q0.546875 0 0.84375 -0.3125q0.296875 -0.328125 0.296875 -0.78125q0 -0.46875 -0.296875 -0.796875q-0.28125 -0.328125 -0.84375 -0.328125q-0.578125 0 -0.859375 0.328125q-0.28125 0.328125 -0.28125 0.796875zm30.585938 7.78125l0 -11.375l-0.109375 0l-4.3125 1.65625l0 1.3125l2.984375 -1.125l0 9.53125l1.4375 0zm11.8984375 0l0 -1.1875l-5.71875 0l3.0625 -3.3125q0.421875 -0.46875 0.8125 -0.9375q0.390625 -0.46875 0.6875 -0.953125q0.28125 -0.484375 0.453125 -0.984375q0.171875 -0.5 0.171875 -1.0q0 -0.6875 -0.234375 -1.265625q-0.234375 -0.578125 -0.6875 -1.0q-0.4375 -0.421875 -1.09375 -0.65625q-0.640625 -0.234375 -1.4375 -0.234375q-0.875 0 -1.5625 0.28125q-0.6875 0.28125 -1.15625 0.75q-0.46875 0.484375 -0.71875 1.125q-0.25 0.625 -0.25 1.34375l1.453125 0q0 -0.53125 0.125 -0.953125q0.140625 -0.4375 0.421875 -0.734375q0.28125 -0.296875 0.6875 -0.453125q0.421875 -0.171875 1.0 -0.171875q0.46875 0 0.828125 0.15625q0.375 0.15625 0.640625 0.4375q0.265625 0.265625 0.390625 0.640625q0.140625 0.375 0.140625 0.796875q0 0.34375 -0.09375 0.671875q-0.078125 0.3125 -0.28125 0.671875q-0.203125 0.375 -0.546875 0.8125q-0.328125 0.421875 -0.828125 0.96875l-3.71875 4.140625l0 1.046875l7.453125 0z" fill-rule="nonzero"/><path fill="#000000" fill-opacity="0.0" d="m157.46588 66.678474l176.25195 0l0 38.04725l-176.25195 0z" fill-rule="evenodd"/><path stroke="#000000" stroke-width="3.0" stroke-linejoin="round" stroke-linecap="butt" d="m157.46588 66.678474l176.25195 0l0 38.04725l-176.25195 0z" fill-rule="evenodd"/><path fill="#000000" d="m168.74713 83.10897l-1.625 0l0 8.453125l1.71875 0l0 -6.5q0.046875 -0.109375 0.09375 -0.203125q0.0625 -0.09375 0.140625 -0.171875q0.109375 -0.09375 0.25 -0.140625q0.140625 -0.0625 0.328125 -0.0625q0.171875 0 0.3125 0.046875q0.140625 0.046875 0.234375 0.15625q0.109375 0.09375 0.15625 0.28125q0.046875 0.171875 0.046875 0.421875l0 6.171875l1.6875 0l0 -6.28125q0 -0.078125 0 -0.109375q0 -0.046875 0 -0.078125q0.03125 -0.140625 0.09375 -0.234375q0.0625 -0.109375 0.15625 -0.1875q0.109375 -0.09375 0.234375 -0.140625q0.140625 -0.046875 0.3125 -0.046875q0.171875 0 0.3125 0.046875q0.15625 0.046875 0.25 0.15625q0.109375 0.109375 0.15625 0.28125q0.0625 0.171875 0.0625 0.421875l0 6.171875l1.71875 0l0 -6.15625q0 -0.65625 -0.140625 -1.125q-0.140625 -0.484375 -0.390625 -0.78125q-0.25 -0.28125 -0.59375 -0.40625q-0.328125 -0.140625 -0.734375 -0.140625q-0.3125 0 -0.578125 0.078125q-0.265625 0.078125 -0.46875 0.21875q-0.171875 0.109375 -0.3125 0.265625q-0.140625 0.15625 -0.25 0.328125q-0.078125 -0.1875 -0.1875 -0.34375q-0.109375 -0.15625 -0.25 -0.265625q-0.171875 -0.140625 -0.421875 -0.203125q-0.25 -0.078125 -0.5625 -0.078125q-0.609375 0 -1.03125 0.296875q-0.421875 0.28125 -0.671875 0.78125l-0.046875 -0.921875zm15.6484375 9.9375l0 -1.484375l-7.140625 0l0 1.484375l7.140625 0zm5.2578125 -1.484375l1.640625 0l3.3125 -8.453125l-1.9375 0l-2.0625 6.125l-0.125 0.5625l-0.125 -0.5625l-2.09375 -6.125l-1.9375 0l3.328125 8.453125zm12.2265625 0l1.90625 0l0 -0.140625q-0.15625 -0.328125 -0.234375 -0.78125q-0.078125 -0.453125 -0.078125 -1.03125l0 -3.75q0 -0.71875 -0.265625 -1.265625q-0.265625 -0.5625 -0.734375 -0.921875q-0.46875 -0.359375 -1.125 -0.53125q-0.640625 -0.1875 -1.375 -0.1875q-0.828125 0 -1.484375 0.21875q-0.640625 0.203125 -1.078125 0.578125q-0.453125 0.359375 -0.6875 0.828125q-0.234375 0.46875 -0.234375 0.96875l1.875 0q0 -0.234375 0.078125 -0.453125q0.09375 -0.21875 0.28125 -0.359375q0.1875 -0.171875 0.46875 -0.265625q0.296875 -0.09375 0.671875 -0.09375q0.421875 0 0.75 0.109375q0.328125 0.109375 0.546875 0.296875q0.21875 0.203125 0.328125 0.46875q0.109375 0.265625 0.109375 0.59375l0 0.5625l-1.359375 0q-0.90625 0 -1.640625 0.171875q-0.71875 0.171875 -1.203125 0.5q-0.53125 0.359375 -0.8125 0.890625q-0.28125 0.53125 -0.28125 1.234375q0 0.53125 0.21875 1.0q0.21875 0.46875 0.609375 0.796875q0.375 0.328125 0.921875 0.53125q0.546875 0.1875 1.203125 0.1875q0.40625 0 0.75 -0.078125q0.359375 -0.078125 0.65625 -0.21875q0.3125 -0.140625 0.546875 -0.3125q0.25 -0.1875 0.453125 -0.390625q0.03125 0.234375 0.078125 0.46875q0.0625 0.21875 0.140625 0.375zm-2.265625 -1.34375q-0.359375 0 -0.625 -0.09375q-0.265625 -0.09375 -0.453125 -0.25q-0.171875 -0.15625 -0.265625 -0.375q-0.09375 -0.21875 -0.09375 -0.484375q0 -0.3125 0.109375 -0.5625q0.109375 -0.25 0.34375 -0.421875q0.265625 -0.21875 0.703125 -0.328125q0.453125 -0.109375 1.0625 -0.109375l1.203125 0l0 1.5625q-0.09375 0.203125 -0.28125 0.390625q-0.1875 0.1875 -0.453125 0.328125q-0.25 0.15625 -0.578125 0.25q-0.3125 0.09375 -0.671875 0.09375zm6.8359375 -10.65625l0 1.546875l2.671875 0l0 8.90625l-2.671875 0l0 1.546875l7.109375 0l0 -1.546875l-2.5625 0l0 -10.453125l-4.546875 0zm14.7734375 12.0l1.703125 0l0 -8.453125l-1.875 0l0 5.984375q-0.109375 0.234375 -0.265625 0.421875q-0.15625 0.1875 -0.359375 0.328125q-0.25 0.15625 -0.578125 0.25q-0.3125 0.09375 -0.71875 0.09375q-0.390625 0 -0.6875 -0.09375q-0.28125 -0.109375 -0.46875 -0.359375q-0.1875 -0.234375 -0.28125 -0.625q-0.078125 -0.390625 -0.078125 -0.984375l0 -5.015625l-1.859375 0l0 5.0q0 0.953125 0.203125 1.640625q0.21875 0.6875 0.59375 1.125q0.390625 0.4375 0.9375 0.65625q0.546875 0.203125 1.203125 0.203125q0.765625 0 1.375 -0.359375q0.625 -0.359375 1.046875 -1.0l0.109375 1.1875zm8.0078125 0.15625q1.234375 0 2.109375 -0.484375q0.875 -0.484375 1.296875 -1.09375l-1.0 -0.96875q-0.390625 0.5 -1.0 0.765625q-0.59375 0.265625 -1.296875 0.265625q-0.5 0 -0.9375 -0.171875q-0.421875 -0.171875 -0.734375 -0.484375q-0.3125 -0.296875 -0.5 -0.671875q-0.171875 -0.375 -0.25 -0.921875l0 -0.046875l5.859375 0l0 -0.796875q0 -0.90625 -0.25 -1.671875q-0.234375 -0.765625 -0.71875 -1.328125q-0.46875 -0.546875 -1.171875 -0.84375q-0.703125 -0.3125 -1.625 -0.3125q-0.8125 0 -1.546875 0.3125q-0.71875 0.296875 -1.265625 0.875q-0.546875 0.5625 -0.859375 1.375q-0.3125 0.796875 -0.3125 1.796875l0 0.3125q0 0.875 0.296875 1.625q0.3125 0.734375 0.859375 1.28125q0.5625 0.5625 1.328125 0.875q0.78125 0.3125 1.71875 0.3125zm-0.21875 -7.25q0.46875 0 0.8125 0.15625q0.359375 0.15625 0.59375 0.421875q0.25 0.28125 0.375 0.640625q0.140625 0.359375 0.140625 0.734375l0 0.125l-3.984375 0q0.09375 -0.484375 0.265625 -0.859375q0.1875 -0.390625 0.453125 -0.671875q0.265625 -0.265625 0.59375 -0.40625q0.34375 -0.140625 0.75 -0.140625zm12.9921875 8.578125l0 -1.484375l-7.140625 0l0 1.484375l7.140625 0zm7.5390625 -1.484375l0 -11.375l-0.109375 0l-4.6875 1.734375l0 1.640625l2.921875 -1.0625l0 9.0625l1.875 0z" fill-rule="nonzero"/><path fill="#000000" d="m257.14557 90.624596q0 0.453125 0.28125 0.78125q0.296875 0.3125 0.859375 0.3125q0.546875 0 0.84375 -0.3125q0.296875 -0.328125 0.296875 -0.78125q0 -0.46875 -0.296875 -0.796875q-0.28125 -0.328125 -0.84375 -0.328125q-0.578125 0 -0.859375 0.328125q-0.28125 0.328125 -0.28125 0.796875zm0 -6.84375q0 0.453125 0.28125 0.78125q0.296875 0.3125 0.859375 0.3125q0.546875 0 0.84375 -0.3125q0.296875 -0.328125 0.296875 -0.78125q0 -0.46875 -0.296875 -0.796875q-0.28125 -0.328125 -0.84375 -0.328125q-0.578125 0 -0.859375 0.328125q-0.28125 0.328125 -0.28125 0.796875zm30.585938 7.78125l0 -11.375l-0.109375 0l-4.3125 1.65625l0 1.3125l2.984375 -1.125l0 9.53125l1.4375 0zm12.0546875 -4.359375l0 -2.65625q0 -1.09375 -0.25 -1.921875q-0.25 -0.84375 -0.71875 -1.421875q-0.46875 -0.578125 -1.15625 -0.875q-0.6875 -0.3125 -1.5625 -0.3125q-0.859375 0 -1.546875 0.3125q-0.6875 0.296875 -1.15625 0.875q-0.46875 0.578125 -0.71875 1.421875q-0.25 0.828125 -0.25 1.921875l0 2.65625q0 1.09375 0.25 1.9375q0.25 0.828125 0.71875 1.40625q0.484375 0.578125 1.171875 0.875q0.6875 0.296875 1.546875 0.296875q0.875 0 1.546875 -0.296875q0.6875 -0.296875 1.15625 -0.875q0.46875 -0.578125 0.71875 -1.40625q0.25 -0.84375 0.25 -1.9375zm-5.90625 -0.28125q0 -0.203125 0 -0.390625q0 -0.203125 0 -0.40625l0 -1.90625q0 -0.796875 0.15625 -1.390625q0.15625 -0.609375 0.484375 -1.0q0.28125 -0.296875 0.671875 -0.453125q0.390625 -0.171875 0.90625 -0.171875q0.515625 0 0.890625 0.15625q0.390625 0.140625 0.65625 0.4375q0.28125 0.296875 0.4375 0.734375q0.15625 0.421875 0.21875 0.984375l-4.421875 3.40625zm4.453125 0.59375q0 0.828125 -0.171875 1.453125q-0.15625 0.609375 -0.515625 1.0q-0.265625 0.28125 -0.65625 0.4375q-0.375 0.140625 -0.875 0.140625q-0.46875 0 -0.84375 -0.140625q-0.375 -0.140625 -0.640625 -0.40625q-0.28125 -0.28125 -0.46875 -0.703125q-0.171875 -0.4375 -0.25 -1.015625l4.421875 -3.375q0 0.21875 0 0.546875q0 0.328125 0 0.453125l0 1.609375z" fill-rule="nonzero"/><path fill="#000000" fill-opacity="0.0" d="m157.46588 104.72572l176.25195 0l0 40.566925l-176.25195 0z" fill-rule="evenodd"/><path stroke="#000000" stroke-width="3.0" stroke-linejoin="round" stroke-linecap="butt" d="m157.46588 104.72572l176.25195 0l0 40.566925l-176.25195 0z" fill-rule="evenodd"/><path fill="#000000" d="m168.74713 122.41606l-1.625 0l0 8.453125l1.71875 0l0 -6.5q0.046875 -0.109375 0.09375 -0.203125q0.0625 -0.09375 0.140625 -0.171875q0.109375 -0.09375 0.25 -0.140625q0.140625 -0.0625 0.328125 -0.0625q0.171875 0 0.3125 0.046875q0.140625 0.046875 0.234375 0.15625q0.109375 0.09375 0.15625 0.28125q0.046875 0.171875 0.046875 0.421875l0 6.171875l1.6875 0l0 -6.28125q0 -0.078125 0 -0.109375q0 -0.046875 0 -0.078125q0.03125 -0.140625 0.09375 -0.234375q0.0625 -0.109375 0.15625 -0.1875q0.109375 -0.09375 0.234375 -0.140625q0.140625 -0.046875 0.3125 -0.046875q0.171875 0 0.3125 0.046875q0.15625 0.046875 0.25 0.15625q0.109375 0.109375 0.15625 0.28125q0.0625 0.171875 0.0625 0.421875l0 6.171875l1.71875 0l0 -6.15625q0 -0.65625 -0.140625 -1.125q-0.140625 -0.484375 -0.390625 -0.78125q-0.25 -0.28125 -0.59375 -0.40625q-0.328125 -0.140625 -0.734375 -0.140625q-0.3125 0 -0.578125 0.078125q-0.265625 0.078125 -0.46875 0.21875q-0.171875 0.109375 -0.3125 0.265625q-0.140625 0.15625 -0.25 0.328125q-0.078125 -0.1875 -0.1875 -0.34375q-0.109375 -0.15625 -0.25 -0.265625q-0.171875 -0.140625 -0.421875 -0.203125q-0.25 -0.078125 -0.5625 -0.078125q-0.609375 0 -1.03125 0.296875q-0.421875 0.28125 -0.671875 0.78125l-0.046875 -0.921875zm15.6484375 9.9375l0 -1.484375l-7.140625 0l0 1.484375l7.140625 0zm5.2578125 -1.484375l1.640625 0l3.3125 -8.453125l-1.9375 0l-2.0625 6.125l-0.125 0.5625l-0.125 -0.5625l-2.09375 -6.125l-1.9375 0l3.328125 8.453125zm12.2265625 0l1.90625 0l0 -0.140625q-0.15625 -0.328125 -0.234375 -0.78125q-0.078125 -0.453125 -0.078125 -1.03125l0 -3.75q0 -0.71875 -0.265625 -1.265625q-0.265625 -0.5625 -0.734375 -0.921875q-0.46875 -0.359375 -1.125 -0.53125q-0.640625 -0.1875 -1.375 -0.1875q-0.828125 0 -1.484375 0.21875q-0.640625 0.203125 -1.078125 0.578125q-0.453125 0.359375 -0.6875 0.828125q-0.234375 0.46875 -0.234375 0.96875l1.875 0q0 -0.234375 0.078125 -0.453125q0.09375 -0.21875 0.28125 -0.359375q0.1875 -0.171875 0.46875 -0.265625q0.296875 -0.09375 0.671875 -0.09375q0.421875 0 0.75 0.109375q0.328125 0.109375 0.546875 0.296875q0.21875 0.203125 0.328125 0.46875q0.109375 0.265625 0.109375 0.59375l0 0.5625l-1.359375 0q-0.90625 0 -1.640625 0.171875q-0.71875 0.171875 -1.203125 0.5q-0.53125 0.359375 -0.8125 0.890625q-0.28125 0.53125 -0.28125 1.234375q0 0.53125 0.21875 1.0q0.21875 0.46875 0.609375 0.796875q0.375 0.328125 0.921875 0.53125q0.546875 0.1875 1.203125 0.1875q0.40625 0 0.75 -0.078125q0.359375 -0.078125 0.65625 -0.21875q0.3125 -0.140625 0.546875 -0.3125q0.25 -0.1875 0.453125 -0.390625q0.03125 0.234375 0.078125 0.46875q0.0625 0.21875 0.140625 0.375zm-2.265625 -1.34375q-0.359375 0 -0.625 -0.09375q-0.265625 -0.09375 -0.453125 -0.25q-0.171875 -0.15625 -0.265625 -0.375q-0.09375 -0.21875 -0.09375 -0.484375q0 -0.3125 0.109375 -0.5625q0.109375 -0.25 0.34375 -0.421875q0.265625 -0.21875 0.703125 -0.328125q0.453125 -0.109375 1.0625 -0.109375l1.203125 0l0 1.5625q-0.09375 0.203125 -0.28125 0.390625q-0.1875 0.1875 -0.453125 0.328125q-0.25 0.15625 -0.578125 0.25q-0.3125 0.09375 -0.671875 0.09375zm6.8359375 -10.65625l0 1.546875l2.671875 0l0 8.90625l-2.671875 0l0 1.546875l7.109375 0l0 -1.546875l-2.5625 0l0 -10.453125l-4.546875 0zm14.7734375 12.0l1.703125 0l0 -8.453125l-1.875 0l0 5.984375q-0.109375 0.234375 -0.265625 0.421875q-0.15625 0.1875 -0.359375 0.328125q-0.25 0.15625 -0.578125 0.25q-0.3125 0.09375 -0.71875 0.09375q-0.390625 0 -0.6875 -0.09375q-0.28125 -0.109375 -0.46875 -0.359375q-0.1875 -0.234375 -0.28125 -0.625q-0.078125 -0.390625 -0.078125 -0.984375l0 -5.015625l-1.859375 0l0 5.0q0 0.953125 0.203125 1.640625q0.21875 0.6875 0.59375 1.125q0.390625 0.4375 0.9375 0.65625q0.546875 0.203125 1.203125 0.203125q0.765625 0 1.375 -0.359375q0.625 -0.359375 1.046875 -1.0l0.109375 1.1875zm8.0078125 0.15625q1.234375 0 2.109375 -0.484375q0.875 -0.484375 1.296875 -1.09375l-1.0 -0.96875q-0.390625 0.5 -1.0 0.765625q-0.59375 0.265625 -1.296875 0.265625q-0.5 0 -0.9375 -0.171875q-0.421875 -0.171875 -0.734375 -0.484375q-0.3125 -0.296875 -0.5 -0.671875q-0.171875 -0.375 -0.25 -0.921875l0 -0.046875l5.859375 0l0 -0.796875q0 -0.90625 -0.25 -1.671875q-0.234375 -0.765625 -0.71875 -1.328125q-0.46875 -0.546875 -1.171875 -0.84375q-0.703125 -0.3125 -1.625 -0.3125q-0.8125 0 -1.546875 0.3125q-0.71875 0.296875 -1.265625 0.875q-0.546875 0.5625 -0.859375 1.375q-0.3125 0.796875 -0.3125 1.796875l0 0.3125q0 0.875 0.296875 1.625q0.3125 0.734375 0.859375 1.28125q0.5625 0.5625 1.328125 0.875q0.78125 0.3125 1.71875 0.3125zm-0.21875 -7.25q0.46875 0 0.8125 0.15625q0.359375 0.15625 0.59375 0.421875q0.25 0.28125 0.375 0.640625q0.140625 0.359375 0.140625 0.734375l0 0.125l-3.984375 0q0.09375 -0.484375 0.265625 -0.859375q0.1875 -0.390625 0.453125 -0.671875q0.265625 -0.265625 0.59375 -0.40625q0.34375 -0.140625 0.75 -0.140625zm12.9921875 8.578125l0 -1.484375l-7.140625 0l0 1.484375l7.140625 0zm9.7265625 -1.484375l0 -1.515625l-5.296875 0l2.53125 -2.703125q0.5 -0.53125 0.921875 -1.03125q0.4375 -0.5 0.75 -0.984375q0.296875 -0.5 0.46875 -1.0q0.1875 -0.5 0.1875 -1.046875q0 -0.71875 -0.234375 -1.3125q-0.234375 -0.59375 -0.6875 -1.03125q-0.453125 -0.421875 -1.109375 -0.65625q-0.65625 -0.25 -1.5 -0.25q-0.890625 0 -1.609375 0.296875q-0.71875 0.28125 -1.21875 0.765625q-0.515625 0.5 -0.796875 1.15625q-0.265625 0.65625 -0.265625 1.40625l1.875 0q0 -0.5 0.125 -0.875q0.125 -0.390625 0.375 -0.671875q0.25 -0.25 0.609375 -0.390625q0.375 -0.140625 0.875 -0.140625q0.390625 0 0.703125 0.140625q0.3125 0.125 0.546875 0.359375q0.21875 0.234375 0.328125 0.5625q0.125 0.328125 0.125 0.71875q0 0.296875 -0.078125 0.59375q-0.078125 0.296875 -0.265625 0.625q-0.203125 0.34375 -0.515625 0.75q-0.3125 0.390625 -0.765625 0.90625l-3.703125 4.03125l0 1.296875l7.625 0z" fill-rule="nonzero"/><path fill="#000000" d="m257.14557 129.93169q0 0.453125 0.28125 0.78125q0.296875 0.3125 0.859375 0.3125q0.546875 0 0.84375 -0.3125q0.296875 -0.328125 0.296875 -0.78125q0 -0.46875 -0.296875 -0.796875q-0.28125 -0.328125 -0.84375 -0.328125q-0.578125 0 -0.859375 0.328125q-0.28125 0.328125 -0.28125 0.796875zm0 -6.84375q0 0.453125 0.28125 0.78125q0.296875 0.3125 0.859375 0.3125q0.546875 0 0.84375 -0.3125q0.296875 -0.328125 0.296875 -0.78125q0 -0.46875 -0.296875 -0.796875q-0.28125 -0.328125 -0.84375 -0.328125q-0.578125 0 -0.859375 0.328125q-0.28125 0.328125 -0.28125 0.796875zm30.585938 7.78125l0 -11.375l-0.109375 0l-4.3125 1.65625l0 1.3125l2.984375 -1.125l0 9.53125l1.4375 0zm9.6015625 0l0 -11.375l-0.109375 0l-4.3125 1.65625l0 1.3125l2.984375 -1.125l0 9.53125l1.4375 0z" fill-rule="nonzero"/><path fill="#000000" fill-opacity="0.0" d="m157.46588 145.29265l176.25195 0l0 40.566925l-176.25195 0z" fill-rule="evenodd"/><path stroke="#000000" stroke-width="3.0" stroke-linejoin="round" stroke-linecap="butt" d="m157.46588 145.29265l176.25195 0l0 40.566925l-176.25195 0z" fill-rule="evenodd"/><path fill="#000000" d="m168.74713 162.98299l-1.625 0l0 8.453125l1.71875 0l0 -6.5q0.046875 -0.109375 0.09375 -0.203125q0.0625 -0.09375 0.140625 -0.171875q0.109375 -0.09375 0.25 -0.140625q0.140625 -0.0625 0.328125 -0.0625q0.171875 0 0.3125 0.046875q0.140625 0.046875 0.234375 0.15625q0.109375 0.09375 0.15625 0.28125q0.046875 0.171875 0.046875 0.421875l0 6.171875l1.6875 0l0 -6.28125q0 -0.078125 0 -0.109375q0 -0.046875 0 -0.078125q0.03125 -0.140625 0.09375 -0.234375q0.0625 -0.109375 0.15625 -0.1875q0.109375 -0.09375 0.234375 -0.140625q0.140625 -0.046875 0.3125 -0.046875q0.171875 0 0.3125 0.046875q0.15625 0.046875 0.25 0.15625q0.109375 0.109375 0.15625 0.28125q0.0625 0.171875 0.0625 0.421875l0 6.171875l1.71875 0l0 -6.15625q0 -0.65625 -0.140625 -1.125q-0.140625 -0.484375 -0.390625 -0.78125q-0.25 -0.28125 -0.59375 -0.40625q-0.328125 -0.140625 -0.734375 -0.140625q-0.3125 0 -0.578125 0.078125q-0.265625 0.078125 -0.46875 0.21875q-0.171875 0.109375 -0.3125 0.265625q-0.140625 0.15625 -0.25 0.328125q-0.078125 -0.1875 -0.1875 -0.34375q-0.109375 -0.15625 -0.25 -0.265625q-0.171875 -0.140625 -0.421875 -0.203125q-0.25 -0.078125 -0.5625 -0.078125q-0.609375 0 -1.03125 0.296875q-0.421875 0.28125 -0.671875 0.78125l-0.046875 -0.921875zm15.6484375 9.9375l0 -1.484375l-7.140625 0l0 1.484375l7.140625 0zm5.2578125 -1.484375l1.640625 0l3.3125 -8.453125l-1.9375 0l-2.0625 6.125l-0.125 0.5625l-0.125 -0.5625l-2.09375 -6.125l-1.9375 0l3.328125 8.453125zm12.2265625 0l1.90625 0l0 -0.140625q-0.15625 -0.328125 -0.234375 -0.78125q-0.078125 -0.453125 -0.078125 -1.03125l0 -3.75q0 -0.71875 -0.265625 -1.265625q-0.265625 -0.5625 -0.734375 -0.921875q-0.46875 -0.359375 -1.125 -0.53125q-0.640625 -0.1875 -1.375 -0.1875q-0.828125 0 -1.484375 0.21875q-0.640625 0.203125 -1.078125 0.578125q-0.453125 0.359375 -0.6875 0.828125q-0.234375 0.46875 -0.234375 0.96875l1.875 0q0 -0.234375 0.078125 -0.453125q0.09375 -0.21875 0.28125 -0.359375q0.1875 -0.171875 0.46875 -0.265625q0.296875 -0.09375 0.671875 -0.09375q0.421875 0 0.75 0.109375q0.328125 0.109375 0.546875 0.296875q0.21875 0.203125 0.328125 0.46875q0.109375 0.265625 0.109375 0.59375l0 0.5625l-1.359375 0q-0.90625 0 -1.640625 0.171875q-0.71875 0.171875 -1.203125 0.5q-0.53125 0.359375 -0.8125 0.890625q-0.28125 0.53125 -0.28125 1.234375q0 0.53125 0.21875 1.0q0.21875 0.46875 0.609375 0.796875q0.375 0.328125 0.921875 0.53125q0.546875 0.1875 1.203125 0.1875q0.40625 0 0.75 -0.078125q0.359375 -0.078125 0.65625 -0.21875q0.3125 -0.140625 0.546875 -0.3125q0.25 -0.1875 0.453125 -0.390625q0.03125 0.234375 0.078125 0.46875q0.0625 0.21875 0.140625 0.375zm-2.265625 -1.34375q-0.359375 0 -0.625 -0.09375q-0.265625 -0.09375 -0.453125 -0.25q-0.171875 -0.15625 -0.265625 -0.375q-0.09375 -0.21875 -0.09375 -0.484375q0 -0.3125 0.109375 -0.5625q0.109375 -0.25 0.34375 -0.421875q0.265625 -0.21875 0.703125 -0.328125q0.453125 -0.109375 1.0625 -0.109375l1.203125 0l0 1.5625q-0.09375 0.203125 -0.28125 0.390625q-0.1875 0.1875 -0.453125 0.328125q-0.25 0.15625 -0.578125 0.25q-0.3125 0.09375 -0.671875 0.09375zm6.8359375 -10.65625l0 1.546875l2.671875 0l0 8.90625l-2.671875 0l0 1.546875l7.109375 0l0 -1.546875l-2.5625 0l0 -10.453125l-4.546875 0zm14.7734375 12.0l1.703125 0l0 -8.453125l-1.875 0l0 5.984375q-0.109375 0.234375 -0.265625 0.421875q-0.15625 0.1875 -0.359375 0.328125q-0.25 0.15625 -0.578125 0.25q-0.3125 0.09375 -0.71875 0.09375q-0.390625 0 -0.6875 -0.09375q-0.28125 -0.109375 -0.46875 -0.359375q-0.1875 -0.234375 -0.28125 -0.625q-0.078125 -0.390625 -0.078125 -0.984375l0 -5.015625l-1.859375 0l0 5.0q0 0.953125 0.203125 1.640625q0.21875 0.6875 0.59375 1.125q0.390625 0.4375 0.9375 0.65625q0.546875 0.203125 1.203125 0.203125q0.765625 0 1.375 -0.359375q0.625 -0.359375 1.046875 -1.0l0.109375 1.1875zm8.0078125 0.15625q1.234375 0 2.109375 -0.484375q0.875 -0.484375 1.296875 -1.09375l-1.0 -0.96875q-0.390625 0.5 -1.0 0.765625q-0.59375 0.265625 -1.296875 0.265625q-0.5 0 -0.9375 -0.171875q-0.421875 -0.171875 -0.734375 -0.484375q-0.3125 -0.296875 -0.5 -0.671875q-0.171875 -0.375 -0.25 -0.921875l0 -0.046875l5.859375 0l0 -0.796875q0 -0.90625 -0.25 -1.671875q-0.234375 -0.765625 -0.71875 -1.328125q-0.46875 -0.546875 -1.171875 -0.84375q-0.703125 -0.3125 -1.625 -0.3125q-0.8125 0 -1.546875 0.3125q-0.71875 0.296875 -1.265625 0.875q-0.546875 0.5625 -0.859375 1.375q-0.3125 0.796875 -0.3125 1.796875l0 0.3125q0 0.875 0.296875 1.625q0.3125 0.734375 0.859375 1.28125q0.5625 0.5625 1.328125 0.875q0.78125 0.3125 1.71875 0.3125zm-0.21875 -7.25q0.46875 0 0.8125 0.15625q0.359375 0.15625 0.59375 0.421875q0.25 0.28125 0.375 0.640625q0.140625 0.359375 0.140625 0.734375l0 0.125l-3.984375 0q0.09375 -0.484375 0.265625 -0.859375q0.1875 -0.390625 0.453125 -0.671875q0.265625 -0.265625 0.59375 -0.40625q0.34375 -0.140625 0.75 -0.140625zm12.9921875 8.578125l0 -1.484375l-7.140625 0l0 1.484375l7.140625 0zm4.4609375 -8.015625l0 1.46875l1.125 0q0.484375 0 0.875 0.109375q0.390625 0.109375 0.671875 0.34375q0.28125 0.234375 0.421875 0.59375q0.15625 0.34375 0.15625 0.828125q0 0.4375 -0.125 0.78125q-0.125 0.34375 -0.375 0.5625q-0.25 0.25 -0.609375 0.375q-0.359375 0.109375 -0.8125 0.109375q-0.421875 0 -0.78125 -0.125q-0.34375 -0.125 -0.59375 -0.34375q-0.25 -0.21875 -0.390625 -0.53125q-0.140625 -0.328125 -0.140625 -0.703125l-1.859375 0q0 0.796875 0.296875 1.40625q0.3125 0.59375 0.828125 1.0q0.515625 0.40625 1.1875 0.609375q0.6875 0.203125 1.421875 0.203125q0.8125 0 1.515625 -0.21875q0.703125 -0.234375 1.21875 -0.65625q0.5 -0.421875 0.796875 -1.046875q0.296875 -0.625 0.296875 -1.421875q0 -0.421875 -0.109375 -0.828125q-0.09375 -0.40625 -0.328125 -0.75q-0.21875 -0.34375 -0.578125 -0.625q-0.359375 -0.28125 -0.859375 -0.453125q0.421875 -0.1875 0.734375 -0.46875q0.328125 -0.28125 0.546875 -0.609375q0.203125 -0.328125 0.3125 -0.671875q0.109375 -0.359375 0.109375 -0.703125q0 -0.796875 -0.265625 -1.390625q-0.265625 -0.609375 -0.75 -1.03125q-0.484375 -0.40625 -1.15625 -0.609375q-0.671875 -0.203125 -1.484375 -0.203125q-0.78125 0 -1.453125 0.234375q-0.65625 0.234375 -1.140625 0.640625q-0.484375 0.421875 -0.765625 1.0q-0.265625 0.5625 -0.265625 1.25l1.875 0q0 -0.375 0.125 -0.671875q0.140625 -0.296875 0.390625 -0.5q0.234375 -0.21875 0.546875 -0.328125q0.328125 -0.109375 0.71875 -0.109375q0.421875 0 0.75 0.125q0.34375 0.109375 0.5625 0.3125q0.21875 0.234375 0.328125 0.5625q0.109375 0.3125 0.109375 0.71875q0 0.375 -0.125 0.703125q-0.109375 0.3125 -0.34375 0.53125q-0.234375 0.25 -0.609375 0.390625q-0.375 0.140625 -0.875 0.140625l-1.125 0z" fill-rule="nonzero"/><path fill="#000000" d="m257.14557 170.49861q0 0.453125 0.28125 0.78125q0.296875 0.3125 0.859375 0.3125q0.546875 0 0.84375 -0.3125q0.296875 -0.328125 0.296875 -0.78125q0 -0.46875 -0.296875 -0.796875q-0.28125 -0.328125 -0.84375 -0.328125q-0.578125 0 -0.859375 0.328125q-0.28125 0.328125 -0.28125 0.796875zm0 -6.84375q0 0.453125 0.28125 0.78125q0.296875 0.3125 0.859375 0.3125q0.546875 0 0.84375 -0.3125q0.296875 -0.328125 0.296875 -0.78125q0 -0.46875 -0.296875 -0.796875q-0.28125 -0.328125 -0.84375 -0.328125q-0.578125 0 -0.859375 0.328125q-0.28125 0.328125 -0.28125 0.796875zm30.585938 7.78125l0 -11.375l-0.109375 0l-4.3125 1.65625l0 1.3125l2.984375 -1.125l0 9.53125l1.4375 0zm11.8984375 0l0 -1.1875l-5.71875 0l3.0625 -3.3125q0.421875 -0.46875 0.8125 -0.9375q0.390625 -0.46875 0.6875 -0.953125q0.28125 -0.484375 0.453125 -0.984375q0.171875 -0.5 0.171875 -1.0q0 -0.6875 -0.234375 -1.265625q-0.234375 -0.578125 -0.6875 -1.0q-0.4375 -0.421875 -1.09375 -0.65625q-0.640625 -0.234375 -1.4375 -0.234375q-0.875 0 -1.5625 0.28125q-0.6875 0.28125 -1.15625 0.75q-0.46875 0.484375 -0.71875 1.125q-0.25 0.625 -0.25 1.34375l1.453125 0q0 -0.53125 0.125 -0.953125q0.140625 -0.4375 0.421875 -0.734375q0.28125 -0.296875 0.6875 -0.453125q0.421875 -0.171875 1.0 -0.171875q0.46875 0 0.828125 0.15625q0.375 0.15625 0.640625 0.4375q0.265625 0.265625 0.390625 0.640625q0.140625 0.375 0.140625 0.796875q0 0.34375 -0.09375 0.671875q-0.078125 0.3125 -0.28125 0.671875q-0.203125 0.375 -0.546875 0.8125q-0.328125 0.421875 -0.828125 0.96875l-3.71875 4.140625l0 1.046875l7.453125 0z" fill-rule="nonzero"/><path fill="#000000" fill-opacity="0.0" d="m6.7375326 104.002625l150.70866 0l0 42.015747l-150.70866 0z" fill-rule="evenodd"/><path fill="#000000" d="m30.884827 130.92262l3.359375 0q0.90625 0 1.703125 -0.21875q0.796875 -0.21875 1.453125 -0.625q0.59375 -0.375 1.0625 -0.90625q0.484375 -0.53125 0.8125 -1.171875q0.359375 -0.671875 0.53125 -1.46875q0.1875 -0.8125 0.1875 -1.71875l0 -1.03125q0 -0.9375 -0.203125 -1.765625q-0.1875 -0.828125 -0.5625 -1.53125q-0.34375 -0.65625 -0.875 -1.1875q-0.515625 -0.546875 -1.1875 -0.90625q-0.625 -0.34375 -1.390625 -0.53125q-0.75 -0.203125 -1.609375 -0.203125l-3.28125 0l0 13.265625zm2.21875 -11.484375l1.0625 0q0.53125 0.015625 0.984375 0.140625q0.453125 0.109375 0.828125 0.3125q0.5 0.28125 0.859375 0.734375q0.359375 0.453125 0.578125 1.0q0.1875 0.453125 0.265625 1.0q0.09375 0.53125 0.09375 1.140625l0 1.046875q0 0.609375 -0.09375 1.15625q-0.078125 0.53125 -0.265625 0.984375q-0.1875 0.546875 -0.515625 0.96875q-0.3125 0.40625 -0.703125 0.671875q-0.390625 0.265625 -0.890625 0.40625q-0.484375 0.140625 -1.0625 0.140625l-1.140625 0l0 -9.703125zm15.429947 11.484375l2.21875 0l0 -0.15625q-0.171875 -0.375 -0.265625 -0.90625q-0.09375 -0.546875 -0.09375 -1.203125l0 -4.390625q0 -0.828125 -0.3125 -1.46875q-0.3125 -0.640625 -0.859375 -1.0625q-0.546875 -0.421875 -1.296875 -0.625q-0.75 -0.21875 -1.625 -0.21875q-0.953125 0 -1.71875 0.25q-0.75 0.25 -1.25 0.671875q-0.53125 0.421875 -0.8125 0.96875q-0.265625 0.546875 -0.28125 1.140625l2.1875 0q0 -0.28125 0.109375 -0.53125q0.109375 -0.25 0.328125 -0.4375q0.21875 -0.1875 0.546875 -0.296875q0.328125 -0.109375 0.78125 -0.109375q0.484375 0 0.859375 0.125q0.390625 0.125 0.65625 0.359375q0.234375 0.21875 0.359375 0.53125q0.140625 0.3125 0.140625 0.6875l0 0.671875l-1.578125 0q-1.0625 0 -1.90625 0.203125q-0.84375 0.1875 -1.421875 0.578125q-0.625 0.40625 -0.953125 1.03125q-0.3125 0.625 -0.3125 1.4375q0 0.625 0.25 1.171875q0.25 0.546875 0.703125 0.921875q0.453125 0.390625 1.078125 0.625q0.640625 0.21875 1.40625 0.21875q0.46875 0 0.875 -0.09375q0.421875 -0.09375 0.765625 -0.25q0.359375 -0.15625 0.640625 -0.375q0.296875 -0.21875 0.515625 -0.453125q0.046875 0.28125 0.109375 0.546875q0.0625 0.25 0.15625 0.4375zm-2.640625 -1.5625q-0.421875 0 -0.734375 -0.109375q-0.3125 -0.109375 -0.515625 -0.28125q-0.21875 -0.1875 -0.328125 -0.4375q-0.109375 -0.265625 -0.109375 -0.5625q0 -0.375 0.125 -0.65625q0.140625 -0.296875 0.421875 -0.515625q0.3125 -0.234375 0.828125 -0.359375q0.515625 -0.140625 1.21875 -0.140625l1.40625 0l0 1.8125q-0.109375 0.25 -0.328125 0.46875q-0.21875 0.21875 -0.53125 0.390625q-0.296875 0.171875 -0.671875 0.28125q-0.359375 0.109375 -0.78125 0.109375zm11.914322 -10.703125l-2.1875 0l0 2.40625l-2.375 0l0 1.640625l2.375 0l0 4.84375q0 0.9375 0.25 1.625q0.25 0.671875 0.703125 1.09375q0.4375 0.4375 1.0625 0.640625q0.625 0.203125 1.375 0.203125q0.40625 0 0.8125 -0.046875q0.421875 -0.03125 0.8125 -0.109375q0.375 -0.0625 0.703125 -0.171875q0.34375 -0.109375 0.578125 -0.25l-0.234375 -1.5q-0.171875 0.03125 -0.40625 0.078125q-0.234375 0.046875 -0.515625 0.09375q-0.28125 0.046875 -0.578125 0.078125q-0.296875 0.015625 -0.59375 0.015625q-0.390625 0 -0.71875 -0.078125q-0.328125 -0.09375 -0.5625 -0.3125q-0.234375 -0.21875 -0.375 -0.578125q-0.125 -0.375 -0.125 -0.921875l0 -4.703125l3.703125 0l0 -1.640625l-3.703125 0l0 -2.40625zm13.117447 12.265625l2.21875 0l0 -0.15625q-0.171875 -0.375 -0.265625 -0.90625q-0.09375 -0.546875 -0.09375 -1.203125l0 -4.390625q0 -0.828125 -0.3125 -1.46875q-0.3125 -0.640625 -0.859375 -1.0625q-0.546875 -0.421875 -1.296875 -0.625q-0.75 -0.21875 -1.625 -0.21875q-0.953125 0 -1.71875 0.25q-0.75 0.25 -1.25 0.671875q-0.53125 0.421875 -0.8125 0.96875q-0.265625 0.546875 -0.28125 1.140625l2.1875 0q0 -0.28125 0.109375 -0.53125q0.109375 -0.25 0.328125 -0.4375q0.21875 -0.1875 0.546875 -0.296875q0.328125 -0.109375 0.78125 -0.109375q0.484375 0 0.859375 0.125q0.390625 0.125 0.65625 0.359375q0.234375 0.21875 0.359375 0.53125q0.140625 0.3125 0.140625 0.6875l0 0.671875l-1.578125 0q-1.0625 0 -1.90625 0.203125q-0.84375 0.1875 -1.421875 0.578125q-0.625 0.40625 -0.953125 1.03125q-0.3125 0.625 -0.3125 1.4375q0 0.625 0.25 1.171875q0.25 0.546875 0.703125 0.921875q0.453125 0.390625 1.078125 0.625q0.640625 0.21875 1.40625 0.21875q0.46875 0 0.875 -0.09375q0.421875 -0.09375 0.765625 -0.25q0.359375 -0.15625 0.640625 -0.375q0.296875 -0.21875 0.515625 -0.453125q0.046875 0.28125 0.109375 0.546875q0.0625 0.25 0.15625 0.4375zm-2.640625 -1.5625q-0.421875 0 -0.734375 -0.109375q-0.3125 -0.109375 -0.515625 -0.28125q-0.21875 -0.1875 -0.328125 -0.4375q-0.109375 -0.265625 -0.109375 -0.5625q0 -0.375 0.125 -0.65625q0.140625 -0.296875 0.421875 -0.515625q0.3125 -0.234375 0.828125 -0.359375q0.515625 -0.140625 1.21875 -0.140625l1.40625 0l0 1.8125q-0.109375 0.25 -0.328125 0.46875q-0.21875 0.21875 -0.53125 0.390625q-0.296875 0.171875 -0.671875 0.28125q-0.359375 0.109375 -0.78125 0.109375z" fill-rule="nonzero"/><path fill="#000000" d="m75.010864 126.907l0 -1.640625l5.03125 0l0 1.640625l-5.03125 0zm6.525177 -2.484375q0 -3.328125 1.78125 -5.203125q1.78125 -1.890625 4.609375 -1.890625q1.84375 0 3.328125 0.890625q1.484375 0.875 2.265625 2.46875q0.78125 1.578125 0.78125 3.578125q0 2.03125 -0.828125 3.640625q-0.8125 1.59375 -2.3125 2.421875q-1.5 0.828125 -3.25 0.828125q-1.875 0 -3.359375 -0.90625q-1.484375 -0.921875 -2.25 -2.5q-0.765625 -1.578125 -0.765625 -3.328125zm1.8125 0.015625q0 2.421875 1.296875 3.8125q1.296875 1.390625 3.265625 1.390625q2.0 0 3.28125 -1.40625q1.28125 -1.40625 1.28125 -3.984375q0 -1.625 -0.546875 -2.84375q-0.546875 -1.21875 -1.609375 -1.875q-1.0625 -0.671875 -2.375 -0.671875q-1.890625 0 -3.25 1.296875q-1.34375 1.28125 -1.34375 4.28125zm14.527054 6.484375l-1.515625 0l0 -13.359375l1.640625 0l0 4.765625q1.046875 -1.296875 2.65625 -1.296875q0.890625 0 1.6875 0.359375q0.796875 0.359375 1.3125 1.015625q0.515625 0.640625 0.796875 1.5625q0.296875 0.921875 0.296875 1.96875q0 2.484375 -1.234375 3.84375q-1.21875 1.359375 -2.953125 1.359375q-1.703125 0 -2.6875 -1.4375l0 1.21875zm-0.015625 -4.90625q0 1.734375 0.484375 2.515625q0.765625 1.265625 2.09375 1.265625q1.078125 0 1.859375 -0.9375q0.78125 -0.9375 0.78125 -2.78125q0 -1.890625 -0.75 -2.796875q-0.75 -0.90625 -1.828125 -0.90625q-1.0625 0 -1.859375 0.9375q-0.78125 0.9375 -0.78125 2.703125zm8.875717 -6.546875l0 -1.90625l1.640625 0l0 1.90625l-1.640625 0zm-2.078125 15.203125l0.3125 -1.390625q0.5 0.125 0.78125 0.125q0.5 0 0.734375 -0.328125q0.25 -0.328125 0.25 -1.671875l0 -10.15625l1.640625 0l0 10.203125q0 1.78125 -0.46875 2.484375q-0.59375 0.90625 -1.96875 0.90625q-0.65625 0 -1.28125 -0.171875zm12.863571 -6.859375l1.6875 0.203125q-0.40625 1.484375 -1.484375 2.3125q-1.078125 0.8125 -2.765625 0.8125q-2.125 0 -3.375 -1.296875q-1.234375 -1.3125 -1.234375 -3.671875q0 -2.453125 1.25 -3.796875q1.265625 -1.34375 3.265625 -1.34375q1.9375 0 3.15625 1.328125q1.234375 1.3125 1.234375 3.703125q0 0.15625 0 0.4375l-7.21875 0q0.09375 1.59375 0.90625 2.453125q0.8125 0.84375 2.015625 0.84375q0.90625 0 1.546875 -0.46875q0.640625 -0.484375 1.015625 -1.515625zm-5.390625 -2.65625l5.40625 0q-0.109375 -1.21875 -0.625 -1.828125q-0.78125 -0.953125 -2.03125 -0.953125q-1.125 0 -1.90625 0.765625q-0.765625 0.75 -0.84375 2.015625zm9.141342 5.765625l0 -13.359375l1.640625 0l0 7.625l3.890625 -3.9375l2.109375 0l-3.6875 3.59375l4.0625 6.078125l-2.015625 0l-3.203125 -4.953125l-1.15625 1.125l0 3.828125l-1.640625 0zm12.90625 -1.46875l0.234375 1.453125q-0.6875 0.140625 -1.234375 0.140625q-0.890625 0 -1.390625 -0.28125q-0.484375 -0.28125 -0.6875 -0.734375q-0.203125 -0.46875 -0.203125 -1.9375l0 -5.578125l-1.203125 0l0 -1.265625l1.203125 0l0 -2.390625l1.625 -0.984375l0 3.375l1.65625 0l0 1.265625l-1.65625 0l0 5.671875q0 0.6875 0.078125 0.890625q0.09375 0.203125 0.28125 0.328125q0.203125 0.109375 0.578125 0.109375q0.265625 0 0.71875 -0.0625z" fill-rule="nonzero"/><path fill="#000000" fill-opacity="0.0" d="m157.46588 213.05118l176.25195 0l0 38.04724l-176.25195 0z" fill-rule="evenodd"/><path fill="#000000" d="m250.3565 237.9348l0 -2.203125l2.203125 0l0 2.203125l-2.203125 0zm-5.328125 0l0 -2.203125l2.203125 0l0 2.203125l-2.203125 0zm-5.328125 0l0 -2.203125l2.1875 0l0 2.203125l-2.1875 0z" fill-rule="nonzero"/></g></svg>