<svg version="1.1" viewBox="0.0 0.0 469.01574803149606 469.0" fill="none" stroke="none" stroke-linecap="square" stroke-miterlimit="10" xmlns:xlink="http://www.w3.org/1999/xlink" xmlns="http://www.w3.org/2000/svg"><clipPath id="p.0"><path d="m0 0l469.01575 0l0 469.0l-469.01575 0l0 -469.0z" clip-rule="nonzero"/></clipPath><g clip-path="url(#p.0)"><path fill="#000000" fill-opacity="0.0" d="m0 0l469.01575 0l0 469.0l-469.01575 0z" fill-rule="evenodd"/><path fill="#000000" fill-opacity="0.0" d="m7.9422574 6.9081364l56.692913 0l0 56.692917l-56.692913 0z" fill-rule="evenodd"/><path stroke="#000000" stroke-width="2.0" stroke-linejoin="round" stroke-linecap="butt" d="m7.9422574 6.9081364l56.692913 0l0 56.692917l-56.692913 0z" fill-rule="evenodd"/><path fill="#d9d9d9" d="m178.021 6.9081364l56.692917 0l0 56.692917l-56.692917 0z" fill-rule="evenodd"/><path stroke="#000000" stroke-width="2.0" stroke-linejoin="round" stroke-linecap="butt" d="m178.021 6.9081364l56.692917 0l0 56.692917l-56.692917 0z" fill-rule="evenodd"/><path fill="#000000" fill-opacity="0.0" d="m121.32809 6.9081364l56.69291 0l0 56.692917l-56.69291 0z" fill-rule="evenodd"/><path stroke="#000000" stroke-width="2.0" stroke-linejoin="round" stroke-linecap="butt" d="m121.32809 6.9081364l56.69291 0l0 56.692917l-56.69291 0z" fill-rule="evenodd"/><path fill="#d9d9d9" d="m64.63517 6.9081364l56.692917 0l0 56.692917l-56.692917 0z" fill-rule="evenodd"/><path stroke="#000000" stroke-width="2.0" stroke-linejoin="round" stroke-linecap="butt" d="m64.63517 6.9081364l56.692917 0l0 56.692917l-56.692917 0z" fill-rule="evenodd"/><path fill="#d9d9d9" d="m7.9422574 63.60105l56.692913 0l0 56.69291l-56.692913 0z" fill-rule="evenodd"/><path stroke="#000000" stroke-width="2.0" stroke-linejoin="round" stroke-linecap="butt" d="m7.9422574 63.60105l56.692913 0l0 56.69291l-56.692913 0z" fill-rule="evenodd"/><path fill="#000000" fill-opacity="0.0" d="m178.021 63.60105l56.692917 0l0 56.69291l-56.692917 0z" fill-rule="evenodd"/><path stroke="#000000" stroke-width="2.0" stroke-linejoin="round" stroke-linecap="butt" d="m178.021 63.60105l56.692917 0l0 56.69291l-56.692917 0z" fill-rule="evenodd"/><path fill="#d9d9d9" d="m121.32809 63.60105l56.69291 0l0 56.69291l-56.69291 0z" fill-rule="evenodd"/><path stroke="#000000" stroke-width="2.0" stroke-linejoin="round" stroke-linecap="butt" d="m121.32809 63.60105l56.69291 0l0 56.69291l-56.69291 0z" fill-rule="evenodd"/><path fill="#000000" fill-opacity="0.0" d="m64.63517 63.60105l56.692917 0l0 56.69291l-56.692917 0z" fill-rule="evenodd"/><path stroke="#000000" stroke-width="2.0" stroke-linejoin="round" stroke-linecap="butt" d="m64.63517 63.60105l56.692917 0l0 56.69291l-56.692917 0z" fill-rule="evenodd"/><path fill="#000000" fill-opacity="0.0" d="m7.9422574 120.29396l56.692913 0l0 56.692917l-56.692913 0z" fill-rule="evenodd"/><path stroke="#000000" stroke-width="2.0" stroke-linejoin="round" stroke-linecap="butt" d="m7.9422574 120.29396l56.692913 0l0 56.692917l-56.692913 0z" fill-rule="evenodd"/><path fill="#d9d9d9" d="m178.021 120.29396l56.692917 0l0 56.692917l-56.692917 0z" fill-rule="evenodd"/><path stroke="#000000" stroke-width="2.0" stroke-linejoin="round" stroke-linecap="butt" d="m178.021 120.29396l56.692917 0l0 56.692917l-56.692917 0z" fill-rule="evenodd"/><path fill="#000000" fill-opacity="0.0" d="m121.32809 120.29396l56.69291 0l0 56.692917l-56.69291 0z" fill-rule="evenodd"/><path stroke="#000000" stroke-width="2.0" stroke-linejoin="round" stroke-linecap="butt" d="m121.32809 120.29396l56.69291 0l0 56.692917l-56.69291 0z" fill-rule="evenodd"/><path fill="#d9d9d9" d="m64.63517 120.29396l56.692917 0l0 56.692917l-56.692917 0z" fill-rule="evenodd"/><path stroke="#000000" stroke-width="2.0" stroke-linejoin="round" stroke-linecap="butt" d="m64.63517 120.29396l56.692917 0l0 56.692917l-56.692917 0z" fill-rule="evenodd"/><path fill="#000000" fill-opacity="0.0" d="m7.9422574 6.9081364l453.5433 0l0 453.5433l-453.5433 0z" fill-rule="evenodd"/><path stroke="#000000" stroke-width="3.0" stroke-linejoin="round" stroke-linecap="butt" d="m7.9422574 6.9081364l453.5433 0l0 453.5433l-453.5433 0z" fill-rule="evenodd"/><path fill="#000000" fill-opacity="0.0" d="m234.71391 6.9081364l56.692917 0l0 56.692917l-56.692917 0z" fill-rule="evenodd"/><path stroke="#000000" stroke-width="2.0" stroke-linejoin="round" stroke-linecap="butt" d="m234.71391 6.9081364l56.692917 0l0 56.692917l-56.692917 0z" fill-rule="evenodd"/><path fill="#d9d9d9" d="m404.79266 6.9081364l56.6929 0l0 56.692917l-56.6929 0z" fill-rule="evenodd"/><path stroke="#000000" stroke-width="2.0" stroke-linejoin="round" stroke-linecap="butt" d="m404.79266 6.9081364l56.6929 0l0 56.692917l-56.6929 0z" fill-rule="evenodd"/><path fill="#000000" fill-opacity="0.0" d="m348.09973 6.9081364l56.692932 0l0 56.692917l-56.692932 0z" fill-rule="evenodd"/><path stroke="#000000" stroke-width="2.0" stroke-linejoin="round" stroke-linecap="butt" d="m348.09973 6.9081364l56.692932 0l0 56.692917l-56.692932 0z" fill-rule="evenodd"/><path fill="#d9d9d9" d="m291.40683 6.9081364l56.6929 0l0 56.692917l-56.6929 0z" fill-rule="evenodd"/><path stroke="#000000" stroke-width="2.0" stroke-linejoin="round" stroke-linecap="butt" d="m291.40683 6.9081364l56.6929 0l0 56.692917l-56.6929 0z" fill-rule="evenodd"/><path fill="#d9d9d9" d="m234.71391 63.60105l56.692917 0l0 56.69291l-56.692917 0z" fill-rule="evenodd"/><path stroke="#000000" stroke-width="2.0" stroke-linejoin="round" stroke-linecap="butt" d="m234.71391 63.60105l56.692917 0l0 56.69291l-56.692917 0z" fill-rule="evenodd"/><path fill="#000000" fill-opacity="0.0" d="m404.79266 63.60105l56.6929 0l0 56.69291l-56.6929 0z" fill-rule="evenodd"/><path stroke="#000000" stroke-width="2.0" stroke-linejoin="round" stroke-linecap="butt" d="m404.79266 63.60105l56.6929 0l0 56.69291l-56.6929 0z" fill-rule="evenodd"/><path fill="#d9d9d9" d="m348.09973 63.60105l56.692932 0l0 56.69291l-56.692932 0z" fill-rule="evenodd"/><path stroke="#000000" stroke-width="2.0" stroke-linejoin="round" stroke-linecap="butt" d="m348.09973 63.60105l56.692932 0l0 56.69291l-56.692932 0z" fill-rule="evenodd"/><path fill="#000000" fill-opacity="0.0" d="m291.40683 63.60105l56.6929 0l0 56.69291l-56.6929 0z" fill-rule="evenodd"/><path stroke="#000000" stroke-width="2.0" stroke-linejoin="round" stroke-linecap="butt" d="m291.40683 63.60105l56.6929 0l0 56.69291l-56.6929 0z" fill-rule="evenodd"/><path fill="#000000" fill-opacity="0.0" d="m234.71391 120.29396l56.692917 0l0 56.692917l-56.692917 0z" fill-rule="evenodd"/><path stroke="#000000" stroke-width="2.0" stroke-linejoin="round" stroke-linecap="butt" d="m234.71391 120.29396l56.692917 0l0 56.692917l-56.692917 0z" fill-rule="evenodd"/><path fill="#d9d9d9" d="m404.79266 120.29396l56.6929 0l0 56.692917l-56.6929 0z" fill-rule="evenodd"/><path stroke="#000000" stroke-width="2.0" stroke-linejoin="round" stroke-linecap="butt" d="m404.79266 120.29396l56.6929 0l0 56.692917l-56.6929 0z" fill-rule="evenodd"/><path fill="#000000" fill-opacity="0.0" d="m348.09973 120.29396l56.692932 0l0 56.692917l-56.692932 0z" fill-rule="evenodd"/><path stroke="#000000" stroke-width="2.0" stroke-linejoin="round" stroke-linecap="butt" d="m348.09973 120.29396l56.692932 0l0 56.692917l-56.692932 0z" fill-rule="evenodd"/><path fill="#d9d9d9" d="m291.40683 120.29396l56.6929 0l0 56.692917l-56.6929 0z" fill-rule="evenodd"/><path stroke="#000000" stroke-width="2.0" stroke-linejoin="round" stroke-linecap="butt" d="m291.40683 120.29396l56.6929 0l0 56.692917l-56.6929 0z" fill-rule="evenodd"/><path fill="#d9d9d9" d="m7.9422574 176.98688l56.692913 0l0 56.692917l-56.692913 0z" fill-rule="evenodd"/><path stroke="#000000" stroke-width="2.0" stroke-linejoin="round" stroke-linecap="butt" d="m7.9422574 176.98688l56.692913 0l0 56.692917l-56.692913 0z" fill-rule="evenodd"/><path fill="#000000" fill-opacity="0.0" d="m178.021 176.98688l56.692917 0l0 56.692917l-56.692917 0z" fill-rule="evenodd"/><path stroke="#000000" stroke-width="2.0" stroke-linejoin="round" stroke-linecap="butt" d="m178.021 176.98688l56.692917 0l0 56.692917l-56.692917 0z" fill-rule="evenodd"/><path fill="#d9d9d9" d="m121.32809 176.98688l56.69291 0l0 56.692917l-56.69291 0z" fill-rule="evenodd"/><path stroke="#000000" stroke-width="2.0" stroke-linejoin="round" stroke-linecap="butt" d="m121.32809 176.98688l56.69291 0l0 56.692917l-56.69291 0z" fill-rule="evenodd"/><path fill="#000000" fill-opacity="0.0" d="m64.63517 176.98688l56.692917 0l0 56.692917l-56.692917 0z" fill-rule="evenodd"/><path stroke="#000000" stroke-width="2.0" stroke-linejoin="round" stroke-linecap="butt" d="m64.63517 176.98688l56.692917 0l0 56.692917l-56.692917 0z" fill-rule="evenodd"/><path fill="#000000" fill-opacity="0.0" d="m7.9422574 233.6798l56.692913 0l0 56.692917l-56.692913 0z" fill-rule="evenodd"/><path stroke="#000000" stroke-width="2.0" stroke-linejoin="round" stroke-linecap="butt" d="m7.9422574 233.6798l56.692913 0l0 56.692917l-56.692913 0z" fill-rule="evenodd"/><path fill="#d9d9d9" d="m178.021 233.6798l56.692917 0l0 56.692917l-56.692917 0z" fill-rule="evenodd"/><path stroke="#000000" stroke-width="2.0" stroke-linejoin="round" stroke-linecap="butt" d="m178.021 233.6798l56.692917 0l0 56.692917l-56.692917 0z" fill-rule="evenodd"/><path fill="#000000" fill-opacity="0.0" d="m121.32809 233.6798l56.69291 0l0 56.692917l-56.69291 0z" fill-rule="evenodd"/><path stroke="#000000" stroke-width="2.0" stroke-linejoin="round" stroke-linecap="butt" d="m121.32809 233.6798l56.69291 0l0 56.692917l-56.69291 0z" fill-rule="evenodd"/><path fill="#d9d9d9" d="m64.63517 233.6798l56.692917 0l0 56.692917l-56.692917 0z" fill-rule="evenodd"/><path stroke="#000000" stroke-width="2.0" stroke-linejoin="round" stroke-linecap="butt" d="m64.63517 233.6798l56.692917 0l0 56.692917l-56.692917 0z" fill-rule="evenodd"/><path fill="#d9d9d9" d="m7.9422574 290.3727l56.692913 0l0 56.6929l-56.692913 0z" fill-rule="evenodd"/><path stroke="#000000" stroke-width="2.0" stroke-linejoin="round" stroke-linecap="butt" d="m7.9422574 290.3727l56.692913 0l0 56.6929l-56.692913 0z" fill-rule="evenodd"/><path fill="#000000" fill-opacity="0.0" d="m178.021 290.3727l56.692917 0l0 56.6929l-56.692917 0z" fill-rule="evenodd"/><path stroke="#000000" stroke-width="2.0" stroke-linejoin="round" stroke-linecap="butt" d="m178.021 290.3727l56.692917 0l0 56.6929l-56.692917 0z" fill-rule="evenodd"/><path fill="#d9d9d9" d="m121.32809 290.3727l56.69291 0l0 56.6929l-56.69291 0z" fill-rule="evenodd"/><path stroke="#000000" stroke-width="2.0" stroke-linejoin="round" stroke-linecap="butt" d="m121.32809 290.3727l56.69291 0l0 56.6929l-56.69291 0z" fill-rule="evenodd"/><path fill="#000000" fill-opacity="0.0" d="m64.63517 290.3727l56.692917 0l0 56.6929l-56.692917 0z" fill-rule="evenodd"/><path stroke="#000000" stroke-width="2.0" stroke-linejoin="round" stroke-linecap="butt" d="m64.63517 290.3727l56.692917 0l0 56.6929l-56.692917 0z" fill-rule="evenodd"/><path fill="#d9d9d9" d="m234.71391 176.98688l56.692917 0l0 56.692917l-56.692917 0z" fill-rule="evenodd"/><path stroke="#000000" stroke-width="2.0" stroke-linejoin="round" stroke-linecap="butt" d="m234.71391 176.98688l56.692917 0l0 56.692917l-56.692917 0z" fill-rule="evenodd"/><path fill="#000000" fill-opacity="0.0" d="m404.79266 176.98688l56.6929 0l0 56.692917l-56.6929 0z" fill-rule="evenodd"/><path stroke="#000000" stroke-width="2.0" stroke-linejoin="round" stroke-linecap="butt" d="m404.79266 176.98688l56.6929 0l0 56.692917l-56.6929 0z" fill-rule="evenodd"/><path fill="#d9d9d9" d="m348.09973 176.98688l56.692932 0l0 56.692917l-56.692932 0z" fill-rule="evenodd"/><path stroke="#000000" stroke-width="2.0" stroke-linejoin="round" stroke-linecap="butt" d="m348.09973 176.98688l56.692932 0l0 56.692917l-56.692932 0z" fill-rule="evenodd"/><path fill="#000000" fill-opacity="0.0" d="m291.40683 176.98688l56.6929 0l0 56.692917l-56.6929 0z" fill-rule="evenodd"/><path stroke="#000000" stroke-width="2.0" stroke-linejoin="round" stroke-linecap="butt" d="m291.40683 176.98688l56.6929 0l0 56.692917l-56.6929 0z" fill-rule="evenodd"/><path fill="#000000" fill-opacity="0.0" d="m234.71391 233.6798l56.692917 0l0 56.692917l-56.692917 0z" fill-rule="evenodd"/><path stroke="#000000" stroke-width="2.0" stroke-linejoin="round" stroke-linecap="butt" d="m234.71391 233.6798l56.692917 0l0 56.692917l-56.692917 0z" fill-rule="evenodd"/><path fill="#d9d9d9" d="m404.79266 233.6798l56.6929 0l0 56.692917l-56.6929 0z" fill-rule="evenodd"/><path stroke="#000000" stroke-width="2.0" stroke-linejoin="round" stroke-linecap="butt" d="m404.79266 233.6798l56.6929 0l0 56.692917l-56.6929 0z" fill-rule="evenodd"/><path fill="#000000" fill-opacity="0.0" d="m348.09973 233.6798l56.692932 0l0 56.692917l-56.692932 0z" fill-rule="evenodd"/><path stroke="#000000" stroke-width="2.0" stroke-linejoin="round" stroke-linecap="butt" d="m348.09973 233.6798l56.692932 0l0 56.692917l-56.692932 0z" fill-rule="evenodd"/><path fill="#d9d9d9" d="m291.40683 233.6798l56.6929 0l0 56.692917l-56.6929 0z" fill-rule="evenodd"/><path stroke="#000000" stroke-width="2.0" stroke-linejoin="round" stroke-linecap="butt" d="m291.40683 233.6798l56.6929 0l0 56.692917l-56.6929 0z" fill-rule="evenodd"/><path fill="#d9d9d9" d="m234.71391 290.3727l56.692917 0l0 56.6929l-56.692917 0z" fill-rule="evenodd"/><path stroke="#000000" stroke-width="2.0" stroke-linejoin="round" stroke-linecap="butt" d="m234.71391 290.3727l56.692917 0l0 56.6929l-56.692917 0z" fill-rule="evenodd"/><path fill="#000000" fill-opacity="0.0" d="m404.79266 290.3727l56.6929 0l0 56.6929l-56.6929 0z" fill-rule="evenodd"/><path stroke="#000000" stroke-width="2.0" stroke-linejoin="round" stroke-linecap="butt" d="m404.79266 290.3727l56.6929 0l0 56.6929l-56.6929 0z" fill-rule="evenodd"/><path fill="#d9d9d9" d="m348.09973 290.3727l56.692932 0l0 56.6929l-56.692932 0z" fill-rule="evenodd"/><path stroke="#000000" stroke-width="2.0" stroke-linejoin="round" stroke-linecap="butt" d="m348.09973 290.3727l56.692932 0l0 56.6929l-56.692932 0z" fill-rule="evenodd"/><path fill="#000000" fill-opacity="0.0" d="m291.40683 290.3727l56.6929 0l0 56.6929l-56.6929 0z" fill-rule="evenodd"/><path stroke="#000000" stroke-width="2.0" stroke-linejoin="round" stroke-linecap="butt" d="m291.40683 290.3727l56.6929 0l0 56.6929l-56.6929 0z" fill-rule="evenodd"/><path fill="#000000" fill-opacity="0.0" d="m7.9422574 347.0656l56.692913 0l0 56.692932l-56.692913 0z" fill-rule="evenodd"/><path stroke="#000000" stroke-width="2.0" stroke-linejoin="round" stroke-linecap="butt" d="m7.9422574 347.0656l56.692913 0l0 56.692932l-56.692913 0z" fill-rule="evenodd"/><path fill="#d9d9d9" d="m178.021 347.0656l56.692917 0l0 56.692932l-56.692917 0z" fill-rule="evenodd"/><path stroke="#000000" stroke-width="2.0" stroke-linejoin="round" stroke-linecap="butt" d="m178.021 347.0656l56.692917 0l0 56.692932l-56.692917 0z" fill-rule="evenodd"/><path fill="#000000" fill-opacity="0.0" d="m121.32809 347.0656l56.69291 0l0 56.692932l-56.69291 0z" fill-rule="evenodd"/><path stroke="#000000" stroke-width="2.0" stroke-linejoin="round" stroke-linecap="butt" d="m121.32809 347.0656l56.69291 0l0 56.692932l-56.69291 0z" fill-rule="evenodd"/><path fill="#d9d9d9" d="m64.63517 347.0656l56.692917 0l0 56.692932l-56.692917 0z" fill-rule="evenodd"/><path stroke="#000000" stroke-width="2.0" stroke-linejoin="round" stroke-linecap="butt" d="m64.63517 347.0656l56.692917 0l0 56.692932l-56.692917 0z" fill-rule="evenodd"/><path fill="#d9d9d9" d="m7.9422574 403.75854l56.692913 0l0 56.6929l-56.692913 0z" fill-rule="evenodd"/><path stroke="#000000" stroke-width="2.0" stroke-linejoin="round" stroke-linecap="butt" d="m7.9422574 403.75854l56.692913 0l0 56.6929l-56.692913 0z" fill-rule="evenodd"/><path fill="#000000" fill-opacity="0.0" d="m178.021 403.75854l56.692917 0l0 56.6929l-56.692917 0z" fill-rule="evenodd"/><path stroke="#000000" stroke-width="2.0" stroke-linejoin="round" stroke-linecap="butt" d="m178.021 403.75854l56.692917 0l0 56.6929l-56.692917 0z" fill-rule="evenodd"/><path fill="#d9d9d9" d="m121.32809 403.75854l56.69291 0l0 56.6929l-56.69291 0z" fill-rule="evenodd"/><path stroke="#000000" stroke-width="2.0" stroke-linejoin="round" stroke-linecap="butt" d="m121.32809 403.75854l56.69291 0l0 56.6929l-56.69291 0z" fill-rule="evenodd"/><path fill="#000000" fill-opacity="0.0" d="m64.63517 403.75854l56.692917 0l0 56.6929l-56.692917 0z" fill-rule="evenodd"/><path stroke="#000000" stroke-width="2.0" stroke-linejoin="round" stroke-linecap="butt" d="m64.63517 403.75854l56.692917 0l0 56.6929l-56.692917 0z" fill-rule="evenodd"/><path fill="#000000" fill-opacity="0.0" d="m234.71391 347.0656l56.692917 0l0 56.692932l-56.692917 0z" fill-rule="evenodd"/><path stroke="#000000" stroke-width="2.0" stroke-linejoin="round" stroke-linecap="butt" d="m234.71391 347.0656l56.692917 0l0 56.692932l-56.692917 0z" fill-rule="evenodd"/><path fill="#d9d9d9" d="m404.79266 347.0656l56.6929 0l0 56.692932l-56.6929 0z" fill-rule="evenodd"/><path stroke="#000000" stroke-width="2.0" stroke-linejoin="round" stroke-linecap="butt" d="m404.79266 347.0656l56.6929 0l0 56.692932l-56.6929 0z" fill-rule="evenodd"/><path fill="#000000" fill-opacity="0.0" d="m348.09973 347.0656l56.692932 0l0 56.692932l-56.692932 0z" fill-rule="evenodd"/><path stroke="#000000" stroke-width="2.0" stroke-linejoin="round" stroke-linecap="butt" d="m348.09973 347.0656l56.692932 0l0 56.692932l-56.692932 0z" fill-rule="evenodd"/><path fill="#d9d9d9" d="m291.40683 347.0656l56.6929 0l0 56.692932l-56.6929 0z" fill-rule="evenodd"/><path stroke="#000000" stroke-width="2.0" stroke-linejoin="round" stroke-linecap="butt" d="m291.40683 347.0656l56.6929 0l0 56.692932l-56.6929 0z" fill-rule="evenodd"/><path fill="#d9d9d9" d="m234.71391 403.75854l56.692917 0l0 56.6929l-56.692917 0z" fill-rule="evenodd"/><path stroke="#000000" stroke-width="2.0" stroke-linejoin="round" stroke-linecap="butt" d="m234.71391 403.75854l56.692917 0l0 56.6929l-56.692917 0z" fill-rule="evenodd"/><path fill="#000000" fill-opacity="0.0" d="m404.79266 403.75854l56.6929 0l0 56.6929l-56.6929 0z" fill-rule="evenodd"/><path stroke="#000000" stroke-width="2.0" stroke-linejoin="round" stroke-linecap="butt" d="m404.79266 403.75854l56.6929 0l0 56.6929l-56.6929 0z" fill-rule="evenodd"/><path fill="#d9d9d9" d="m348.09973 403.75854l56.692932 0l0 56.6929l-56.692932 0z" fill-rule="evenodd"/><path stroke="#000000" stroke-width="2.0" stroke-linejoin="round" stroke-linecap="butt" d="m348.09973 403.75854l56.692932 0l0 56.6929l-56.692932 0z" fill-rule="evenodd"/><path fill="#000000" fill-opacity="0.0" d="m291.40683 403.75854l56.6929 0l0 56.6929l-56.6929 0z" fill-rule="evenodd"/><path stroke="#000000" stroke-width="2.0" stroke-linejoin="round" stroke-linecap="butt" d="m291.40683 403.75854l56.6929 0l0 56.6929l-56.6929 0z" fill-rule="evenodd"/><path fill="#d9d9d9" d="m189.35957 205.33333l0 0c0 -9.393188 7.614685 -17.007874 17.007874 -17.007874l0 0c4.5107727 0 8.836792 1.7919006 12.026398 4.981491c3.1895905 3.1896057 4.981491 7.515625 4.981491 12.026382l0 0c0 9.393188 -7.614685 17.007874 -17.007889 17.007874l0 0c-9.393188 0 -17.007874 -7.614685 -17.007874 -17.007874z" fill-rule="evenodd"/><path stroke="#000000" stroke-width="2.0" stroke-linejoin="round" stroke-linecap="butt" d="m189.35957 205.33333l0 0c0 -9.393188 7.614685 -17.007874 17.007874 -17.007874l0 0c4.5107727 0 8.836792 1.7919006 12.026398 4.981491c3.1895905 3.1896057 4.981491 7.515625 4.981491 12.026382l0 0c0 9.393188 -7.614685 17.007874 -17.007889 17.007874l0 0c-9.393188 0 -17.007874 -7.614685 -17.007874 -17.007874z" fill-rule="evenodd"/><path fill="#ffffff" d="m132.66667 318.71915l0 0c0 -9.393188 7.614685 -17.007874 17.007874 -17.007874l0 0c4.5107574 0 8.836777 1.7919006 12.026382 4.9815063c3.1895905 3.1896057 4.981491 7.515625 4.981491 12.026367l0 0c0 9.393188 -7.614685 17.007874 -17.007874 17.007874l0 0c-9.393188 0 -17.007874 -7.614685 -17.007874 -17.007874z" fill-rule="evenodd"/><path stroke="#000000" stroke-width="2.0" stroke-linejoin="round" stroke-linecap="butt" d="m132.66667 318.71915l0 0c0 -9.393188 7.614685 -17.007874 17.007874 -17.007874l0 0c4.5107574 0 8.836777 1.7919006 12.026382 4.9815063c3.1895905 3.1896057 4.981491 7.515625 4.981491 12.026367l0 0c0 9.393188 -7.614685 17.007874 -17.007874 17.007874l0 0c-9.393188 0 -17.007874 -7.614685 -17.007874 -17.007874z" fill-rule="evenodd"/><path fill="#ffffff" d="m246.05249 318.71915l0 0c0 -9.393188 7.614685 -17.007874 17.007874 -17.007874l0 0c4.5107727 0 8.836792 1.7919006 12.026398 4.9815063c3.1895752 3.1896057 4.981476 7.515625 4.981476 12.026367l0 0c0 9.393188 -7.614685 17.007874 -17.007874 17.007874l0 0c-9.393188 0 -17.007874 -7.614685 -17.007874 -17.007874z" fill-rule="evenodd"/><path stroke="#000000" stroke-width="2.0" stroke-linejoin="round" stroke-linecap="butt" d="m246.05249 318.71915l0 0c0 -9.393188 7.614685 -17.007874 17.007874 -17.007874l0 0c4.5107727 0 8.836792 1.7919006 12.026398 4.9815063c3.1895752 3.1896057 4.981476 7.515625 4.981476 12.026367l0 0c0 9.393188 -7.614685 17.007874 -17.007874 17.007874l0 0c-9.393188 0 -17.007874 -7.614685 -17.007874 -17.007874z" fill-rule="evenodd"/><path fill="#ffffff" d="m75.973755 262.02625l0 0c0 -9.393188 7.614685 -17.007874 17.007874 -17.007874l0 0c4.510765 0 8.836784 1.7919006 12.026382 4.981491c3.189598 3.1895905 4.981491 7.5156097 4.981491 12.026382l0 0c0 9.393188 -7.614685 17.007874 -17.007874 17.007874l0 0c-9.393188 0 -17.007874 -7.614685 -17.007874 -17.007874z" fill-rule="evenodd"/><path stroke="#000000" stroke-width="2.0" stroke-linejoin="round" stroke-linecap="butt" d="m75.973755 262.02625l0 0c0 -9.393188 7.614685 -17.007874 17.007874 -17.007874l0 0c4.510765 0 8.836784 1.7919006 12.026382 4.981491c3.189598 3.1895905 4.981491 7.5156097 4.981491 12.026382l0 0c0 9.393188 -7.614685 17.007874 -17.007874 17.007874l0 0c-9.393188 0 -17.007874 -7.614685 -17.007874 -17.007874z" fill-rule="evenodd"/><path fill="#ffffff" d="m302.7454 262.02625l0 0c0 -9.393188 7.614685 -17.007874 17.007904 -17.007874l0 0c4.510742 0 8.836761 1.7919006 12.026367 4.981491c3.1896057 3.1895905 4.9815063 7.5156097 4.9815063 12.026382l0 0c0 9.393188 -7.614685 17.007874 -17.007874 17.007874l0 0c-9.393219 0 -17.007904 -7.614685 -17.007904 -17.007874z" fill-rule="evenodd"/><path stroke="#000000" stroke-width="2.0" stroke-linejoin="round" stroke-linecap="butt" d="m302.7454 262.02625l0 0c0 -9.393188 7.614685 -17.007874 17.007904 -17.007874l0 0c4.510742 0 8.836761 1.7919006 12.026367 4.981491c3.1896057 3.1895905 4.9815063 7.5156097 4.9815063 12.026382l0 0c0 9.393188 -7.614685 17.007874 -17.007874 17.007874l0 0c-9.393219 0 -17.007904 -7.614685 -17.007904 -17.007874z" fill-rule="evenodd"/><path fill="#ffffff" d="m75.973755 148.64043l0 0c0 -9.393204 7.614685 -17.007874 17.007874 -17.007874l0 0c4.510765 0 8.836784 1.7918854 12.026382 4.981491c3.189598 3.1895905 4.981491 7.5156097 4.981491 12.026382l0 0c0 9.393188 -7.614685 17.007874 -17.007874 17.007874l0 0c-9.393188 0 -17.007874 -7.614685 -17.007874 -17.007874z" fill-rule="evenodd"/><path stroke="#000000" stroke-width="2.0" stroke-linejoin="round" stroke-linecap="butt" d="m75.973755 148.64043l0 0c0 -9.393204 7.614685 -17.007874 17.007874 -17.007874l0 0c4.510765 0 8.836784 1.7918854 12.026382 4.981491c3.189598 3.1895905 4.981491 7.5156097 4.981491 12.026382l0 0c0 9.393188 -7.614685 17.007874 -17.007874 17.007874l0 0c-9.393188 0 -17.007874 -7.614685 -17.007874 -17.007874z" fill-rule="evenodd"/><path fill="#ffffff" d="m302.7454 148.64043l0 0c0 -9.393204 7.614685 -17.007874 17.007904 -17.007874l0 0c4.510742 0 8.836761 1.7918854 12.026367 4.981491c3.1896057 3.1895905 4.9815063 7.5156097 4.9815063 12.026382l0 0c0 9.393188 -7.614685 17.007874 -17.007874 17.007874l0 0c-9.393219 0 -17.007904 -7.614685 -17.007904 -17.007874z" fill-rule="evenodd"/><path stroke="#000000" stroke-width="2.0" stroke-linejoin="round" stroke-linecap="butt" d="m302.7454 148.64043l0 0c0 -9.393204 7.614685 -17.007874 17.007904 -17.007874l0 0c4.510742 0 8.836761 1.7918854 12.026367 4.981491c3.1896057 3.1895905 4.9815063 7.5156097 4.9815063 12.026382l0 0c0 9.393188 -7.614685 17.007874 -17.007874 17.007874l0 0c-9.393219 0 -17.007904 -7.614685 -17.007904 -17.007874z" fill-rule="evenodd"/><path fill="#ffffff" d="m132.66667 91.94751l0 0c0 -9.393196 7.614685 -17.007874 17.007874 -17.007874l0 0c4.5107574 0 8.836777 1.791893 12.026382 4.981491c3.1895905 3.1895905 4.981491 7.5156097 4.981491 12.026382l0 0c0 9.393188 -7.614685 17.007874 -17.007874 17.007874l0 0c-9.393188 0 -17.007874 -7.614685 -17.007874 -17.007874z" fill-rule="evenodd"/><path stroke="#000000" stroke-width="2.0" stroke-linejoin="round" stroke-linecap="butt" d="m132.66667 91.94751l0 0c0 -9.393196 7.614685 -17.007874 17.007874 -17.007874l0 0c4.5107574 0 8.836777 1.791893 12.026382 4.981491c3.1895905 3.1895905 4.981491 7.5156097 4.981491 12.026382l0 0c0 9.393188 -7.614685 17.007874 -17.007874 17.007874l0 0c-9.393188 0 -17.007874 -7.614685 -17.007874 -17.007874z" fill-rule="evenodd"/><path fill="#ffffff" d="m246.05249 91.94751l0 0c0 -9.393196 7.614685 -17.007874 17.007874 -17.007874l0 0c4.5107727 0 8.836792 1.791893 12.026398 4.981491c3.1895752 3.1895905 4.981476 7.5156097 4.981476 12.026382l0 0c0 9.393188 -7.614685 17.007874 -17.007874 17.007874l0 0c-9.393188 0 -17.007874 -7.614685 -17.007874 -17.007874z" fill-rule="evenodd"/><path stroke="#000000" stroke-width="2.0" stroke-linejoin="round" stroke-linecap="butt" d="m246.05249 91.94751l0 0c0 -9.393196 7.614685 -17.007874 17.007874 -17.007874l0 0c4.5107727 0 8.836792 1.791893 12.026398 4.981491c3.1895752 3.1895905 4.981476 7.5156097 4.981476 12.026382l0 0c0 9.393188 -7.614685 17.007874 -17.007874 17.007874l0 0c-9.393188 0 -17.007874 -7.614685 -17.007874 -17.007874z" fill-rule="evenodd"/><path fill="#000000" fill-opacity="0.0" d="m206.36745 188.32545l-44.661407 -84.34645" fill-rule="evenodd"/><path stroke="#000000" stroke-width="2.0" stroke-linejoin="round" stroke-linecap="butt" d="m206.36745 188.32545l-39.04602 -73.74139" fill-rule="evenodd"/><path fill="#000000" stroke="#000000" stroke-width="2.0" stroke-linecap="butt" d="m170.24088 113.03822l-7.1666565 -6.4752884l1.3277435 9.566986z" fill-rule="evenodd"/><path fill="#000000" fill-opacity="0.0" d="m218.39384 193.30695l89.32283 -32.629913" fill-rule="evenodd"/><path stroke="#000000" stroke-width="2.0" stroke-linejoin="round" stroke-linecap="butt" d="m218.39384 193.30695l78.05138 -28.512405" fill-rule="evenodd"/><path fill="#000000" stroke="#000000" stroke-width="2.0" stroke-linecap="butt" d="m297.5787 167.89745l7.3916626 -6.2171783l-9.658661 0.011352539z" fill-rule="evenodd"/><path fill="#000000" fill-opacity="0.0" d="m194.34106 193.30695l-89.32283 -32.629913" fill-rule="evenodd"/><path stroke="#000000" stroke-width="2.0" stroke-linejoin="round" stroke-linecap="butt" d="m194.34106 193.30695l-78.051346 -28.512405" fill-rule="evenodd"/><path fill="#000000" stroke="#000000" stroke-width="2.0" stroke-linecap="butt" d="m117.42322 161.69162l-9.658676 -0.011352539l7.39167 6.2171783z" fill-rule="evenodd"/><path fill="#000000" fill-opacity="0.0" d="m218.39384 217.35971l89.32283 32.62993" fill-rule="evenodd"/><path stroke="#000000" stroke-width="2.0" stroke-linejoin="round" stroke-linecap="butt" d="m218.39384 217.35973l78.05138 28.512405" fill-rule="evenodd"/><path fill="#000000" stroke="#000000" stroke-width="2.0" stroke-linecap="butt" d="m295.3117 248.97505l9.658661 0.011367798l-7.3916626 -6.2171936z" fill-rule="evenodd"/><path fill="#000000" fill-opacity="0.0" d="m194.34106 217.35971l-89.32283 32.62993" fill-rule="evenodd"/><path stroke="#000000" stroke-width="2.0" stroke-linejoin="round" stroke-linecap="butt" d="m194.34106 217.35973l-78.05135 28.512405" fill-rule="evenodd"/><path fill="#000000" stroke="#000000" stroke-width="2.0" stroke-linecap="butt" d="m115.15621 242.76923l-7.39167 6.2171936l9.658676 -0.011367798z" fill-rule="evenodd"/><path fill="#000000" fill-opacity="0.0" d="m206.36745 222.3412l44.661423 84.34645" fill-rule="evenodd"/><path stroke="#000000" stroke-width="2.0" stroke-linejoin="round" stroke-linecap="butt" d="m206.36745 222.3412l39.046036 73.74138" fill-rule="evenodd"/><path fill="#000000" stroke="#000000" stroke-width="2.0" stroke-linecap="butt" d="m242.49403 297.62845l7.166641 6.475281l-1.3277283 -9.566986z" fill-rule="evenodd"/><path fill="#000000" fill-opacity="0.0" d="m206.36745 222.3412l-44.661407 84.34645" fill-rule="evenodd"/><path stroke="#000000" stroke-width="2.0" stroke-linejoin="round" stroke-linecap="butt" d="m206.36745 222.3412l-39.04602 73.74138" fill-rule="evenodd"/><path fill="#000000" stroke="#000000" stroke-width="2.0" stroke-linecap="butt" d="m164.40196 294.53674l-1.3277435 9.566986l7.1666565 -6.475281z" fill-rule="evenodd"/><path fill="#000000" fill-opacity="0.0" d="m206.36745 188.32545l44.661423 -84.34645" fill-rule="evenodd"/><path stroke="#000000" stroke-width="2.0" stroke-linejoin="round" stroke-linecap="butt" d="m206.36745 188.32545l39.046036 -73.74139" fill-rule="evenodd"/><path fill="#000000" stroke="#000000" stroke-width="2.0" stroke-linecap="butt" d="m248.33295 116.12992l1.3277283 -9.566986l-7.166641 6.4752884z" fill-rule="evenodd"/></g></svg>