<svg version="1.1" viewBox="0.0 0.0 540.0 183.501312335958" fill="none" stroke="none" stroke-linecap="square" stroke-miterlimit="10" xmlns:xlink="http://www.w3.org/1999/xlink" xmlns="http://www.w3.org/2000/svg"><clipPath id="p.0"><path d="m0 0l540.0 0l0 183.50131l-540.0 0l0 -183.50131z" clip-rule="nonzero"/></clipPath><g clip-path="url(#p.0)"><path fill="#000000" fill-opacity="0.0" d="m0 0l540.0 0l0 183.50131l-540.0 0z" fill-rule="evenodd"/><path fill="#000000" fill-opacity="0.0" d="m7.9081364 7.3333335l56.692917 0l0 56.692913l-56.692917 0z" fill-rule="evenodd"/><path stroke="#000000" stroke-width="2.0" stroke-linejoin="round" stroke-linecap="butt" d="m7.9081364 7.3333335l56.692917 0l0 56.692913l-56.692917 0z" fill-rule="evenodd"/><path fill="#000000" fill-opacity="0.0" d="m177.98688 7.3333335l56.692917 0l0 56.692913l-56.692917 0z" fill-rule="evenodd"/><path stroke="#000000" stroke-width="2.0" stroke-linejoin="round" stroke-linecap="butt" d="m177.98688 7.3333335l56.692917 0l0 56.692913l-56.692917 0z" fill-rule="evenodd"/><path fill="#000000" fill-opacity="0.0" d="m121.29396 7.3333335l56.692917 0l0 56.692913l-56.692917 0z" fill-rule="evenodd"/><path stroke="#000000" stroke-width="2.0" stroke-linejoin="round" stroke-linecap="butt" d="m121.29396 7.3333335l56.692917 0l0 56.692913l-56.692917 0z" fill-rule="evenodd"/><path fill="#d9d9d9" d="m64.60105 7.3333335l56.69291 0l0 56.692913l-56.69291 0z" fill-rule="evenodd"/><path stroke="#000000" stroke-width="2.0" stroke-linejoin="round" stroke-linecap="butt" d="m64.60105 7.3333335l56.69291 0l0 56.692913l-56.69291 0z" fill-rule="evenodd"/><path fill="#000000" d="m78.16974 36.00604q0 -2.359375 0.484375 -3.796875q0.484375 -1.4531231 1.4375 -2.234373q0.96875 -0.78125 2.421875 -0.78125q1.078125 0 1.890625 0.4375q0.8125 0.421875 1.328125 1.25q0.53125 0.8125 0.828125 1.9843731q0.3125 1.15625 0.3125 3.140625q0 2.359375 -0.484375 3.8125q-0.484375 1.4375 -1.453125 2.234375q-0.953125 0.78125 -2.421875 0.78125q-1.921875 0 -3.03125 -1.390625q-1.3125 -1.671875 -1.3125 -5.4375zm1.671875 0q0 3.296875 0.765625 4.390625q0.78125 1.078125 1.90625 1.078125q1.140625 0 1.90625 -1.09375q0.765625 -1.09375 0.765625 -4.375q0 -3.296875 -0.765625 -4.374998q-0.765625 -1.078125 -1.921875 -1.078125q-1.125 0 -1.796875 0.953125q-0.859375 1.2187481 -0.859375 4.499998zm9.578842 6.59375l0 -1.875l1.875 0l0 1.875q0 1.03125 -0.375 1.65625q-0.359375 0.640625 -1.15625 0.984375l-0.453125 -0.703125q0.515625 -0.21875 0.765625 -0.671875q0.25 -0.4375 0.28125 -1.265625l-0.9375 0zm15.663483 0l-1.640625 0l0 -10.453125q-0.59375 0.5625 -1.5625 1.140625q-0.953125 0.5625 -1.71875 0.84375l0 -1.59375q1.375 -0.6406231 2.40625 -1.5624981q1.03125 -0.921875 1.453125 -1.78125l1.0625 0l0 13.406248z" fill-rule="nonzero"/><path fill="#000000" fill-opacity="0.0" d="m7.9081364 64.026245l56.692917 0l0 56.692917l-56.692917 0z" fill-rule="evenodd"/><path stroke="#000000" stroke-width="2.0" stroke-linejoin="round" stroke-linecap="butt" d="m7.9081364 64.026245l56.692917 0l0 56.692917l-56.692917 0z" fill-rule="evenodd"/><path fill="#000000" fill-opacity="0.0" d="m177.98688 64.026245l56.692917 0l0 56.692917l-56.692917 0z" fill-rule="evenodd"/><path stroke="#000000" stroke-width="2.0" stroke-linejoin="round" stroke-linecap="butt" d="m177.98688 64.026245l56.692917 0l0 56.692917l-56.692917 0z" fill-rule="evenodd"/><path fill="#d9d9d9" d="m121.29396 64.026245l56.692917 0l0 56.692917l-56.692917 0z" fill-rule="evenodd"/><path stroke="#000000" stroke-width="2.0" stroke-linejoin="round" stroke-linecap="butt" d="m121.29396 64.026245l56.692917 0l0 56.692917l-56.692917 0z" fill-rule="evenodd"/><path fill="#000000" d="m141.03453 99.2927l-1.640625 0l0 -10.453125q-0.59375 0.5625 -1.5625 1.140625q-0.953125 0.5625 -1.71875 0.84375l0 -1.59375q1.375 -0.640625 2.40625 -1.5625q1.03125 -0.921875 1.453125 -1.78125l1.0625 0l0 13.40625zm5.078842 0l0 -1.875l1.875 0l0 1.875q0 1.03125 -0.375 1.65625q-0.359375 0.640625 -1.15625 0.984375l-0.453125 -0.703125q0.515625 -0.21875 0.765625 -0.671875q0.25 -0.4375 0.28125 -1.265625l-0.9375 0zm18.100983 -1.578125l0 1.578125l-8.828125 0q-0.015625 -0.59375 0.1875 -1.140625q0.34375 -0.90625 1.078125 -1.78125q0.75 -0.875 2.15625 -2.015625q2.171875 -1.78125 2.9375 -2.828125q0.765625 -1.046875 0.765625 -1.96875q0 -0.984375 -0.703125 -1.640625q-0.6875 -0.671875 -1.8125 -0.671875q-1.1875 0 -1.90625 0.71875q-0.703125 0.703125 -0.703125 1.953125l-1.6875 -0.171875q0.171875 -1.890625 1.296875 -2.875q1.140625 -0.984375 3.03125 -0.984375q1.921875 0 3.046875 1.0625q1.125 1.0625 1.125 2.640625q0 0.796875 -0.328125 1.578125q-0.328125 0.78125 -1.09375 1.640625q-0.75 0.84375 -2.53125 2.34375q-1.46875 1.234375 -1.890625 1.6875q-0.421875 0.4375 -0.6875 0.875l6.546875 0z" fill-rule="nonzero"/><path fill="#000000" fill-opacity="0.0" d="m64.60105 64.026245l56.69291 0l0 56.692917l-56.69291 0z" fill-rule="evenodd"/><path stroke="#000000" stroke-width="2.0" stroke-linejoin="round" stroke-linecap="butt" d="m64.60105 64.026245l56.69291 0l0 56.692917l-56.69291 0z" fill-rule="evenodd"/><path fill="#000000" fill-opacity="0.0" d="m7.9081364 120.71916l56.692917 0l0 56.692917l-56.692917 0z" fill-rule="evenodd"/><path stroke="#000000" stroke-width="2.0" stroke-linejoin="round" stroke-linecap="butt" d="m7.9081364 120.71916l56.692917 0l0 56.692917l-56.692917 0z" fill-rule="evenodd"/><path fill="#000000" d="m38.01986 155.98561l-1.640625 0l0 -10.453125q-0.59375 0.5625 -1.5625 1.140625q-0.953125 0.5625 -1.71875 0.84375l0 -1.59375q1.375 -0.640625 2.40625 -1.5625q1.03125 -0.921875 1.453125 -1.78125l1.0625 0l0 13.40625z" fill-rule="nonzero"/><path fill="#000000" fill-opacity="0.0" d="m177.98688 120.71916l56.692917 0l0 56.692917l-56.692917 0z" fill-rule="evenodd"/><path stroke="#000000" stroke-width="2.0" stroke-linejoin="round" stroke-linecap="butt" d="m177.98688 120.71916l56.692917 0l0 56.692917l-56.692917 0z" fill-rule="evenodd"/><path fill="#000000" fill-opacity="0.0" d="m121.29396 120.71916l56.692917 0l0 56.692917l-56.692917 0z" fill-rule="evenodd"/><path stroke="#000000" stroke-width="2.0" stroke-linejoin="round" stroke-linecap="butt" d="m121.29396 120.71916l56.692917 0l0 56.692917l-56.692917 0z" fill-rule="evenodd"/><path fill="#000000" fill-opacity="0.0" d="m64.60105 120.71916l56.69291 0l0 56.692917l-56.69291 0z" fill-rule="evenodd"/><path stroke="#000000" stroke-width="2.0" stroke-linejoin="round" stroke-linecap="butt" d="m64.60105 120.71916l56.69291 0l0 56.692917l-56.69291 0z" fill-rule="evenodd"/><path fill="#000000" fill-opacity="0.0" d="m306.80054 7.60105l56.6929 0l0 56.69291l-56.6929 0z" fill-rule="evenodd"/><path stroke="#000000" stroke-width="2.0" stroke-linejoin="round" stroke-linecap="butt" d="m306.80054 7.60105l56.6929 0l0 56.69291l-56.6929 0z" fill-rule="evenodd"/><path fill="#000000" fill-opacity="0.0" d="m476.87927 7.60105l56.692932 0l0 56.69291l-56.692932 0z" fill-rule="evenodd"/><path stroke="#000000" stroke-width="2.0" stroke-linejoin="round" stroke-linecap="butt" d="m476.87927 7.60105l56.692932 0l0 56.69291l-56.692932 0z" fill-rule="evenodd"/><path fill="#000000" fill-opacity="0.0" d="m420.18634 7.60105l56.692932 0l0 56.69291l-56.692932 0z" fill-rule="evenodd"/><path stroke="#000000" stroke-width="2.0" stroke-linejoin="round" stroke-linecap="butt" d="m420.18634 7.60105l56.692932 0l0 56.69291l-56.692932 0z" fill-rule="evenodd"/><path fill="#000000" fill-opacity="0.0" d="m363.49344 7.60105l56.6929 0l0 56.69291l-56.6929 0z" fill-rule="evenodd"/><path stroke="#000000" stroke-width="2.0" stroke-linejoin="round" stroke-linecap="butt" d="m363.49344 7.60105l56.6929 0l0 56.69291l-56.6929 0z" fill-rule="evenodd"/><path fill="#000000" d="m396.04266 41.289383l0 1.578125l-8.828125 0q-0.015625 -0.59375 0.1875 -1.140625q0.34375 -0.90625 1.078125 -1.78125q0.75 -0.875 2.15625 -2.015625q2.171875 -1.78125 2.9375 -2.828125q0.765625 -1.046875 0.765625 -1.96875q0 -0.984375 -0.703125 -1.6406269q-0.6875 -0.671875 -1.8125 -0.671875q-1.1875 0 -1.90625 0.71875q-0.703125 0.7031269 -0.703125 1.9531269l-1.6875 -0.171875q0.171875 -1.8906269 1.296875 -2.875002q1.140625 -0.984375 3.03125 -0.984375q1.921875 0 3.046875 1.0625q1.125 1.0625 1.125 2.640627q0 0.796875 -0.328125 1.578125q-0.328125 0.78125 -1.09375 1.640625q-0.75 0.84375 -2.53125 2.34375q-1.46875 1.234375 -1.890625 1.6875q-0.421875 0.4375 -0.6875 0.875l6.546875 0z" fill-rule="nonzero"/><path fill="#000000" fill-opacity="0.0" d="m306.80054 64.29396l56.6929 0l0 56.692917l-56.6929 0z" fill-rule="evenodd"/><path stroke="#000000" stroke-width="2.0" stroke-linejoin="round" stroke-linecap="butt" d="m306.80054 64.29396l56.6929 0l0 56.692917l-56.6929 0z" fill-rule="evenodd"/><path fill="#000000" fill-opacity="0.0" d="m476.87927 64.29396l56.692932 0l0 56.692917l-56.692932 0z" fill-rule="evenodd"/><path stroke="#000000" stroke-width="2.0" stroke-linejoin="round" stroke-linecap="butt" d="m476.87927 64.29396l56.692932 0l0 56.692917l-56.692932 0z" fill-rule="evenodd"/><path fill="#000000" fill-opacity="0.0" d="m420.18634 64.29396l56.692932 0l0 56.692917l-56.692932 0z" fill-rule="evenodd"/><path stroke="#000000" stroke-width="2.0" stroke-linejoin="round" stroke-linecap="butt" d="m420.18634 64.29396l56.692932 0l0 56.692917l-56.692932 0z" fill-rule="evenodd"/><path fill="#000000" fill-opacity="0.0" d="m363.49344 64.29396l56.6929 0l0 56.692917l-56.6929 0z" fill-rule="evenodd"/><path stroke="#000000" stroke-width="2.0" stroke-linejoin="round" stroke-linecap="butt" d="m363.49344 64.29396l56.6929 0l0 56.692917l-56.6929 0z" fill-rule="evenodd"/><path fill="#000000" fill-opacity="0.0" d="m306.80054 120.98688l56.6929 0l0 56.692917l-56.6929 0z" fill-rule="evenodd"/><path stroke="#000000" stroke-width="2.0" stroke-linejoin="round" stroke-linecap="butt" d="m306.80054 120.98688l56.6929 0l0 56.692917l-56.6929 0z" fill-rule="evenodd"/><path fill="#000000" d="m336.91226 156.25333l-1.640625 0l0 -10.453125q-0.59375 0.5625 -1.5625 1.140625q-0.953125 0.5625 -1.71875 0.84375l0 -1.59375q1.375 -0.640625 2.40625 -1.5625q1.03125 -0.921875 1.453125 -1.78125l1.0625 0l0 13.40625z" fill-rule="nonzero"/><path fill="#000000" fill-opacity="0.0" d="m476.87927 120.98688l56.692932 0l0 56.692917l-56.692932 0z" fill-rule="evenodd"/><path stroke="#000000" stroke-width="2.0" stroke-linejoin="round" stroke-linecap="butt" d="m476.87927 120.98688l56.692932 0l0 56.692917l-56.692932 0z" fill-rule="evenodd"/><path fill="#000000" fill-opacity="0.0" d="m420.18634 120.98688l56.692932 0l0 56.692917l-56.692932 0z" fill-rule="evenodd"/><path stroke="#000000" stroke-width="2.0" stroke-linejoin="round" stroke-linecap="butt" d="m420.18634 120.98688l56.692932 0l0 56.692917l-56.692932 0z" fill-rule="evenodd"/><path fill="#000000" fill-opacity="0.0" d="m363.49344 120.98688l56.6929 0l0 56.692917l-56.6929 0z" fill-rule="evenodd"/><path stroke="#000000" stroke-width="2.0" stroke-linejoin="round" stroke-linecap="butt" d="m363.49344 120.98688l56.6929 0l0 56.692917l-56.6929 0z" fill-rule="evenodd"/><path fill="#000000" fill-opacity="0.0" d="m242.34645 92.8294l56.7874 -0.37795258" fill-rule="evenodd"/><path stroke="#000000" stroke-width="2.0" stroke-linejoin="round" stroke-linecap="butt" d="m242.34645 92.8294l44.787674 -0.29808807" fill-rule="evenodd"/><path fill="#000000" stroke="#000000" stroke-width="2.0" stroke-linecap="butt" d="m287.1561 95.8347l9.054016 -3.3638l-9.097961 -3.242981z" fill-rule="evenodd"/><path fill="#000000" fill-opacity="0.0" d="m7.9081364 7.3333335l226.77165 0l0 170.07875l-226.77165 0z" fill-rule="evenodd"/><path stroke="#000000" stroke-width="3.0" stroke-linejoin="round" stroke-linecap="butt" d="m7.9081364 7.3333335l226.77165 0l0 170.07875l-226.77165 0z" fill-rule="evenodd"/><path fill="#000000" fill-opacity="0.0" d="m306.80054 7.60105l226.77167 0l0 170.07875l-226.77167 0z" fill-rule="evenodd"/><path stroke="#000000" stroke-width="3.0" stroke-linejoin="round" stroke-linecap="butt" d="m306.80054 7.60105l226.77167 0l0 170.07875l-226.77167 0z" fill-rule="evenodd"/></g></svg>