<svg version="1.1" viewBox="0.0 0.0 241.0 186.0" fill="none" stroke="none" stroke-linecap="square" stroke-miterlimit="10" xmlns:xlink="http://www.w3.org/1999/xlink" xmlns="http://www.w3.org/2000/svg"><clipPath id="p.0"><path d="m0 0l241.0 0l0 186.0l-241.0 0l0 -186.0z" clip-rule="nonzero"/></clipPath><g clip-path="url(#p.0)"><path fill="#000000" fill-opacity="0.0" d="m0 0l241.0 0l0 186.0l-241.0 0z" fill-rule="evenodd"/><path fill="#000000" fill-opacity="0.0" d="m7.4199476 8.362205l56.692913 0l0 56.69291l-56.692913 0z" fill-rule="evenodd"/><path stroke="#000000" stroke-width="2.0" stroke-linejoin="round" stroke-linecap="butt" d="m7.4199476 8.362205l56.692913 0l0 56.69291l-56.692913 0z" fill-rule="evenodd"/><path fill="#000000" fill-opacity="0.0" d="m177.49869 8.362205l56.692917 0l0 56.69291l-56.692917 0z" fill-rule="evenodd"/><path stroke="#000000" stroke-width="2.0" stroke-linejoin="round" stroke-linecap="butt" d="m177.49869 8.362205l56.692917 0l0 56.69291l-56.692917 0z" fill-rule="evenodd"/><path fill="#000000" fill-opacity="0.0" d="m120.80577 8.362205l56.692917 0l0 56.69291l-56.692917 0z" fill-rule="evenodd"/><path stroke="#000000" stroke-width="2.0" stroke-linejoin="round" stroke-linecap="butt" d="m120.80577 8.362205l56.692917 0l0 56.69291l-56.692917 0z" fill-rule="evenodd"/><path fill="#000000" fill-opacity="0.0" d="m64.11286 8.362205l56.69291 0l0 56.69291l-56.69291 0z" fill-rule="evenodd"/><path stroke="#000000" stroke-width="2.0" stroke-linejoin="round" stroke-linecap="butt" d="m64.11286 8.362205l56.69291 0l0 56.69291l-56.69291 0z" fill-rule="evenodd"/><path fill="#000000" fill-opacity="0.0" d="m7.4199476 65.055115l56.692913 0l0 56.692917l-56.692913 0z" fill-rule="evenodd"/><path stroke="#000000" stroke-width="2.0" stroke-linejoin="round" stroke-linecap="butt" d="m7.4199476 65.055115l56.692913 0l0 56.692917l-56.692913 0z" fill-rule="evenodd"/><path fill="#000000" fill-opacity="0.0" d="m177.49869 65.055115l56.692917 0l0 56.692917l-56.692917 0z" fill-rule="evenodd"/><path stroke="#000000" stroke-width="2.0" stroke-linejoin="round" stroke-linecap="butt" d="m177.49869 65.055115l56.692917 0l0 56.692917l-56.692917 0z" fill-rule="evenodd"/><path fill="#000000" fill-opacity="0.0" d="m120.80577 65.055115l56.692917 0l0 56.692917l-56.692917 0z" fill-rule="evenodd"/><path stroke="#000000" stroke-width="2.0" stroke-linejoin="round" stroke-linecap="butt" d="m120.80577 65.055115l56.692917 0l0 56.692917l-56.692917 0z" fill-rule="evenodd"/><path fill="#000000" fill-opacity="0.0" d="m64.11286 65.055115l56.69291 0l0 56.692917l-56.69291 0z" fill-rule="evenodd"/><path stroke="#000000" stroke-width="2.0" stroke-linejoin="round" stroke-linecap="butt" d="m64.11286 65.055115l56.69291 0l0 56.692917l-56.69291 0z" fill-rule="evenodd"/><path fill="#000000" fill-opacity="0.0" d="m7.4199476 121.74803l56.692913 0l0 56.692917l-56.692913 0z" fill-rule="evenodd"/><path stroke="#000000" stroke-width="2.0" stroke-linejoin="round" stroke-linecap="butt" d="m7.4199476 121.74803l56.692913 0l0 56.692917l-56.692913 0z" fill-rule="evenodd"/><path fill="#000000" d="m37.53167 157.01448l-1.640625 0l0 -10.453125q-0.59375 0.5625 -1.5625 1.140625q-0.953125 0.5625 -1.71875 0.84375l0 -1.59375q1.375 -0.640625 2.40625 -1.5625q1.03125 -0.921875 1.453125 -1.78125l1.0625 0l0 13.40625z" fill-rule="nonzero"/><path fill="#000000" fill-opacity="0.0" d="m177.49869 121.74803l56.692917 0l0 56.692917l-56.692917 0z" fill-rule="evenodd"/><path stroke="#000000" stroke-width="2.0" stroke-linejoin="round" stroke-linecap="butt" d="m177.49869 121.74803l56.692917 0l0 56.692917l-56.692917 0z" fill-rule="evenodd"/><path fill="#000000" fill-opacity="0.0" d="m120.80577 121.74803l56.692917 0l0 56.692917l-56.692917 0z" fill-rule="evenodd"/><path stroke="#000000" stroke-width="2.0" stroke-linejoin="round" stroke-linecap="butt" d="m120.80577 121.74803l56.692917 0l0 56.692917l-56.692917 0z" fill-rule="evenodd"/><path fill="#000000" fill-opacity="0.0" d="m64.11286 121.74803l56.69291 0l0 56.692917l-56.69291 0z" fill-rule="evenodd"/><path stroke="#000000" stroke-width="2.0" stroke-linejoin="round" stroke-linecap="butt" d="m64.11286 121.74803l56.69291 0l0 56.692917l-56.69291 0z" fill-rule="evenodd"/><path fill="#000000" fill-opacity="0.0" d="m7.4199476 8.362205l226.77165 0l0 170.07875l-226.77165 0z" fill-rule="evenodd"/><path stroke="#000000" stroke-width="3.0" stroke-linejoin="round" stroke-linecap="butt" d="m7.4199476 8.362205l226.77165 0l0 170.07875l-226.77165 0z" fill-rule="evenodd"/></g></svg>