<svg version="1.1" viewBox="0.0 0.0 398.1653543307087 398.3333333333333" fill="none" stroke="none" stroke-linecap="square" stroke-miterlimit="10" xmlns:xlink="http://www.w3.org/1999/xlink" xmlns="http://www.w3.org/2000/svg"><clipPath id="p.0"><path d="m0 0l398.16534 0l0 398.33334l-398.16534 0l0 -398.33334z" clip-rule="nonzero"/></clipPath><g clip-path="url(#p.0)"><path fill="#000000" fill-opacity="0.0" d="m0 0l398.16534 0l0 398.33334l-398.16534 0z" fill-rule="evenodd"/><path fill="#000000" fill-opacity="0.0" d="m103.47769 259.2152l0 -254.33069" fill-rule="evenodd"/><path stroke="#000000" stroke-width="2.0" stroke-linejoin="round" stroke-linecap="butt" d="m103.47769 259.2152l0 -242.33069" fill-rule="evenodd"/><path fill="#000000" stroke="#000000" stroke-width="2.0" stroke-linecap="butt" d="m106.78116 16.884514l-3.3034668 -9.076195l-3.3034668 9.076195z" fill-rule="evenodd"/><path fill="#000000" fill-opacity="0.0" d="m103.47769 259.2152l279.68503 0.62994385" fill-rule="evenodd"/><path stroke="#000000" stroke-width="2.0" stroke-linejoin="round" stroke-linecap="butt" d="m103.47769 259.2152l267.6851 0.6029053" fill-rule="evenodd"/><path fill="#000000" stroke="#000000" stroke-width="2.0" stroke-linecap="butt" d="m371.15533 263.12158l9.083588 -3.28302l-9.068726 -3.3239136z" fill-rule="evenodd"/><path fill="#000000" fill-opacity="0.0" d="m103.47769 259.2152l-98.17323 124.8819" fill-rule="evenodd"/><path stroke="#000000" stroke-width="2.0" stroke-linejoin="round" stroke-linecap="butt" d="m103.47769 259.2152l-90.75696 115.44797" fill-rule="evenodd"/><path fill="#000000" stroke="#000000" stroke-width="2.0" stroke-linecap="butt" d="m10.123685 372.62158l-3.0122447 9.176941l8.206348 -5.0937195z" fill-rule="evenodd"/><path fill="#000000" fill-opacity="0.0" d="m104.78215 259.21783l192.40944 -122.61417" fill-rule="evenodd"/><path stroke="#000000" stroke-width="2.0" stroke-linejoin="round" stroke-linecap="butt" d="m104.78215 259.21783l182.28963 -116.16522" fill-rule="evenodd"/><path fill="#000000" stroke="#000000" stroke-width="2.0" stroke-linecap="butt" d="m288.84708 145.83849l5.8788147 -7.6635284l-9.429443 2.0917816z" fill-rule="evenodd"/><path fill="#000000" fill-opacity="0.0" d="m291.99475 112.66404l98.17322 0l0 38.77166l-98.17322 0z" fill-rule="evenodd"/><path fill="#000000" d="m307.526 131.14905l2.28125 3.390625q0.9375 1.40625 1.390625 1.78125q0.46875 0.375 1.171875 0.40625l0 0.296875l-4.546875 0l0 -0.296875q0.453125 0 0.671875 -0.09375q0.15625 -0.0625 0.265625 -0.203125q0.109375 -0.15625 0.109375 -0.296875q0 -0.1875 -0.078125 -0.359375q-0.046875 -0.140625 -0.421875 -0.6875l-1.796875 -2.71875l-2.21875 2.84375q-0.359375 0.453125 -0.4375 0.609375q-0.0625 0.140625 -0.0625 0.3125q0 0.25 0.203125 0.421875q0.21875 0.15625 0.8125 0.171875l0 0.296875l-3.75 0l0 -0.296875q0.390625 -0.03125 0.6875 -0.15625q0.484375 -0.203125 0.921875 -0.546875q0.4375 -0.34375 1.0 -1.0625l2.5 -3.15625l-2.09375 -3.046875q-0.84375 -1.2500076 -1.4375 -1.6250076q-0.59375 -0.390625 -1.375 -0.421875l0 -0.28125l4.90625 0l0 0.28125q-0.625 0.03125 -0.859375 0.21875q-0.234375 0.171875 -0.234375 0.390625q0 0.28125 0.375 0.8437576l1.625 2.421875l1.890625 -2.375q0.328125 -0.42188263 0.390625 -0.5781326q0.078125 -0.15625 0.078125 -0.328125q0 -0.15625 -0.09375 -0.28125q-0.109375 -0.171875 -0.296875 -0.234375q-0.171875 -0.0625 -0.734375 -0.078125l0 -0.28125l3.75 0l0 0.28125q-0.4375 0.03125 -0.71875 0.140625q-0.421875 0.1875 -0.78125 0.5q-0.34375 0.296875 -0.984375 1.1093826l-2.109375 2.6875zm13.9921875 9.015625l0 0.28125q-1.171875 -0.59375 -1.96875 -1.390625q-1.125 -1.125 -1.734375 -2.671875q-0.609375 -1.546875 -0.609375 -3.203125q0 -2.421875 1.1875 -4.40625q1.203125 -2.0000076 3.125 -2.8593826l0 0.328125q-0.953125 0.53125 -1.578125 1.453125q-0.609375 0.9218826 -0.921875 2.3437576q-0.296875 1.40625 -0.296875 2.9375q0 1.671875 0.25 3.046875q0.203125 1.078125 0.484375 1.734375q0.296875 0.65625 0.78125 1.25q0.5 0.609375 1.28125 1.15625z" fill-rule="nonzero"/><path fill="#000000" d="m324.6588 129.94592q0.375 0.40625 0.578125 0.8125q0.140625 0.28125 0.453125 1.484375l0.6875 -1.03125q0.28125 -0.375 0.671875 -0.71875q0.390625 -0.34375 0.6875 -0.46875q0.1875 -0.078125 0.40625 -0.078125q0.34375 0 0.53125 0.1875q0.203125 0.171875 0.203125 0.4375q0 0.296875 -0.109375 0.40625q-0.21875 0.1875 -0.5 0.1875q-0.171875 0 -0.359375 -0.0625q-0.359375 -0.125 -0.484375 -0.125q-0.1875 0 -0.453125 0.21875q-0.484375 0.40625 -1.15625 1.5625l0.640625 2.6875q0.15625 0.625 0.25 0.75q0.109375 0.109375 0.203125 0.109375q0.171875 0 0.390625 -0.171875q0.421875 -0.359375 0.734375 -0.9375l0.265625 0.140625q-0.484375 0.921875 -1.25 1.53125q-0.421875 0.34375 -0.71875 0.34375q-0.4375 0 -0.703125 -0.5q-0.15625 -0.296875 -0.671875 -2.625q-1.21875 2.125 -1.953125 2.734375q-0.484375 0.390625 -0.921875 0.390625q-0.328125 0 -0.578125 -0.234375q-0.1875 -0.171875 -0.1875 -0.453125q0 -0.265625 0.171875 -0.4375q0.171875 -0.171875 0.421875 -0.171875q0.25 0 0.53125 0.25q0.203125 0.1875 0.3125 0.1875q0.09375 0 0.25 -0.125q0.359375 -0.296875 0.984375 -1.28125q0.640625 -0.984375 0.84375 -1.421875q-0.484375 -1.90625 -0.53125 -2.015625q-0.171875 -0.5 -0.46875 -0.703125q-0.28125 -0.21875 -0.84375 -0.21875q-0.1875 0 -0.421875 0.015625l0 -0.28125l2.09375 -0.375z" fill-rule="nonzero"/><path fill="#000000" d="m330.22913 136.66467l1.71875 -0.84375l0.171875 0l0 5.953125q0 0.59375 0.046875 0.75q0.046875 0.140625 0.203125 0.21875q0.15625 0.078125 0.640625 0.09375l0 0.1875l-2.65625 0l0 -0.1875q0.5 -0.015625 0.640625 -0.09375q0.15625 -0.078125 0.203125 -0.203125q0.0625 -0.125 0.0625 -0.765625l0 -3.796875q0 -0.78125 -0.046875 -1.0q-0.046875 -0.15625 -0.140625 -0.234375q-0.09375 -0.078125 -0.234375 -0.078125q-0.1875 0 -0.53125 0.15625l-0.078125 -0.15625z" fill-rule="nonzero"/><path fill="#000000" d="m335.16663 139.69592l0 -0.34375q0.8125 -0.265625 1.25 -0.828125q0.4375 -0.5625 0.4375 -1.1875q0 -0.140625 -0.0625 -0.25q-0.0625 -0.078125 -0.109375 -0.078125q-0.09375 0 -0.375 0.171875q-0.140625 0.0625 -0.296875 0.0625q-0.390625 0 -0.625 -0.21875q-0.21875 -0.234375 -0.21875 -0.640625q0 -0.375 0.296875 -0.640625q0.296875 -0.28125 0.71875 -0.28125q0.515625 0 0.90625 0.453125q0.40625 0.4375 0.40625 1.1875q0 0.8125 -0.5625 1.5q-0.546875 0.6875 -1.765625 1.09375z" fill-rule="nonzero"/><path fill="#000000" d="m345.0885 129.94592q0.375 0.40625 0.578125 0.8125q0.140625 0.28125 0.453125 1.484375l0.6875 -1.03125q0.28125 -0.375 0.671875 -0.71875q0.390625 -0.34375 0.6875 -0.46875q0.1875 -0.078125 0.40625 -0.078125q0.34375 0 0.53125 0.1875q0.203125 0.171875 0.203125 0.4375q0 0.296875 -0.109375 0.40625q-0.21875 0.1875 -0.5 0.1875q-0.171875 0 -0.359375 -0.0625q-0.359375 -0.125 -0.484375 -0.125q-0.1875 0 -0.453125 0.21875q-0.484375 0.40625 -1.15625 1.5625l0.640625 2.6875q0.15625 0.625 0.25 0.75q0.109375 0.109375 0.203125 0.109375q0.171875 0 0.390625 -0.171875q0.421875 -0.359375 0.734375 -0.9375l0.265625 0.140625q-0.484375 0.921875 -1.25 1.53125q-0.421875 0.34375 -0.71875 0.34375q-0.4375 0 -0.703125 -0.5q-0.15625 -0.296875 -0.671875 -2.625q-1.21875 2.125 -1.953125 2.734375q-0.484375 0.390625 -0.921875 0.390625q-0.328125 0 -0.578125 -0.234375q-0.1875 -0.171875 -0.1875 -0.453125q0 -0.265625 0.171875 -0.4375q0.171875 -0.171875 0.421875 -0.171875q0.25 0 0.53125 0.25q0.203125 0.1875 0.3125 0.1875q0.09375 0 0.25 -0.125q0.359375 -0.296875 0.984375 -1.28125q0.640625 -0.984375 0.84375 -1.421875q-0.484375 -1.90625 -0.53125 -2.015625q-0.171875 -0.5 -0.46875 -0.703125q-0.28125 -0.21875 -0.84375 -0.21875q-0.1875 0 -0.421875 0.015625l0 -0.28125l2.09375 -0.375z" fill-rule="nonzero"/><path fill="#000000" d="m354.29944 141.66467l-0.5 1.359375l-4.15625 0l0 -0.1875q1.828125 -1.6875 2.578125 -2.734375q0.75 -1.0625 0.75 -1.953125q0 -0.671875 -0.421875 -1.09375q-0.40625 -0.4375 -0.96875 -0.4375q-0.515625 0 -0.9375 0.3125q-0.40625 0.296875 -0.609375 0.890625l-0.1875 0q0.125 -0.96875 0.65625 -1.484375q0.546875 -0.515625 1.359375 -0.515625q0.84375 0 1.421875 0.5625q0.578125 0.546875 0.578125 1.296875q0 0.53125 -0.25 1.0625q-0.390625 0.84375 -1.25 1.78125q-1.296875 1.421875 -1.609375 1.71875l1.828125 0q0.5625 0 0.78125 -0.046875q0.234375 -0.046875 0.421875 -0.171875q0.1875 -0.125 0.3125 -0.359375l0.203125 0z" fill-rule="nonzero"/><path fill="#000000" d="m355.5963 139.69592l0 -0.34375q0.8125 -0.265625 1.25 -0.828125q0.4375 -0.5625 0.4375 -1.1875q0 -0.140625 -0.0625 -0.25q-0.0625 -0.078125 -0.109375 -0.078125q-0.09375 0 -0.375 0.171875q-0.140625 0.0625 -0.296875 0.0625q-0.390625 0 -0.625 -0.21875q-0.21875 -0.234375 -0.21875 -0.640625q0 -0.375 0.296875 -0.640625q0.296875 -0.28125 0.71875 -0.28125q0.515625 0 0.90625 0.453125q0.40625 0.4375 0.40625 1.1875q0 0.8125 -0.5625 1.5q-0.546875 0.6875 -1.765625 1.09375z" fill-rule="nonzero"/><path fill="#000000" d="m365.5182 129.94592q0.375 0.40625 0.578125 0.8125q0.140625 0.28125 0.453125 1.484375l0.6875 -1.03125q0.28125 -0.375 0.671875 -0.71875q0.390625 -0.34375 0.6875 -0.46875q0.1875 -0.078125 0.40625 -0.078125q0.34375 0 0.53125 0.1875q0.203125 0.171875 0.203125 0.4375q0 0.296875 -0.109375 0.40625q-0.21875 0.1875 -0.5 0.1875q-0.171875 0 -0.359375 -0.0625q-0.359375 -0.125 -0.484375 -0.125q-0.1875 0 -0.453125 0.21875q-0.484375 0.40625 -1.15625 1.5625l0.640625 2.6875q0.15625 0.625 0.25 0.75q0.109375 0.109375 0.203125 0.109375q0.171875 0 0.390625 -0.171875q0.421875 -0.359375 0.734375 -0.9375l0.265625 0.140625q-0.484375 0.921875 -1.25 1.53125q-0.421875 0.34375 -0.71875 0.34375q-0.4375 0 -0.703125 -0.5q-0.15625 -0.296875 -0.671875 -2.625q-1.21875 2.125 -1.953125 2.734375q-0.484375 0.390625 -0.921875 0.390625q-0.328125 0 -0.578125 -0.234375q-0.1875 -0.171875 -0.1875 -0.453125q0 -0.265625 0.171875 -0.4375q0.171875 -0.171875 0.421875 -0.171875q0.25 0 0.53125 0.25q0.203125 0.1875 0.3125 0.1875q0.09375 0 0.25 -0.125q0.359375 -0.296875 0.984375 -1.28125q0.640625 -0.984375 0.84375 -1.421875q-0.484375 -1.90625 -0.53125 -2.015625q-0.171875 -0.5 -0.46875 -0.703125q-0.28125 -0.21875 -0.84375 -0.21875q-0.1875 0 -0.421875 0.015625l0 -0.28125l2.09375 -0.375z" fill-rule="nonzero"/><path fill="#000000" d="m370.38538 137.3053q0.296875 -0.703125 0.75 -1.09375q0.46875 -0.390625 1.15625 -0.390625q0.84375 0 1.296875 0.546875q0.34375 0.421875 0.34375 0.890625q0 0.765625 -0.96875 1.59375q0.65625 0.25 0.984375 0.734375q0.328125 0.46875 0.328125 1.09375q0 0.921875 -0.578125 1.59375q-0.765625 0.875 -2.203125 0.875q-0.703125 0 -0.96875 -0.171875q-0.25 -0.1875 -0.25 -0.390625q0 -0.140625 0.109375 -0.25q0.125 -0.125 0.296875 -0.125q0.140625 0 0.265625 0.046875q0.09375 0.015625 0.40625 0.1875q0.3125 0.15625 0.4375 0.1875q0.1875 0.0625 0.40625 0.0625q0.53125 0 0.921875 -0.40625q0.390625 -0.421875 0.390625 -0.984375q0 -0.40625 -0.1875 -0.796875q-0.125 -0.28125 -0.296875 -0.4375q-0.21875 -0.203125 -0.609375 -0.375q-0.390625 -0.171875 -0.796875 -0.171875l-0.15625 0l0 -0.15625q0.40625 -0.046875 0.8125 -0.296875q0.421875 -0.25 0.609375 -0.59375q0.1875 -0.34375 0.1875 -0.75q0 -0.53125 -0.34375 -0.859375q-0.328125 -0.34375 -0.828125 -0.34375q-0.8125 0 -1.34375 0.875l-0.171875 -0.09375z" fill-rule="nonzero"/><path fill="#000000" d="m375.526 126.24279l0 -0.328125q1.1875 0.578125 1.984375 1.375q1.109375 1.1406326 1.71875 2.6875076q0.609375 1.53125 0.609375 3.1875q0 2.421875 -1.1875 4.421875q-1.1875 2.0 -3.125 2.859375l0 -0.28125q0.96875 -0.546875 1.578125 -1.46875q0.625 -0.90625 0.921875 -2.328125q0.3125 -1.421875 0.3125 -2.96875q0 -1.65625 -0.265625 -3.03125q-0.1875 -1.078125 -0.484375 -1.71875q-0.296875 -0.6562576 -0.78125 -1.2500076q-0.484375 -0.609375 -1.28125 -1.15625z" fill-rule="nonzero"/><path fill="#000000" fill-opacity="0.0" d="m343.16534 260.33334l-48.0 82.99213" fill-rule="evenodd"/><path stroke="#000000" stroke-width="2.0" stroke-linejoin="round" stroke-linecap="butt" stroke-dasharray="2.0,6.0" d="m343.16534 260.33334l-48.0 82.99213" fill-rule="evenodd"/><path fill="#000000" fill-opacity="0.0" d="m295.67978 343.86353l-255.52756 -1.0393677" fill-rule="evenodd"/><path stroke="#000000" stroke-width="2.0" stroke-linejoin="round" stroke-linecap="butt" stroke-dasharray="2.0,6.0" d="m295.67978 343.86353l-255.52756 -1.0393677" fill-rule="evenodd"/><path fill="#000000" fill-opacity="0.0" d="m297.1916 139.83202l-1.5118103 202.01576" fill-rule="evenodd"/><path stroke="#000000" stroke-width="2.0" stroke-linejoin="round" stroke-linecap="butt" stroke-dasharray="2.0,6.0" d="m297.1916 139.83202l-1.5118103 202.01576" fill-rule="evenodd"/><path fill="#000000" fill-opacity="0.0" d="m295.16534 343.83466l-190.99213 -84.0" fill-rule="evenodd"/><path stroke="#000000" stroke-width="2.0" stroke-linejoin="round" stroke-linecap="butt" stroke-dasharray="2.0,6.0" d="m295.16534 343.83466l-190.99213 -84.0" fill-rule="evenodd"/><path fill="#000000" fill-opacity="0.0" d="m106.16798 59.829395l185.82678 72.220474" fill-rule="evenodd"/><path stroke="#000000" stroke-width="2.0" stroke-linejoin="round" stroke-linecap="butt" stroke-dasharray="2.0,6.0" d="m106.16798 59.829395l185.82678 72.220474" fill-rule="evenodd"/><path fill="#000000" fill-opacity="0.0" d="m345.47244 252.2231l0.50393677 15.118118" fill-rule="evenodd"/><path stroke="#000000" stroke-width="2.0" stroke-linejoin="round" stroke-linecap="butt" d="m345.47244 252.2231l0.50393677 15.118118" fill-rule="evenodd"/><path fill="#000000" fill-opacity="0.0" d="m31.666666 342.85565l15.118113 -0.50393677" fill-rule="evenodd"/><path stroke="#000000" stroke-width="2.0" stroke-linejoin="round" stroke-linecap="butt" d="m31.666666 342.85565l15.118113 -0.50393677" fill-rule="evenodd"/><path fill="#000000" fill-opacity="0.0" d="m95.91863 57.82152l15.118111 -0.50393677" fill-rule="evenodd"/><path stroke="#000000" stroke-width="2.0" stroke-linejoin="round" stroke-linecap="butt" d="m95.91863 57.82152l15.118111 -0.50393677" fill-rule="evenodd"/><path fill="#000000" fill-opacity="0.0" d="m67.62467 35.183727l33.16535 0l0 38.771656l-33.16535 0z" fill-rule="evenodd"/><path fill="#000000" d="m79.40592 52.465603q0.375 0.40625 0.578125 0.8125q0.140625 0.28125 0.453125 1.484375l0.6875 -1.03125q0.28125 -0.375 0.671875 -0.71875q0.390625 -0.34375 0.6875 -0.46875q0.1875 -0.078125 0.40625 -0.078125q0.34375 0 0.53125 0.1875q0.203125 0.171875 0.203125 0.4375q0 0.296875 -0.109375 0.40625q-0.21875 0.1875 -0.5 0.1875q-0.171875 0 -0.359375 -0.0625q-0.359375 -0.125 -0.484375 -0.125q-0.1875 0 -0.453125 0.21875q-0.484375 0.40625 -1.15625 1.5625l0.640625 2.6875q0.15625 0.625 0.25 0.75q0.109375 0.109375 0.203125 0.109375q0.171875 0 0.390625 -0.171875q0.421875 -0.359375 0.734375 -0.9375l0.265625 0.140625q-0.484375 0.921875 -1.25 1.53125q-0.421875 0.34375 -0.71875 0.34375q-0.4375 0 -0.703125 -0.5q-0.15625 -0.296875 -0.671875 -2.625q-1.21875 2.125 -1.953125 2.734375q-0.484375 0.390625 -0.921875 0.390625q-0.328125 0 -0.578125 -0.234375q-0.1875 -0.171875 -0.1875 -0.453125q0 -0.265625 0.171875 -0.4375q0.171875 -0.171875 0.421875 -0.171875q0.25 0 0.53125 0.25q0.203125 0.1875 0.3125 0.1875q0.09375 0 0.25 -0.125q0.359375 -0.296875 0.984375 -1.28125q0.640625 -0.984375 0.84375 -1.421875q-0.484375 -1.90625 -0.53125 -2.015625q-0.171875 -0.5 -0.46875 -0.703125q-0.28125 -0.21875 -0.84375 -0.21875q-0.1875 0 -0.421875 0.015625l0 -0.28125l2.09375 -0.375z" fill-rule="nonzero"/><path fill="#000000" d="m84.27311 59.824978q0.296875 -0.703125 0.75 -1.09375q0.46875 -0.390625 1.15625 -0.390625q0.84375 0 1.296875 0.546875q0.34375 0.421875 0.34375 0.890625q0 0.765625 -0.96875 1.59375q0.65625 0.25 0.984375 0.734375q0.328125 0.46875 0.328125 1.09375q0 0.9218712 -0.578125 1.5937462q-0.765625 0.875 -2.203125 0.875q-0.703125 0 -0.96875 -0.171875q-0.25 -0.1875 -0.25 -0.390625q0 -0.140625 0.109375 -0.25q0.125 -0.125 0.296875 -0.125q0.140625 0 0.265625 0.046875q0.09375 0.015625 0.40625 0.1875q0.3125 0.15625 0.4375 0.1875q0.1875 0.0625 0.40625 0.0625q0.53125 0 0.921875 -0.40625q0.390625 -0.421875 0.390625 -0.9843712q0 -0.40625 -0.1875 -0.796875q-0.125 -0.28125 -0.296875 -0.4375q-0.21875 -0.203125 -0.609375 -0.375q-0.390625 -0.171875 -0.796875 -0.171875l-0.15625 0l0 -0.15625q0.40625 -0.046875 0.8125 -0.296875q0.421875 -0.25 0.609375 -0.59375q0.1875 -0.34375 0.1875 -0.75q0 -0.53125 -0.34375 -0.859375q-0.328125 -0.34375 -0.828125 -0.34375q-0.8125 0 -1.34375 0.875l-0.171875 -0.09375z" fill-rule="nonzero"/><path fill="#000000" fill-opacity="0.0" d="m337.99475 216.7769l33.165344 0l0 38.771652l-33.165344 0z" fill-rule="evenodd"/><path fill="#000000" d="m349.776 234.05878q0.375 0.40625 0.578125 0.8125q0.140625 0.28125 0.453125 1.484375l0.6875 -1.03125q0.28125 -0.375 0.671875 -0.71875q0.390625 -0.34375 0.6875 -0.46875q0.1875 -0.078125 0.40625 -0.078125q0.34375 0 0.53125 0.1875q0.203125 0.171875 0.203125 0.4375q0 0.296875 -0.109375 0.40625q-0.21875 0.1875 -0.5 0.1875q-0.171875 0 -0.359375 -0.0625q-0.359375 -0.125 -0.484375 -0.125q-0.1875 0 -0.453125 0.21875q-0.484375 0.40625 -1.15625 1.5625l0.640625 2.6875q0.15625 0.625 0.25 0.75q0.109375 0.109375 0.203125 0.109375q0.171875 0 0.390625 -0.171875q0.421875 -0.359375 0.734375 -0.9375l0.265625 0.140625q-0.484375 0.921875 -1.25 1.53125q-0.421875 0.34375 -0.71875 0.34375q-0.4375 0 -0.703125 -0.5q-0.15625 -0.296875 -0.671875 -2.625q-1.21875 2.125 -1.953125 2.734375q-0.484375 0.390625 -0.921875 0.390625q-0.328125 0 -0.578125 -0.234375q-0.1875 -0.171875 -0.1875 -0.453125q0 -0.265625 0.171875 -0.4375q0.171875 -0.171875 0.421875 -0.171875q0.25 0 0.53125 0.25q0.203125 0.1875 0.3125 0.1875q0.09375 0 0.25 -0.125q0.359375 -0.296875 0.984375 -1.28125q0.640625 -0.984375 0.84375 -1.421875q-0.484375 -1.90625 -0.53125 -2.015625q-0.171875 -0.5 -0.46875 -0.703125q-0.28125 -0.21875 -0.84375 -0.21875q-0.1875 0 -0.421875 0.015625l0 -0.28125l2.09375 -0.375z" fill-rule="nonzero"/><path fill="#000000" d="m358.98694 245.77753l-0.5 1.359375l-4.15625 0l0 -0.1875q1.828125 -1.6875 2.578125 -2.734375q0.75 -1.0625 0.75 -1.953125q0 -0.671875 -0.421875 -1.09375q-0.40625 -0.4375 -0.96875 -0.4375q-0.515625 0 -0.9375 0.3125q-0.40625 0.296875 -0.609375 0.890625l-0.1875 0q0.125 -0.96875 0.65625 -1.484375q0.546875 -0.515625 1.359375 -0.515625q0.84375 0 1.421875 0.5625q0.578125 0.546875 0.578125 1.296875q0 0.53125 -0.25 1.0625q-0.390625 0.84375 -1.25 1.78125q-1.296875 1.421875 -1.609375 1.71875l1.828125 0q0.5625 0 0.78125 -0.046875q0.234375 -0.046875 0.421875 -0.171875q0.1875 -0.125 0.3125 -0.359375l0.203125 0z" fill-rule="nonzero"/><path fill="#000000" fill-opacity="0.0" d="m5.304462 316.71652l33.165356 0l0 38.771667l-33.165356 0z" fill-rule="evenodd"/><path fill="#000000" d="m17.085712 333.9984q0.375 0.40625 0.578125 0.8125q0.140625 0.28125 0.453125 1.484375l0.6875 -1.03125q0.28125 -0.375 0.671875 -0.71875q0.390625 -0.34375 0.6875 -0.46875q0.1875 -0.078125 0.40625 -0.078125q0.34375 0 0.53125 0.1875q0.203125 0.171875 0.203125 0.4375q0 0.296875 -0.109375 0.40625q-0.21875 0.1875 -0.5 0.1875q-0.171875 0 -0.359375 -0.0625q-0.359375 -0.125 -0.484375 -0.125q-0.1875 0 -0.453125 0.21875q-0.484375 0.40625 -1.15625 1.5625l0.640625 2.6875q0.15625 0.625 0.25 0.75q0.109375 0.109375 0.203125 0.109375q0.171875 0 0.390625 -0.171875q0.421875 -0.359375 0.734375 -0.9375l0.265625 0.140625q-0.484375 0.921875 -1.25 1.53125q-0.421875 0.34375 -0.71875 0.34375q-0.4375 0 -0.703125 -0.5q-0.15625 -0.296875 -0.671875 -2.625q-1.21875 2.125 -1.953126 2.734375q-0.484375 0.390625 -0.921875 0.390625q-0.328125 0 -0.578125 -0.234375q-0.1875 -0.171875 -0.1875 -0.453125q0 -0.265625 0.171875 -0.4375q0.171875 -0.171875 0.421875 -0.171875q0.25 0 0.53125 0.25q0.203125 0.1875 0.3125 0.1875q0.09375 0 0.25 -0.125q0.359375 -0.296875 0.98437595 -1.28125q0.640625 -0.984375 0.84375 -1.421875q-0.484375 -1.90625 -0.53125 -2.015625q-0.171875 -0.5 -0.46875 -0.703125q-0.28125095 -0.21875 -0.84375095 -0.21875q-0.1875 0 -0.421875 0.015625l0 -0.28125l2.093751 -0.375z" fill-rule="nonzero"/><path fill="#000000" d="m22.656025 340.71716l1.71875 -0.84375l0.171875 0l0 5.953125q0 0.59375 0.046875 0.75q0.046875 0.140625 0.203125 0.21875q0.15625 0.078125 0.640625 0.09375l0 0.1875l-2.65625 0l0 -0.1875q0.5 -0.015625 0.640625 -0.09375q0.15625 -0.078125 0.203125 -0.203125q0.0625 -0.125 0.0625 -0.765625l0 -3.796875q0 -0.78125 -0.046875 -1.0q-0.046875 -0.15625 -0.140625 -0.234375q-0.09375 -0.078125 -0.234375 -0.078125q-0.1875 0 -0.53125 0.15625l-0.078125 -0.15625z" fill-rule="nonzero"/></g></svg>